<?xml version="1.0" encoding="utf-8"?>
<!-- Generator: Adobe Illustrator 16.0.0, SVG Export Plug-In . SVG Version: 6.00 Build 0)  -->
<!DOCTYPE svg PUBLIC "-//W3C//DTD SVG 1.1//EN" "http://www.w3.org/Graphics/SVG/1.1/DTD/svg11.dtd">
<svg version="1.1" id="图层_1" xmlns="http://www.w3.org/2000/svg" xmlns:xlink="http://www.w3.org/1999/xlink" x="0px" y="0px"
	 width="510px" height="337px" viewBox="38.5 -330.5 510 337" enable-background="new 38.5 -330.5 510 337" xml:space="preserve">
<ellipse fill="#245EBE" cx="286.614" cy="-82.287" rx="161.345" ry="47.666"/>
<ellipse opacity="0.3" fill="#2A99DD" cx="286.614" cy="-107.686" rx="169.137" ry="49.969"/>
<linearGradient id="SVGID_1_" gradientUnits="userSpaceOnUse" x1="49.4209" y1="-162" x2="523.8066" y2="-162">
	<stop  offset="0" style="stop-color:#3EA8F2"/>
	<stop  offset="1" style="stop-color:#22E0E7"/>
</linearGradient>
<path fill="none" stroke="url(#SVGID_1_)" stroke-width="3" stroke-miterlimit="10" d="M384.08-298.966
	C354.375-312.475,321.373-320,286.613-320C156.443-320,50.921-214.477,50.921-84.307c0,0,0,0,0,0.002
	C50.922-45.9,156.443-4,286.613-4c130.168,0,235.692-41.9,235.692-80.305v-0.002h0.001c0-9.145-0.521-18.166-1.533-27.037"/>
<linearGradient id="SVGID_2_" gradientUnits="userSpaceOnUse" x1="117.251" y1="-167.3828" x2="455.9761" y2="-167.3828">
	<stop  offset="0" style="stop-color:#3EA8F2"/>
	<stop  offset="1" style="stop-color:#22E0E7"/>
</linearGradient>
<path opacity="0.3" fill="url(#SVGID_2_)" d="M455.977-107.688c0-93.535-75.826-169.362-169.363-169.362
	c-93.536,0-169.362,75.827-169.362,169.362c0,0,0,0,0,0.002c0.001,27.596,75.826,49.969,169.362,49.969
	c93.535,0,169.362-22.373,169.362-49.969L455.977-107.688L455.977-107.688z"/>
<g>
	<linearGradient id="SVGID_3_" gradientUnits="userSpaceOnUse" x1="167.2119" y1="-155.6348" x2="224.3164" y2="-155.6348">
		<stop  offset="0" style="stop-color:#3EA8F2"/>
		<stop  offset="1" style="stop-color:#22E0E7"/>
	</linearGradient>
	<polygon fill="none" stroke="url(#SVGID_3_)" stroke-miterlimit="10" points="167.971,-179.6 200.451,-120.145 223.573,-191.713 	
		"/>
	<linearGradient id="SVGID_4_" gradientUnits="userSpaceOnUse" x1="167.2168" y1="-107.8887" x2="221.9321" y2="-107.8887">
		<stop  offset="0" style="stop-color:#3EA8F2"/>
		<stop  offset="1" style="stop-color:#22E0E7"/>
	</linearGradient>
	<polygon fill="none" stroke="url(#SVGID_4_)" stroke-miterlimit="10" points="221.188,-143.633 167.971,-126.477 200.451,-72.615 	
		"/>
	<linearGradient id="SVGID_5_" gradientUnits="userSpaceOnUse" x1="350.8809" y1="-142.9492" x2="417.6558" y2="-142.9492">
		<stop  offset="0" style="stop-color:#3EA8F2"/>
		<stop  offset="1" style="stop-color:#22E0E7"/>
	</linearGradient>
	<polyline fill="none" stroke="url(#SVGID_5_)" stroke-miterlimit="10" points="351.006,-143.271 417.156,-126.207 
		417.156,-160.338 	"/>
	<linearGradient id="SVGID_6_" gradientUnits="userSpaceOnUse" x1="200.375" y1="-131.9219" x2="418.0181" y2="-131.9219">
		<stop  offset="0" style="stop-color:#3EA8F2"/>
		<stop  offset="1" style="stop-color:#22E0E7"/>
	</linearGradient>
	<polyline fill="none" stroke="url(#SVGID_6_)" stroke-miterlimit="10" points="200.451,-72.615 375.754,-72.258 377.237,-116.297 
		351.006,-185.662 417.156,-160.338 377.237,-116.297 200.451,-120.145 288.478,-133.906 223.573,-191.713 	"/>
	<linearGradient id="SVGID_7_" gradientUnits="userSpaceOnUse" x1="350.5059" y1="-164.4668" x2="351.5059" y2="-164.4668">
		<stop  offset="0" style="stop-color:#3EA8F2"/>
		<stop  offset="1" style="stop-color:#22E0E7"/>
	</linearGradient>
	<line fill="none" stroke="url(#SVGID_7_)" stroke-miterlimit="10" x1="351.006" y1="-185.662" x2="351.006" y2="-143.271"/>
	<linearGradient id="SVGID_8_" gradientUnits="userSpaceOnUse" x1="288.1582" y1="-159.7852" x2="351.3247" y2="-159.7852">
		<stop  offset="0" style="stop-color:#3EA8F2"/>
		<stop  offset="1" style="stop-color:#22E0E7"/>
	</linearGradient>
	<line fill="none" stroke="url(#SVGID_8_)" stroke-miterlimit="10" x1="351.006" y1="-185.662" x2="288.478" y2="-133.906"/>
	<linearGradient id="SVGID_9_" gradientUnits="userSpaceOnUse" x1="288.3809" y1="-125.1016" x2="377.335" y2="-125.1016">
		<stop  offset="0" style="stop-color:#3EA8F2"/>
		<stop  offset="1" style="stop-color:#22E0E7"/>
	</linearGradient>
	<line fill="none" stroke="url(#SVGID_9_)" stroke-miterlimit="10" x1="288.478" y1="-133.906" x2="377.237" y2="-116.297"/>
	<linearGradient id="SVGID_10_" gradientUnits="userSpaceOnUse" x1="287.9775" y1="-114.457" x2="288.9775" y2="-114.457">
		<stop  offset="0" style="stop-color:#3EA8F2"/>
		<stop  offset="1" style="stop-color:#22E0E7"/>
	</linearGradient>
	<line fill="none" stroke="url(#SVGID_10_)" stroke-miterlimit="10" x1="288.478" y1="-133.906" x2="288.478" y2="-95.006"/>
	<linearGradient id="SVGID_11_" gradientUnits="userSpaceOnUse" x1="288.1719" y1="-119.1387" x2="351.312" y2="-119.1387">
		<stop  offset="0" style="stop-color:#3EA8F2"/>
		<stop  offset="1" style="stop-color:#22E0E7"/>
	</linearGradient>
	<line fill="none" stroke="url(#SVGID_11_)" stroke-miterlimit="10" x1="288.478" y1="-95.006" x2="351.006" y2="-143.271"/>
	<linearGradient id="SVGID_12_" gradientUnits="userSpaceOnUse" x1="220.8945" y1="-119.3203" x2="288.77" y2="-119.3203">
		<stop  offset="0" style="stop-color:#3EA8F2"/>
		<stop  offset="1" style="stop-color:#22E0E7"/>
	</linearGradient>
	<line fill="none" stroke="url(#SVGID_12_)" stroke-miterlimit="10" x1="288.478" y1="-95.006" x2="221.188" y2="-143.633"/>
	<linearGradient id="SVGID_13_" gradientUnits="userSpaceOnUse" x1="220.6885" y1="-167.6719" x2="224.0728" y2="-167.6719">
		<stop  offset="0" style="stop-color:#3EA8F2"/>
		<stop  offset="1" style="stop-color:#22E0E7"/>
	</linearGradient>
	<line fill="none" stroke="url(#SVGID_13_)" stroke-miterlimit="10" x1="223.573" y1="-191.713" x2="221.188" y2="-143.633"/>
	<linearGradient id="SVGID_14_" gradientUnits="userSpaceOnUse" x1="167.4707" y1="-153.0371" x2="168.4707" y2="-153.0371">
		<stop  offset="0" style="stop-color:#3EA8F2"/>
		<stop  offset="1" style="stop-color:#22E0E7"/>
	</linearGradient>
	<line fill="none" stroke="url(#SVGID_14_)" stroke-miterlimit="10" x1="167.971" y1="-179.6" x2="167.971" y2="-126.477"/>
	<linearGradient id="SVGID_15_" gradientUnits="userSpaceOnUse" x1="375.3574" y1="-99.2324" x2="417.5522" y2="-99.2324">
		<stop  offset="0" style="stop-color:#3EA8F2"/>
		<stop  offset="1" style="stop-color:#22E0E7"/>
	</linearGradient>
	<line fill="none" stroke="url(#SVGID_15_)" stroke-miterlimit="10" x1="417.156" y1="-126.207" x2="375.754" y2="-72.258"/>
	<linearGradient id="SVGID_16_" gradientUnits="userSpaceOnUse" x1="199.9512" y1="-96.3789" x2="200.9512" y2="-96.3789">
		<stop  offset="0" style="stop-color:#3EA8F2"/>
		<stop  offset="1" style="stop-color:#22E0E7"/>
	</linearGradient>
	<line fill="none" stroke="url(#SVGID_16_)" stroke-miterlimit="10" x1="200.451" y1="-120.145" x2="200.451" y2="-72.615"/>
	<linearGradient id="SVGID_17_" gradientUnits="userSpaceOnUse" x1="200.3281" y1="-83.8105" x2="288.6001" y2="-83.8105">
		<stop  offset="0" style="stop-color:#3EA8F2"/>
		<stop  offset="1" style="stop-color:#22E0E7"/>
	</linearGradient>
	<line fill="none" stroke="url(#SVGID_17_)" stroke-miterlimit="10" x1="288.478" y1="-95.006" x2="200.451" y2="-72.615"/>
	<linearGradient id="SVGID_18_" gradientUnits="userSpaceOnUse" x1="288.3516" y1="-83.6309" x2="375.8804" y2="-83.6309">
		<stop  offset="0" style="stop-color:#3EA8F2"/>
		<stop  offset="1" style="stop-color:#22E0E7"/>
	</linearGradient>
	<line fill="none" stroke="url(#SVGID_18_)" stroke-miterlimit="10" x1="288.478" y1="-95.006" x2="375.754" y2="-72.258"/>
	<linearGradient id="SVGID_19_" gradientUnits="userSpaceOnUse" x1="350.5342" y1="-107.7656" x2="376.2266" y2="-107.7656">
		<stop  offset="0" style="stop-color:#3EA8F2"/>
		<stop  offset="1" style="stop-color:#22E0E7"/>
	</linearGradient>
	<line fill="none" stroke="url(#SVGID_19_)" stroke-miterlimit="10" x1="351.006" y1="-143.271" x2="375.754" y2="-72.258"/>
	<linearGradient id="SVGID_20_" gradientUnits="userSpaceOnUse" x1="221.1865" y1="-143.4531" x2="351.0078" y2="-143.4531">
		<stop  offset="0" style="stop-color:#3EA8F2"/>
		<stop  offset="1" style="stop-color:#22E0E7"/>
	</linearGradient>
	<line fill="none" stroke="url(#SVGID_20_)" stroke-miterlimit="10" x1="221.188" y1="-143.633" x2="351.006" y2="-143.271"/>
	<g>
		<circle fill="#FFD962" cx="377.237" cy="-116.297" r="4.955"/>
		<circle fill="#FFD962" cx="351.007" cy="-185.662" r="4.954"/>
		<circle fill="#FFD962" cx="417.156" cy="-160.338" r="4.955"/>
		<circle fill="#FFD962" cx="223.573" cy="-191.713" r="4.955"/>
		<circle fill="#FFD962" cx="200.451" cy="-120.145" r="4.955"/>
		<circle fill="#FFD962" cx="288.477" cy="-133.906" r="4.955"/>
		<circle fill="#FFD962" cx="167.971" cy="-179.6" r="4.955"/>
	</g>
</g>
<linearGradient id="SVGID_21_" gradientUnits="userSpaceOnUse" x1="128.7188" y1="-223.1094" x2="301.1528" y2="-223.1094">
	<stop  offset="0" style="stop-color:#3EA8F2"/>
	<stop  offset="1" style="stop-color:#22E0E7;stop-opacity:0"/>
</linearGradient>
<path fill="url(#SVGID_21_)" d="M299.791-276.434c0.455,0,0.907,0.013,1.362,0.017c-4.808-0.41-9.669-0.632-14.583-0.632
	c-71.85,0-133.24,44.743-157.852,107.881C159.471-232.654,224.516-276.434,299.791-276.434z"/>
<linearGradient id="SVGID_22_" gradientUnits="userSpaceOnUse" x1="288.9561" y1="-57.7168" x2="288.9561" y2="-242.438">
	<stop  offset="0" style="stop-color:#3EA8F2;stop-opacity:0"/>
	<stop  offset="1" style="stop-color:#22E0E7"/>
</linearGradient>
<path fill="url(#SVGID_22_)" d="M389.203-242.439c33.872,30.968,55.121,75.513,55.121,125.025h-0.002l0,0
	c0,27.598-75.826,49.969-169.361,49.969c-67.535,0-125.83-11.664-153.025-28.535c17.859,21.949,84.806,38.264,164.678,38.264
	c93.535,0,169.362-22.373,169.362-49.969v-0.002h0.001C455.977-162.654,429.781-211.498,389.203-242.439z"/>
<circle fill="#FFD962" cx="433.024" cy="-273.582" r="15.868"/>
<path fill="#E79424" d="M437.3-265.294h0.022v-2.439c-0.711-0.131-1.264-0.379-1.695-0.758c-0.731-0.641-1.088-1.682-1.088-3.183
	v-10.194h-3.121v11.127c0,1.786,0.469,3.061,1.476,4.012C433.902-265.777,435.383-265.294,437.3-265.294"/>
<circle fill="none" stroke="#FFD962" stroke-miterlimit="10" cx="479.986" cy="-223.108" r="19.956"/>
<circle fill="#FFD962" cx="509.566" cy="-153.038" r="26.508"/>
<polygon fill="#E79424" points="487.499,-229.963 487.499,-232.594 472.473,-232.594 472.473,-229.963 476.914,-229.963 
	478.238,-229.963 478.238,-228.639 478.238,-213.621 481.773,-213.621 481.773,-228.639 481.773,-229.963 483.096,-229.963 "/>
<circle fill="#FFD962" cx="390.537" cy="-294.609" r="6.514"/>
<circle opacity="0.3" fill="#E79424" cx="405.085" cy="-269.267" r="4.315"/>
<circle opacity="0.3" fill="#E79424" cx="468.158" cy="-158.252" r="4.315"/>
<circle opacity="0.1" fill="#E79424" cx="441.637" cy="-242.439" r="6.796"/>
<circle opacity="0.1" fill="#E79424" cx="499.946" cy="-107.686" r="6.796"/>
<circle opacity="0.6" fill="#E79424" cx="472.473" cy="-257.714" r="4.314"/>
<circle opacity="0.6" fill="#E79424" cx="479.986" cy="-181.973" r="4.315"/>
<path fill="#E79424" d="M516.406-140.49h0.032v-3.693c-1.077-0.199-1.911-0.572-2.567-1.146c-1.106-0.971-1.646-2.547-1.646-4.82
	v-15.436h-4.726v16.848c0,2.705,0.71,4.635,2.234,6.076C511.261-141.221,513.502-140.49,516.406-140.49"/>
</svg>
