<?xml version="1.0" encoding="utf-8"?>
<!-- Generator: Adobe Illustrator 16.0.0, SVG Export Plug-In . SVG Version: 6.00 Build 0)  -->
<!DOCTYPE svg PUBLIC "-//W3C//DTD SVG 1.1//EN" "http://www.w3.org/Graphics/SVG/1.1/DTD/svg11.dtd">
<svg version="1.1" id="图层_1" xmlns="http://www.w3.org/2000/svg" xmlns:xlink="http://www.w3.org/1999/xlink" x="0px" y="0px"
	 width="38px" height="54px" viewBox="0 0 38 54" enable-background="new 0 0 38 54" xml:space="preserve">
<path fill="#9E1F24" d="M8.989,45.062c0,0,1.646,3.932,4.752,6.509c3.105,2.575,0.217,2.919-2.375,1.888
	c-2.59-1.029-4.698-5.898-4.698-5.898L8.989,45.062z"/>
<path fill="#E62230" d="M36.938,4.377c0,0,0.859-4.43-9.446-4.377C17.189,0.053-12.691,11.213,8.261,50.712
	c0,0-3.093-7.558,14.252-20.438C22.513,30.274,38.313,20.896,36.938,4.377 M11.599,28.523C4.286,37.359,6.79,47.276,6.79,47.276
	s-5.838-12.018,0-22.84c5.84-10.816,10.646-7.899,10.646-6.866C17.437,18.6,18.913,19.685,11.599,28.523"/>
</svg>
