<?xml version="1.0" encoding="utf-8"?>
<!-- Generator: Adobe Illustrator 16.0.0, SVG Export Plug-In . SVG Version: 6.00 Build 0)  -->
<!DOCTYPE svg PUBLIC "-//W3C//DTD SVG 1.1//EN" "http://www.w3.org/Graphics/SVG/1.1/DTD/svg11.dtd">
<svg version="1.1" id="图层_1" xmlns="http://www.w3.org/2000/svg" xmlns:xlink="http://www.w3.org/1999/xlink" x="0px" y="0px"
	 width="88px" height="34px" viewBox="0 0 88 34" enable-background="new 0 0 88 34" xml:space="preserve">
<path fill="#FFFFFF" d="M15.901,33.102V0h7.952v33.102H15.901z M0,33.102V0h7.952v12.891h3.056v6.553H7.952v13.658H0z"/>
<path fill="#FFFFFF" d="M43.349,34c-3.748,0-6.508-1.015-8.434-3.103c-1.939-2.104-2.924-5.246-2.924-9.34V0h7.952v21.531
	c0,4.314,2.74,4.781,3.92,4.781c1.152,0,3.84-0.467,3.84-4.781V0h7.953v21.9c0,3.749-1.091,6.641-3.332,8.837S47.147,34,43.349,34z"
	/>
<path fill="#FFFFFF" d="M76.559,33.102v-6.315h0.352c1.422,0,2.415-0.2,3.125-0.634c0.518-0.312,1.39-1.081,1.39-2.694
	c0-0.755-0.308-3.222-4.272-3.222h-0.594v-6.796c2.785-0.56,3.027-2.664,3.027-3.376c0-0.787-0.305-3.354-4.242-3.354h-3.542v26.392
	h-7.953V0h11.899c9.334,0,10.413,4.389,10.413,7.688c0,2.562-1.142,4.647-3.482,6.376l-2.073,1.526l2.38,1.009
	C86.359,18.029,88,20.515,88,24.2c0,2.866-0.97,5.074-2.963,6.75c-0.957,0.786-1.998,1.347-3.089,1.657
	c-1.153,0.329-2.776,0.495-4.822,0.495H76.559z"/>
</svg>
