<?xml version="1.0" encoding="utf-8"?>
<!-- Generator: Adobe Illustrator 16.0.0, SVG Export Plug-In . SVG Version: 6.00 Build 0)  -->
<!DOCTYPE svg PUBLIC "-//W3C//DTD SVG 1.1//EN" "http://www.w3.org/Graphics/SVG/1.1/DTD/svg11.dtd">
<svg version="1.1" id="图层_1" xmlns="http://www.w3.org/2000/svg" xmlns:xlink="http://www.w3.org/1999/xlink" x="0px" y="0px"
	 width="120px" height="150px" viewBox="0 0 120 150" enable-background="new 0 0 120 150" xml:space="preserve">
<path fill="#9E1F24" d="M32.193,125.174c0,0,4.572,10.921,13.197,18.078c8.628,7.153,0.603,8.109-6.596,5.245
	c-7.192-2.86-13.05-16.386-13.05-16.386L32.193,125.174z"/>
<path fill="#E62230" d="M109.826,12.16c0,0,2.388-12.307-26.237-12.158C54.971,0.148-28.029,31.148,30.17,140.868
	c0,0-8.592-20.992,39.588-56.771C69.758,84.097,113.646,58.043,109.826,12.16 M39.441,79.23
	c-20.314,24.544-13.356,52.091-13.356,52.091s-16.217-33.382,0-63.444c16.22-30.045,29.574-21.941,29.574-19.073
	C55.659,51.666,59.761,54.682,39.441,79.23"/>
</svg>
