<?xml version="1.0" encoding="utf-8"?>
<!-- Generator: Adobe Illustrator 16.0.0, SVG Export Plug-In . SVG Version: 6.00 Build 0)  -->
<!DOCTYPE svg PUBLIC "-//W3C//DTD SVG 1.1//EN" "http://www.w3.org/Graphics/SVG/1.1/DTD/svg11.dtd">
<svg version="1.1" id="图层_1" xmlns="http://www.w3.org/2000/svg" xmlns:xlink="http://www.w3.org/1999/xlink" x="0px" y="0px"
	 width="32px" height="26px" viewBox="0 0 32 26" enable-background="new 0 0 32 26" xml:space="preserve">
<path fill="#FFFFFF" d="M29.021,6.25c0,11.243-7.385,19.339-18.247,19.694c-4.595,0.356-7.741-1.039-10.559-3.146
	c3.147,0.354,7.386-0.685,9.467-2.818c-3.146,0-4.923-1.776-5.964-4.188h2.817c-2.817-1.064-4.949-3.171-4.949-6.674
	c0.685,0.354,1.396,0.686,2.817,0.686C1.94,8.407,0.545,3.84,2.297,1.022c3.146,3.502,7.004,6.674,13.374,7.004
	c-1.775-7.004,7.385-10.558,11.244-5.964c1.776-0.355,2.817-1.04,4.188-1.777c-0.355,1.777-1.396,2.818-2.817,3.504
	c1.396,0,2.462-0.355,3.501-1.041C31.457,4.144,30.062,5.564,29.021,6.25z"/>
</svg>
