<?xml version="1.0" encoding="utf-8"?>
<!-- Generator: Adobe Illustrator 16.0.0, SVG Export Plug-In . SVG Version: 6.00 Build 0)  -->
<!DOCTYPE svg PUBLIC "-//W3C//DTD SVG 1.1//EN" "http://www.w3.org/Graphics/SVG/1.1/DTD/svg11.dtd">
<svg version="1.1" id="隔离模式" xmlns="http://www.w3.org/2000/svg" xmlns:xlink="http://www.w3.org/1999/xlink" x="0px"
	 y="0px" width="66px" height="66px" viewBox="0 0 66 66" enable-background="new 0 0 66 66" xml:space="preserve">
<linearGradient id="SVGID_1_" gradientUnits="userSpaceOnUse" x1="0.5156" y1="32.999" x2="65.4854" y2="32.999">
	<stop  offset="0" style="stop-color:#EE465F"/>
	<stop  offset="1" style="stop-color:#F77A4E"/>
</linearGradient>
<circle fill="url(#SVGID_1_)" cx="33" cy="32.999" r="32.485"/>
<g>
	<path fill="#FFFFFF" d="M34.32,17.601c-7.282,0.1-13.08,6.066-12.791,13.109c-0.019,0.099-0.014,0.113-0.014,0.99l-2.889,4.557
		c-0.334,0.537,0.059,1.225,0.704,1.225h2.185v3.498c0,1.537,1.283,2.783,2.861,2.783h4.754v3.835c0,0.213,0.092,0.416,0.244,0.566
		c0.154,0.147,0.362,0.235,0.58,0.235h9.098c0.217-0.006,0.421-0.088,0.579-0.235c0.153-0.15,0.24-0.354,0.24-0.566
		c0-3.398,1.347-6.196,3.491-8.146c2.621-2.377,4.131-5.746,4.131-9.231C47.494,23.174,41.572,17.491,34.32,17.601z M43.091,35.862
		c-0.958,2.45-4.548,2.396-5.741-1.472c-0.05-0.174-0.127-0.407-0.177-0.525c-0.28-0.022-2.843,0.487-3.534-1.569
		c-0.168-0.493-0.148-0.977-0.132-1.369c0-0.153,0.028-0.596-0.071-0.75c-0.578-0.282-3.232,1.441-5.217-1.791
		c-1.473-2.392-0.127-4.429,0.787-5.177c4.356-3.521,10.401-2.227,13.324,2.749C44.07,28.929,44.355,32.626,43.091,35.862z"/>
	<path fill="#FFFFFF" d="M41.661,35.167c-0.134,0.352-0.442,0.614-0.813,0.614c-0.945,0-1.628-0.658-2.025-1.951
		c-0.344-1.122-0.678-1.846-2.16-1.665c-0.651,0.072-1.42-0.036-1.563-0.47c-0.083-0.227-0.028-0.643-0.028-1.066
		c0-0.905-0.315-1.624-0.877-1.963c-1.519-0.93-3.153,1.243-4.692-1.256c-0.938-1.528,0.19-2.605,0.425-2.794
		c3.634-2.934,8.661-1.854,11.103,2.297C42.485,29.427,42.72,32.464,41.661,35.167L41.661,35.167z"/>
</g>
</svg>
