<?xml version="1.0" encoding="utf-8"?>
<!-- Generator: Adobe Illustrator 16.0.0, SVG Export Plug-In . SVG Version: 6.00 Build 0)  -->
<!DOCTYPE svg PUBLIC "-//W3C//DTD SVG 1.1//EN" "http://www.w3.org/Graphics/SVG/1.1/DTD/svg11.dtd">
<svg version="1.1" id="图层_1" xmlns="http://www.w3.org/2000/svg" xmlns:xlink="http://www.w3.org/1999/xlink" x="0px" y="0px"
	 width="750px" height="560px" viewBox="0 385.572 750 560" enable-background="new 0 385.572 750 560" xml:space="preserve">
<linearGradient id="SVGID_1_" gradientUnits="userSpaceOnUse" x1="68.4512" y1="590.3164" x2="670.4023" y2="590.3164">
	<stop  offset="0" style="stop-color:#5D5E5E;stop-opacity:0"/>
	<stop  offset="0.4194" style="stop-color:#3E3F3F"/>
	<stop  offset="0.6613" style="stop-color:#585959"/>
	<stop  offset="1" style="stop-color:#A3A3A3;stop-opacity:0"/>
</linearGradient>
<path fill="none" stroke="url(#SVGID_1_)" stroke-width="2" stroke-miterlimit="10" d="M69.451,740.804
	c0-165.671,134.304-299.976,299.975-299.976c165.672,0,299.977,134.305,299.977,299.976"/>
<linearGradient id="SVGID_2_" gradientUnits="userSpaceOnUse" x1="153.9414" y1="633.5625" x2="582.9092" y2="633.5625">
	<stop  offset="0" style="stop-color:#5D5E5E;stop-opacity:0"/>
	<stop  offset="0.4194" style="stop-color:#3E3F3F"/>
	<stop  offset="0.6613" style="stop-color:#585959"/>
	<stop  offset="1" style="stop-color:#A3A3A3;stop-opacity:0"/>
</linearGradient>
<path fill="none" stroke="url(#SVGID_2_)" stroke-width="2" stroke-miterlimit="10" d="M154.941,740.804
	c0-117.903,95.58-213.483,213.483-213.483c117.904,0,213.484,95.58,213.484,213.483"/>
<g>
	<linearGradient id="SVGID_3_" gradientUnits="userSpaceOnUse" x1="239.0381" y1="893.0752" x2="491.6641" y2="893.0752">
		<stop  offset="0" style="stop-color:#3EA8F2"/>
		<stop  offset="1" style="stop-color:#22E0E7"/>
	</linearGradient>
	<path fill="url(#SVGID_3_)" d="M239.038,863.619v29.651c0,16.161,56.553,29.262,126.313,29.262
		c69.761,0,126.313-13.101,126.313-29.262v-29.651H239.038z"/>
	<ellipse fill="#00BBED" cx="365.351" cy="863.619" rx="126.313" ry="29.264"/>
	<linearGradient id="SVGID_4_" gradientUnits="userSpaceOnUse" x1="259.6748" y1="885.043" x2="259.6748" y2="904.2051">
		<stop  offset="0.3817" style="stop-color:#0FA0F2"/>
		<stop  offset="1" style="stop-color:#22E0E7"/>
	</linearGradient>
	<path fill="url(#SVGID_4_)" d="M257.576,902.73c1.331,0.503,2.741,0.992,4.197,1.475v-17.688c-1.456-0.483-2.866-0.973-4.197-1.475
		V902.73z"/>
	<path fill="#008EE5" d="M258.192,902.235v-16.968c-0.204-0.075-0.417-0.149-0.616-0.225v17.688
		c1.331,0.503,2.741,0.992,4.197,1.475v-0.706C260.539,903.085,259.333,902.666,258.192,902.235z"/>
	<linearGradient id="SVGID_5_" gradientUnits="userSpaceOnUse" x1="273.998" y1="889.4639" x2="273.998" y2="908.1709">
		<stop  offset="0.3817" style="stop-color:#0FA0F2"/>
		<stop  offset="1" style="stop-color:#22E0E7"/>
	</linearGradient>
	<path fill="url(#SVGID_5_)" d="M271.899,907.152c1.364,0.348,2.764,0.688,4.197,1.019v-17.688c-1.434-0.331-2.833-0.672-4.197-1.02
		V907.152z"/>
	<linearGradient id="SVGID_6_" gradientUnits="userSpaceOnUse" x1="266.8359" y1="887.4639" x2="266.8359" y2="906.3604">
		<stop  offset="0.3817" style="stop-color:#0FA0F2"/>
		<stop  offset="1" style="stop-color:#22E0E7"/>
	</linearGradient>
	<path fill="url(#SVGID_6_)" d="M264.736,905.152c1.354,0.41,2.758,0.813,4.199,1.208v-17.687c-1.441-0.396-2.846-0.798-4.199-1.21
		V905.152z"/>
	<path fill="#008EE5" d="M265.355,904.657v-16.968c-0.205-0.076-0.417-0.149-0.617-0.226v17.688
		c1.331,0.502,2.742,0.993,4.197,1.475v-0.704C267.702,905.507,266.495,905.087,265.355,904.657z"/>
	<path fill="#008EE5" d="M272.516,906.657v-16.968c-0.204-0.076-0.417-0.149-0.616-0.226v17.688
		c1.331,0.502,2.741,0.992,4.197,1.475v-0.706C274.862,907.507,273.656,907.088,272.516,906.657z"/>
	<linearGradient id="SVGID_7_" gradientUnits="userSpaceOnUse" x1="239.0381" y1="844.5898" x2="491.6641" y2="844.5898">
		<stop  offset="0" style="stop-color:#3E3F3F"/>
		<stop  offset="1" style="stop-color:#A3A3A3"/>
	</linearGradient>
	<path fill="url(#SVGID_7_)" d="M239.038,815.134v29.651c0,16.161,56.553,29.262,126.313,29.262
		c69.761,0,126.313-13.101,126.313-29.262v-29.651H239.038z"/>
	<ellipse fill="#545454" cx="365.351" cy="815.134" rx="126.313" ry="29.263"/>
	<linearGradient id="SVGID_8_" gradientUnits="userSpaceOnUse" x1="239.0381" y1="795.3525" x2="491.6641" y2="795.3525">
		<stop  offset="0" style="stop-color:#3EA8F2"/>
		<stop  offset="1" style="stop-color:#22E0E7"/>
	</linearGradient>
	<path fill="url(#SVGID_8_)" d="M239.038,765.896v29.65c0,16.162,56.553,29.263,126.313,29.263
		c69.761,0,126.313-13.101,126.313-29.263v-29.65H239.038z"/>
	<ellipse fill="#00BBED" cx="365.351" cy="765.896" rx="126.313" ry="29.264"/>
	<linearGradient id="SVGID_9_" gradientUnits="userSpaceOnUse" x1="259.6748" y1="787.3193" x2="259.6748" y2="806.4814">
		<stop  offset="0.3817" style="stop-color:#0FA0F2"/>
		<stop  offset="1" style="stop-color:#22E0E7"/>
	</linearGradient>
	<path fill="url(#SVGID_9_)" d="M257.576,805.007c1.331,0.503,2.741,0.992,4.197,1.475v-17.688
		c-1.456-0.482-2.866-0.972-4.197-1.474V805.007z"/>
	<path fill="#008EE5" d="M258.192,804.512v-16.968c-0.204-0.075-0.417-0.149-0.616-0.225v17.688
		c1.331,0.503,2.741,0.992,4.197,1.475v-0.706C260.539,805.361,259.333,804.942,258.192,804.512z"/>
	<linearGradient id="SVGID_10_" gradientUnits="userSpaceOnUse" x1="273.998" y1="791.7402" x2="273.998" y2="810.4473">
		<stop  offset="0.3817" style="stop-color:#0FA0F2"/>
		<stop  offset="1" style="stop-color:#22E0E7"/>
	</linearGradient>
	<path fill="url(#SVGID_10_)" d="M271.899,809.429c1.364,0.348,2.764,0.688,4.197,1.019V792.76c-1.434-0.331-2.833-0.672-4.197-1.02
		V809.429z"/>
	<linearGradient id="SVGID_11_" gradientUnits="userSpaceOnUse" x1="266.8359" y1="789.7402" x2="266.8359" y2="808.6367">
		<stop  offset="0.3817" style="stop-color:#0FA0F2"/>
		<stop  offset="1" style="stop-color:#22E0E7"/>
	</linearGradient>
	<path fill="url(#SVGID_11_)" d="M264.736,807.429c1.354,0.41,2.758,0.813,4.199,1.208V790.95c-1.441-0.396-2.846-0.798-4.199-1.21
		V807.429z"/>
	<path fill="#008EE5" d="M265.355,806.934v-16.968c-0.205-0.076-0.417-0.149-0.617-0.226v17.688
		c1.331,0.502,2.742,0.993,4.197,1.475v-0.704C267.702,807.783,266.495,807.363,265.355,806.934z"/>
	<path fill="#008EE5" d="M272.516,808.934v-16.968c-0.204-0.076-0.417-0.149-0.616-0.226v17.688
		c1.331,0.502,2.741,0.992,4.197,1.475v-0.706C274.862,809.783,273.656,809.364,272.516,808.934z"/>
	<linearGradient id="SVGID_12_" gradientUnits="userSpaceOnUse" x1="259.6748" y1="835.9414" x2="259.6748" y2="855.1045">
		<stop  offset="0.2312" style="stop-color:#333333"/>
		<stop  offset="1" style="stop-color:#A3A3A3"/>
	</linearGradient>
	<path fill="url(#SVGID_12_)" d="M257.576,853.63c1.331,0.502,2.741,0.992,4.197,1.475v-17.688
		c-1.456-0.482-2.866-0.972-4.197-1.475V853.63z"/>
	<path fill="#2D2D2D" d="M258.192,853.135v-16.968c-0.204-0.076-0.417-0.149-0.616-0.226v17.688
		c1.331,0.502,2.741,0.992,4.197,1.475v-0.706C260.539,853.984,259.333,853.565,258.192,853.135z"/>
	<linearGradient id="SVGID_13_" gradientUnits="userSpaceOnUse" x1="273.998" y1="840.3633" x2="273.998" y2="859.0703">
		<stop  offset="0.2312" style="stop-color:#333333"/>
		<stop  offset="1" style="stop-color:#A3A3A3"/>
	</linearGradient>
	<path fill="url(#SVGID_13_)" d="M271.899,858.052c1.364,0.348,2.764,0.688,4.197,1.019v-17.688
		c-1.434-0.332-2.833-0.672-4.197-1.02V858.052z"/>
	<linearGradient id="SVGID_14_" gradientUnits="userSpaceOnUse" x1="266.8359" y1="838.3633" x2="266.8359" y2="857.2598">
		<stop  offset="0.2312" style="stop-color:#333333"/>
		<stop  offset="1" style="stop-color:#A3A3A3"/>
	</linearGradient>
	<path fill="url(#SVGID_14_)" d="M264.736,856.052c1.354,0.41,2.758,0.813,4.199,1.208v-17.687c-1.441-0.396-2.846-0.798-4.199-1.21
		V856.052z"/>
	<path fill="#2D2D2D" d="M265.355,855.557v-16.969c-0.205-0.075-0.417-0.149-0.617-0.225v17.688
		c1.331,0.502,2.742,0.993,4.197,1.474v-0.703C267.702,856.406,266.495,855.986,265.355,855.557z"/>
	<path fill="#2D2D2D" d="M272.516,857.557v-16.968c-0.204-0.076-0.417-0.149-0.616-0.226v17.688
		c1.331,0.502,2.741,0.992,4.197,1.475v-0.706C274.862,858.406,273.656,857.986,272.516,857.557z"/>
	<linearGradient id="SVGID_15_" gradientUnits="userSpaceOnUse" x1="238.3701" y1="746.7217" x2="490.9961" y2="746.7217">
		<stop  offset="0" style="stop-color:#3E3F3F"/>
		<stop  offset="1" style="stop-color:#A3A3A3"/>
	</linearGradient>
	<path fill="url(#SVGID_15_)" d="M238.37,717.265v29.65c0,16.162,56.553,29.264,126.313,29.264
		c69.761,0,126.313-13.102,126.313-29.264v-29.65H238.37z"/>
	<ellipse fill="#545454" cx="364.683" cy="717.265" rx="126.313" ry="29.263"/>
	<linearGradient id="SVGID_16_" gradientUnits="userSpaceOnUse" x1="238.3701" y1="697.4834" x2="490.9961" y2="697.4834">
		<stop  offset="0" style="stop-color:#3EA8F2"/>
		<stop  offset="1" style="stop-color:#22E0E7"/>
	</linearGradient>
	<path fill="url(#SVGID_16_)" d="M238.37,668.026v29.65c0,16.161,56.553,29.264,126.313,29.264
		c69.761,0,126.313-13.103,126.313-29.264v-29.65H238.37z"/>
	<ellipse fill="#00BBED" cx="364.683" cy="668.026" rx="126.313" ry="29.264"/>
	<linearGradient id="SVGID_17_" gradientUnits="userSpaceOnUse" x1="259.0068" y1="689.4502" x2="259.0068" y2="708.6123">
		<stop  offset="0.3817" style="stop-color:#0FA0F2"/>
		<stop  offset="1" style="stop-color:#22E0E7"/>
	</linearGradient>
	<path fill="url(#SVGID_17_)" d="M256.908,707.138c1.331,0.502,2.741,0.992,4.197,1.475v-17.688
		c-1.456-0.482-2.866-0.974-4.197-1.475V707.138z"/>
	<path fill="#008EE5" d="M257.524,706.643v-16.968c-0.204-0.076-0.417-0.15-0.616-0.225v17.688c1.331,0.502,2.741,0.992,4.197,1.475
		v-0.705C259.871,707.492,258.665,707.072,257.524,706.643z"/>
	<linearGradient id="SVGID_18_" gradientUnits="userSpaceOnUse" x1="273.3301" y1="693.8721" x2="273.3301" y2="712.5781">
		<stop  offset="0.3817" style="stop-color:#0FA0F2"/>
		<stop  offset="1" style="stop-color:#22E0E7"/>
	</linearGradient>
	<path fill="url(#SVGID_18_)" d="M271.231,711.559c1.364,0.348,2.764,0.688,4.197,1.02v-17.688
		c-1.434-0.332-2.833-0.671-4.197-1.019V711.559z"/>
	<linearGradient id="SVGID_19_" gradientUnits="userSpaceOnUse" x1="266.168" y1="691.8721" x2="266.168" y2="710.7676">
		<stop  offset="0.3817" style="stop-color:#0FA0F2"/>
		<stop  offset="1" style="stop-color:#22E0E7"/>
	</linearGradient>
	<path fill="url(#SVGID_19_)" d="M264.068,709.56c1.354,0.41,2.758,0.813,4.199,1.208V693.08c-1.441-0.395-2.846-0.797-4.199-1.208
		V709.56z"/>
	<path fill="#008EE5" d="M264.688,709.064v-16.968c-0.205-0.075-0.417-0.149-0.617-0.225v17.688
		c1.331,0.502,2.742,0.993,4.197,1.475v-0.705C267.034,709.914,265.827,709.494,264.688,709.064z"/>
	<path fill="#008EE5" d="M271.848,711.064v-16.969c-0.204-0.075-0.417-0.149-0.616-0.224v17.687
		c1.331,0.503,2.742,0.993,4.197,1.475v-0.704C274.194,711.914,272.988,711.494,271.848,711.064z"/>
	<linearGradient id="SVGID_20_" gradientUnits="userSpaceOnUse" x1="259.0068" y1="738.0732" x2="259.0068" y2="757.2344">
		<stop  offset="0.2312" style="stop-color:#333333"/>
		<stop  offset="1" style="stop-color:#A3A3A3"/>
	</linearGradient>
	<path fill="url(#SVGID_20_)" d="M256.908,755.761c1.331,0.502,2.741,0.992,4.197,1.474v-17.687
		c-1.456-0.482-2.866-0.974-4.197-1.475V755.761z"/>
	<path fill="#2D2D2D" d="M257.524,755.266v-16.969c-0.204-0.075-0.417-0.149-0.616-0.224v17.688
		c1.331,0.502,2.741,0.992,4.197,1.474v-0.704C259.871,756.115,258.665,755.695,257.524,755.266z"/>
	<linearGradient id="SVGID_21_" gradientUnits="userSpaceOnUse" x1="273.3301" y1="742.4951" x2="273.3301" y2="761.2012">
		<stop  offset="0.2312" style="stop-color:#333333"/>
		<stop  offset="1" style="stop-color:#A3A3A3"/>
	</linearGradient>
	<path fill="url(#SVGID_21_)" d="M271.231,760.182c1.364,0.348,2.764,0.688,4.197,1.02v-17.688
		c-1.434-0.332-2.833-0.672-4.197-1.019V760.182z"/>
	<linearGradient id="SVGID_22_" gradientUnits="userSpaceOnUse" x1="266.168" y1="740.4941" x2="266.168" y2="759.3906">
		<stop  offset="0.2312" style="stop-color:#333333"/>
		<stop  offset="1" style="stop-color:#A3A3A3"/>
	</linearGradient>
	<path fill="url(#SVGID_22_)" d="M264.068,758.183c1.354,0.41,2.758,0.813,4.199,1.208v-17.688
		c-1.441-0.395-2.846-0.797-4.199-1.209V758.183z"/>
	<path fill="#2D2D2D" d="M264.688,757.688V740.72c-0.205-0.076-0.417-0.149-0.617-0.226v17.688c1.331,0.502,2.742,0.993,4.197,1.475
		v-0.705C267.034,758.537,265.827,758.117,264.688,757.688z"/>
	<path fill="#2D2D2D" d="M271.848,759.688v-16.969c-0.204-0.075-0.417-0.149-0.616-0.224v17.687
		c1.331,0.503,2.742,0.993,4.197,1.475v-0.705C274.194,760.536,272.988,760.117,271.848,759.688z"/>
</g>
<g>
	<g>
		<path fill="#FFFFFF" d="M343.055,718.119c0.011,0.759-0.186,1.124-0.78,1.277c-0.616,0.158-2.889,0.349-3.304-0.025
			c-0.094-0.085-0.461-1.225-0.461-1.225c0.07-0.108,2.455,0.23,2.827,0.238c0.317,0.007,0.423-0.08,0.419-0.365
			c-0.052-3.607-0.077-5.412-0.129-9.02c-2.062-0.161-3.092-0.248-5.152-0.439c-0.026,0.649-0.385,1.729-0.289,2.04
			c0.326,1.062,3.97,3.573,5.071,4.823c-0.43,0.272-0.644,0.406-1.073,0.678c-0.922-1.129-4.194-4.447-4.376-4.408
			c-0.289,0.062-3.423,4.095-4.25,3.866c-0.122-0.033-0.953-0.988-0.953-0.988c0.081-0.532,4.479-4.056,4.556-6.135
			c-2.046-0.198-3.066-0.305-5.11-0.533c0.062,4.301,0.09,6.449,0.151,10.749c-0.518-0.052-0.775-0.077-1.293-0.131
			c-0.068-4.774-0.102-7.16-0.17-11.936c2.567,0.3,3.851,0.438,6.422,0.689c-0.016-1.09-0.021-1.637-0.036-2.727
			c0.525,0.053,0.787,0.079,1.313,0.13c0.016,1.089,0.024,1.632,0.04,2.721c2.572,0.242,3.856,0.352,6.432,0.546
			C342.967,712.016,342.996,714.05,343.055,718.119z"/>
		<path fill="#FFFFFF" d="M355.038,711.019c-0.106,0.12-0.334,0.346-0.333,0.393c0.017,0.907,7.428,4.367,7.428,4.367
			c0.009,0.049-0.728,0.924-0.839,0.962c-0.283,0.098-1.561-0.659-2.295-1.032c0.026,1.825,0.042,2.737,0.068,4.563
			c-0.533-0.009-0.799-0.014-1.333-0.024c-0.003-0.187-0.006-0.279-0.009-0.466c-2.92-0.062-4.379-0.109-7.297-0.231
			c0.003,0.213,0.005,0.32,0.008,0.533c-0.513-0.021-0.769-0.033-1.281-0.057c-0.025-1.802-0.041-2.702-0.066-4.504
			c-0.76,0.354-2.063,1.006-2.367,0.896c-0.138-0.05-0.85-0.992-0.85-0.992c0.102-0.41,6.343-2.682,8.001-4.904
			C354.339,710.722,354.572,710.82,355.038,711.019z M347.873,709.888c-0.513-0.03-0.771-0.047-1.283-0.079
			c-0.017-1.14-0.022-1.708-0.039-2.848c2.761,0.184,4.142,0.262,6.904,0.391c-0.201-0.415-0.478-0.911-0.731-1.3
			c0.539-0.085,0.811-0.13,1.35-0.217c0.327,0.483,0.709,1.105,0.93,1.583c2.514,0.106,3.771,0.148,6.284,0.209
			c0.016,1.121,0.024,1.682,0.04,2.803c-0.534-0.011-0.8-0.019-1.334-0.032c-0.01-0.7-0.015-1.05-0.024-1.75
			c-4.849-0.13-7.274-0.237-12.121-0.536C347.857,708.821,347.863,709.178,347.873,709.888z M352.203,709.448
			c-1.155,1.305-3.907,3.365-4.543,3.224c-0.119-0.026-0.936-0.938-0.936-0.938c0.031-0.216,3.231-1.618,4.248-2.707
			C351.466,709.197,351.71,709.281,352.203,709.448z M357.711,718.74c-0.015-1.038-0.021-1.56-0.037-2.598
			c-2.92-0.073-4.381-0.125-7.299-0.26c0.016,1.047,0.022,1.571,0.037,2.618C353.33,718.627,354.792,718.675,357.711,718.74z
			 M357.888,715.107c-1.398-0.798-3.462-2.913-3.865-2.912c-0.419,0.001-2.233,1.892-3.572,2.644
			C353.425,714.979,354.911,715.031,357.888,715.107z M356.346,709.276c1.633,0.899,3.698,2.211,4.689,3.112
			c-0.365,0.296-0.549,0.443-0.914,0.739c-0.974-0.903-2.986-2.278-4.637-3.229C355.829,709.65,356.001,709.525,356.346,709.276z"/>
		<path fill="#FFFFFF" d="M369.99,706.671c-0.103,0.23-0.364,0.572-0.348,0.66c0.136,0.73,3.282,2.965,4.152,4.035
			c-0.373,0.305-0.561,0.458-0.934,0.763c-0.814-1.012-3.48-3.919-3.793-3.881c-0.473,0.058-3.646,4.415-4.316,4.348
			c-0.11-0.011-0.973-0.8-0.973-0.813c0.007-0.406,4.063-3.462,4.979-5.438C369.251,706.477,369.497,706.542,369.99,706.671z
			 M371.359,719.082c0.818-0.015,0.955-2.104,1.001-2.131c0.045-0.026,1.117,0.311,1.182,0.39c0.429,0.523-0.514,2.704-2.079,2.733
			c-1.316,0.024-1.974,0.032-3.291,0.044c-1.71,0.016-2.25-0.323-2.27-1.663c-0.037-2.624-0.054-3.938-0.092-6.562
			c2.577,0.017,3.866,0.015,6.443-0.017c0,0,0,0.324-0.011,0.459c-0.207,2.554-0.299,3.661-0.694,4.05
			c-0.264,0.259-0.574,0.372-1.008,0.409c-0.346,0.03-1.572,0.159-1.74,0.003c-0.082-0.076-0.338-0.979-0.338-0.979
			c0.038-0.06,1.25,0.05,1.518,0.047c0.231-0.002,0.392-0.019,0.512-0.143c0.193-0.199,0.358-0.969,0.476-2.822
			c-1.545,0.015-2.315,0.018-3.86,0.015c0.032,2.215,0.046,3.321,0.078,5.536c0.008,0.568,0.168,0.679,1.076,0.671
			C369.5,719.112,370.121,719.104,371.359,719.082z M375.986,716.443c-0.506,0.014-0.758,0.02-1.264,0.031
			c-0.047-3.36-0.071-5.04-0.119-8.4c0.506-0.008,0.758-0.011,1.264-0.02C375.915,711.41,375.939,713.088,375.986,716.443z
			 M379.334,706.441c0.068,4.846,0.104,7.269,0.172,12.115c0.011,0.759-0.233,1.073-0.781,1.273c-0.564,0.206-2.748,0.656-3.2,0.313
			c-0.09-0.068-0.481-1.069-0.481-1.069c0.069-0.128,2.367-0.043,2.704-0.071c0.32-0.026,0.463-0.122,0.459-0.396
			c-0.068-4.854-0.101-7.279-0.169-12.133C378.557,706.463,378.814,706.455,379.334,706.441z"/>
		<path fill="#FFFFFF" d="M385.959,717.137c0.357,0.1,0.701,0.354,1.326,0.612c1.084,0.446,2.622,0.433,4.507,0.289
			c2.077-0.158,6.848-0.885,6.848-0.885c0.021,0.028-0.304,1.103-0.374,1.181c-0.375,0.417-4.647,0.566-6.494,0.709
			c-2.063,0.159-3.563,0.132-4.689-0.346c-0.657-0.279-1.18-0.653-1.536-0.633c-0.585,0.033-1.467,0.806-2.326,1.697
			c-0.34-0.375-0.508-0.563-0.848-0.938c0.773-0.644,1.584-1.227,2.31-1.507c-0.025-1.797-0.039-2.696-0.064-4.493
			c-0.925,0.045-1.389,0.066-2.313,0.105c-0.006-0.423-0.01-0.637-0.016-1.06c1.438-0.059,2.159-0.09,3.597-0.164
			C385.916,713.879,385.928,714.963,385.959,717.137z M385.317,709.621c-0.524-0.638-1.714-1.626-2.702-2.315
			c0.388-0.25,0.582-0.374,0.97-0.625c0.987,0.656,2.194,1.598,2.755,2.231C385.931,709.197,385.727,709.337,385.317,709.621z
			 M389.129,708.672c-0.364,0.605-1.02,1.604-1.222,1.628c-0.1,0.012-1.107-0.472-1.109-0.48c-0.042-0.205,1.837-2.397,2.296-3.802
			c0.492,0.069,0.737,0.102,1.229,0.169c-0.171,0.488-0.395,0.998-0.619,1.476c0.874-0.051,1.311-0.079,2.185-0.136
			c-0.011-0.741-0.016-1.109-0.026-1.851c0.52-0.032,0.78-0.05,1.3-0.084c0.011,0.739,0.014,1.11,0.024,1.85
			c1.663-0.113,2.495-0.174,4.156-0.307c0.006,0.387,0.007,0.578,0.013,0.965c-1.661,0.135-2.493,0.199-4.155,0.314
			c0.011,0.758,0.017,1.136,0.027,1.894c1.968-0.141,2.951-0.219,4.918-0.388c0.006,0.386,0.007,0.58,0.013,0.966
			c-4.522,0.394-6.783,0.553-11.313,0.798c-0.006-0.392-0.008-0.588-0.014-0.979c2.041-0.108,3.058-0.169,5.098-0.308
			c-0.011-0.759-0.017-1.138-0.027-1.896C390.793,708.572,390.238,708.608,389.129,708.672z M388.323,717.008
			c-0.024-1.675-0.036-2.514-0.06-4.188c3.42-0.204,5.131-0.328,8.547-0.616c0.023,1.658,0.034,2.489,0.058,4.147
			C393.452,716.655,391.743,716.787,388.323,717.008z M389.555,715.995c2.402-0.161,3.604-0.25,6.005-0.453
			c-0.013-0.923-0.021-1.386-0.033-2.309c-2.401,0.196-3.603,0.286-6.005,0.44C389.535,714.603,389.542,715.066,389.555,715.995z"/>
		<path fill="#FFFFFF" d="M409.57,709.762c-0.912,0.652-1.863,1.277-2.83,1.858c2.927-0.333,4.391-0.513,7.311-0.907
			c0.035,2.435,0.054,3.648,0.089,6.082c-0.537,0.076-0.807,0.115-1.344,0.189c-0.002-0.163-0.006-0.245-0.008-0.408
			c-2.866,0.396-4.302,0.58-7.173,0.916c0.003,0.188,0.006,0.281,0.009,0.47c-0.517,0.061-0.775,0.091-1.293,0.149
			c-0.029-2.039-0.046-3.058-0.075-5.096c-1.059,0.541-2.838,1.61-3.228,1.502c-0.101-0.028-0.846-0.82-0.846-0.82
			c0.052-0.356,5.029-2.24,7.245-3.684c-2.756,0.314-4.134,0.458-6.895,0.717c-0.006-0.396-0.012-0.597-0.018-0.993
			c2.427-0.225,3.641-0.347,6.063-0.614c-0.011-0.752-0.014-1.128-0.024-1.88c-1.807,0.195-2.711,0.287-4.52,0.459
			c-0.006-0.39-0.007-0.587-0.013-0.977c1.809-0.169,2.712-0.259,4.519-0.452c-0.011-0.734-0.015-1.102-0.025-1.836
			c0.518-0.055,0.776-0.08,1.294-0.136c0.011,0.733,0.015,1.097,0.025,1.83c1.75-0.193,2.624-0.296,4.371-0.512
			c0.004,0.239,0.003,0.357,0.007,0.597c0.735-0.704,1.398-1.431,1.989-2.177c0.448,0.141,0.672,0.216,1.119,0.354
			c-1.217,1.5-2.647,2.91-4.243,4.204c2.039-0.252,3.056-0.386,5.091-0.668c0.006,0.389,0.01,0.583,0.016,0.972
			C413.542,709.271,412.219,709.443,409.57,709.762z M412.721,711.81c-2.866,0.379-4.3,0.551-7.172,0.87
			c0.009,0.583,0.014,0.875,0.021,1.458c2.871-0.324,4.307-0.502,7.172-0.886C412.733,712.674,412.729,712.387,412.721,711.81z
			 M412.774,715.63c-0.009-0.606-0.012-0.911-0.021-1.518c-2.865,0.387-4.303,0.564-7.174,0.892
			c0.009,0.612,0.015,0.921,0.023,1.533C408.475,716.204,409.909,716.021,412.774,715.63z M409.112,708.835
			c0.947-0.699,1.843-1.438,2.664-2.197c-1.57,0.193-2.355,0.287-3.928,0.463c0.011,0.751,0.015,1.126,0.025,1.877
			C408.37,708.921,408.617,708.894,409.112,708.835z"/>
	</g>
</g>
<g>
	<g>
		<path fill="#FFFFFF" d="M343.165,762.515c0.011,0.755-0.188,1.116-0.781,1.268c-0.618,0.158-2.89,0.349-3.305-0.025
			c-0.094-0.084-0.457-1.218-0.457-1.218c0.069-0.107,2.454,0.229,2.826,0.237c0.315,0.007,0.423-0.082,0.419-0.365
			c-0.051-3.591-0.075-5.385-0.127-8.978c-2.062-0.161-3.093-0.252-5.152-0.443c-0.028,0.646-0.388,1.727-0.294,2.034
			c0.323,1.055,3.975,3.559,5.074,4.803c-0.429,0.271-0.645,0.408-1.073,0.678c-0.923-1.124-4.186-4.433-4.372-4.393
			c-0.29,0.062-3.418,4.077-4.253,3.849c-0.123-0.033-0.953-0.986-0.953-0.986c0.08-0.525,4.48-4.036,4.557-6.105
			c-2.045-0.198-3.069-0.308-5.112-0.536c0.062,4.283,0.093,6.423,0.153,10.705c-0.519-0.052-0.776-0.077-1.295-0.131
			c-0.066-4.754-0.104-7.13-0.171-11.886c2.568,0.3,3.855,0.438,6.427,0.689c-0.016-1.086-0.022-1.628-0.038-2.714
			c0.525,0.053,0.787,0.08,1.313,0.131c0.016,1.084,0.022,1.624,0.038,2.708c2.572,0.242,3.857,0.353,6.433,0.548
			C343.079,756.437,343.107,758.464,343.165,762.515z"/>
		<path fill="#FFFFFF" d="M355.151,755.449c-0.108,0.12-0.336,0.34-0.335,0.387c0.017,0.9,7.429,4.349,7.429,4.349
			c0.009,0.049-0.727,0.923-0.838,0.961c-0.285,0.099-1.559-0.658-2.291-1.029c0.026,1.816,0.036,2.727,0.063,4.543
			c-0.533-0.009-0.802-0.015-1.336-0.025c-0.003-0.186-0.001-0.281-0.004-0.467c-2.92-0.062-4.381-0.107-7.299-0.229
			c0.003,0.212,0.008,0.319,0.011,0.531c-0.513-0.021-0.769-0.033-1.281-0.057c-0.025-1.793-0.04-2.689-0.065-4.482
			c-0.76,0.353-2.07,1.003-2.373,0.894c-0.137-0.05-0.848-0.992-0.848-0.992c0.101-0.407,6.343-2.668,8.001-4.88
			C354.451,755.15,354.685,755.252,355.151,755.449z M347.982,754.318c-0.513-0.03-0.767-0.047-1.279-0.079
			c-0.017-1.134-0.025-1.701-0.042-2.836c2.761,0.184,4.145,0.261,6.907,0.39c-0.203-0.413-0.476-0.905-0.731-1.292
			c0.54-0.085,0.81-0.129,1.35-0.216c0.325,0.481,0.708,1.103,0.927,1.578c2.515,0.106,3.772,0.148,6.287,0.209
			c0.017,1.116,0.023,1.674,0.039,2.789c-0.534-0.011-0.799-0.019-1.333-0.032c-0.01-0.697-0.014-1.045-0.023-1.742
			c-4.85-0.129-7.278-0.238-12.126-0.536C347.967,753.258,347.973,753.611,347.982,754.318z M352.317,753.882
			c-1.156,1.298-3.907,3.348-4.543,3.205c-0.118-0.026-0.939-0.933-0.939-0.933c0.031-0.214,3.231-1.609,4.25-2.693
			C351.578,753.63,351.824,753.715,352.317,753.882z M357.822,763.133c-0.015-1.033-0.022-1.552-0.037-2.585
			c-2.92-0.073-4.378-0.124-7.296-0.259c0.015,1.042,0.022,1.564,0.037,2.606C353.444,763.021,354.902,763.067,357.822,763.133z
			 M358.003,759.518c-1.398-0.795-3.466-2.901-3.871-2.9c-0.419,0.001-2.229,1.883-3.57,2.632
			C353.537,759.389,355.025,759.441,358.003,759.518z M356.461,753.714c1.631,0.896,3.696,2.198,4.688,3.096
			c-0.365,0.295-0.554,0.441-0.919,0.736c-0.972-0.899-2.983-2.268-4.634-3.214C355.94,754.084,356.116,753.962,356.461,753.714z"/>
		<path fill="#FFFFFF" d="M369.479,751.072c-0.481,1.067-1.108,2.15-1.788,3.173c0.06,4.224,0.091,6.336,0.15,10.559
			c-0.507,0.004-0.758,0.007-1.265,0.009c-0.051-3.573-0.078-5.361-0.13-8.935c-0.611,0.747-1.826,2.001-1.926,1.98
			c-0.06-0.012-0.769-1.04-0.764-1.112c0.039-0.606,3.467-3.714,4.469-6.017C368.725,750.867,368.979,750.937,369.479,751.072z
			 M375.237,759.093c-0.129,1.05-1.167,2.809-1.133,2.944c0.101,0.402,6.569,1.386,6.569,1.386c0.01,0.027-0.627,0.967-0.767,1.044
			c-0.975,0.543-5.722-1.736-6.576-1.622c-0.517,0.069-3.354,2.188-3.996,1.928c-0.104-0.042-0.814-0.924-0.814-0.924
			c0.033-0.159,3.74-1.51,3.736-1.592c-0.012-0.229-1.944-1.479-2.618-2.451c0.439-0.126,0.661-0.189,1.101-0.316
			c0.546,0.788,1.954,2.058,2.274,1.993c0.308-0.062,0.809-1.522,0.922-2.361c-1.723,0.033-2.583,0.046-4.306,0.059
			c-0.024-1.673-0.034-2.511-0.059-4.185c1.759-0.005,2.638-0.013,4.396-0.039c-0.009-0.596-0.013-0.891-0.021-1.486
			c-1.965,0.026-2.946,0.03-4.912,0.029c-0.006-0.416-0.01-0.621-0.016-1.037c1.966,0.004,2.948-0.002,4.914-0.026
			c-0.01-0.649-0.014-0.977-0.023-1.626c0.519-0.005,0.779-0.009,1.298-0.016c0.009,0.648,0.015,0.973,0.023,1.621
			c2.052-0.032,3.076-0.055,5.127-0.117c0.006,0.41,0.009,0.615,0.015,1.025c-2.051,0.065-3.077,0.09-5.129,0.125
			c0.008,0.595,0.013,0.891,0.021,1.485c1.816-0.034,2.726-0.058,4.542-0.115c0.024,1.654,0.033,2.482,0.057,4.136
			C378.013,759.021,377.089,759.05,375.237,759.093z M373.995,758.165c0.016-0.229,0.013-0.457,0.01-0.686
			c-0.009-0.626-0.015-0.938-0.023-1.564c-1.268,0.021-1.9,0.028-3.168,0.037c0.013,0.903,0.018,1.354,0.03,2.256
			C372.104,758.196,372.735,758.188,373.995,758.165z M375.278,755.89c0.009,0.625,0.016,0.938,0.024,1.563
			c0.003,0.228,0.006,0.455-0.006,0.684c1.316-0.029,1.973-0.045,3.288-0.087c-0.013-0.895-0.018-1.347-0.03-2.241
			C377.245,755.847,376.588,755.863,375.278,755.89z"/>
		<path fill="#FFFFFF" d="M397.296,761.759c0.01,0.709-0.224,1.074-0.781,1.303c-0.586,0.24-2.912,0.754-3.298,0.459
			c-0.08-0.062-0.461-1.035-0.461-1.035c0.076-0.146,2.455-0.168,2.77-0.201c0.349-0.037,0.48-0.144,0.477-0.426
			c-0.017-1.202-0.023-1.804-0.041-3.006c-1.91,0.16-2.867,0.235-4.779,0.369c0.025,1.758,0.036,2.635,0.062,4.393
			c-0.526,0.04-0.787,0.061-1.314,0.099c-0.025-1.761-0.038-2.64-0.063-4.4c-1.777,0.118-2.667,0.171-4.445,0.266
			c-0.241,1.679-1.759,4.779-2.158,4.771c-0.08-0.002-1.019-0.665-1.022-0.685c-0.094-0.467,2.071-4.615,2.041-6.703
			c-0.031-2.162-0.048-3.242-0.079-5.403c5.179-0.212,7.77-0.366,12.939-0.771C397.204,755.175,397.233,757.37,397.296,761.759z
			 M389.85,758.253c-0.014-0.991-0.021-1.487-0.035-2.479c-1.699,0.105-2.549,0.154-4.249,0.239c0.005,0.354,0.01,0.532,0.015,0.886
			c0.007,0.495-0.006,1.051-0.051,1.607C387.258,758.416,388.122,758.365,389.85,758.253z M385.517,752.566
			c0.014,0.959,0.021,1.439,0.035,2.398c1.7-0.083,2.549-0.13,4.248-0.233c-0.014-0.954-0.022-1.433-0.036-2.387
			C388.064,752.443,387.217,752.488,385.517,752.566z M395.86,751.938c-1.911,0.145-2.867,0.212-4.779,0.33
			c0.014,0.953,0.021,1.428,0.035,2.381c1.912-0.124,2.868-0.192,4.779-0.343C395.882,753.358,395.874,752.885,395.86,751.938z
			 M395.944,757.802c-0.014-0.983-0.021-1.476-0.035-2.459c-1.911,0.152-2.866,0.222-4.778,0.348
			c0.014,0.989,0.021,1.483,0.035,2.473C393.078,758.031,394.034,757.96,395.944,757.802z"/>
		<path fill="#FFFFFF" d="M409.682,754.187c-0.912,0.65-1.864,1.271-2.831,1.851c2.926-0.333,4.391-0.514,7.311-0.908
			c0.034,2.423,0.05,3.635,0.084,6.058c-0.536,0.076-0.803,0.115-1.339,0.189c-0.002-0.162-0.004-0.246-0.006-0.408
			c-2.865,0.396-4.3,0.576-7.171,0.912c0.003,0.188,0.007,0.285,0.01,0.473c-0.518,0.061-0.779,0.091-1.297,0.149
			c-0.029-2.029-0.043-3.045-0.072-5.074c-1.059,0.539-2.837,1.602-3.228,1.493c-0.101-0.028-0.849-0.813-0.849-0.813
			c0.051-0.354,5.031-2.233,7.248-3.672c-2.756,0.313-4.136,0.457-6.896,0.716c-0.006-0.395-0.009-0.59-0.015-0.984
			c2.426-0.225,3.638-0.347,6.061-0.614c-0.011-0.749-0.017-1.124-0.027-1.873c-1.807,0.195-2.711,0.286-4.52,0.458
			c-0.006-0.389-0.008-0.584-0.014-0.972c1.809-0.17,2.713-0.259,4.52-0.452c-0.011-0.731-0.013-1.097-0.023-1.828
			c0.518-0.055,0.775-0.082,1.293-0.139c0.011,0.73,0.012,1.094,0.022,1.824c1.75-0.193,2.625-0.296,4.373-0.512
			c0.003,0.238,0.008,0.359,0.011,0.598c0.733-0.701,1.395-1.424,1.987-2.167c0.448,0.14,0.673,0.208,1.121,0.346
			c-1.22,1.494-2.65,2.901-4.244,4.19c2.038-0.252,3.056-0.387,5.091-0.668c0.006,0.388,0.008,0.581,0.014,0.969
			C413.652,753.696,412.33,753.868,409.682,754.187z M412.832,756.221c-2.865,0.379-4.3,0.554-7.171,0.873
			c0.008,0.58,0.012,0.87,0.02,1.45c2.871-0.324,4.309-0.5,7.174-0.884C412.847,757.085,412.84,756.796,412.832,756.221z
			 M412.889,760.024c-0.009-0.604-0.015-0.905-0.023-1.51c-2.865,0.387-4.3,0.567-7.171,0.895c0.009,0.609,0.015,0.91,0.023,1.52
			C408.589,760.596,410.023,760.417,412.889,760.024z M409.227,753.263c0.945-0.696,1.844-1.431,2.663-2.188
			c-1.57,0.193-2.356,0.287-3.929,0.463c0.011,0.747,0.014,1.12,0.024,1.867C408.481,753.349,408.73,753.321,409.227,753.263z"/>
	</g>
</g>
<g>
	<g>
		<path fill="#FFFFFF" d="M344.414,811.269c0.007,0.456,0.008,0.683,0.015,1.139c-6.244-0.368-9.363-0.625-15.591-1.274
			c-0.007-0.464-0.009-0.692-0.016-1.156c2.848,0.3,4.273,0.436,7.124,0.677c-0.022-1.621-0.036-2.432-0.06-4.053
			c-2.091-0.187-3.137-0.286-5.226-0.504c-0.007-0.462-0.009-0.694-0.016-1.156c2.089,0.221,3.136,0.322,5.227,0.512
			c-0.02-1.391-0.032-2.086-0.052-3.477c-1.655-0.156-2.481-0.24-4.135-0.416c-0.548,0.95-1.565,2.413-1.811,2.419
			c-0.104,0.003-1.18-0.807-1.184-0.841c-0.036-0.35,2.514-3.344,3.171-5.543c0.528,0.16,0.792,0.243,1.321,0.401
			c-0.269,0.85-0.575,1.678-0.949,2.452c1.428,0.151,2.143,0.225,3.571,0.361c-0.018-1.226-0.027-1.837-0.045-3.063
			c0.535,0.053,0.803,0.078,1.338,0.129c0.018,1.224,0.026,1.834,0.044,3.058c2.521,0.231,3.782,0.335,6.306,0.521
			c0.007,0.462,0.011,0.694,0.018,1.156c-2.523-0.182-3.786-0.285-6.307-0.513c0.021,1.389,0.029,2.086,0.05,3.475
			c2.26,0.195,3.393,0.284,5.654,0.443c0.007,0.456,0.008,0.682,0.015,1.138c-2.262-0.156-3.393-0.242-5.652-0.435
			c0.023,1.618,0.035,2.427,0.059,4.045C340.135,810.994,341.561,811.097,344.414,811.269z"/>
		<path fill="#FFFFFF" d="M355.826,802.41c1.249,2.278,6.676,4.586,6.676,4.586c0.011,0.04-0.736,1.001-0.861,1.056
			c-1.281,0.556-7.173-5.696-7.173-5.696c-0.188,0.011-5.688,6.004-7.205,5.249c-0.117-0.059-0.738-1.021-0.738-1.021
			c0.14-0.434,5.765-2.306,6.566-4.287c-2.583-0.117-3.874-0.188-6.455-0.354c-0.006-0.441-0.01-0.662-0.016-1.104
			c2.723,0.178,4.085,0.253,6.81,0.377c0.182-0.711,0.275-1.456,0.354-2.218c0.536,0.025,0.806,0.036,1.342,0.06
			c-0.079,0.761-0.193,1.505-0.341,2.217c2.985,0.125,4.478,0.172,7.462,0.232c0.006,0.434,0.01,0.651,0.016,1.085
			C359.688,802.544,358.4,802.507,355.826,802.41z M346.745,811.857c0.777-0.967,1.373-2.51,1.689-3.752
			c0.468,0.163,0.702,0.244,1.17,0.405c-0.372,1.27-0.911,2.91-1.673,3.957C347.457,812.225,347.22,812.103,346.745,811.857z
			 M357.092,812.019c0.936,0.022,1.158-1.797,1.158-1.797c0.04-0.02,1.116,0.369,1.185,0.462c0.4,0.544-0.546,2.42-2.236,2.382
			c-1.639-0.036-2.457-0.058-4.095-0.113c-2.028-0.069-2.579-0.428-2.597-1.684c-0.018-1.225-0.026-1.837-0.044-3.062
			c0.514,0.023,0.77,0.035,1.283,0.058c0.018,1.217,0.026,1.825,0.044,3.042c0.007,0.456,0.223,0.559,1.368,0.599
			C354.731,811.96,355.519,811.981,357.092,812.019z M353.465,805.096c1.029,0.559,2.276,1.367,2.938,1.979
			c-0.47,0.254-0.702,0.381-1.172,0.634c-0.553-0.596-1.82-1.454-2.85-2.048C352.815,805.436,353.031,805.321,353.465,805.096z
			 M353.925,807.445c0.999,0.818,2.267,1.963,2.879,2.711c-0.42,0.238-0.631,0.358-1.051,0.596c-0.574-0.766-1.812-1.96-2.849-2.814
			C353.312,807.741,353.518,807.643,353.925,807.445z M360.033,808.288c0.92,1.291,1.883,3.009,2.232,4.11
			c-0.5,0.151-0.751,0.224-1.25,0.373c-0.313-1.074-1.219-2.855-2.139-4.183C359.341,808.469,359.569,808.409,360.033,808.288z"/>
		<path fill="#FFFFFF" d="M369.521,804.806c-0.25,2.183-1.552,4.85-1.438,5.406c0.179,0.875,4.169,1.801,7.166,1.716
			c0.691-0.02,5.381-0.21,5.381-0.21c0.016,0.027-0.413,0.763-0.48,1.069c-1.968,0.086-2.952,0.124-4.92,0.182
			c-3.264,0.097-7.23-1.876-7.662-1.813c-0.283,0.041-1.856,2.285-2.155,2.254c-0.109-0.011-0.98-0.785-0.98-0.785
			c-0.005-0.138,2.306-1.889,2.274-2.315c-0.029-0.408-1.187-1.744-1.629-2.967c0.386-0.133,0.577-0.198,0.963-0.332
			c0.313,0.911,1.175,2.28,1.183,2.279c0.157-0.019,0.795-2.234,1.004-3.619c-1.143,0.002-1.71,0.001-2.853-0.007
			c0.738-1.123,1.686-2.781,2.457-4.257c-1.235-0.006-1.851-0.013-3.086-0.029c-0.006-0.407-0.01-0.609-0.016-1.017
			c1.983,0.028,2.975,0.035,4.959,0.035c-0.721,1.351-1.633,2.98-2.393,4.258c0.5,0.001,0.751,0,1.251-0.001
			c0.092-0.013,0.138-0.017,0.229-0.029C369.075,804.697,369.223,804.733,369.521,804.806z M373.92,801.64
			c-1.355,0.018-2.03,0.024-3.386,0.029c-0.005-0.362-0.01-0.544-0.015-0.906c1.355-0.004,2.034-0.007,3.39-0.023
			c-0.007-0.502-0.01-0.754-0.017-1.255c0.494-0.005,0.743-0.011,1.237-0.018c0.007,0.501,0.01,0.752,0.017,1.253
			c1.529-0.024,2.294-0.039,3.823-0.08c0.012,0.803,0.016,1.204,0.027,2.007c0.486-0.015,0.73-0.021,1.217-0.036
			c0.005,0.37,0.008,0.553,0.014,0.923c-0.486,0.017-0.73,0.025-1.217,0.04c0.012,0.815,0.018,1.222,0.029,2.037
			c-1.529,0.05-2.295,0.071-3.824,0.104c0.007,0.458,0.01,0.688,0.017,1.146c1.665-0.038,2.497-0.064,4.161-0.122
			c0.005,0.347,0.008,0.518,0.013,0.864c-1.664,0.06-2.496,0.086-4.161,0.126c0.007,0.495,0.011,0.74,0.018,1.235
			c1.925-0.049,2.887-0.08,4.811-0.155c0.005,0.37,0.009,0.56,0.014,0.93c-1.924,0.077-2.886,0.108-4.811,0.159
			c0.009,0.604,0.013,0.905,0.021,1.51c-0.494,0.014-0.742,0.02-1.236,0.031c-0.009-0.605-0.014-0.905-0.022-1.511
			c-1.75,0.04-2.624,0.055-4.375,0.072c-0.005-0.375-0.008-0.563-0.013-0.938c1.751-0.017,2.626-0.031,4.376-0.069
			c-0.007-0.495-0.013-0.742-0.02-1.237c-1.453,0.029-2.179,0.039-3.632,0.054c-0.005-0.35-0.007-0.523-0.012-0.873
			c1.453-0.013,2.18-0.023,3.633-0.052c-0.007-0.458-0.012-0.688-0.019-1.147c-1.403,0.025-2.104,0.036-3.508,0.047
			c-0.005-0.369-0.007-0.553-0.012-0.922c1.403-0.01,2.105-0.019,3.509-0.042c-0.007-0.452-0.011-0.681-0.018-1.133
			c-1.813,0.028-2.721,0.038-4.534,0.043c-0.005-0.374-0.009-0.562-0.014-0.937c1.813-0.003,2.72-0.011,4.533-0.037
			C373.929,802.311,373.927,802.086,373.92,801.64z M375.157,801.624c0.007,0.446,0.01,0.665,0.017,1.111
			c1.058-0.02,1.586-0.031,2.644-0.059c-0.006-0.445-0.009-0.665-0.016-1.109C376.744,801.593,376.215,801.606,375.157,801.624z
			 M377.831,803.606c-1.058,0.028-1.587,0.04-2.645,0.061c0.007,0.452,0.01,0.678,0.017,1.13c1.058-0.021,1.586-0.036,2.644-0.065
			C377.84,804.281,377.838,804.057,377.831,803.606z"/>
		<path fill="#FFFFFF" d="M388.163,808.929c0.109,0.278,0.5,0.833,0.492,0.885c-0.142,1.004-3.789,2.805-3.822,2.8
			c-0.052-0.008-0.719-0.877-0.718-0.899c0.004-0.068,0.871-0.729,0.861-1.408c-0.03-2.155-0.047-3.233-0.077-5.389
			c-0.988,0.048-1.482,0.071-2.471,0.112c-0.006-0.431-0.006-0.646-0.012-1.076c1.496-0.061,2.24-0.095,3.735-0.171
			c0.037,2.58,0.056,3.87,0.092,6.451C387.012,809.712,387.396,809.452,388.163,808.929z M386.435,802.365
			c-0.576-0.604-1.75-1.562-2.714-2.233c0.334-0.286,0.501-0.427,0.835-0.713c0.963,0.626,2.177,1.531,2.748,2.104
			C386.957,801.86,386.781,802.028,386.435,802.365z M391.437,800.997c0.021,1.393-2.142,4.46-3.021,4.241
			c-0.096-0.023-0.857-0.776-0.857-0.776c0.019-0.292,2.662-2.308,2.646-3.418c-0.01-0.66-0.014-0.992-0.023-1.652
			c2.227-0.13,3.34-0.202,5.564-0.367c0.021,1.384,0.028,2.074,0.049,3.458c0.006,0.417,0.062,0.547,0.324,0.526
			c0.485-0.039,0.728-0.059,1.213-0.099c0.247-0.021,0.803-0.163,0.828-0.146c0.052,0.035,0.172,0.879,0.137,0.942
			c-0.039,0.07-0.58,0.123-0.933,0.153c-0.527,0.045-0.792,0.066-1.319,0.109c-1.195,0.097-1.466-0.318-1.481-1.423
			c-0.014-0.956-0.022-1.436-0.036-2.391c-1.238,0.089-1.856,0.133-3.096,0.211C391.435,800.619,391.433,800.745,391.437,800.997z
			 M397.435,805.167c-0.659,1.903-3.318,4.578-3.312,4.637c0.026,0.213,4.485,1.121,4.485,1.121
			c0.011,0.031-0.661,0.987-0.795,1.059c-0.695,0.37-4.04-1.439-4.74-1.409c-0.808,0.035-4.271,2.35-4.679,2.149
			c-0.088-0.043-0.661-0.953-0.661-0.953c0.052-0.197,4.324-1.722,4.327-1.805c0.008-0.254-2.248-2.002-2.992-3.322
			c0.099-0.036,0.148-0.055,0.247-0.091c-0.36,0.022-0.542,0.033-0.902,0.056c-0.006-0.421-0.01-0.63-0.016-1.051
			c3.2-0.191,4.801-0.308,7.996-0.573c0.091-0.026,0.138-0.037,0.229-0.063C396.947,805.02,397.109,805.069,397.435,805.167z
			 M390.3,806.488c0.65,1.099,2.23,2.796,2.788,2.769c0.624-0.03,2.09-1.947,2.706-3.178
			C393.598,806.26,392.498,806.342,390.3,806.488z"/>
		<path fill="#FFFFFF" d="M409.535,802.88c-0.904,0.653-1.845,1.277-2.803,1.858c2.899-0.33,4.348-0.511,7.242-0.901
			c0.035,2.439,0.052,3.657,0.087,6.096c-0.531,0.076-0.797,0.112-1.328,0.186c-0.002-0.164-0.006-0.243-0.008-0.407
			c-2.84,0.393-4.263,0.573-7.107,0.907c0.003,0.188,0.008,0.284,0.011,0.473c-0.513,0.061-0.77,0.09-1.283,0.148
			c-0.029-2.042-0.044-3.065-0.073-5.107c-1.049,0.541-2.814,1.61-3.196,1.504c-0.1-0.027-0.841-0.821-0.841-0.821
			c0.053-0.359,4.983-2.241,7.18-3.686c-2.73,0.312-4.098,0.453-6.833,0.711c-0.006-0.397-0.009-0.596-0.015-0.993
			c2.404-0.224,3.605-0.346,6.006-0.611c-0.011-0.754-0.019-1.13-0.029-1.884c-1.79,0.193-2.685,0.284-4.477,0.455
			c-0.006-0.391-0.008-0.585-0.014-0.976c1.792-0.169,2.688-0.262,4.478-0.453c-0.011-0.736-0.016-1.1-0.026-1.836
			c0.513-0.054,0.767-0.082,1.279-0.138c0.011,0.734,0.019,1.101,0.029,1.835c1.734-0.192,2.603-0.294,4.335-0.508
			c0.003,0.24,0.006,0.36,0.009,0.6c0.727-0.705,1.381-1.428,1.968-2.175c0.444,0.142,0.666,0.213,1.11,0.353
			c-1.208,1.501-2.625,2.91-4.204,4.204c2.02-0.249,3.027-0.38,5.044-0.659c0.006,0.39,0.011,0.585,0.017,0.975
			C413.473,802.394,412.159,802.564,409.535,802.88z M412.659,804.934c-2.84,0.376-4.262,0.551-7.106,0.868
			c0.009,0.584,0.011,0.873,0.02,1.457c2.845-0.322,4.267-0.497,7.106-0.878C412.671,805.802,412.667,805.513,412.659,804.934z
			 M412.713,808.765c-0.009-0.608-0.012-0.913-0.021-1.521c-2.84,0.384-4.262,0.56-7.107,0.885c0.009,0.613,0.014,0.92,0.022,1.533
			C408.452,809.331,409.873,809.153,412.713,808.765z M409.085,801.949c0.937-0.699,1.822-1.438,2.635-2.198
			c-1.557,0.192-2.336,0.284-3.894,0.459c0.011,0.752,0.019,1.129,0.029,1.881C408.348,802.034,408.593,802.007,409.085,801.949z"/>
	</g>
</g>
<g>
	<g>
		<path fill="#FFFFFF" d="M359.611,860.887c0.97,1.13,3.846,2.7,3.846,2.7c0.006,0.044-0.713,0.856-0.812,0.885
			c-0.62,0.177-3.308-2.181-4.354-3.678c-2.118-0.153-3.175-0.243-5.289-0.453c-1.018,1.4-3.721,3.34-4.267,3.143
			c-0.133-0.048-0.841-1.024-0.841-1.024c0.04-0.164,2.781-1.215,3.705-2.262c-1.458-0.155-2.188-0.241-3.644-0.424
			c-0.017-0.409-0.024-0.615-0.04-1.024c1.336,0.168,2.005,0.249,3.344,0.394c-0.07-2.067-0.105-3.103-0.176-5.17
			c-1.036-0.112-1.556-0.171-2.59-0.297c-0.016-0.401-0.023-0.603-0.039-1.004c1.036,0.126,1.555,0.185,2.593,0.297
			c-0.021-0.622-0.031-0.934-0.053-1.556c0.5,0.054,0.753,0.078,1.253,0.129c0.02,0.622,0.027,0.936,0.047,1.558
			c2.48,0.252,3.723,0.359,6.209,0.533c-0.014-0.622-0.021-0.933-0.034-1.555c0.515,0.036,0.772,0.053,1.287,0.086
			c0.013,0.622,0.019,0.933,0.031,1.555c1.027,0.065,1.542,0.097,2.57,0.148c0.007,0.401,0.008,0.602,0.015,1.003
			c-1.026-0.052-1.539-0.084-2.564-0.149c0.041,2.065,0.063,3.099,0.104,5.164c1.309,0.083,1.963,0.118,3.272,0.18
			c0.006,0.408,0.01,0.614,0.016,1.022C361.765,861.02,361.046,860.98,359.611,860.887z M356.279,865.193
			c2.316,0.192,3.476,0.272,5.795,0.396c0.007,0.407,0.011,0.612,0.018,1.02c-5.062-0.271-7.59-0.486-12.629-1.084
			c-0.016-0.408-0.022-0.615-0.038-1.023c2.243,0.266,3.364,0.383,5.612,0.584c-0.02-0.68-0.028-1.019-0.048-1.698
			c-1.373-0.123-2.059-0.192-3.43-0.339c-0.014-0.396-0.019-0.595-0.032-0.99c1.373,0.147,2.059,0.216,3.434,0.339
			c-0.016-0.544-0.021-0.816-0.036-1.36c0.5,0.045,0.751,0.066,1.251,0.107c0.015,0.544,0.02,0.817,0.034,1.361
			c1.409,0.117,2.113,0.169,3.523,0.261c0.008,0.395,0.013,0.593,0.021,0.987c-1.408-0.092-2.112-0.143-3.52-0.26
			C356.252,864.174,356.262,864.514,356.279,865.193z M352.327,854.104c0.014,0.434,0.022,0.651,0.036,1.085
			c2.473,0.252,3.709,0.357,6.187,0.531c-0.01-0.434-0.014-0.649-0.023-1.083C356.045,854.464,354.804,854.356,352.327,854.104z
			 M352.43,857.214c2.465,0.251,3.697,0.355,6.167,0.529c-0.01-0.447-0.017-0.669-0.026-1.116c-2.474-0.174-3.709-0.281-6.178-0.533
			C352.407,856.541,352.415,856.767,352.43,857.214z M352.494,859.271c2.456,0.25,3.688,0.357,6.148,0.53
			c-0.01-0.46-0.018-0.691-0.027-1.151c-2.466-0.173-3.697-0.278-6.158-0.528C352.472,858.581,352.479,858.811,352.494,859.271z"/>
		<path fill="#FFFFFF" d="M373.114,858.49c-0.001,0.88,0,1.319-0.001,2.199c2.368-0.008,3.554-0.027,5.921-0.105
			c-0.005,0.439-0.008,0.658-0.013,1.099c-2.363,0.078-3.547,0.102-5.91,0.109c-0.002,1.578-0.001,2.367-0.002,3.945
			c2.652-0.009,3.979-0.033,6.63-0.131c-0.005,0.446-0.01,0.667-0.015,1.113c-5.77,0.212-8.659,0.213-14.429,0
			c-0.005-0.446-0.008-0.667-0.013-1.113c2.611,0.097,3.918,0.122,6.53,0.131c-0.002-1.578-0.003-2.367-0.005-3.945
			c-2.323-0.008-3.485-0.032-5.808-0.109c-0.005-0.44-0.008-0.658-0.013-1.099c2.326,0.077,3.49,0.098,5.817,0.105
			c-0.001-0.88,0-1.319-0.001-2.199c-1.471-0.005-2.209-0.014-3.68-0.047c-0.003-0.356-0.002-0.534-0.005-0.891
			c-0.865,0.434-2.404,1.221-2.694,1.104c-0.134-0.054-0.861-1.134-0.861-1.134c0.089-0.382,6.289-2.72,7.922-5.113
			c0.468,0.207,0.7,0.312,1.167,0.516c-0.12,0.179-0.433,0.512-0.429,0.584c0.044,0.806,7.271,4.012,7.271,4.012
			c0.01,0.043-0.78,1.041-0.898,1.086c-0.32,0.121-1.813-0.687-2.73-1.168c-0.003,0.401-0.004,0.603-0.007,1.004
			C375.362,858.477,374.612,858.485,373.114,858.49z M368.459,862.105c0.665,0.919,1.362,2.141,1.635,2.92
			c-0.438,0.169-0.656,0.255-1.093,0.422c-0.239-0.748-0.921-2.041-1.571-2.963C367.841,862.333,368.047,862.259,368.459,862.105z
			 M376.662,857.332c-1.529-0.825-3.78-3.003-4.142-2.999c-0.471,0.005-2.497,2.19-3.992,3.001
			C371.781,857.399,373.409,857.4,376.662,857.332z M374.642,865.111c0.593-0.799,1.358-2.09,1.771-3.004
			c0.473,0.165,0.709,0.25,1.181,0.412c-0.616,1.034-1.399,2.198-2.009,2.969C375.207,865.339,375.019,865.263,374.642,865.111z"/>
		<path fill="#FFFFFF" d="M390.946,852.22c-0.177,0.226-0.521,0.612-0.513,0.691c0.073,0.677,6.906,3.419,6.906,3.419
			c0.013,0.044-0.78,1.121-0.922,1.179c-0.979,0.397-6.247-3.745-6.746-3.722c-0.475,0.022-2.427,2.332-3.909,3.32
			c3.146-0.211,4.718-0.346,7.856-0.683c-0.015,0.447-0.021,0.671-0.036,1.118c-3.221,0.346-4.837,0.484-8.066,0.697
			c0.008-0.395,0.015-0.593,0.022-0.987c-0.897,0.593-2.522,1.694-2.835,1.605c-0.11-0.031-0.9-0.972-0.9-0.975
			c0.056-0.503,6.357-3.756,7.942-6.058C390.228,851.985,390.466,852.063,390.946,852.22z M382.562,860.387
			c5.567-0.285,8.35-0.525,13.893-1.204c-0.018,0.467-0.027,0.699-0.045,1.166c-2.938,0.359-4.408,0.513-7.354,0.761
			c-1.082,1.416-2.295,2.816-3.527,3.933c3.058-0.423,4.587-0.663,7.643-1.207c-0.582-0.616-1.266-1.239-1.889-1.745
			c0.432-0.261,0.646-0.395,1.079-0.658c1.459,1.145,2.971,2.679,3.659,3.806c-0.451,0.319-0.675,0.479-1.125,0.796
			c-0.22-0.362-0.625-1.135-0.871-1.224c-4.158-1.511-10.319,1.913-10.438,1.858c-0.063-0.029-0.432-1.162-0.4-1.221
			c0.043-0.081,0.75-0.453,1.262-0.916c0.446-0.403,1.766-1.762,2.898-3.286c-1.92,0.146-2.881,0.206-4.804,0.305
			C382.55,861.084,382.554,860.853,382.562,860.387z"/>
	</g>
</g>
<g>
	<g>
		<path fill="#FFFFFF" d="M351.361,901.586c0.062,1.835,0.095,2.752,0.156,4.587c0.023,0.686-0.167,0.984-0.584,1.123
			c-0.406,0.135-1.936,0.267-2.258-0.033c-0.098-0.091-0.432-1.174-0.432-1.174c0.056-0.074,1.531,0.196,1.732,0.22
			c0.235,0.027,0.315-0.042,0.308-0.271c-0.06-1.686-0.089-2.531-0.148-4.217c-0.846,0.145-1.269,0.218-2.111,0.354
			c-0.167-0.488-0.252-0.731-0.42-1.221c0.688-0.076,1.545-0.204,2.486-0.357c-0.05-1.404-0.075-2.104-0.125-3.508
			c-0.93-0.105-1.395-0.161-2.323-0.277c-0.018-0.457-0.027-0.685-0.045-1.142c0.93,0.116,1.396,0.171,2.327,0.276
			c-0.046-1.307-0.068-1.958-0.114-3.265c0.503,0.057,0.752,0.083,1.255,0.137c0.044,1.306,0.066,1.959,0.11,3.265
			c0.85,0.091,1.273,0.134,2.124,0.216c0.014,0.457,0.021,0.683,0.035,1.14c-0.849-0.082-1.272-0.121-2.121-0.212
			c0.043,1.273,0.063,1.911,0.106,3.185c0.627-0.108,0.943-0.166,1.571-0.279c0.082,0.451,0.122,0.679,0.204,1.129
			C352.401,901.395,352.054,901.459,351.361,901.586z M362.001,901.129c-0.649,1.921-3.229,4.318-3.225,4.462
			c0.008,0.283,4.516,1.938,4.516,1.938c0.01,0.042-0.669,1.021-0.776,1.069c-0.614,0.275-4.071-2.289-4.771-2.332
			c-0.739-0.045-4.387,1.92-4.883,1.624c-0.118-0.07-0.657-1.175-0.657-1.175c0.069-0.174,4.488-1.182,4.507-1.311
			c0.042-0.301-2.144-2.461-2.867-3.978c0.067-0.02,0.101-0.029,0.168-0.049c-0.266-0.024-0.398-0.038-0.664-0.063
			c-0.014-0.457-0.018-0.686-0.031-1.143c3.045,0.295,4.569,0.41,7.622,0.587c0.096-0.014,0.143-0.021,0.238-0.034
			C361.508,900.888,361.672,900.969,362.001,901.129z M356.039,895.681c0.037,1.452-1.811,4.315-2.447,4.127
			c-0.099-0.029-0.849-0.957-0.846-0.975c0.059-0.333,2.12-2.128,2.088-3.286c-0.02-0.718-0.028-1.078-0.048-1.796
			c2.171,0.191,3.256,0.271,5.43,0.403c0.028,1.507,0.043,2.26,0.072,3.767c0.009,0.457,0.063,0.624,0.338,0.641
			c0.527,0.031,0.792,0.047,1.319,0.074c0.256,0.014,0.818-0.064,0.853-0.038c0.063,0.05,0.161,0.983,0.122,1.046
			c-0.038,0.06-0.582,0.053-0.924,0.035c-0.575-0.03-0.863-0.045-1.438-0.079c-1.182-0.07-1.461-0.565-1.486-1.772
			c-0.022-1.044-0.033-1.565-0.056-2.609c-1.198-0.08-1.796-0.127-2.993-0.225C356.029,895.268,356.032,895.406,356.039,895.681z
			 M355.068,901.475c0.629,1.244,2.153,3.3,2.659,3.325s1.996-1.733,2.585-2.936C358.214,901.736,357.164,901.658,355.068,901.475z"
			/>
		<path fill="#FFFFFF" d="M369.967,899.121c-1.643,0.501-3.383,1.012-4.744,1.386c-0.149-0.455-0.225-0.684-0.374-1.139
			c1.229-0.278,3.075-0.779,4.928-1.31C369.854,898.483,369.89,898.696,369.967,899.121z M373.285,903.108
			c-0.566,3.245-6.209,6.664-7.769,5.635c-0.09-0.06-0.568-1.014-0.568-1.014c0.238-0.563,6.603-1.932,7.112-4.619
			C372.551,903.111,372.795,903.11,373.285,903.108z M368.997,897.102c-0.775-0.583-2.35-1.369-3.594-1.853
			c0.252-0.33,0.379-0.494,0.631-0.825c1.245,0.446,2.836,1.18,3.631,1.744C369.397,896.542,369.264,896.729,368.997,897.102z
			 M376.761,905.88c0.009-1.317,0.013-1.975,0.021-3.292c-3.361,0.076-5.045,0.079-8.406,0.012c0.009,1.362,0.013,2.043,0.021,3.405
			c-0.494-0.01-0.74-0.017-1.234-0.029c-0.015-1.806-0.021-2.709-0.036-4.515c4.375,0.116,6.567,0.112,10.943-0.016
			c-0.016,1.76-0.024,2.643-0.04,4.403C377.522,905.863,377.269,905.868,376.761,905.88z M375.536,896.37
			c-0.088,0.295-0.315,0.681-0.297,0.837c0.107,0.901,4.896,2.8,4.896,2.8c0.008,0.03-0.66,0.923-0.778,0.975
			c-0.721,0.313-4.495-2.831-4.621-2.823c-0.277,0.017-3.812,3.373-4.502,3.052c-0.093-0.043-0.688-0.887-0.688-0.887
			c0.087-0.348,4.192-2.25,4.696-3.934c-0.813,0.008-1.216,0.009-2.028,0.008c-0.481,0.652-1.587,1.876-1.786,1.849
			c-0.097-0.013-0.896-0.751-0.897-0.762c-0.017-0.261,2.268-2.358,2.699-3.483c0.491,0.065,0.737,0.096,1.229,0.158
			c-0.175,0.425-0.384,0.851-0.625,1.274c2.331-0.006,3.497-0.027,5.827-0.102c0.083-0.022,0.125-0.031,0.208-0.054
			c0.371,0.086,0.558,0.129,0.929,0.213c-0.443,0.912-0.983,1.908-1.402,2.557c-0.445-0.11-0.67-0.164-1.115-0.276
			c0.262-0.382,0.523-0.926,0.804-1.456C377.064,896.345,376.556,896.354,375.536,896.37z M373.469,905.439
			c2.069,0.607,4.876,1.528,6.338,2.188c-0.302,0.409-0.455,0.614-0.756,1.022c-1.394-0.669-4.175-1.665-6.276-2.329
			C373.053,905.969,373.189,905.793,373.469,905.439z"/>
		<path fill="#FFFFFF" d="M390.764,899.382c-0.904,0.687-1.843,1.339-2.792,1.936c2.814-0.224,4.222-0.362,7.028-0.688
			c-0.099,2.73-0.149,4.096-0.248,6.826c-0.511,0.06-0.765,0.091-1.275,0.146c0.006-0.183,0.008-0.275,0.014-0.458
			c-2.726,0.297-4.089,0.419-6.82,0.62c-0.005,0.209-0.009,0.313-0.014,0.522c-0.492,0.036-0.739,0.053-1.231,0.086
			c0.047-2.257,0.071-3.384,0.119-5.641c-1.03,0.541-2.813,1.581-3.134,1.473c-0.096-0.032-0.786-0.941-0.783-0.956
			c0.088-0.417,4.886-2.186,7.071-3.686c-2.657,0.221-3.985,0.309-6.646,0.439c0.007-0.438,0.009-0.654,0.016-1.092
			c2.344-0.115,3.517-0.191,5.857-0.376c0.021-0.835,0.031-1.252,0.052-2.087c-1.751,0.138-2.626,0.197-4.379,0.297
			c0.008-0.431,0.012-0.646,0.02-1.076c1.756-0.1,2.634-0.158,4.388-0.297c0.021-0.815,0.03-1.226,0.051-2.041
			c0.503-0.04,0.755-0.059,1.258-0.102c-0.022,0.816-0.035,1.223-0.058,2.039c1.698-0.145,2.548-0.227,4.243-0.407
			c-0.009,0.268-0.015,0.403-0.023,0.671c0.744-0.763,1.419-1.557,2.032-2.376c0.425,0.172,0.642,0.256,1.065,0.425
			c-1.26,1.65-2.714,3.185-4.307,4.565c1.968-0.198,2.953-0.312,4.917-0.56c-0.018,0.438-0.027,0.654-0.045,1.093
			C394.592,899.002,393.316,899.143,390.764,899.382z M393.673,901.804c-2.749,0.3-4.126,0.424-6.881,0.627
			c-0.015,0.646-0.024,0.971-0.039,1.617c2.748-0.202,4.121-0.326,6.863-0.625C393.639,902.776,393.65,902.45,393.673,901.804z
			 M393.525,906.085c0.023-0.68,0.036-1.023,0.06-1.703c-2.738,0.299-4.108,0.426-6.853,0.628c-0.016,0.679-0.024,1.018-0.04,1.696
			C389.429,906.505,390.795,906.382,393.525,906.085z M390.369,898.329c0.942-0.736,1.84-1.528,2.669-2.347
			c-1.522,0.159-2.285,0.234-3.809,0.364c-0.022,0.835-0.034,1.253-0.057,2.088C389.652,898.394,389.89,898.373,390.369,898.329z"/>
	</g>
</g>
<g>
	<path fill="#FFFFFF" d="M375.375,673.459c6.406-1.515,10.929-5.135,10.929-9.351c0-5.577-7.912-10.113-17.635-10.113
		c-9.718,0-17.626,4.536-17.626,10.113c0,4.195,4.479,7.803,10.842,9.331c-4.998,1.425-8.437,4.379-8.437,7.791
		c0,0.463,0.649,0.84,1.464,0.84c0.806,0,1.464-0.377,1.464-0.84c0-3.866,5.482-7.011,12.221-7.011
		c6.739,0,12.224,3.145,12.224,7.011c0,0.463,0.652,0.84,1.461,0.84c0.812,0,1.464-0.377,1.464-0.84
		C383.745,677.836,380.335,674.889,375.375,673.459z M353.972,664.108c0-4.652,6.599-8.434,14.697-8.434
		c8.107,0,14.704,3.781,14.704,8.434c0,4.648-6.597,8.432-14.704,8.432C360.57,672.54,353.972,668.757,353.972,664.108z"/>
	<path fill="#FFFFFF" d="M376.052,667.771c0.414-0.397,0.189-0.912-0.506-1.15c-0.694-0.237-1.591-0.107-2.009,0.292
		c-1.064,1.021-2.922,1.634-4.974,1.634c-2.046,0-3.9-0.612-4.971-1.634c-0.411-0.399-1.307-0.529-2.01-0.292
		c-0.695,0.238-0.921,0.753-0.503,1.15c1.6,1.539,4.396,2.456,7.483,2.456C371.652,670.228,374.453,669.311,376.052,667.771z"/>
</g>
<linearGradient id="SVGID_23_" gradientUnits="userSpaceOnUse" x1="304.457" y1="441.0967" x2="369.4268" y2="441.0967">
	<stop  offset="0" style="stop-color:#EE465F"/>
	<stop  offset="1" style="stop-color:#F77A4E"/>
</linearGradient>
<circle fill="url(#SVGID_23_)" cx="336.942" cy="441.096" r="32.485"/>
<linearGradient id="SVGID_24_" gradientUnits="userSpaceOnUse" x1="55.6943" y1="593.2637" x2="131.0225" y2="593.2637">
	<stop  offset="0" style="stop-color:#EE465F"/>
	<stop  offset="1" style="stop-color:#F77A4E"/>
</linearGradient>
<circle fill="url(#SVGID_24_)" cx="93.358" cy="593.266" r="37.664"/>
<linearGradient id="SVGID_25_" gradientUnits="userSpaceOnUse" x1="123.458" y1="746.1611" x2="188.4268" y2="746.1611">
	<stop  offset="0" style="stop-color:#22E0E7"/>
	<stop  offset="1" style="stop-color:#3EA8F2"/>
</linearGradient>
<circle fill="url(#SVGID_25_)" cx="155.942" cy="746.161" r="32.484"/>
<linearGradient id="SVGID_26_" gradientUnits="userSpaceOnUse" x1="523.1045" y1="517.0869" x2="592.1689" y2="517.0869">
	<stop  offset="0" style="stop-color:#22E0E7"/>
	<stop  offset="1" style="stop-color:#3EA8F2"/>
</linearGradient>
<circle fill="url(#SVGID_26_)" cx="557.637" cy="517.087" r="34.532"/>
<linearGradient id="SVGID_27_" gradientUnits="userSpaceOnUse" x1="625.2412" y1="663.8545" x2="694.3066" y2="663.8545">
	<stop  offset="0" style="stop-color:#FF9768"/>
	<stop  offset="1" style="stop-color:#FFBA9A"/>
</linearGradient>
<circle fill="url(#SVGID_27_)" cx="659.774" cy="663.854" r="34.533"/>
<linearGradient id="SVGID_28_" gradientUnits="userSpaceOnUse" x1="551.1211" y1="785.1162" x2="603.3516" y2="785.1162">
	<stop  offset="0" style="stop-color:#FF4686"/>
	<stop  offset="1" style="stop-color:#FF9EFD"/>
</linearGradient>
<circle fill="url(#SVGID_28_)" cx="577.236" cy="785.116" r="26.115"/>
<linearGradient id="SVGID_29_" gradientUnits="userSpaceOnUse" x1="210.54" y1="567.4688" x2="262.7734" y2="567.4688">
	<stop  offset="0" style="stop-color:#FF4686"/>
	<stop  offset="1" style="stop-color:#FF9EFD"/>
</linearGradient>
<circle fill="url(#SVGID_29_)" cx="236.657" cy="567.468" r="26.117"/>
<linearGradient id="SVGID_30_" gradientUnits="userSpaceOnUse" x1="420.2988" y1="541.3535" x2="472.5293" y2="541.3535">
	<stop  offset="0" style="stop-color:#FF9768"/>
	<stop  offset="1" style="stop-color:#FFBA9A"/>
</linearGradient>
<circle fill="url(#SVGID_30_)" cx="446.414" cy="541.354" r="26.115"/>
<g>
	<path fill="#FFFFFF" d="M338.262,425.697c-7.282,0.1-13.08,6.066-12.791,13.109c-0.019,0.099-0.014,0.113-0.014,0.99l-2.889,4.557
		c-0.334,0.537,0.059,1.225,0.704,1.225h2.185v3.498c0,1.537,1.283,2.783,2.861,2.783h4.754v3.835c0,0.213,0.092,0.416,0.244,0.566
		c0.154,0.147,0.362,0.235,0.58,0.235h9.098c0.217-0.006,0.421-0.088,0.579-0.235c0.153-0.15,0.24-0.354,0.24-0.566
		c0-3.398,1.347-6.196,3.491-8.146c2.621-2.377,4.131-5.746,4.131-9.231C351.436,431.271,345.514,425.588,338.262,425.697z
		 M347.032,443.959c-0.958,2.45-4.548,2.396-5.741-1.472c-0.05-0.174-0.127-0.407-0.177-0.525c-0.28-0.022-2.843,0.487-3.534-1.569
		c-0.168-0.493-0.148-0.977-0.132-1.369c0-0.153,0.028-0.596-0.071-0.75c-0.578-0.282-3.232,1.441-5.217-1.791
		c-1.473-2.392-0.127-4.429,0.787-5.177c4.356-3.521,10.401-2.227,13.324,2.749C348.012,437.025,348.297,440.723,347.032,443.959z"
		/>
	<path fill="#FFFFFF" d="M345.603,443.264c-0.134,0.352-0.442,0.614-0.813,0.614c-0.945,0-1.628-0.658-2.025-1.951
		c-0.344-1.122-0.678-1.846-2.16-1.665c-0.651,0.072-1.42-0.036-1.563-0.47c-0.083-0.227-0.028-0.643-0.028-1.066
		c0-0.905-0.315-1.624-0.877-1.963c-1.519-0.93-3.153,1.243-4.692-1.256c-0.938-1.528,0.19-2.605,0.425-2.794
		c3.634-2.934,8.661-1.854,11.103,2.297C346.427,437.523,346.661,440.561,345.603,443.264L345.603,443.264z"/>
</g>
<path fill="#FFFFFF" d="M569.614,503.272h-23.956c-2.203,0-3.993,1.86-3.993,4.15v15.558c0,2.291,1.827,4.404,4.084,4.404h6.085
	c1.062,1.13,5.449,5.682,5.449,5.682c0.195,0.203,0.512,0.203,0.708,0c0,0,3.212-3.648,5.308-5.682h6.225
	c2.255,0,4.085-2.113,4.085-4.404v-15.558C573.608,505.133,571.818,503.272,569.614,503.272z M549.652,517.247
	c-1.104,0-1.997-0.891-1.997-1.996c0-1.103,0.894-1.996,1.997-1.996c1.102,0,1.995,0.894,1.995,1.996
	C551.647,516.356,550.754,517.247,549.652,517.247z M557.637,517.247c-1.102,0-1.997-0.891-1.997-1.996
	c0-1.103,0.896-1.996,1.997-1.996s1.997,0.894,1.997,1.996C559.634,516.356,558.738,517.247,557.637,517.247z M565.621,517.247
	c-1.102,0-1.995-0.891-1.995-1.996c0-1.103,0.894-1.996,1.995-1.996c1.104,0,1.997,0.894,1.997,1.996
	C567.618,516.356,566.725,517.247,565.621,517.247z"/>
<g>
	<path fill="#FFFFFF" d="M585.95,783.04h-5.558c2.151-7.956-1.485-8.363-1.485-8.363c-1.543,0-1.225,1.22-1.34,1.424
		c0,3.89-4.132,6.939-4.132,6.939v11.033c0,1.089,1.484,1.48,2.065,1.48h8.353c0.785,0,1.427-2.061,1.427-2.061
		c2.066-7.028,2.066-9.118,2.066-9.118C587.347,782.924,585.95,783.04,585.95,783.04L585.95,783.04L585.95,783.04L585.95,783.04z"/>
	<path fill="#FFFFFF" d="M571.153,783.043h-3.328c-0.688,0-0.698,0.676-0.698,0.676l0.687,11.125c0,0.71,0.709,0.71,0.709,0.71
		h2.881c0.602,0,0.598-0.468,0.598-0.468v-11.199C572.001,783.032,571.153,783.043,571.153,783.043L571.153,783.043L571.153,783.043
		L571.153,783.043z"/>
</g>
<path fill="#FFFFFF" d="M83.665,590.635c-0.706-0.331-1.739-0.684-2.909-0.99c-1.172-0.311-2.253-0.51-3.025-0.579
	c-0.531-0.043-0.796-0.063-0.815,0c-0.022,0.048,0.22,0.178,0.705,0.401c0.705,0.33,1.745,0.683,2.915,0.99
	c1.17,0.313,2.25,0.51,3.023,0.576c0.527,0.044,0.793,0.064,0.816,0C84.375,590.987,84.154,590.855,83.665,590.635z
	 M107.573,596.417v-1.632h5.585v14.922h-5.585v-2.338l-7.173-2.761l-16.643,2.055l-9.25-4.77l0.289-1.744l-1.237-1.017l0.175-1.853
	l-0.175-0.796l0.728-2.76l11.257,3.599l8.809-2.382l-0.021-0.686h-6.91l1.392-3.336l12.493-1.982l5.651,7.28L107.573,596.417z
	 M80.931,588.959c1.238,0.328,2.343,0.705,3.135,1.08c0.685,0.31,1.167,0.639,1.367,0.972c0.111,0.176,0.134,0.31,0.09,0.466
	c-0.176,0.683-0.375,1.411-0.553,2.096c-0.108,0.221-0.177,0.306-0.353,0.375c-1.479,0.685-8.432-1.038-9.38-2.497
	c-0.112-0.175-0.155-0.284-0.112-0.483c0.178-0.686,0.378-1.412,0.552-2.098c0.047-0.152,0.11-0.244,0.29-0.352
	c0.327-0.177,0.926-0.244,1.674-0.177C78.547,588.429,79.695,588.625,80.931,588.959z M88.236,587.213
	c-0.242-0.748-0.705-1.743-1.277-2.804c-0.576-1.058-1.172-1.987-1.656-2.602c-0.333-0.421-0.51-0.62-0.553-0.599
	s0.021,0.264,0.198,0.796c0.242,0.752,0.708,1.744,1.28,2.804c0.574,1.058,1.17,1.986,1.658,2.604
	c0.327,0.421,0.505,0.62,0.549,0.598C88.479,587.986,88.392,587.743,88.236,587.213z M87.573,584.079
	c0.619,1.126,1.084,2.185,1.37,3.026c0.241,0.706,0.333,1.278,0.221,1.654c-0.043,0.199-0.131,0.306-0.264,0.398
	c-0.618,0.328-1.282,0.706-1.92,1.034c-0.241,0.089-0.333,0.089-0.509,0c-1.502-0.617-5.01-6.841-4.613-8.52
	c0.046-0.22,0.089-0.308,0.288-0.396c0.618-0.331,1.278-0.708,1.919-1.037c0.155-0.067,0.263-0.089,0.463-0.021
	c0.379,0.108,0.818,0.507,1.283,1.102C86.339,581.983,86.98,582.956,87.573,584.079z M92.058,578.429
	c-0.378,0.595-0.796,1.479-1.191,2.475c-0.397,1.013-0.685,1.916-0.84,2.602c-0.11,0.463-0.133,0.705-0.09,0.705
	c0.047,0.023,0.179-0.174,0.42-0.57c0.376-0.6,0.795-1.482,1.195-2.473c0.392-0.995,0.681-1.923,0.836-2.606
	c0.111-0.463,0.133-0.707,0.09-0.707C92.431,577.832,92.299,578.009,92.058,578.429z M90.268,580.682
	c-0.421,1.059-0.726,2.054-0.883,2.803c-0.13,0.662-0.154,1.189-0.021,1.5c0.066,0.152,0.134,0.241,0.286,0.287
	c0.597,0.245,1.216,0.486,1.808,0.729c0.18,0.064,0.268,0.043,0.443-0.043c1.368-0.686,3.644-6.645,3.223-8.014
	c-0.044-0.156-0.108-0.221-0.285-0.355c-0.599-0.242-1.212-0.485-1.813-0.729c-0.131-0.063-0.262-0.043-0.418,0.022
	c-0.309,0.155-0.664,0.53-1.013,1.104C91.151,578.672,90.689,579.619,90.268,580.682z"/>
<g>
	<path fill="#FFFFFF" d="M675.162,659.874l-25.095,0.079l-2.546-8.49h-5.095c-0.086,0.065-0.848,0.657-0.848,1.697
		c0,0.106,0.015,1.073,0.848,1.698h3.397l5.087,20.429l4.246,0.012c0.87-2.692,3.393-4.637,6.375-4.637
		c2.992,0,5.525,1.959,6.385,4.663l2.996,0.008c2.023-6.188,3.438-10.763,3.78-11.981c0.29-1.034,0.342-2.036,0.342-2.036
		C675.093,660.837,675.136,660.356,675.162,659.874z"/>
	<path fill="#FFFFFF" d="M656.863,677.361c-0.002,2.578,2.086,4.673,4.665,4.673c2.583,0,4.672-2.091,4.675-4.667
		c0-0.001,0-0.006,0-0.006c0-2.58-2.092-4.67-4.671-4.67C658.951,672.691,656.863,674.781,656.863,677.361L656.863,677.361z"/>
	<path fill="#FFFFFF" d="M674.693,658.258l-5.941-6.795c-0.022-0.028-0.312-0.467-0.851-0.467c-0.542,0.002-0.83,0.438-0.851,0.467
		l-1.697,2.549c-0.181,0.325-0.526,0.528-0.896,0.511c-0.527-0.023-0.79-0.487-0.804-0.511l-4.245-5.098
		c-0.05-0.066-0.278-0.363-0.684-0.425c-0.379-0.058-0.767,0.108-1.015,0.425c-0.639,0.661-3.727,3.865-5.4,6.202
		c-0.347,0.485-0.864,1.259-0.634,2.039c0.172,0.584,0.689,0.929,1.017,1.103H674.693z"/>
</g>
<path fill="#FFFFFF" d="M155.945,736.116h-2.475c-0.004,0-0.004,0-0.01,0c-0.678,0-1.227,0.549-1.227,1.226c0,0.006,0,0.006,0,0.012
	v3.404c0,0.687,0.857,1.229,1.551,1.229h2.16c0.006,0,0.006,0,0.012,0c0.675,0,1.224-0.543,1.224-1.219c0-0.005,0-0.011,0-0.011
	v-3.404c0-0.006,0-0.006,0-0.012c0-0.677-0.549-1.226-1.224-1.226C155.951,736.116,155.951,736.116,155.945,736.116L155.945,736.116
	L155.945,736.116z M163.988,745.084h-2.475c-0.007,0-0.012,0-0.012,0c-0.682,0-1.23,0.55-1.23,1.225c0,0.006,0,0.011,0,0.011v3.403
	c0,0.688,0.858,1.238,1.552,1.238h2.165c0,0,0,0,0.004,0c0.678,0,1.227-0.55,1.227-1.23c0,0,0,0,0-0.012v-3.399c0,0,0-0.005,0-0.011
	c0-0.675-0.549-1.225-1.221-1.225C163.988,745.084,163.988,745.084,163.988,745.084L163.988,745.084L163.988,745.084z
	 M171.604,760.525l-32.131-0.02c0,0-3.455,0.156-0.719-2.443c0.727-0.396,1.565-0.765,2.512-1.099
	c-0.235-0.512-0.368-1.11-0.368-1.749l0,0c0-2.243,1.685-4.06,3.761-4.06c2.073,0,3.76,1.816,3.76,4.06
	c0,0.043-0.011,0.09-0.011,0.138c0.242-0.027,0.483-0.06,0.737-0.088v-21.006c0-1.375,1.021-2.476,2.403-2.476h14.415
	c1.385,0,2.346,1.101,2.346,2.476v22.184c1.682,0.471,3.135,1.033,4.266,1.666C176.698,760.855,171.604,760.525,171.604,760.525
	L171.604,760.525L171.604,760.525z M155.945,745.084h-2.475c-0.004,0-0.004,0-0.01,0c-0.678,0-1.227,0.55-1.227,1.225
	c0,0.006,0,0.011,0,0.011v3.403c0,0.688,0.857,1.238,1.551,1.238h2.16c0.006,0,0.006,0,0.012,0c0.675,0,1.224-0.55,1.224-1.23
	c0,0,0,0,0-0.012v-3.399c0,0,0-0.005,0-0.011c0-0.675-0.549-1.225-1.224-1.225C155.951,745.084,155.951,745.084,155.945,745.084
	L155.945,745.084L155.945,745.084z M163.988,736.116h-2.475c-0.007,0-0.012,0-0.012,0c-0.682,0-1.23,0.549-1.23,1.226
	c0,0.006,0,0.006,0,0.012v3.404c0,0.687,0.858,1.229,1.552,1.229h2.165c0,0,0,0,0.01,0c0.672,0,1.221-0.543,1.221-1.219
	c0-0.005,0-0.011,0-0.011v-3.404c0-0.006,0-0.006,0-0.012c0-0.677-0.549-1.226-1.221-1.226
	C163.988,736.116,163.988,736.116,163.988,736.116L163.988,736.116L163.988,736.116z"/>
<path fill="#FFFFFF" d="M247.853,562.813c-0.093-0.005-0.184,0.016-0.271,0.052l-9.408,4.879h-0.007
	c-0.403,0.236-0.655,0.667-0.661,1.134v9.852c0,0.338,0.296,0.608,0.671,0.608c0.113,0.002,0.222-0.024,0.323-0.073
	c0.012-0.006,0.022-0.012,0.026-0.018l9.258-4.911l0.017-0.005c0.434-0.236,0.724-0.672,0.724-1.17v-9.739
	C248.524,563.083,248.224,562.813,247.853,562.813z M247.164,560.184l-9.628-4.328c0,0-0.566-0.255-0.879-0.255
	c-0.312,0-0.875,0.255-0.875,0.255l-9.635,4.328c0,0-0.424,0.175-0.424,0.504c0,0.348,0.441,0.608,0.441,0.608l9.826,5.183
	c0.2,0.09,0.428,0.137,0.668,0.137c0.242,0,0.47-0.053,0.672-0.142l9.824-5.189c0,0,0.396-0.21,0.396-0.608
	C247.559,560.344,247.164,560.184,247.164,560.184L247.164,560.184z M235.147,567.744l-9.415-4.886
	c-0.086-0.034-0.179-0.053-0.27-0.053c-0.372,0-0.674,0.27-0.674,0.609v9.738c0,0.499,0.291,0.932,0.725,1.172l0.01,0.005
	l9.259,4.912c0.106,0.06,0.228,0.092,0.35,0.09c0.371,0,0.673-0.277,0.673-0.61v-9.843
	C235.801,568.411,235.552,567.979,235.147,567.744L235.147,567.744z"/>
<path fill="#FFFFFF" d="M448.792,528.687h-4.752c-4.372,0-7.916,3.543-7.916,7.916v9.5c0,4.374,3.544,7.918,7.916,7.918h4.749
	c4.373,0,7.917-3.544,7.917-7.918v-9.5C456.706,532.229,453.162,528.687,448.792,528.687z M448.792,538.733
	c0,1.313-1.065,2.376-2.376,2.376c-1.313,0-2.376-1.063-2.376-2.376v-3.167c0-1.314,1.063-2.377,2.376-2.377
	s2.376,1.063,2.376,2.377V538.733z"/>
<g>
	<path fill="#3E3F3F" d="M544.377,578.818c0.042,0.688,0.09,1.281,0.145,1.777c-1.776,1.226-3.209,2.279-4.297,3.161l-0.972-1.385
		c0.469-0.399,0.703-0.964,0.703-1.694v-7.975h-2.583v-1.488h4.174v9.67C542.456,580.237,543.399,579.549,544.377,578.818z
		 M539.48,564.418c1.501,1.543,2.59,2.686,3.265,3.43l-1.446,1.219c-0.868-1.144-1.895-2.328-3.079-3.554L539.48,564.418z
		 M542.827,574.976h6.694v-7.996h-5.578v-1.55h12.852v1.55h-5.6v7.996h6.735v1.57h-6.735v7.769h-1.674v-7.769h-6.694V574.976z
		 M543.84,569.149l1.302-0.785c1.033,1.487,1.956,2.934,2.769,4.339l-1.446,0.93C545.541,571.925,544.666,570.43,543.84,569.149z
		 M552.662,572.765c0.992-1.35,1.915-2.816,2.769-4.4l1.509,0.909c-0.896,1.46-1.881,2.947-2.955,4.463L552.662,572.765z"/>
	<path fill="#3E3F3F" d="M565.493,579.397c0.041,0.716,0.089,1.309,0.145,1.776c-1.543,1.033-2.927,2.025-4.153,2.976l-0.971-1.385
		c0.468-0.386,0.702-0.978,0.702-1.776v-8.161h-2.686v-1.529h4.297v9.979C563.641,580.727,564.528,580.1,565.493,579.397z
		 M561.03,564.5c1.501,1.543,2.589,2.687,3.265,3.43l-1.446,1.22c-0.868-1.144-1.895-2.328-3.079-3.554L561.03,564.5z
		 M572.786,564.314l-0.269,0.476c1.64,2.906,3.856,5.048,6.653,6.425c-0.399,0.482-0.799,0.999-1.198,1.55
		c-2.728-1.804-4.849-3.974-6.364-6.508c-1.474,2.438-3.622,4.628-6.446,6.57c-0.399-0.579-0.778-1.054-1.136-1.426
		c3.126-1.846,5.406-4.208,6.839-7.087H572.786z M567.208,572.207h1.652v4.339c2.645-1.144,4.808-2.466,6.488-3.967l1.156,1.363
		c-2.135,1.681-4.683,3.12-7.645,4.318v2.707c0,0.908,0.413,1.363,1.24,1.363h4.111c0.991,0,1.563-0.44,1.715-1.322
		c0.179-1.006,0.303-2.094,0.372-3.265c0.44,0.193,0.998,0.393,1.674,0.6c-0.124,1.129-0.276,2.183-0.455,3.161
		c-0.275,1.598-1.35,2.396-3.223,2.396h-4.69c-1.598,0-2.396-0.875-2.396-2.624V572.207z"/>
</g>
<g>
	<path fill="#3E3F3F" d="M302.855,484.854l-0.263,0.424c1.711,1.576,3.354,3.172,4.93,4.788l-1.111,1.253
		c-1.441-1.603-2.977-3.186-4.606-4.748c-1.319,2.088-2.681,3.832-4.081,5.232h8.304c-0.081,1.873-0.148,3.186-0.202,3.939
		c-0.067,2.007-0.983,3.011-2.748,3.011c-0.713,0-1.589-0.021-2.626-0.062c-0.081-0.592-0.175-1.131-0.282-1.616
		c0.902,0.148,1.764,0.229,2.585,0.243c0.97,0.014,1.489-0.6,1.556-1.839c0.041-0.646,0.081-1.4,0.121-2.263h-5.354v8.102
		c0,0.754,0.404,1.131,1.213,1.131h3.313c1.064,0,1.663-0.35,1.798-1.051c0.162-0.646,0.283-1.454,0.364-2.424
		c0.525,0.216,1.057,0.41,1.596,0.586c-0.135,0.889-0.303,1.711-0.505,2.465c-0.337,1.252-1.286,1.879-2.849,1.879h-4.021
		c-1.656,0-2.484-0.822-2.484-2.465v-9.395c-0.431,0.404-0.855,0.774-1.272,1.111c-0.404-0.66-0.714-1.145-0.93-1.454
		c2.208-1.684,4.107-3.966,5.697-6.849H302.855z M312.532,484.995h1.616v16.788c0,1.643-0.814,2.471-2.444,2.484
		c-0.566,0-1.623-0.007-3.172-0.021c-0.067-0.619-0.176-1.232-0.323-1.838c1.428,0.121,2.431,0.182,3.01,0.182
		c0.875,0,1.313-0.431,1.313-1.293V484.995z M309.865,499.237h-1.556v-12.444h1.556V499.237z"/>
	<path fill="#3E3F3F" d="M324.31,502.449l5.03,0.081l6.728-0.162c-0.147,0.445-0.337,0.977-0.565,1.597l-6.687,0.04l-4.809-0.121
		c-2.289-0.026-3.893-0.814-4.808-2.363c-0.553,0.511-1.36,1.414-2.425,2.707l-0.828-1.677c1.191-1.152,2.054-1.977,2.586-2.476
		v-6.798h-2.404v-1.494h3.96v8.636C320.916,501.759,322.323,502.436,324.31,502.449z M318.472,484.995
		c0.687,0.834,1.63,2.107,2.828,3.818l-1.435,1.01c-1.091-1.711-1.986-3.03-2.687-3.96L318.472,484.995z M321.765,491.621h6.404
		v-2.747h-3.435c-0.364,0.862-0.754,1.649-1.172,2.363c-0.35-0.229-0.814-0.471-1.394-0.728c0.983-1.589,1.717-3.359,2.201-5.313
		l1.536,0.343c-0.202,0.688-0.414,1.34-0.637,1.96h2.899v-2.869h1.575v2.869h5.172v1.374h-5.172v2.747h6.162v1.374h-14.142V491.621z
		 M323.542,494.732h10.283v6.484h-1.556v-0.828h-7.172v0.828h-1.556V494.732z M332.27,496.106h-7.172v2.908h7.172V496.106z"/>
	<path fill="#3E3F3F" d="M338.451,488.288h7.455v-3.475h1.656v3.475h7.414v13.333c0,1.711-0.842,2.56-2.525,2.546
		c-0.889,0-1.979-0.015-3.272-0.041c-0.041-0.458-0.142-1.044-0.303-1.758c1.278,0.107,2.343,0.169,3.191,0.183
		c0.849,0.026,1.272-0.398,1.272-1.273v-11.454h-5.817c-0.055,1.226-0.202,2.316-0.445,3.272c2.385,1.913,4.31,3.596,5.778,5.051
		l-1.232,1.313c-1.44-1.576-3.117-3.213-5.03-4.909c-0.916,1.979-2.66,3.703-5.232,5.171c-0.565-0.781-0.943-1.266-1.131-1.454
		c2.195-1.158,3.696-2.444,4.505-3.858c0.646-1.037,1.023-2.565,1.131-4.586h-5.777v14.525h-1.637V488.288z"/>
	<path fill="#3E3F3F" d="M368.553,491.642c-0.107,0.121-0.223,0.256-0.344,0.403c2.586,2.479,5.677,4.176,9.272,5.092
		c-0.444,0.673-0.773,1.246-0.989,1.717c-0.89-0.323-1.731-0.681-2.525-1.07v6.808h-1.616v-0.909h-9.879v0.909h-1.616v-6.626
		c-0.875,0.471-1.771,0.896-2.687,1.272c-0.243-0.499-0.539-0.977-0.89-1.435c4.176-1.764,7.367-3.905,9.576-6.424L368.553,491.642z
		 M358.249,487.035h8.646c-0.296-0.539-0.633-1.117-1.01-1.737l1.556-0.707c0.498,0.768,0.97,1.582,1.414,2.444h7.717v3.395h-1.636
		v-1.939h-15.071v2.02h-1.616V487.035z M364.633,489.379l0.97,1.313c-2.479,1.522-4.559,2.688-6.242,3.495
		c-0.242-0.444-0.552-0.909-0.93-1.394C360.748,491.783,362.815,490.645,364.633,489.379z M367.3,493.137
		c-1.656,1.63-3.454,3.03-5.394,4.201h11.171C370.748,496.112,368.821,494.712,367.3,493.137z M372.351,498.793h-9.879v3.435h9.879
		V498.793z M370.027,489.398c2.02,0.93,4.101,1.986,6.242,3.172l-0.93,1.435c-1.67-1.023-3.724-2.142-6.161-3.354L370.027,489.398z"
		/>
</g>
<g>
	<path fill="#3E3F3F" d="M73.807,656.323c0.932-0.253,1.903-0.535,2.914-0.848v-4.401h-2.654v-1.397h2.654v-3.872h1.497v3.872h2.415
		v1.397h-2.415v3.932c0.686-0.22,1.391-0.452,2.116-0.698c-0.014,0.426,0,0.944,0.039,1.557c-0.725,0.227-1.443,0.456-2.155,0.688
		v6.277c0,1.451-0.646,2.176-1.937,2.176h-1.936c-0.054-0.466-0.14-1.031-0.26-1.696c0.745,0.08,1.351,0.12,1.816,0.12
		c0.546,0,0.818-0.32,0.818-0.959v-5.429c-0.911,0.306-1.816,0.619-2.715,0.938L73.807,656.323z M81.332,656.224v-1.397h10.259
		v1.378c-0.904,2.108-2.179,3.882-3.822,5.319c1.59,0.998,3.59,1.693,5.998,2.085c-0.372,0.493-0.705,0.998-0.998,1.518
		c-2.488-0.546-4.564-1.428-6.228-2.645c-1.796,1.257-3.952,2.192-6.467,2.804c-0.293-0.545-0.586-1.011-0.878-1.396
		c2.415-0.506,4.471-1.308,6.167-2.405c-1.464-1.404-2.508-3.157-3.134-5.26H81.332z M91.451,651.853h2.235
		c-0.133,0.479-0.246,0.965-0.339,1.457h-2.116c-1.53,0-2.295-0.732-2.295-2.195v-3.134h-4.432v0.738
		c0.014,2.568-1.004,4.484-3.054,5.748c-0.332-0.438-0.691-0.845-1.078-1.217c1.757-0.959,2.635-2.469,2.635-4.531v-2.136h7.426
		v4.312C90.434,651.533,90.772,651.853,91.451,651.853z M89.935,656.224h-6.258c0.559,1.77,1.518,3.237,2.874,4.401
		C88.008,659.434,89.136,657.967,89.935,656.224z"/>
	<path fill="#3E3F3F" d="M99.516,650.076c0.239,0.519,0.499,0.991,0.778,1.417c-1.584,1.185-3.233,2.469-4.95,3.853l-1.038-1.357
		C96.182,652.697,97.918,651.394,99.516,650.076z M104.944,657.481c-0.014,1.437-0.113,2.541-0.3,3.313
		c3.034,0.984,5.929,2.009,8.683,3.073l-0.838,1.457c-2.515-1.038-5.316-2.108-8.403-3.213c-0.892,1.583-3.732,2.681-8.522,3.293
		c-0.24-0.506-0.526-1.024-0.858-1.557c4.404-0.386,7.065-1.211,7.983-2.476c0.493-0.665,0.726-1.963,0.699-3.892H104.944z
		 M95.962,645.744c1.145,0.719,2.256,1.464,3.334,2.236l-1.019,1.237c-0.958-0.759-2.022-1.551-3.193-2.375L95.962,645.744z
		 M97.22,655.325h13.872v6.507h-1.557v-5.109H98.776v5.109H97.22V655.325z M99.795,653.928c3.992-1.024,6.154-2.754,6.486-5.189
		h-3.193c-0.479,0.985-1.011,1.87-1.597,2.655c-0.426-0.293-0.871-0.579-1.337-0.858c1.25-1.478,2.136-3.188,2.654-5.13l1.497,0.359
		c-0.199,0.585-0.406,1.138-0.619,1.656h9.462v1.258l-1.357,2.715c-0.453-0.213-0.938-0.419-1.457-0.619l1.058-2.036h-3.553
		c-0.106,0.426-0.227,0.839-0.359,1.238c1.145,1.889,3.293,3.2,6.447,3.932c-0.373,0.506-0.706,0.991-0.998,1.457
		c-2.835-0.904-4.857-2.235-6.068-3.992c-0.918,1.597-2.934,2.888-6.048,3.872C100.547,654.847,100.207,654.407,99.795,653.928z"/>
</g>
<g>
	<path fill="#3E3F3F" d="M237.552,618.382c-0.469,0.603-0.863,1.172-1.185,1.707c-3.515-1.318-6.245-3.451-8.192-6.396v8.263h-1.566
		v-8.233c-1.961,2.731-4.659,4.96-8.093,6.688c-0.309-0.455-0.689-0.957-1.145-1.506c3.421-1.459,6.074-3.354,7.962-5.684h-7.701
		v-1.525h8.977v-1.768h1.566v1.768h8.955v1.525h-7.711C231.3,615.725,234.011,617.445,237.552,618.382z M219.098,604.787
		c-0.08-0.535-0.173-1.044-0.281-1.525c7.363-0.081,13.006-0.255,16.928-0.522l0.241,1.526
		C231.555,604.479,225.926,604.654,219.098,604.787z M219.339,606.555l1.185-0.863c0.991,1.151,1.988,2.356,2.992,3.614
		l-1.365,0.964C221.173,608.891,220.235,607.651,219.339,606.555z M225.343,605.751l1.325-0.783c1.205,1.674,2.075,2.932,2.61,3.775
		l-1.466,0.844C227.184,608.489,226.36,607.21,225.343,605.751z M230.544,609.446c1.191-1.325,2.477-2.879,3.855-4.659l1.405,1.045
		c-1.325,1.539-2.697,3.092-4.116,4.658L230.544,609.446z"/>
	<path fill="#3E3F3F" d="M238.596,615.511h8.655v-1.366h1.405v1.366h8.635v1.284h-7.068c2.342,1.654,4.946,2.771,7.812,3.354
		c-0.362,0.563-0.676,1.058-0.944,1.486c-3.266-0.943-6.077-2.439-8.434-4.488v4.709h-1.405v-4.729
		c-2.438,2.035-5.248,3.551-8.435,4.548c-0.28-0.414-0.595-0.836-0.943-1.265c2.879-0.703,5.462-1.908,7.751-3.615h-7.028V615.511z
		 M247.491,602.679l1.186-0.723c0.629,0.695,1.145,1.379,1.546,2.048l-0.924,0.583h7.69v1.245h-7.61v1.425h6.728v1.165h-6.728v1.426
		h6.728v1.165h-6.728v1.466h7.671v1.244h-14.639v0.764h-1.405v-7.148c-0.69,0.803-1.393,1.525-2.108,2.168
		c-0.214-0.388-0.535-0.83-0.964-1.325c1.94-1.619,3.581-3.614,4.919-5.983l1.386,0.622c-0.374,0.615-0.756,1.205-1.145,1.768h5.683
		C248.415,603.978,247.986,603.342,247.491,602.679z M242.411,607.257h5.563v-1.425h-5.563V607.257z M242.411,609.848h5.563v-1.426
		h-5.563V609.848z M242.411,612.479h5.563v-1.466h-5.563V612.479z"/>
</g>
<g>
	<path fill="#3E3F3F" d="M406.409,586.119c1.792-2.716,3.183-5.958,4.173-9.729l1.484,0.441c-0.549,1.799-1.15,3.468-1.806,5.005
		v14.333h-1.424v-11.374c-0.575,1.057-1.184,2.033-1.826,2.929C406.811,587.162,406.609,586.627,406.409,586.119z M413.391,589.449
		l1.344-0.742c0.608,1.029,1.381,1.923,2.316,2.678c0.481-0.695,0.813-1.809,0.993-3.34h-5.235v-5.517h5.416v-1.986h-6.419v-1.364
		h6.419v-2.708h1.545v2.708h6.479v1.364h-6.479v1.986h5.396v6.379h-1.524v-0.862h-4.042c-0.207,1.865-0.611,3.27-1.214,4.213
		c-0.007,0.013-0.013,0.022-0.02,0.029c2.073,1.211,4.754,1.916,8.044,2.116c-0.401,0.575-0.77,1.131-1.104,1.665
		c-3.229-0.394-5.897-1.264-8.004-2.607c-1.171,1.036-2.889,1.959-5.155,2.769c-0.308-0.429-0.655-0.876-1.043-1.345
		c2.173-0.682,3.804-1.471,4.895-2.366C414.955,591.643,414.085,590.619,413.391,589.449z M418.164,586.7
		c0.041-0.635,0.061-1.577,0.061-2.828h-3.892v2.828H418.164z M419.709,586.7h3.932v-2.828h-3.871
		C419.77,584.394,419.749,585.337,419.709,586.7z"/>
	<path fill="#3E3F3F" d="M436.56,595.808v-6.379h-5.838c-0.228,2.781-1.036,5.089-2.427,6.921c-0.348-0.441-0.742-0.902-1.184-1.384
		c0.869-1.231,1.457-2.595,1.766-4.093c0.294-1.444,0.441-3.49,0.441-6.139v-7.161h16.349v15.948c0,1.592-0.755,2.387-2.267,2.387
		c-0.923,0-1.959-0.02-3.109-0.061c-0.067-0.44-0.168-0.995-0.301-1.664c1.163,0.08,2.106,0.12,2.828,0.12
		c0.829,0,1.244-0.395,1.244-1.184v-3.691h-5.898v6.379H436.56z M430.832,587.984h5.728v-3.751h-5.637
		C430.963,585.53,430.933,586.781,430.832,587.984z M430.923,579.058v3.731h5.637v-3.731H430.923z M444.063,579.058h-5.898v3.731
		h5.898V579.058z M438.164,587.984h5.898v-3.751h-5.898V587.984z"/>
	<path fill="#3E3F3F" d="M449.237,580.021h7.402v-3.45h1.646v3.45h7.361v13.24c0,1.697-0.835,2.54-2.507,2.527
		c-0.883,0-1.966-0.014-3.25-0.04c-0.04-0.455-0.141-1.036-0.301-1.745c1.271,0.107,2.327,0.167,3.169,0.181
		c0.843,0.026,1.265-0.395,1.265-1.265v-11.374h-5.777c-0.054,1.217-0.201,2.3-0.441,3.25c2.367,1.898,4.279,3.57,5.737,5.015
		l-1.224,1.305c-1.432-1.565-3.097-3.189-4.995-4.875c-0.91,1.966-2.642,3.678-5.196,5.136c-0.562-0.775-0.936-1.257-1.123-1.444
		c2.18-1.15,3.671-2.428,4.474-3.832c0.642-1.03,1.016-2.548,1.123-4.554h-5.737v14.424h-1.625V580.021z"/>
	<path fill="#3E3F3F" d="M479.127,583.351c-0.107,0.12-0.221,0.254-0.341,0.401c2.568,2.46,5.637,4.146,9.208,5.055
		c-0.441,0.669-0.77,1.237-0.983,1.705c-0.883-0.32-1.718-0.675-2.507-1.063v6.76h-1.605v-0.902h-9.81v0.902h-1.604v-6.579
		c-0.869,0.468-1.758,0.89-2.668,1.264c-0.24-0.495-0.534-0.971-0.883-1.425c4.146-1.752,7.315-3.879,9.509-6.379L479.127,583.351z
		 M468.896,578.777h8.586c-0.294-0.535-0.629-1.11-1.003-1.726l1.545-0.702c0.494,0.763,0.963,1.571,1.404,2.428h7.662v3.37h-1.624
		v-1.926h-14.965v2.006h-1.605V578.777z M475.235,581.104l0.963,1.305c-2.46,1.511-4.526,2.668-6.198,3.47
		c-0.241-0.441-0.549-0.902-0.923-1.384C471.377,583.491,473.431,582.36,475.235,581.104z M477.884,584.835
		c-1.646,1.618-3.431,3.009-5.356,4.173h11.094C481.307,587.791,479.396,586.399,477.884,584.835z M482.898,590.452h-9.81v3.41h9.81
		V590.452z M480.592,581.124c2.006,0.923,4.072,1.973,6.198,3.149l-0.923,1.424c-1.657-1.016-3.697-2.126-6.118-3.33
		L480.592,581.124z"/>
</g>
<g>
	<path fill="#3E3F3F" d="M114.742,796.393v-1.456h6.572v1.497c-0.654,1.308-1.43,2.544-2.326,3.711v10.424h-1.577v-8.594
		c-0.742,0.782-1.543,1.522-2.406,2.225c-0.121-0.485-0.31-1.046-0.566-1.679c2.076-1.672,3.795-3.715,5.156-6.128H114.742z
		 M116.744,791.539l1.415-0.707c0.499,0.795,1.025,1.719,1.577,2.771l-1.496,0.769C117.715,793.278,117.216,792.335,116.744,791.539
		z M119.231,801.267l1.052-0.87c0.822,0.917,1.57,1.786,2.244,2.609l-1.254,0.99C120.627,803.066,119.945,802.156,119.231,801.267z
		 M121.314,808.364h5.683v-9.908h-4.813v-1.578h4.813v-5.925h1.617v5.925h5.137v1.578h-5.137v9.908h5.743v1.578h-13.043V808.364z"/>
	<path fill="#3E3F3F" d="M136.825,792.228h17.391v1.577h-15.672v14.115h15.996v1.537h-17.715V792.228z M140.101,796.029l1.133-1.072
		c1.685,1.389,3.447,2.912,5.288,4.57c1.409-1.523,2.761-3.182,4.055-4.975l1.476,0.991c-1.415,1.833-2.851,3.532-4.307,5.096
		c1.678,1.53,3.417,3.169,5.217,4.914l-1.395,1.416c-1.632-1.706-3.311-3.392-5.036-5.056c-1.947,1.975-3.93,3.714-5.945,5.217
		c-0.323-0.418-0.755-0.855-1.294-1.314c2.117-1.442,4.129-3.124,6.036-5.045C143.636,799.174,141.895,797.593,140.101,796.029z"/>
	<path fill="#3E3F3F" d="M157.532,801.307c0.404,1.645,0.971,2.997,1.699,4.055c0.722-1.482,1.173-3.191,1.354-5.126h-4.044v-1.477
		l3.721-4.591h-4.126v-1.375h5.986v1.375l-3.802,4.692h3.781v1.192c-0.249,2.502-0.859,4.668-1.83,6.502
		c1.47,1.274,3.752,1.917,6.846,1.932c2.562,0.054,5.534,0.02,8.918-0.102c-0.229,0.553-0.451,1.086-0.667,1.598
		c-3.088-0.014-6.073-0.026-8.959-0.04c-3.007,0-5.313-0.702-6.916-2.104c-0.762,1.105-1.685,2.069-2.771,2.892
		c-0.216-0.391-0.492-0.829-0.829-1.314c1.011-0.769,1.86-1.664,2.548-2.689c-0.903-1.146-1.651-2.784-2.244-4.914L157.532,801.307z
		 M162.305,804.725h5.178v-1.76h-4.49v-1.213h4.49v-1.76h-4.207v-1.213h4.207v-1.76h-5.259v-1.254h5.259v-1.759h-4.207v-1.214h4.207
		v-1.981h1.496v1.981h4.691v2.973h2.123v1.254h-2.123v3.519h-1.456v-0.546h-3.235v1.76h5.096v1.213h-5.096v1.76h6.026v1.213h-6.026
		v2.083h-1.496v-2.083h-5.178V804.725z M172.214,794.007h-3.235v1.759h3.235V794.007z M168.979,798.779h3.235v-1.76h-3.235V798.779z
		"/>
	<path fill="#3E3F3F" d="M183.579,804.664c0.026,0.633,0.074,1.233,0.142,1.8c-1.847,1.199-3.222,2.164-4.126,2.892l-0.97-1.335
		c0.458-0.444,0.688-1.051,0.688-1.819v-7.199h-2.568v-1.456h4.104v8.979C181.725,805.944,182.635,805.325,183.579,804.664z
		 M179.494,791.398c1.038,1.024,2.028,2.063,2.973,3.114l-1.416,1.173c-0.984-1.268-1.907-2.347-2.771-3.236L179.494,791.398z
		 M183.519,801.146v-1.396h11.021v1.396c-1.065,2.339-2.38,4.172-3.943,5.5c1.719,1.133,3.787,1.921,6.208,2.366
		c-0.472,0.606-0.884,1.152-1.233,1.638c-2.407-0.693-4.504-1.702-6.289-3.022c-1.834,1.239-4.152,2.301-6.957,3.185
		c-0.351-0.499-0.701-0.984-1.052-1.456c2.676-0.722,4.914-1.642,6.714-2.761c-1.563-1.51-2.699-3.326-3.407-5.449H183.519z
		 M192.012,793.259h-5.056v0.586c0,2.481-1.133,4.328-3.397,5.541c-0.364-0.444-0.755-0.863-1.173-1.254
		c1.996-1.024,2.993-2.44,2.993-4.246v-2.124h8.21v4.126c0,0.606,0.31,0.909,0.931,0.909h2.225
		c-0.067,0.553-0.122,1.052-0.162,1.497h-2.669c-1.268,0-1.901-0.701-1.901-2.104V793.259z M186.106,801.146
		c0.682,1.719,1.75,3.231,3.206,4.54c1.429-1.106,2.571-2.619,3.428-4.54H186.106z"/>
</g>
<g>
	<path fill="#3E3F3F" d="M563.054,838.063c-1.017,1.832-1.912,3.27-2.688,4.313l-1.384-0.982c0.869-1.15,1.759-2.527,2.668-4.133
		L563.054,838.063z M561.549,828.996h6.299v-6.299h1.686v2.407h8.967v1.444h-8.967v2.447h7.102v7.663h-1.646v-0.843h-11.795v0.843
		h-1.646V828.996z M574.989,830.44h-11.795v3.932h11.795V830.44z M566.403,837.181c0.616,1.351,1.15,2.774,1.605,4.272l-1.625,0.563
		c-0.415-1.458-0.889-2.896-1.425-4.313L566.403,837.181z M571.198,837.04c0.642,1.324,1.224,2.708,1.745,4.152l-1.585,0.622
		c-0.375-1.203-0.916-2.607-1.625-4.213L571.198,837.04z M576.072,837.12c1.07,1.619,1.926,3.076,2.568,4.374l-1.524,0.822
		c-0.669-1.364-1.479-2.855-2.428-4.474L576.072,837.12z"/>
	<path fill="#3E3F3F" d="M588.972,829.959c0.026,0.468,0.066,0.923,0.12,1.364c-1.338,0.655-2.461,1.298-3.37,1.926l-0.782-1.043
		c0.361-0.308,0.542-0.796,0.542-1.465v-1.645h-1.625c-0.121,2.407-1.244,4.186-3.37,5.336c-0.255-0.375-0.563-0.749-0.923-1.123
		c1.899-0.896,2.908-2.301,3.029-4.213h-2.568v-1.124h4.514v-2.006h-2.407c-0.348,0.696-0.769,1.311-1.264,1.846
		c-0.361-0.428-0.688-0.769-0.983-1.023c0.989-0.989,1.619-2.24,1.886-3.751l1.264,0.141c-0.106,0.588-0.254,1.144-0.44,1.665h1.945
		v-2.066h1.324v2.066h2.948v1.123h-2.948v2.006h3.069v1.124h-2.167v2.046C587.501,830.768,588.235,830.374,588.972,829.959z
		 M588.892,835.776h1.464c-0.014,1.138-0.094,1.992-0.24,2.567c2.902,0.937,5.696,1.899,8.385,2.889l-0.682,1.444
		c-2.448-1.003-5.189-2.012-8.226-3.028c-1.109,1.631-3.965,2.647-8.565,3.049c-0.2-0.428-0.435-0.896-0.702-1.404
		c4.668-0.415,7.369-1.25,8.104-2.508C588.765,838.21,588.918,837.207,588.892,835.776z M582.753,833.67h13.661v5.798h-1.444v-4.514
		h-10.772v4.514h-1.444V833.67z M589.433,827.973h3.992v-1.985h-2.307c-0.335,0.695-0.742,1.311-1.224,1.846
		c-0.348-0.335-0.683-0.622-1.003-0.863c0.977-0.909,1.598-2.187,1.865-3.831l1.264,0.2c-0.12,0.548-0.261,1.058-0.421,1.524h1.825
		v-2.105h1.324v2.105h3.771v1.124h-3.771v1.985h4.333v1.124h-3.41v1.865c0,0.481,0.261,0.729,0.782,0.742h0.662
		c0.535,0,0.849-0.28,0.942-0.843c0.066-0.36,0.12-0.802,0.16-1.323c0.441,0.174,0.869,0.32,1.284,0.441
		c-0.106,0.682-0.207,1.217-0.301,1.604c-0.2,0.896-0.822,1.344-1.865,1.344h-1.345c-1.069,0-1.604-0.521-1.604-1.564v-2.267h-1.545
		c-0.08,0.949-0.314,1.759-0.702,2.427c-0.521,0.803-1.391,1.479-2.607,2.026c-0.255-0.468-0.528-0.856-0.822-1.163
		c1.149-0.481,1.919-0.983,2.307-1.505c0.321-0.415,0.515-1.01,0.582-1.785h-2.167V827.973z"/>
</g>
<g>
	<path fill="#3E3F3F" d="M641.33,722.042c0.829-0.227,1.686-0.487,2.567-0.782v-4.573h-2.427v-1.404h2.427v-3.932h1.444v3.932h2.087
		v1.404h-2.087v4.092c0.643-0.228,1.305-0.468,1.986-0.722c0.014,0.575,0.033,1.076,0.061,1.504
		c-0.629,0.214-1.311,0.455-2.047,0.723v6.318c0,1.284-0.595,1.939-1.785,1.967c-0.495,0-1.083,0-1.766,0
		c-0.066-0.522-0.153-1.05-0.261-1.585c0.643,0.08,1.171,0.12,1.585,0.12c0.521,0,0.782-0.268,0.782-0.803v-5.496
		c-0.735,0.254-1.511,0.528-2.327,0.822L641.33,722.042z M647.729,719.756c1.604-1.057,3.069-2.187,4.393-3.391l1.063,1.063
		c-1.163,0.989-2.334,1.919-3.511,2.788h8.165v1.705c-2.809,1.672-4.962,3.21-6.46,4.614c-0.655,0.588-0.982,1.083-0.982,1.484
		c0,0.602,0.602,0.902,1.806,0.902h4.674c1.257,0,1.959-0.568,2.106-1.705c0.093-0.843,0.174-1.731,0.24-2.668
		c0.321,0.147,0.836,0.334,1.545,0.562c-0.134,1.244-0.247,2.133-0.341,2.668c-0.255,1.726-1.338,2.588-3.25,2.588h-5.597
		c-1.872,0-2.809-0.682-2.809-2.046c0-0.937,0.575-1.906,1.726-2.909c1.391-1.257,3.143-2.521,5.255-3.791h-6.158v-1.324
		c-0.334,0.241-0.662,0.475-0.982,0.702L647.729,719.756z M648.271,714.019h12.177v3.37h-1.444v-1.966h-9.288v2.046h-1.444V714.019z
		 M652.744,711.832l1.284-0.782c0.575,0.722,1.09,1.424,1.545,2.105l-1.324,0.843C653.821,713.276,653.319,712.554,652.744,711.832z
		 M660.729,719.775l-1.063,1.204c-1.351-1.258-2.755-2.428-4.213-3.511l0.983-1.063C658,717.569,659.431,718.692,660.729,719.775z"
		/>
	<path fill="#3E3F3F" d="M661.49,722.223c1.699-2.246,2.882-4.821,3.551-7.723h-2.988v-1.444h7.763v1.444h-3.229
		c-0.294,1.444-0.723,2.814-1.284,4.112h3.651v9.067h-4.032v1.243h-1.444v-6.881c-0.361,0.521-0.735,1.03-1.123,1.524
		C662.152,723.192,661.865,722.744,661.49,722.223z M667.509,720.017h-2.588v6.259h2.588V720.017z M670.759,714.359h10.551v1.484
		h-9.026v5.838c0,4.052-1.037,7.168-3.109,9.348c-0.335-0.481-0.683-0.909-1.043-1.284c1.752-1.912,2.628-4.587,2.628-8.023V714.359
		z M674.489,711.832l1.264-0.803c0.736,0.977,1.284,1.778,1.646,2.407l-1.304,0.803
		C675.626,713.423,675.092,712.621,674.489,711.832z"/>
</g>
</svg>
