<?xml version="1.0" encoding="utf-8"?>
<!-- Generator: Adobe Illustrator 17.0.0, SVG Export Plug-In . SVG Version: 6.00 Build 0)  -->
<!DOCTYPE svg PUBLIC "-//W3C//DTD SVG 1.1//EN" "http://www.w3.org/Graphics/SVG/1.1/DTD/svg11.dtd">
<svg version="1.1" id="图层_1" xmlns="http://www.w3.org/2000/svg" xmlns:xlink="http://www.w3.org/1999/xlink" x="0px" y="0px"
	 width="750px" height="560px" viewBox="0 0 750 560" enable-background="new 0 0 750 560" xml:space="preserve">
<linearGradient id="SVGID_1_" gradientUnits="userSpaceOnUse" x1="452.3187" y1="426.638" x2="1054.2706" y2="426.638" gradientTransform="matrix(1 0 0 1 -385.23 -231.16)">
	<stop  offset="0" style="stop-color:#5D5E5E;stop-opacity:0"/>
	<stop  offset="0.4194" style="stop-color:#3E3F3F"/>
	<stop  offset="0.6613" style="stop-color:#585959"/>
	<stop  offset="1" style="stop-color:#A3A3A3;stop-opacity:0"/>
</linearGradient>
<path fill="none" stroke="url(#SVGID_1_)" stroke-width="2" stroke-miterlimit="10" d="M68.089,345.966
	c0-165.671,134.304-299.976,299.975-299.976c165.672,0,299.977,134.305,299.977,299.976"/>
<linearGradient id="SVGID_2_" gradientUnits="userSpaceOnUse" x1="537.8087" y1="469.8845" x2="966.7757" y2="469.8845" gradientTransform="matrix(1 0 0 1 -385.23 -231.16)">
	<stop  offset="0" style="stop-color:#5D5E5E;stop-opacity:0"/>
	<stop  offset="0.4194" style="stop-color:#3E3F3F"/>
	<stop  offset="0.6613" style="stop-color:#585959"/>
	<stop  offset="1" style="stop-color:#A3A3A3;stop-opacity:0"/>
</linearGradient>
<path fill="none" stroke="url(#SVGID_2_)" stroke-width="2" stroke-miterlimit="10" d="M153.579,345.966
	c0-117.903,95.58-213.483,213.483-213.483c117.904,0,213.484,95.58,213.484,213.483"/>
<linearGradient id="SVGID_3_" gradientUnits="userSpaceOnUse" x1="688.3246" y1="277.418" x2="753.2947" y2="277.418" gradientTransform="matrix(1 0 0 1 -385.23 -231.16)">
	<stop  offset="0" style="stop-color:#EE465F"/>
	<stop  offset="1" style="stop-color:#F77A4E"/>
</linearGradient>
<circle fill="url(#SVGID_3_)" cx="335.58" cy="46.258" r="32.485"/>
<linearGradient id="SVGID_4_" gradientUnits="userSpaceOnUse" x1="439.5617" y1="429.588" x2="514.8897" y2="429.588" gradientTransform="matrix(1 0 0 1 -385.23 -231.16)">
	<stop  offset="0" style="stop-color:#EE465F"/>
	<stop  offset="1" style="stop-color:#F77A4E"/>
</linearGradient>
<circle fill="url(#SVGID_4_)" cx="91.996" cy="198.428" r="37.664"/>
<linearGradient id="SVGID_5_" gradientUnits="userSpaceOnUse" x1="507.3257" y1="582.483" x2="572.2937" y2="582.483" gradientTransform="matrix(1 0 0 1 -385.23 -231.16)">
	<stop  offset="0" style="stop-color:#22E0E7"/>
	<stop  offset="1" style="stop-color:#3EA8F2"/>
</linearGradient>
<circle fill="url(#SVGID_5_)" cx="154.58" cy="351.323" r="32.484"/>
<linearGradient id="SVGID_6_" gradientUnits="userSpaceOnUse" x1="906.9727" y1="353.4089" x2="976.0367" y2="353.4089" gradientTransform="matrix(1 0 0 1 -385.23 -231.16)">
	<stop  offset="0" style="stop-color:#22E0E7"/>
	<stop  offset="1" style="stop-color:#3EA8F2"/>
</linearGradient>
<circle fill="url(#SVGID_6_)" cx="556.275" cy="122.249" r="34.532"/>
<linearGradient id="SVGID_7_" gradientUnits="userSpaceOnUse" x1="1009.1086" y1="500.176" x2="1078.1747" y2="500.176" gradientTransform="matrix(1 0 0 1 -385.23 -231.16)">
	<stop  offset="0" style="stop-color:#FF9768"/>
	<stop  offset="1" style="stop-color:#FFBA9A"/>
</linearGradient>
<circle fill="url(#SVGID_7_)" cx="658.412" cy="269.016" r="34.533"/>
<linearGradient id="SVGID_8_" gradientUnits="userSpaceOnUse" x1="934.9887" y1="621.438" x2="987.2187" y2="621.438" gradientTransform="matrix(1 0 0 1 -385.23 -231.16)">
	<stop  offset="0" style="stop-color:#FF4686"/>
	<stop  offset="1" style="stop-color:#FF9EFD"/>
</linearGradient>
<circle fill="url(#SVGID_8_)" cx="575.874" cy="390.278" r="26.115"/>
<linearGradient id="SVGID_9_" gradientUnits="userSpaceOnUse" x1="594.4077" y1="403.79" x2="646.6417" y2="403.79" gradientTransform="matrix(1 0 0 1 -385.23 -231.16)">
	<stop  offset="0" style="stop-color:#FF4686"/>
	<stop  offset="1" style="stop-color:#FF9EFD"/>
</linearGradient>
<circle fill="url(#SVGID_9_)" cx="235.295" cy="172.63" r="26.117"/>
<linearGradient id="SVGID_10_" gradientUnits="userSpaceOnUse" x1="804.1667" y1="377.676" x2="856.3967" y2="377.676" gradientTransform="matrix(1 0 0 1 -385.23 -231.16)">
	<stop  offset="0" style="stop-color:#FF9768"/>
	<stop  offset="1" style="stop-color:#FFBA9A"/>
</linearGradient>
<circle fill="url(#SVGID_10_)" cx="445.052" cy="146.516" r="26.115"/>
<g>
	<path fill="#FFFFFF" d="M336.9,30.859c-7.282,0.1-13.08,6.066-12.791,13.109c-0.019,0.099-0.014,0.113-0.014,0.99l-2.889,4.557
		c-0.334,0.537,0.059,1.225,0.704,1.225h2.185v3.498c0,1.537,1.283,2.783,2.861,2.783h4.754v3.835c0,0.213,0.092,0.416,0.244,0.566
		c0.154,0.147,0.362,0.235,0.58,0.235h9.098c0.217-0.006,0.421-0.088,0.579-0.235c0.153-0.15,0.24-0.354,0.24-0.566
		c0-3.398,1.347-6.196,3.491-8.146c2.621-2.377,4.131-5.746,4.131-9.231C350.074,36.433,344.152,30.75,336.9,30.859z M345.67,49.121
		c-0.958,2.45-4.548,2.396-5.741-1.472c-0.05-0.174-0.127-0.407-0.177-0.525c-0.28-0.022-2.843,0.487-3.534-1.569
		c-0.168-0.493-0.148-0.977-0.132-1.369c0-0.153,0.028-0.596-0.071-0.75c-0.578-0.282-3.232,1.441-5.217-1.791
		c-1.473-2.392-0.127-4.429,0.787-5.177c4.356-3.521,10.401-2.227,13.324,2.749C346.65,42.187,346.935,45.885,345.67,49.121z"/>
	<path fill="#FFFFFF" d="M344.241,48.426c-0.134,0.352-0.442,0.614-0.813,0.614c-0.945,0-1.628-0.658-2.025-1.951
		c-0.344-1.122-0.678-1.846-2.16-1.665c-0.651,0.072-1.42-0.036-1.563-0.47c-0.083-0.227-0.028-0.643-0.028-1.066
		c0-0.905-0.315-1.624-0.877-1.963c-1.519-0.93-3.153,1.243-4.692-1.256c-0.938-1.528,0.19-2.605,0.425-2.794
		c3.634-2.934,8.661-1.854,11.103,2.297C345.065,42.685,345.299,45.723,344.241,48.426L344.241,48.426z"/>
</g>
<path fill="#FFFFFF" d="M568.252,108.434h-23.956c-2.203,0-3.993,1.86-3.993,4.15v15.558c0,2.291,1.827,4.404,4.084,4.404h6.085
	c1.062,1.13,5.449,5.682,5.449,5.682c0.195,0.203,0.512,0.203,0.708,0c0,0,3.212-3.648,5.308-5.682h6.225
	c2.255,0,4.085-2.113,4.085-4.404v-15.558C572.246,110.295,570.456,108.434,568.252,108.434z M548.29,122.409
	c-1.104,0-1.997-0.891-1.997-1.996c0-1.103,0.894-1.996,1.997-1.996c1.102,0,1.995,0.894,1.995,1.996
	C550.285,121.518,549.392,122.409,548.29,122.409z M556.275,122.409c-1.102,0-1.997-0.891-1.997-1.996
	c0-1.103,0.896-1.996,1.997-1.996s1.997,0.894,1.997,1.996C558.272,121.518,557.376,122.409,556.275,122.409z M564.259,122.409
	c-1.102,0-1.995-0.891-1.995-1.996c0-1.103,0.894-1.996,1.995-1.996c1.104,0,1.997,0.894,1.997,1.996
	C566.256,121.518,565.363,122.409,564.259,122.409z"/>
<g>
	<path fill="#FFFFFF" d="M584.588,388.202h-5.558c2.151-7.956-1.485-8.363-1.485-8.363c-1.543,0-1.225,1.22-1.34,1.424
		c0,3.89-4.132,6.939-4.132,6.939v11.033c0,1.089,1.484,1.48,2.065,1.48h8.353c0.785,0,1.427-2.061,1.427-2.061
		c2.066-7.028,2.066-9.118,2.066-9.118C585.985,388.086,584.588,388.202,584.588,388.202L584.588,388.202L584.588,388.202
		L584.588,388.202z"/>
	<path fill="#FFFFFF" d="M569.791,388.205h-3.328c-0.688,0-0.698,0.676-0.698,0.676l0.687,11.125c0,0.71,0.709,0.71,0.709,0.71
		h2.881c0.602,0,0.598-0.468,0.598-0.468v-11.199C570.639,388.194,569.791,388.205,569.791,388.205L569.791,388.205L569.791,388.205
		L569.791,388.205z"/>
</g>
<path fill="#FFFFFF" d="M82.303,195.797c-0.706-0.331-1.739-0.684-2.909-0.99c-1.172-0.311-2.253-0.51-3.025-0.579
	c-0.531-0.043-0.796-0.063-0.815,0c-0.022,0.048,0.22,0.178,0.705,0.401c0.705,0.33,1.745,0.683,2.915,0.99
	c1.17,0.313,2.25,0.51,3.023,0.576c0.527,0.044,0.793,0.064,0.816,0C83.013,196.149,82.792,196.017,82.303,195.797z
	 M106.211,201.579v-1.632h5.585v14.922h-5.585v-2.338l-7.173-2.761l-16.643,2.055l-9.25-4.77l0.289-1.744l-1.237-1.017l0.175-1.853
	l-0.175-0.796l0.728-2.76l11.257,3.599l8.809-2.382l-0.021-0.686h-6.91l1.392-3.336l12.493-1.982l5.651,7.28L106.211,201.579z
	 M79.569,194.121c1.238,0.328,2.343,0.705,3.135,1.08c0.685,0.31,1.167,0.639,1.367,0.972c0.111,0.176,0.134,0.31,0.09,0.466
	c-0.176,0.683-0.375,1.411-0.553,2.096c-0.108,0.221-0.177,0.306-0.353,0.375c-1.479,0.685-8.432-1.038-9.38-2.497
	c-0.112-0.175-0.155-0.284-0.112-0.483c0.178-0.686,0.378-1.412,0.552-2.098c0.047-0.152,0.11-0.244,0.29-0.352
	c0.327-0.177,0.926-0.244,1.674-0.177C77.185,193.591,78.333,193.787,79.569,194.121z M86.874,192.375
	c-0.242-0.748-0.705-1.743-1.277-2.804c-0.576-1.058-1.172-1.987-1.656-2.602c-0.333-0.421-0.51-0.62-0.553-0.599
	s0.021,0.264,0.198,0.796c0.242,0.752,0.708,1.744,1.28,2.804c0.574,1.058,1.17,1.986,1.658,2.604
	c0.327,0.421,0.505,0.62,0.549,0.598C87.117,193.148,87.03,192.905,86.874,192.375z M86.211,189.241
	c0.619,1.126,1.084,2.185,1.37,3.026c0.241,0.706,0.333,1.278,0.221,1.654c-0.043,0.199-0.131,0.306-0.264,0.398
	c-0.618,0.328-1.282,0.706-1.92,1.034c-0.241,0.089-0.333,0.089-0.509,0c-1.502-0.617-5.01-6.841-4.613-8.52
	c0.046-0.22,0.089-0.308,0.288-0.396c0.618-0.331,1.278-0.708,1.919-1.037c0.155-0.067,0.263-0.089,0.463-0.021
	c0.379,0.108,0.818,0.507,1.283,1.102C84.977,187.145,85.618,188.118,86.211,189.241z M90.696,183.591
	c-0.378,0.595-0.796,1.479-1.191,2.475c-0.397,1.013-0.685,1.916-0.84,2.602c-0.11,0.463-0.133,0.705-0.09,0.705
	c0.047,0.023,0.179-0.174,0.42-0.57c0.376-0.6,0.795-1.482,1.195-2.473c0.392-0.995,0.681-1.923,0.836-2.606
	c0.111-0.463,0.133-0.707,0.09-0.707C91.069,182.994,90.937,183.171,90.696,183.591z M88.906,185.844
	c-0.421,1.059-0.726,2.054-0.883,2.803c-0.13,0.662-0.154,1.189-0.021,1.5c0.066,0.152,0.134,0.241,0.286,0.287
	c0.597,0.245,1.216,0.486,1.808,0.729c0.18,0.064,0.268,0.043,0.443-0.043c1.368-0.686,3.644-6.645,3.223-8.014
	c-0.044-0.156-0.108-0.221-0.285-0.355c-0.599-0.242-1.212-0.485-1.813-0.729c-0.131-0.063-0.262-0.043-0.418,0.022
	c-0.309,0.155-0.664,0.53-1.013,1.104C89.789,183.834,89.327,184.781,88.906,185.844z"/>
<g>
	<path fill="#FFFFFF" d="M673.8,265.036l-25.095,0.079l-2.546-8.49h-5.095c-0.086,0.065-0.848,0.657-0.848,1.697
		c0,0.106,0.015,1.073,0.848,1.698h3.397l5.087,20.429l4.246,0.012c0.87-2.692,3.393-4.637,6.375-4.637
		c2.992,0,5.525,1.959,6.385,4.663l2.996,0.008c2.023-6.188,3.438-10.763,3.78-11.981c0.29-1.034,0.342-2.036,0.342-2.036
		C673.731,265.999,673.774,265.518,673.8,265.036z"/>
	<path fill="#FFFFFF" d="M655.501,282.523c-0.002,2.578,2.086,4.673,4.665,4.673c2.583,0,4.672-2.091,4.675-4.667
		c0-0.001,0-0.006,0-0.006c0-2.58-2.092-4.67-4.671-4.67C657.589,277.853,655.501,279.943,655.501,282.523L655.501,282.523z"/>
	<path fill="#FFFFFF" d="M673.331,263.42l-5.941-6.795c-0.022-0.028-0.312-0.467-0.851-0.467c-0.542,0.002-0.83,0.438-0.851,0.467
		l-1.697,2.549c-0.181,0.325-0.526,0.528-0.896,0.511c-0.527-0.023-0.79-0.487-0.804-0.511l-4.245-5.098
		c-0.05-0.066-0.278-0.363-0.684-0.425c-0.379-0.058-0.767,0.108-1.015,0.425c-0.639,0.661-3.727,3.865-5.4,6.202
		c-0.347,0.485-0.864,1.259-0.634,2.039c0.172,0.584,0.689,0.929,1.017,1.103L673.331,263.42L673.331,263.42z"/>
</g>
<path fill="#FFFFFF" d="M154.583,341.278h-2.475c-0.004,0-0.004,0-0.01,0c-0.678,0-1.227,0.549-1.227,1.226c0,0.006,0,0.006,0,0.012
	v3.404c0,0.687,0.857,1.229,1.551,1.229h2.16c0.006,0,0.006,0,0.012,0c0.675,0,1.224-0.543,1.224-1.219c0-0.005,0-0.011,0-0.011
	v-3.404c0-0.006,0-0.006,0-0.012c0-0.677-0.549-1.226-1.224-1.226C154.589,341.278,154.589,341.278,154.583,341.278L154.583,341.278
	L154.583,341.278z M162.626,350.246h-2.475c-0.007,0-0.012,0-0.012,0c-0.682,0-1.23,0.55-1.23,1.225c0,0.006,0,0.011,0,0.011v3.403
	c0,0.688,0.858,1.238,1.552,1.238h2.165c0,0,0,0,0.004,0c0.678,0,1.227-0.55,1.227-1.23c0,0,0,0,0-0.012v-3.399c0,0,0-0.005,0-0.011
	c0-0.675-0.549-1.225-1.221-1.225C162.626,350.246,162.626,350.246,162.626,350.246L162.626,350.246L162.626,350.246z
	 M170.242,365.687l-32.131-0.02c0,0-3.455,0.156-0.719-2.443c0.727-0.396,1.565-0.765,2.512-1.099
	c-0.235-0.512-0.368-1.11-0.368-1.749l0,0c0-2.243,1.685-4.06,3.761-4.06c2.073,0,3.76,1.816,3.76,4.06
	c0,0.043-0.011,0.09-0.011,0.138c0.242-0.027,0.483-0.06,0.737-0.088V339.42c0-1.375,1.021-2.476,2.403-2.476h14.415
	c1.385,0,2.346,1.101,2.346,2.476v22.184c1.682,0.471,3.135,1.033,4.266,1.666C175.336,366.017,170.242,365.687,170.242,365.687
	L170.242,365.687L170.242,365.687z M154.583,350.246h-2.475c-0.004,0-0.004,0-0.01,0c-0.678,0-1.227,0.55-1.227,1.225
	c0,0.006,0,0.011,0,0.011v3.403c0,0.688,0.857,1.238,1.551,1.238h2.16c0.006,0,0.006,0,0.012,0c0.675,0,1.224-0.55,1.224-1.23
	c0,0,0,0,0-0.012v-3.399c0,0,0-0.005,0-0.011c0-0.675-0.549-1.225-1.224-1.225C154.589,350.246,154.589,350.246,154.583,350.246
	L154.583,350.246L154.583,350.246z M162.626,341.278h-2.475c-0.007,0-0.012,0-0.012,0c-0.682,0-1.23,0.549-1.23,1.226
	c0,0.006,0,0.006,0,0.012v3.404c0,0.687,0.858,1.229,1.552,1.229h2.165c0,0,0,0,0.01,0c0.672,0,1.221-0.543,1.221-1.219
	c0-0.005,0-0.011,0-0.011v-3.404c0-0.006,0-0.006,0-0.012c0-0.677-0.549-1.226-1.221-1.226
	C162.626,341.278,162.626,341.278,162.626,341.278L162.626,341.278L162.626,341.278z"/>
<path fill="#FFFFFF" d="M246.491,167.975c-0.093-0.005-0.184,0.016-0.271,0.052l-9.408,4.879h-0.007
	c-0.403,0.236-0.655,0.667-0.661,1.134v9.852c0,0.338,0.296,0.608,0.671,0.608c0.113,0.002,0.222-0.024,0.323-0.073
	c0.012-0.006,0.022-0.012,0.026-0.018l9.258-4.911l0.017-0.005c0.434-0.236,0.724-0.672,0.724-1.17v-9.739
	C247.162,168.245,246.862,167.975,246.491,167.975z M245.802,165.346l-9.628-4.328c0,0-0.566-0.255-0.879-0.255
	c-0.312,0-0.875,0.255-0.875,0.255l-9.635,4.328c0,0-0.424,0.175-0.424,0.504c0,0.348,0.441,0.608,0.441,0.608l9.826,5.183
	c0.2,0.09,0.428,0.137,0.668,0.137c0.242,0,0.47-0.053,0.672-0.142l9.824-5.189c0,0,0.396-0.21,0.396-0.608
	C246.197,165.506,245.802,165.346,245.802,165.346L245.802,165.346z M233.785,172.906l-9.415-4.886
	c-0.086-0.034-0.179-0.053-0.27-0.053c-0.372,0-0.674,0.27-0.674,0.609v9.738c0,0.499,0.291,0.932,0.725,1.172l0.01,0.005
	l9.259,4.912c0.106,0.06,0.228,0.092,0.35,0.09c0.371,0,0.673-0.277,0.673-0.61v-9.843
	C234.439,173.573,234.19,173.141,233.785,172.906L233.785,172.906z"/>
<path fill="#FFFFFF" d="M447.43,133.849h-4.752c-4.372,0-7.916,3.543-7.916,7.916v9.5c0,4.374,3.544,7.918,7.916,7.918h4.749
	c4.373,0,7.917-3.544,7.917-7.918v-9.5C455.344,137.391,451.8,133.849,447.43,133.849z M447.43,143.895
	c0,1.313-1.065,2.376-2.376,2.376c-1.313,0-2.376-1.063-2.376-2.376v-3.167c0-1.314,1.063-2.377,2.376-2.377
	s2.376,1.063,2.376,2.377V143.895z"/>
<g>
	<path fill="#3E3F3F" d="M543.015,183.98c0.042,0.688,0.09,1.281,0.145,1.777c-1.776,1.226-3.209,2.279-4.297,3.161l-0.972-1.385
		c0.469-0.399,0.703-0.964,0.703-1.694v-7.975h-2.583v-1.488h4.174v9.67C541.094,185.399,542.037,184.711,543.015,183.98z
		 M538.118,169.58c1.501,1.543,2.59,2.686,3.265,3.43l-1.446,1.219c-0.868-1.144-1.895-2.328-3.079-3.554L538.118,169.58z
		 M541.465,180.138h6.694v-7.996h-5.578v-1.55h12.852v1.55h-5.6v7.996h6.735v1.57h-6.735v7.769h-1.674v-7.769h-6.694V180.138z
		 M542.478,174.311l1.302-0.785c1.033,1.487,1.956,2.934,2.769,4.339l-1.446,0.93C544.179,177.087,543.304,175.592,542.478,174.311z
		 M551.3,177.927c0.992-1.35,1.915-2.816,2.769-4.4l1.509,0.909c-0.896,1.46-1.881,2.947-2.955,4.463L551.3,177.927z"/>
	<path fill="#3E3F3F" d="M564.131,184.559c0.041,0.716,0.089,1.309,0.145,1.776c-1.543,1.033-2.927,2.025-4.153,2.976l-0.971-1.385
		c0.468-0.386,0.702-0.978,0.702-1.776v-8.161h-2.686v-1.529h4.297v9.979C562.279,185.889,563.166,185.262,564.131,184.559z
		 M559.668,169.662c1.501,1.543,2.589,2.687,3.265,3.43l-1.446,1.22c-0.868-1.144-1.895-2.328-3.079-3.554L559.668,169.662z
		 M571.424,169.476l-0.269,0.476c1.64,2.906,3.856,5.048,6.653,6.425c-0.399,0.482-0.799,0.999-1.198,1.55
		c-2.728-1.804-4.849-3.974-6.364-6.508c-1.474,2.438-3.622,4.628-6.446,6.57c-0.399-0.579-0.778-1.054-1.136-1.426
		c3.126-1.846,5.406-4.208,6.839-7.087H571.424z M565.846,177.369h1.652v4.339c2.645-1.144,4.808-2.466,6.488-3.967l1.156,1.363
		c-2.135,1.681-4.683,3.12-7.645,4.318v2.707c0,0.908,0.413,1.363,1.24,1.363h4.111c0.991,0,1.563-0.44,1.715-1.322
		c0.179-1.006,0.303-2.094,0.372-3.265c0.44,0.193,0.998,0.393,1.674,0.6c-0.124,1.129-0.276,2.183-0.455,3.161
		c-0.275,1.598-1.35,2.396-3.223,2.396h-4.69c-1.598,0-2.396-0.875-2.396-2.624v-9.069L565.846,177.369L565.846,177.369z"/>
</g>
<g>
	<path fill="#3E3F3F" d="M301.493,90.016l-0.263,0.424c1.711,1.576,3.354,3.172,4.93,4.788l-1.111,1.253
		c-1.441-1.603-2.977-3.186-4.606-4.748c-1.319,2.088-2.681,3.832-4.081,5.232h8.304c-0.081,1.873-0.148,3.186-0.202,3.939
		c-0.067,2.007-0.983,3.011-2.748,3.011c-0.713,0-1.589-0.021-2.626-0.062c-0.081-0.592-0.175-1.131-0.282-1.616
		c0.902,0.148,1.764,0.229,2.585,0.243c0.97,0.014,1.489-0.6,1.556-1.839c0.041-0.646,0.081-1.4,0.121-2.263h-5.354v8.102
		c0,0.754,0.404,1.131,1.213,1.131h3.313c1.064,0,1.663-0.35,1.798-1.051c0.162-0.646,0.283-1.454,0.364-2.424
		c0.525,0.216,1.057,0.41,1.596,0.586c-0.135,0.889-0.303,1.711-0.505,2.465c-0.337,1.252-1.286,1.879-2.849,1.879h-4.021
		c-1.656,0-2.484-0.822-2.484-2.465v-9.395c-0.431,0.404-0.855,0.774-1.272,1.111c-0.404-0.66-0.714-1.145-0.93-1.454
		c2.208-1.684,4.107-3.966,5.697-6.849h1.857V90.016z M311.17,90.157h1.616v16.788c0,1.643-0.814,2.471-2.444,2.484
		c-0.566,0-1.623-0.007-3.172-0.021c-0.067-0.619-0.176-1.232-0.323-1.838c1.428,0.121,2.431,0.182,3.01,0.182
		c0.875,0,1.313-0.431,1.313-1.293V90.157z M308.503,104.399h-1.556V91.955h1.556V104.399z"/>
	<path fill="#3E3F3F" d="M322.948,107.611l5.03,0.081l6.728-0.162c-0.147,0.445-0.337,0.977-0.565,1.597l-6.687,0.04l-4.809-0.121
		c-2.289-0.026-3.893-0.814-4.808-2.363c-0.553,0.511-1.36,1.414-2.425,2.707l-0.828-1.677c1.191-1.152,2.054-1.977,2.586-2.476
		v-6.798h-2.404v-1.494h3.96v8.636C319.554,106.921,320.961,107.598,322.948,107.611z M317.11,90.157
		c0.687,0.834,1.63,2.107,2.828,3.818l-1.435,1.01c-1.091-1.711-1.986-3.03-2.687-3.96L317.11,90.157z M320.403,96.783h6.404v-2.747
		h-3.435c-0.364,0.862-0.754,1.649-1.172,2.363c-0.35-0.229-0.814-0.471-1.394-0.728c0.983-1.589,1.717-3.359,2.201-5.313
		l1.536,0.343c-0.202,0.688-0.414,1.34-0.637,1.96h2.899v-2.869h1.575v2.869h5.172v1.374h-5.172v2.747h6.162v1.374H320.4v-1.373
		H320.403z M322.18,99.894h10.283v6.484h-1.556v-0.828h-7.172v0.828h-1.556v-6.484H322.18z M330.908,101.268h-7.172v2.908h7.172
		V101.268z"/>
	<path fill="#3E3F3F" d="M337.089,93.45h7.455v-3.475h1.656v3.475h7.414v13.333c0,1.711-0.842,2.56-2.525,2.546
		c-0.889,0-1.979-0.015-3.272-0.041c-0.041-0.458-0.142-1.044-0.303-1.758c1.278,0.107,2.343,0.169,3.191,0.183
		c0.849,0.026,1.272-0.398,1.272-1.273V94.986h-5.817c-0.055,1.226-0.202,2.316-0.445,3.272c2.385,1.913,4.31,3.596,5.778,5.051
		l-1.232,1.313c-1.44-1.576-3.117-3.213-5.03-4.909c-0.916,1.979-2.66,3.703-5.232,5.171c-0.565-0.781-0.943-1.266-1.131-1.454
		c2.195-1.158,3.696-2.444,4.505-3.858c0.646-1.037,1.023-2.565,1.131-4.586h-5.777v14.525h-1.637V93.45L337.089,93.45
		L337.089,93.45z"/>
	<path fill="#3E3F3F" d="M367.191,96.804c-0.107,0.121-0.223,0.256-0.344,0.403c2.586,2.479,5.677,4.176,9.272,5.092
		c-0.444,0.673-0.773,1.246-0.989,1.717c-0.89-0.323-1.731-0.681-2.525-1.07v6.808h-1.616v-0.909h-9.879v0.909h-1.616v-6.626
		c-0.875,0.471-1.771,0.896-2.687,1.272c-0.243-0.499-0.539-0.977-0.89-1.435c4.176-1.764,7.367-3.905,9.576-6.424L367.191,96.804z
		 M356.887,92.197h8.646c-0.296-0.539-0.633-1.117-1.01-1.737l1.556-0.707c0.498,0.768,0.97,1.582,1.414,2.444h7.717v3.395h-1.636
		v-1.939h-15.071v2.02h-1.616V92.197z M363.271,94.541l0.97,1.313c-2.479,1.522-4.559,2.688-6.242,3.495
		c-0.242-0.444-0.552-0.909-0.93-1.394C359.386,96.945,361.453,95.807,363.271,94.541z M365.938,98.299
		c-1.656,1.63-3.454,3.03-5.394,4.201h11.171C369.386,101.274,367.459,99.874,365.938,98.299z M370.989,103.955h-9.879v3.435h9.879
		V103.955z M368.665,94.56c2.02,0.93,4.101,1.986,6.242,3.172l-0.93,1.435c-1.67-1.023-3.724-2.142-6.161-3.354L368.665,94.56z"/>
</g>
<g>
	<path fill="#3E3F3F" d="M72.445,261.485c0.932-0.253,1.903-0.535,2.914-0.848v-4.401h-2.654v-1.397h2.654v-3.872h1.497v3.872h2.415
		v1.397h-2.415v3.932c0.686-0.22,1.391-0.452,2.116-0.698c-0.014,0.426,0,0.944,0.039,1.557c-0.725,0.227-1.443,0.456-2.155,0.688
		v6.277c0,1.451-0.646,2.176-1.937,2.176h-1.936c-0.054-0.466-0.14-1.031-0.26-1.696c0.745,0.08,1.351,0.12,1.816,0.12
		c0.546,0,0.818-0.32,0.818-0.959v-5.429c-0.911,0.306-1.816,0.619-2.715,0.938L72.445,261.485z M79.97,261.386v-1.397h10.259v1.378
		c-0.904,2.108-2.179,3.882-3.822,5.319c1.59,0.998,3.59,1.693,5.998,2.085c-0.372,0.493-0.705,0.998-0.998,1.518
		c-2.488-0.546-4.564-1.428-6.228-2.645c-1.796,1.257-3.952,2.192-6.467,2.804c-0.293-0.545-0.586-1.011-0.878-1.396
		c2.415-0.506,4.471-1.308,6.167-2.405c-1.464-1.404-2.508-3.157-3.134-5.26L79.97,261.386L79.97,261.386z M90.089,257.015h2.235
		c-0.133,0.479-0.246,0.965-0.339,1.457h-2.116c-1.53,0-2.295-0.732-2.295-2.195v-3.134h-4.432v0.738
		c0.014,2.568-1.004,4.484-3.054,5.748c-0.332-0.438-0.691-0.845-1.078-1.217c1.757-0.959,2.635-2.469,2.635-4.531v-2.136h7.426
		v4.312C89.072,256.695,89.41,257.015,90.089,257.015z M88.573,261.386h-6.258c0.559,1.77,1.518,3.237,2.874,4.401
		C86.646,264.596,87.774,263.129,88.573,261.386z"/>
	<path fill="#3E3F3F" d="M98.154,255.238c0.239,0.519,0.499,0.991,0.778,1.417c-1.584,1.185-3.233,2.469-4.95,3.853l-1.038-1.357
		C94.82,257.859,96.556,256.556,98.154,255.238z M103.582,262.643c-0.014,1.437-0.113,2.541-0.3,3.313
		c3.034,0.984,5.929,2.009,8.683,3.073l-0.838,1.457c-2.515-1.038-5.316-2.108-8.403-3.213c-0.892,1.583-3.732,2.681-8.522,3.293
		c-0.24-0.506-0.526-1.024-0.858-1.557c4.404-0.386,7.065-1.211,7.983-2.476c0.493-0.665,0.726-1.963,0.699-3.892h1.556
		C103.582,262.641,103.582,262.643,103.582,262.643z M94.6,250.906c1.145,0.719,2.256,1.464,3.334,2.236l-1.019,1.237
		c-0.958-0.759-2.022-1.551-3.193-2.375L94.6,250.906z M95.858,260.487h13.872v6.507h-1.557v-5.109H97.414v5.109h-1.556V260.487z
		 M98.433,259.09c3.992-1.024,6.154-2.754,6.486-5.189h-3.193c-0.479,0.985-1.011,1.87-1.597,2.655
		c-0.426-0.293-0.871-0.579-1.337-0.858c1.25-1.478,2.136-3.188,2.654-5.13l1.497,0.359c-0.199,0.585-0.406,1.138-0.619,1.656h9.462
		v1.258l-1.357,2.715c-0.453-0.213-0.938-0.419-1.457-0.619l1.058-2.036h-3.553c-0.106,0.426-0.227,0.839-0.359,1.238
		c1.145,1.889,3.293,3.2,6.447,3.932c-0.373,0.506-0.706,0.991-0.998,1.457c-2.835-0.904-4.857-2.235-6.068-3.992
		c-0.918,1.597-2.934,2.888-6.048,3.872C99.185,260.009,98.845,259.569,98.433,259.09z"/>
</g>
<g>
	<path fill="#3E3F3F" d="M236.19,223.544c-0.469,0.603-0.863,1.172-1.185,1.707c-3.515-1.318-6.245-3.451-8.192-6.396v8.263h-1.566
		v-8.233c-1.961,2.731-4.659,4.96-8.093,6.688c-0.309-0.455-0.689-0.957-1.145-1.506c3.421-1.459,6.074-3.354,7.962-5.684h-7.701
		v-1.525h8.977v-1.768h1.566v1.768h8.955v1.525h-7.711C229.938,220.887,232.649,222.607,236.19,223.544z M217.736,209.949
		c-0.08-0.535-0.173-1.044-0.281-1.525c7.363-0.081,13.006-0.255,16.928-0.522l0.241,1.526
		C230.193,209.641,224.564,209.816,217.736,209.949z M217.977,211.717l1.185-0.863c0.991,1.151,1.988,2.356,2.992,3.614
		l-1.365,0.964C219.811,214.053,218.873,212.813,217.977,211.717z M223.981,210.913l1.325-0.783c1.205,1.674,2.075,2.932,2.61,3.775
		l-1.466,0.844C225.822,213.651,224.998,212.372,223.981,210.913z M229.182,214.608c1.191-1.325,2.477-2.879,3.855-4.659
		l1.405,1.045c-1.325,1.539-2.697,3.092-4.116,4.658L229.182,214.608z"/>
	<path fill="#3E3F3F" d="M237.234,220.673h8.655v-1.366h1.405v1.366h8.635v1.284h-7.068c2.342,1.654,4.946,2.771,7.812,3.354
		c-0.362,0.563-0.676,1.058-0.944,1.486c-3.266-0.943-6.077-2.439-8.434-4.488v4.709h-1.405v-4.729
		c-2.438,2.035-5.248,3.551-8.435,4.548c-0.28-0.414-0.595-0.836-0.943-1.265c2.879-0.703,5.462-1.908,7.751-3.615h-7.028v-1.284
		H237.234z M246.129,207.841l1.186-0.723c0.629,0.695,1.145,1.379,1.546,2.048l-0.924,0.583h7.69v1.245h-7.61v1.425h6.728v1.165
		h-6.728v1.426h6.728v1.165h-6.728v1.466h7.671v1.244h-14.639v0.764h-1.405v-7.148c-0.69,0.803-1.393,1.525-2.108,2.168
		c-0.214-0.388-0.535-0.83-0.964-1.325c1.94-1.619,3.581-3.614,4.919-5.983l1.386,0.622c-0.374,0.615-0.756,1.205-1.145,1.768h5.683
		C247.053,209.14,246.624,208.504,246.129,207.841z M241.049,212.419h5.563v-1.425h-5.563V212.419z M241.049,215.01h5.563v-1.426
		h-5.563V215.01z M241.049,217.641h5.563v-1.466h-5.563V217.641z"/>
</g>
<g>
	<path fill="#3E3F3F" d="M405.047,191.281c1.792-2.716,3.183-5.958,4.173-9.729l1.484,0.441c-0.549,1.799-1.15,3.468-1.806,5.005
		v14.333h-1.424v-11.374c-0.575,1.057-1.184,2.033-1.826,2.929C405.449,192.324,405.247,191.789,405.047,191.281z M412.029,194.611
		l1.344-0.742c0.608,1.029,1.381,1.923,2.316,2.678c0.481-0.695,0.813-1.809,0.993-3.34h-5.235v-5.517h5.416v-1.986h-6.419v-1.364
		h6.419v-2.708h1.545v2.708h6.479v1.364h-6.479v1.986h5.396v6.379h-1.524v-0.862h-4.042c-0.207,1.865-0.611,3.27-1.214,4.213
		c-0.007,0.013-0.013,0.022-0.02,0.029c2.073,1.211,4.754,1.916,8.044,2.116c-0.401,0.575-0.77,1.131-1.104,1.665
		c-3.229-0.394-5.897-1.264-8.004-2.607c-1.171,1.036-2.889,1.959-5.155,2.769c-0.308-0.429-0.655-0.876-1.043-1.345
		c2.173-0.682,3.804-1.471,4.895-2.366C413.593,196.805,412.723,195.781,412.029,194.611z M416.802,191.862
		c0.041-0.635,0.061-1.577,0.061-2.828h-3.892v2.828H416.802z M418.347,191.862h3.932v-2.828h-3.871
		C418.408,189.556,418.387,190.499,418.347,191.862z"/>
	<path fill="#3E3F3F" d="M435.198,200.97v-6.379h-5.838c-0.228,2.781-1.036,5.089-2.427,6.921c-0.348-0.441-0.742-0.902-1.184-1.384
		c0.869-1.231,1.457-2.595,1.766-4.093c0.294-1.444,0.441-3.49,0.441-6.139v-7.161h16.349v15.948c0,1.592-0.755,2.387-2.267,2.387
		c-0.923,0-1.959-0.02-3.109-0.061c-0.067-0.44-0.168-0.995-0.301-1.664c1.163,0.08,2.106,0.12,2.828,0.12
		c0.829,0,1.244-0.395,1.244-1.184v-3.691h-5.898v6.379L435.198,200.97L435.198,200.97z M429.47,193.146h5.728v-3.751h-5.637
		C429.601,190.692,429.571,191.943,429.47,193.146z M429.561,184.22v3.731h5.637v-3.731H429.561z M442.701,184.22h-5.898v3.731
		h5.898V184.22z M436.802,193.146h5.898v-3.751h-5.898V193.146z"/>
	<path fill="#3E3F3F" d="M447.875,185.183h7.402v-3.45h1.646v3.45h7.361v13.24c0,1.697-0.835,2.54-2.507,2.527
		c-0.883,0-1.966-0.014-3.25-0.04c-0.04-0.455-0.141-1.036-0.301-1.745c1.271,0.107,2.327,0.167,3.169,0.181
		c0.843,0.026,1.265-0.395,1.265-1.265v-11.374h-5.777c-0.054,1.217-0.201,2.3-0.441,3.25c2.367,1.898,4.279,3.57,5.737,5.015
		l-1.224,1.305c-1.432-1.565-3.097-3.189-4.995-4.875c-0.91,1.966-2.642,3.678-5.196,5.136c-0.562-0.775-0.936-1.257-1.123-1.444
		c2.18-1.15,3.671-2.428,4.474-3.832c0.642-1.03,1.016-2.548,1.123-4.554h-5.737v14.424h-1.625v-15.949L447.875,185.183
		L447.875,185.183z"/>
	<path fill="#3E3F3F" d="M477.765,188.513c-0.107,0.12-0.221,0.254-0.341,0.401c2.568,2.46,5.637,4.146,9.208,5.055
		c-0.441,0.669-0.77,1.237-0.983,1.705c-0.883-0.32-1.718-0.675-2.507-1.063v6.76h-1.605v-0.902h-9.81v0.902h-1.604v-6.579
		c-0.869,0.468-1.758,0.89-2.668,1.264c-0.24-0.495-0.534-0.971-0.883-1.425c4.146-1.752,7.315-3.879,9.509-6.379L477.765,188.513z
		 M467.534,183.939h8.586c-0.294-0.535-0.629-1.11-1.003-1.726l1.545-0.702c0.494,0.763,0.963,1.571,1.404,2.428h7.662v3.37h-1.624
		v-1.926h-14.965v2.006h-1.605V183.939z M473.873,186.266l0.963,1.305c-2.46,1.511-4.526,2.668-6.198,3.47
		c-0.241-0.441-0.549-0.902-0.923-1.384C470.015,188.653,472.069,187.522,473.873,186.266z M476.522,189.997
		c-1.646,1.618-3.431,3.009-5.356,4.173h11.094C479.945,192.953,478.034,191.561,476.522,189.997z M481.536,195.614h-9.81v3.41h9.81
		V195.614z M479.23,186.286c2.006,0.923,4.072,1.973,6.198,3.149l-0.923,1.424c-1.657-1.016-3.697-2.126-6.118-3.33L479.23,186.286z
		"/>
</g>
<g>
	<path fill="#3E3F3F" d="M113.38,401.555v-1.456h6.572v1.497c-0.654,1.308-1.43,2.544-2.326,3.711v10.424h-1.577v-8.594
		c-0.742,0.782-1.543,1.522-2.406,2.225c-0.121-0.485-0.31-1.046-0.566-1.679c2.076-1.672,3.795-3.715,5.156-6.128H113.38z
		 M115.382,396.701l1.415-0.707c0.499,0.795,1.025,1.719,1.577,2.771l-1.496,0.769C116.353,398.44,115.854,397.497,115.382,396.701z
		 M117.869,406.429l1.052-0.87c0.822,0.917,1.57,1.786,2.244,2.609l-1.254,0.99C119.265,408.228,118.583,407.318,117.869,406.429z
		 M119.952,413.526h5.683v-9.908h-4.813v-1.578h4.813v-5.925h1.617v5.925h5.137v1.578h-5.137v9.908h5.743v1.578h-13.043
		C119.952,415.104,119.952,413.526,119.952,413.526z"/>
	<path fill="#3E3F3F" d="M135.463,397.39h17.391v1.577h-15.672v14.115h15.996v1.537h-17.715L135.463,397.39L135.463,397.39z
		 M138.739,401.191l1.133-1.072c1.685,1.389,3.447,2.912,5.288,4.57c1.409-1.523,2.761-3.182,4.055-4.975l1.476,0.991
		c-1.415,1.833-2.851,3.532-4.307,5.096c1.678,1.53,3.417,3.169,5.217,4.914l-1.395,1.416c-1.632-1.706-3.311-3.392-5.036-5.056
		c-1.947,1.975-3.93,3.714-5.945,5.217c-0.323-0.418-0.755-0.855-1.294-1.314c2.117-1.442,4.129-3.124,6.036-5.045
		C142.274,404.336,140.533,402.755,138.739,401.191z"/>
	<path fill="#3E3F3F" d="M156.17,406.469c0.404,1.645,0.971,2.997,1.699,4.055c0.722-1.482,1.173-3.191,1.354-5.126h-4.044v-1.477
		l3.721-4.591h-4.126v-1.375h5.986v1.375l-3.802,4.692h3.781v1.192c-0.249,2.502-0.859,4.668-1.83,6.502
		c1.47,1.274,3.752,1.917,6.846,1.932c2.562,0.054,5.534,0.02,8.918-0.102c-0.229,0.553-0.451,1.086-0.667,1.598
		c-3.088-0.014-6.073-0.026-8.959-0.04c-3.007,0-5.313-0.702-6.916-2.104c-0.762,1.105-1.685,2.069-2.771,2.892
		c-0.216-0.391-0.492-0.829-0.829-1.314c1.011-0.769,1.86-1.664,2.548-2.689c-0.903-1.146-1.651-2.784-2.244-4.914L156.17,406.469z
		 M160.943,409.887h5.178v-1.76h-4.49v-1.213h4.49v-1.76h-4.207v-1.213h4.207v-1.76h-5.259v-1.254h5.259v-1.759h-4.207v-1.214h4.207
		v-1.981h1.496v1.981h4.691v2.973h2.123v1.254h-2.123v3.519h-1.456v-0.546h-3.235v1.76h5.096v1.213h-5.096v1.76h6.026v1.213h-6.026
		v2.083h-1.496V411.1h-5.178V409.887z M170.852,399.169h-3.235v1.759h3.235V399.169z M167.617,403.941h3.235v-1.76h-3.235V403.941z"
		/>
	<path fill="#3E3F3F" d="M182.217,409.826c0.026,0.633,0.074,1.233,0.142,1.8c-1.847,1.199-3.222,2.164-4.126,2.892l-0.97-1.335
		c0.458-0.444,0.688-1.051,0.688-1.819v-7.199h-2.568v-1.456h4.104v8.979C180.363,411.106,181.273,410.487,182.217,409.826z
		 M178.132,396.56c1.038,1.024,2.028,2.063,2.973,3.114l-1.416,1.173c-0.984-1.268-1.907-2.347-2.771-3.236L178.132,396.56z
		 M182.157,406.308v-1.396h11.021v1.396c-1.065,2.339-2.38,4.172-3.943,5.5c1.719,1.133,3.787,1.921,6.208,2.366
		c-0.472,0.606-0.884,1.152-1.233,1.638c-2.407-0.693-4.504-1.702-6.289-3.022c-1.834,1.239-4.152,2.301-6.957,3.185
		c-0.351-0.499-0.701-0.984-1.052-1.456c2.676-0.722,4.914-1.642,6.714-2.761c-1.563-1.51-2.699-3.326-3.407-5.449h-1.062V406.308z
		 M190.65,398.421h-5.056v0.586c0,2.481-1.133,4.328-3.397,5.541c-0.364-0.444-0.755-0.863-1.173-1.254
		c1.996-1.024,2.993-2.44,2.993-4.246v-2.124h8.21v4.126c0,0.606,0.31,0.909,0.931,0.909h2.225
		c-0.067,0.553-0.122,1.052-0.162,1.497h-2.669c-1.268,0-1.901-0.701-1.901-2.104L190.65,398.421L190.65,398.421z M184.744,406.308
		c0.682,1.719,1.75,3.231,3.206,4.54c1.429-1.106,2.571-2.619,3.428-4.54H184.744z"/>
</g>
<g>
	<path fill="#3E3F3F" d="M561.692,443.225c-1.017,1.832-1.912,3.27-2.688,4.313l-1.384-0.982c0.869-1.15,1.759-2.527,2.668-4.133
		L561.692,443.225z M560.187,434.158h6.299v-6.299h1.686v2.407h8.967v1.444h-8.967v2.447h7.102v7.663h-1.646v-0.843h-11.795v0.843
		h-1.646V434.158z M573.627,435.602h-11.795v3.932h11.795V435.602z M565.041,442.343c0.616,1.351,1.15,2.774,1.605,4.272
		l-1.625,0.563c-0.415-1.458-0.889-2.896-1.425-4.313L565.041,442.343z M569.836,442.202c0.642,1.324,1.224,2.708,1.745,4.152
		l-1.585,0.622c-0.375-1.203-0.916-2.607-1.625-4.213L569.836,442.202z M574.71,442.282c1.07,1.619,1.926,3.076,2.568,4.374
		l-1.524,0.822c-0.669-1.364-1.479-2.855-2.428-4.474L574.71,442.282z"/>
	<path fill="#3E3F3F" d="M587.61,435.121c0.026,0.468,0.066,0.923,0.12,1.364c-1.338,0.655-2.461,1.298-3.37,1.926l-0.782-1.043
		c0.361-0.308,0.542-0.796,0.542-1.465v-1.645h-1.625c-0.121,2.407-1.244,4.186-3.37,5.336c-0.255-0.375-0.563-0.749-0.923-1.123
		c1.899-0.896,2.908-2.301,3.029-4.213h-2.568v-1.124h4.514v-2.006h-2.407c-0.348,0.696-0.769,1.311-1.264,1.846
		c-0.361-0.428-0.688-0.769-0.983-1.023c0.989-0.989,1.619-2.24,1.886-3.751l1.264,0.141c-0.106,0.588-0.254,1.144-0.44,1.665h1.945
		v-2.066h1.324v2.066h2.948v1.123h-2.948v2.006h3.069v1.124h-2.167v2.046C586.139,435.93,586.873,435.536,587.61,435.121z
		 M587.53,440.938h1.464c-0.014,1.138-0.094,1.992-0.24,2.567c2.902,0.937,5.696,1.899,8.385,2.889l-0.682,1.444
		c-2.448-1.003-5.189-2.012-8.226-3.028c-1.109,1.631-3.965,2.647-8.565,3.049c-0.2-0.428-0.435-0.896-0.702-1.404
		c4.668-0.415,7.369-1.25,8.104-2.508C587.403,443.372,587.556,442.369,587.53,440.938z M581.391,438.832h13.661v5.798h-1.444
		v-4.514h-10.772v4.514h-1.444v-5.798H581.391z M588.071,433.135h3.992v-1.985h-2.307c-0.335,0.695-0.742,1.311-1.224,1.846
		c-0.348-0.335-0.683-0.622-1.003-0.863c0.977-0.909,1.598-2.187,1.865-3.831l1.264,0.2c-0.12,0.548-0.261,1.058-0.421,1.524h1.825
		v-2.105h1.324v2.105h3.771v1.124h-3.771v1.985h4.333v1.124h-3.41v1.865c0,0.481,0.261,0.729,0.782,0.742h0.662
		c0.535,0,0.849-0.28,0.942-0.843c0.066-0.36,0.12-0.802,0.16-1.323c0.441,0.174,0.869,0.32,1.284,0.441
		c-0.106,0.682-0.207,1.217-0.301,1.604c-0.2,0.896-0.822,1.344-1.865,1.344h-1.345c-1.069,0-1.604-0.521-1.604-1.564v-2.267h-1.545
		c-0.08,0.949-0.314,1.759-0.702,2.427c-0.521,0.803-1.391,1.479-2.607,2.026c-0.255-0.468-0.528-0.856-0.822-1.163
		c1.149-0.481,1.919-0.983,2.307-1.505c0.321-0.415,0.515-1.01,0.582-1.785h-2.167v-1.123H588.071z"/>
</g>
<g>
	<path fill="#3E3F3F" d="M639.968,327.204c0.829-0.227,1.686-0.487,2.567-0.782v-4.573h-2.427v-1.404h2.427v-3.932h1.444v3.932
		h2.087v1.404h-2.087v4.092c0.643-0.228,1.305-0.468,1.986-0.722c0.014,0.575,0.033,1.076,0.061,1.504
		c-0.629,0.214-1.311,0.455-2.047,0.723v6.318c0,1.284-0.595,1.939-1.785,1.967c-0.495,0-1.083,0-1.766,0
		c-0.066-0.522-0.153-1.05-0.261-1.585c0.643,0.08,1.171,0.12,1.585,0.12c0.521,0,0.782-0.268,0.782-0.803v-5.496
		c-0.735,0.254-1.511,0.528-2.327,0.822L639.968,327.204z M646.367,324.918c1.604-1.057,3.069-2.187,4.393-3.391l1.063,1.063
		c-1.163,0.989-2.334,1.919-3.511,2.788h8.165v1.705c-2.809,1.672-4.962,3.21-6.46,4.614c-0.655,0.588-0.982,1.083-0.982,1.484
		c0,0.602,0.602,0.902,1.806,0.902h4.674c1.257,0,1.959-0.568,2.106-1.705c0.093-0.843,0.174-1.731,0.24-2.668
		c0.321,0.147,0.836,0.334,1.545,0.562c-0.134,1.244-0.247,2.133-0.341,2.668c-0.255,1.726-1.338,2.588-3.25,2.588h-5.597
		c-1.872,0-2.809-0.682-2.809-2.046c0-0.937,0.575-1.906,1.726-2.909c1.391-1.257,3.143-2.521,5.255-3.791h-6.158v-1.324
		c-0.334,0.241-0.662,0.475-0.982,0.702L646.367,324.918z M646.909,319.181h12.177v3.37h-1.444v-1.966h-9.288v2.046h-1.444v-3.45
		H646.909z M651.382,316.994l1.284-0.782c0.575,0.722,1.09,1.424,1.545,2.105l-1.324,0.843
		C652.459,318.438,651.957,317.716,651.382,316.994z M659.367,324.937l-1.063,1.204c-1.351-1.258-2.755-2.428-4.213-3.511
		l0.983-1.063C656.638,322.731,658.069,323.854,659.367,324.937z"/>
	<path fill="#3E3F3F" d="M660.128,327.385c1.699-2.246,2.882-4.821,3.551-7.723h-2.988v-1.444h7.763v1.444h-3.229
		c-0.294,1.444-0.723,2.814-1.284,4.112h3.651v9.067h-4.032v1.243h-1.444v-6.881c-0.361,0.521-0.735,1.03-1.123,1.524
		C660.79,328.354,660.503,327.906,660.128,327.385z M666.147,325.179h-2.588v6.259h2.588V325.179z M669.397,319.521h10.551v1.484
		h-9.026v5.838c0,4.052-1.037,7.168-3.109,9.348c-0.335-0.481-0.683-0.909-1.043-1.284c1.752-1.912,2.628-4.587,2.628-8.023
		L669.397,319.521L669.397,319.521z M673.127,316.994l1.264-0.803c0.736,0.977,1.284,1.778,1.646,2.407l-1.304,0.803
		C674.264,318.585,673.73,317.783,673.127,316.994z"/>
</g>
<g>
	
		<linearGradient id="SVGID_11_" gradientUnits="userSpaceOnUse" x1="624.9767" y1="731.7935" x2="877.6027" y2="731.7935" gradientTransform="matrix(1 0 0 1 -385.23 -231.16)">
		<stop  offset="0" style="stop-color:#3EA8F2"/>
		<stop  offset="1" style="stop-color:#22E0E7"/>
	</linearGradient>
	<path fill="url(#SVGID_11_)" d="M239.747,471.177v29.651c0,16.161,56.553,29.262,126.313,29.262
		c69.761,0,126.313-13.101,126.313-29.262v-29.651H239.747z"/>
	<ellipse fill="#00BBED" cx="366.06" cy="471.177" rx="126.313" ry="29.264"/>
	
		<linearGradient id="SVGID_12_" gradientUnits="userSpaceOnUse" x1="645.6132" y1="723.761" x2="645.6132" y2="742.924" gradientTransform="matrix(1 0 0 1 -385.23 -231.16)">
		<stop  offset="0.3817" style="stop-color:#0FA0F2"/>
		<stop  offset="1" style="stop-color:#22E0E7"/>
	</linearGradient>
	<path fill="url(#SVGID_12_)" d="M258.285,510.289c1.331,0.503,2.741,0.992,4.197,1.475v-17.688
		c-1.456-0.483-2.866-0.973-4.197-1.475V510.289z"/>
	<path fill="#008EE5" d="M258.901,509.793v-16.967c-0.204-0.075-0.417-0.149-0.616-0.225v17.688
		c1.331,0.503,2.741,0.992,4.197,1.475v-0.706C261.248,510.643,260.042,510.224,258.901,509.793z"/>
	
		<linearGradient id="SVGID_13_" gradientUnits="userSpaceOnUse" x1="659.9362" y1="728.1809" x2="659.9362" y2="746.8889" gradientTransform="matrix(1 0 0 1 -385.23 -231.16)">
		<stop  offset="0.3817" style="stop-color:#0FA0F2"/>
		<stop  offset="1" style="stop-color:#22E0E7"/>
	</linearGradient>
	<path fill="url(#SVGID_13_)" d="M272.608,514.71c1.364,0.348,2.764,0.688,4.197,1.019v-17.688c-1.434-0.331-2.833-0.672-4.197-1.02
		V514.71z"/>
	
		<linearGradient id="SVGID_14_" gradientUnits="userSpaceOnUse" x1="652.7742" y1="726.1809" x2="652.7742" y2="745.0779" gradientTransform="matrix(1 0 0 1 -385.23 -231.16)">
		<stop  offset="0.3817" style="stop-color:#0FA0F2"/>
		<stop  offset="1" style="stop-color:#22E0E7"/>
	</linearGradient>
	<path fill="url(#SVGID_14_)" d="M265.445,512.71c1.354,0.41,2.758,0.813,4.199,1.208v-17.687c-1.441-0.396-2.846-0.798-4.199-1.21
		V512.71z"/>
	<path fill="#008EE5" d="M266.064,512.215v-16.968c-0.205-0.076-0.417-0.149-0.617-0.226v17.688
		c1.331,0.502,2.742,0.993,4.197,1.475v-0.704C268.411,513.065,267.204,512.645,266.064,512.215z"/>
	<path fill="#008EE5" d="M273.224,514.215v-16.968c-0.204-0.076-0.417-0.149-0.616-0.226v17.688
		c1.331,0.502,2.741,0.992,4.197,1.475v-0.706C275.571,515.065,274.365,514.646,273.224,514.215z"/>
	
		<linearGradient id="SVGID_15_" gradientUnits="userSpaceOnUse" x1="624.9767" y1="683.3085" x2="877.6027" y2="683.3085" gradientTransform="matrix(1 0 0 1 -385.23 -231.16)">
		<stop  offset="0" style="stop-color:#3E3F3F"/>
		<stop  offset="1" style="stop-color:#A3A3A3"/>
	</linearGradient>
	<path fill="url(#SVGID_15_)" d="M239.747,422.692v29.651c0,16.161,56.553,29.262,126.313,29.262
		c69.761,0,126.313-13.101,126.313-29.262v-29.651H239.747z"/>
	<ellipse fill="#545454" cx="366.06" cy="422.692" rx="126.313" ry="29.263"/>
	
		<linearGradient id="SVGID_16_" gradientUnits="userSpaceOnUse" x1="624.9767" y1="634.0704" x2="877.6027" y2="634.0704" gradientTransform="matrix(1 0 0 1 -385.23 -231.16)">
		<stop  offset="0" style="stop-color:#3EA8F2"/>
		<stop  offset="1" style="stop-color:#22E0E7"/>
	</linearGradient>
	<path fill="url(#SVGID_16_)" d="M239.747,373.454v29.65c0,16.162,56.553,29.263,126.313,29.263
		c69.761,0,126.313-13.101,126.313-29.263v-29.65H239.747z"/>
	<ellipse fill="#00BBED" cx="366.06" cy="373.454" rx="126.313" ry="29.264"/>
	
		<linearGradient id="SVGID_17_" gradientUnits="userSpaceOnUse" x1="645.6132" y1="626.038" x2="645.6132" y2="645.2" gradientTransform="matrix(1 0 0 1 -385.23 -231.16)">
		<stop  offset="0.3817" style="stop-color:#0FA0F2"/>
		<stop  offset="1" style="stop-color:#22E0E7"/>
	</linearGradient>
	<path fill="url(#SVGID_17_)" d="M258.285,412.565c1.331,0.503,2.741,0.992,4.197,1.475v-17.688
		c-1.456-0.482-2.866-0.972-4.197-1.474V412.565z"/>
	<path fill="#008EE5" d="M258.901,412.07v-16.968c-0.204-0.075-0.417-0.149-0.616-0.225v17.688c1.331,0.503,2.741,0.992,4.197,1.475
		v-0.706C261.248,412.919,260.042,412.5,258.901,412.07z"/>
	
		<linearGradient id="SVGID_18_" gradientUnits="userSpaceOnUse" x1="659.9362" y1="630.4579" x2="659.9362" y2="649.166" gradientTransform="matrix(1 0 0 1 -385.23 -231.16)">
		<stop  offset="0.3817" style="stop-color:#0FA0F2"/>
		<stop  offset="1" style="stop-color:#22E0E7"/>
	</linearGradient>
	<path fill="url(#SVGID_18_)" d="M272.608,416.987c1.364,0.348,2.764,0.688,4.197,1.019v-17.688
		c-1.434-0.331-2.833-0.672-4.197-1.02V416.987z"/>
	
		<linearGradient id="SVGID_19_" gradientUnits="userSpaceOnUse" x1="652.7742" y1="628.4579" x2="652.7742" y2="647.355" gradientTransform="matrix(1 0 0 1 -385.23 -231.16)">
		<stop  offset="0.3817" style="stop-color:#0FA0F2"/>
		<stop  offset="1" style="stop-color:#22E0E7"/>
	</linearGradient>
	<path fill="url(#SVGID_19_)" d="M265.445,414.987c1.354,0.41,2.758,0.813,4.199,1.208v-17.687c-1.441-0.396-2.846-0.798-4.199-1.21
		V414.987z"/>
	<path fill="#008EE5" d="M266.064,414.492v-16.968c-0.205-0.076-0.417-0.149-0.617-0.226v17.688
		c1.331,0.502,2.742,0.993,4.197,1.475v-0.704C268.411,415.341,267.204,414.921,266.064,414.492z"/>
	<path fill="#008EE5" d="M273.224,416.492v-16.968c-0.204-0.076-0.417-0.149-0.616-0.226v17.688
		c1.331,0.502,2.741,0.992,4.197,1.475v-0.706C275.571,417.341,274.365,416.922,273.224,416.492z"/>
	
		<linearGradient id="SVGID_20_" gradientUnits="userSpaceOnUse" x1="645.6132" y1="674.66" x2="645.6132" y2="693.8229" gradientTransform="matrix(1 0 0 1 -385.23 -231.16)">
		<stop  offset="0.2312" style="stop-color:#333333"/>
		<stop  offset="1" style="stop-color:#A3A3A3"/>
	</linearGradient>
	<path fill="url(#SVGID_20_)" d="M258.285,461.188c1.331,0.502,2.741,0.992,4.197,1.475v-17.688
		c-1.456-0.482-2.866-0.972-4.197-1.475V461.188z"/>
	<path fill="#2D2D2D" d="M258.901,460.693v-16.968c-0.204-0.076-0.417-0.149-0.616-0.226v17.688
		c1.331,0.502,2.741,0.992,4.197,1.475v-0.706C261.248,461.542,260.042,461.123,258.901,460.693z"/>
	
		<linearGradient id="SVGID_21_" gradientUnits="userSpaceOnUse" x1="659.9362" y1="679.0809" x2="659.9362" y2="697.7889" gradientTransform="matrix(1 0 0 1 -385.23 -231.16)">
		<stop  offset="0.2312" style="stop-color:#333333"/>
		<stop  offset="1" style="stop-color:#A3A3A3"/>
	</linearGradient>
	<path fill="url(#SVGID_21_)" d="M272.608,465.61c1.364,0.348,2.764,0.688,4.197,1.019v-17.688c-1.434-0.332-2.833-0.672-4.197-1.02
		V465.61z"/>
	
		<linearGradient id="SVGID_22_" gradientUnits="userSpaceOnUse" x1="652.7742" y1="677.0809" x2="652.7742" y2="695.978" gradientTransform="matrix(1 0 0 1 -385.23 -231.16)">
		<stop  offset="0.2312" style="stop-color:#333333"/>
		<stop  offset="1" style="stop-color:#A3A3A3"/>
	</linearGradient>
	<path fill="url(#SVGID_22_)" d="M265.445,463.61c1.354,0.41,2.758,0.813,4.199,1.208v-17.687c-1.441-0.396-2.846-0.798-4.199-1.21
		V463.61z"/>
	<path fill="#2D2D2D" d="M266.064,463.115v-16.969c-0.205-0.075-0.417-0.149-0.617-0.225v17.688
		c1.331,0.502,2.742,0.993,4.197,1.474v-0.703C268.411,463.964,267.204,463.544,266.064,463.115z"/>
	<path fill="#2D2D2D" d="M273.224,465.115v-16.968c-0.204-0.076-0.417-0.149-0.616-0.226v17.688
		c1.331,0.502,2.741,0.992,4.197,1.475v-0.706C275.571,465.964,274.365,465.544,273.224,465.115z"/>
	
		<linearGradient id="SVGID_23_" gradientUnits="userSpaceOnUse" x1="624.3087" y1="585.4399" x2="876.9347" y2="585.4399" gradientTransform="matrix(1 0 0 1 -385.23 -231.16)">
		<stop  offset="0" style="stop-color:#3E3F3F"/>
		<stop  offset="1" style="stop-color:#A3A3A3"/>
	</linearGradient>
	<path fill="url(#SVGID_23_)" d="M239.079,324.823v29.65c0,16.162,56.553,29.264,126.313,29.264
		c69.761,0,126.313-13.102,126.313-29.264v-29.65H239.079z"/>
	<ellipse fill="#545454" cx="365.392" cy="324.823" rx="126.313" ry="29.263"/>
	
		<linearGradient id="SVGID_24_" gradientUnits="userSpaceOnUse" x1="624.3087" y1="536.2009" x2="876.9347" y2="536.2009" gradientTransform="matrix(1 0 0 1 -385.23 -231.16)">
		<stop  offset="0" style="stop-color:#3EA8F2"/>
		<stop  offset="1" style="stop-color:#22E0E7"/>
	</linearGradient>
	<path fill="url(#SVGID_24_)" d="M239.079,275.584v29.65c0,16.161,56.553,29.264,126.313,29.264
		c69.761,0,126.313-13.103,126.313-29.264v-29.65H239.079z"/>
	<ellipse fill="#00BBED" cx="365.392" cy="275.584" rx="126.313" ry="29.264"/>
	
		<linearGradient id="SVGID_25_" gradientUnits="userSpaceOnUse" x1="644.9452" y1="528.168" x2="644.9452" y2="547.3309" gradientTransform="matrix(1 0 0 1 -385.23 -231.16)">
		<stop  offset="0.3817" style="stop-color:#0FA0F2"/>
		<stop  offset="1" style="stop-color:#22E0E7"/>
	</linearGradient>
	<path fill="url(#SVGID_25_)" d="M257.617,314.696c1.331,0.502,2.741,0.992,4.197,1.475v-17.688
		c-1.456-0.482-2.866-0.974-4.197-1.475V314.696z"/>
	<path fill="#008EE5" d="M258.233,314.201v-16.968c-0.204-0.076-0.417-0.15-0.616-0.225v17.688c1.331,0.502,2.741,0.992,4.197,1.475
		v-0.705C260.58,315.05,259.374,314.63,258.233,314.201z"/>
	
		<linearGradient id="SVGID_26_" gradientUnits="userSpaceOnUse" x1="659.2682" y1="532.59" x2="659.2682" y2="551.297" gradientTransform="matrix(1 0 0 1 -385.23 -231.16)">
		<stop  offset="0.3817" style="stop-color:#0FA0F2"/>
		<stop  offset="1" style="stop-color:#22E0E7"/>
	</linearGradient>
	<path fill="url(#SVGID_26_)" d="M271.94,319.117c1.364,0.348,2.764,0.688,4.197,1.02v-17.688c-1.434-0.332-2.833-0.671-4.197-1.019
		V319.117z"/>
	
		<linearGradient id="SVGID_27_" gradientUnits="userSpaceOnUse" x1="652.1062" y1="530.59" x2="652.1062" y2="549.486" gradientTransform="matrix(1 0 0 1 -385.23 -231.16)">
		<stop  offset="0.3817" style="stop-color:#0FA0F2"/>
		<stop  offset="1" style="stop-color:#22E0E7"/>
	</linearGradient>
	<path fill="url(#SVGID_27_)" d="M264.777,317.118c1.354,0.41,2.758,0.813,4.199,1.208v-17.688
		c-1.441-0.395-2.846-0.797-4.199-1.208V317.118z"/>
	<path fill="#008EE5" d="M265.396,316.623v-16.968c-0.205-0.075-0.417-0.149-0.617-0.225v17.688
		c1.331,0.502,2.742,0.993,4.197,1.475v-0.705C267.743,317.472,266.536,317.052,265.396,316.623z"/>
	<path fill="#008EE5" d="M272.556,318.623v-16.969c-0.204-0.075-0.417-0.149-0.616-0.224v17.687
		c1.331,0.503,2.742,0.993,4.197,1.475v-0.704C274.903,319.472,273.697,319.052,272.556,318.623z"/>
	
		<linearGradient id="SVGID_28_" gradientUnits="userSpaceOnUse" x1="644.9452" y1="576.791" x2="644.9452" y2="595.9529" gradientTransform="matrix(1 0 0 1 -385.23 -231.16)">
		<stop  offset="0.2312" style="stop-color:#333333"/>
		<stop  offset="1" style="stop-color:#A3A3A3"/>
	</linearGradient>
	<path fill="url(#SVGID_28_)" d="M257.617,363.319c1.331,0.502,2.741,0.992,4.197,1.474v-17.687
		c-1.456-0.482-2.866-0.974-4.197-1.475V363.319z"/>
	<path fill="#2D2D2D" d="M258.233,362.824v-16.969c-0.204-0.075-0.417-0.149-0.616-0.224v17.688
		c1.331,0.502,2.741,0.992,4.197,1.474v-0.704C260.58,363.673,259.374,363.253,258.233,362.824z"/>
	
		<linearGradient id="SVGID_29_" gradientUnits="userSpaceOnUse" x1="659.2682" y1="581.213" x2="659.2682" y2="599.92" gradientTransform="matrix(1 0 0 1 -385.23 -231.16)">
		<stop  offset="0.2312" style="stop-color:#333333"/>
		<stop  offset="1" style="stop-color:#A3A3A3"/>
	</linearGradient>
	<path fill="url(#SVGID_29_)" d="M271.94,367.74c1.364,0.348,2.764,0.688,4.197,1.02v-17.688c-1.434-0.332-2.833-0.672-4.197-1.019
		V367.74z"/>
	
		<linearGradient id="SVGID_30_" gradientUnits="userSpaceOnUse" x1="652.1062" y1="579.212" x2="652.1062" y2="598.1089" gradientTransform="matrix(1 0 0 1 -385.23 -231.16)">
		<stop  offset="0.2312" style="stop-color:#333333"/>
		<stop  offset="1" style="stop-color:#A3A3A3"/>
	</linearGradient>
	<path fill="url(#SVGID_30_)" d="M264.777,365.741c1.354,0.41,2.758,0.813,4.199,1.208v-17.688
		c-1.441-0.395-2.846-0.797-4.199-1.209V365.741z"/>
	<path fill="#2D2D2D" d="M265.396,365.246v-16.968c-0.205-0.076-0.417-0.149-0.617-0.226v17.688
		c1.331,0.502,2.742,0.993,4.197,1.475v-0.705C267.743,366.095,266.536,365.675,265.396,365.246z"/>
	<path fill="#2D2D2D" d="M272.556,367.246v-16.969c-0.204-0.075-0.417-0.149-0.616-0.224v17.687
		c1.331,0.503,2.742,0.993,4.197,1.475v-0.705C274.903,368.094,273.697,367.675,272.556,367.246z"/>
</g>
<g>
	<path fill="#FFFFFF" d="M379.087,281.017c6.406-1.515,10.929-5.135,10.929-9.351c0-5.577-7.912-10.113-17.635-10.113
		c-9.718,0-17.626,4.536-17.626,10.113c0,4.195,4.479,7.803,10.842,9.331c-4.998,1.425-8.437,4.379-8.437,7.791
		c0,0.463,0.649,0.84,1.464,0.84c0.806,0,1.464-0.377,1.464-0.84c0-3.866,5.482-7.011,12.221-7.011s12.224,3.145,12.224,7.011
		c0,0.463,0.652,0.84,1.461,0.84c0.812,0,1.464-0.377,1.464-0.84C387.457,285.394,384.047,282.447,379.087,281.017z
		 M357.683,271.666c0-4.652,6.599-8.434,14.697-8.434c8.107,0,14.704,3.781,14.704,8.434c0,4.648-6.597,8.432-14.704,8.432
		C364.282,280.098,357.683,276.315,357.683,271.666z"/>
	<path fill="#FFFFFF" d="M379.764,275.33c0.414-0.397,0.189-0.912-0.506-1.15c-0.694-0.237-1.591-0.107-2.009,0.292
		c-1.064,1.021-2.922,1.634-4.974,1.634c-2.046,0-3.9-0.612-4.971-1.634c-0.411-0.399-1.307-0.529-2.01-0.292
		c-0.695,0.238-0.921,0.753-0.503,1.15c1.6,1.539,4.396,2.456,7.483,2.456C375.364,277.786,378.165,276.869,379.764,275.33z"/>
</g>
<g>
	<path fill="#FFFFFF" d="M301.901,314.433v-1.857h15.428v1.857h-6.714v6.786h7.571v1.857h-7.571v5.786h-2v-5.786h-7.572v-1.857
		h7.572v-6.786H301.901z M305.543,320.361c-1-1.286-2.048-2.547-3.143-3.786l1.428-1.143c1.143,1.19,2.214,2.428,3.214,3.714
		L305.543,320.361z M313.401,320.433l-1.429-1.214c1.047-1.047,2.143-2.309,3.286-3.786l1.5,1.071
		C315.662,317.886,314.543,319.195,313.401,320.433z"/>
	<path fill="#FFFFFF" d="M334.972,320.147c-0.429-0.475-0.857-0.928-1.286-1.357c-5,0.096-8.572,0.191-10.714,0.286
		c-1,0.096-1.811,0.214-2.429,0.357l-0.929-1.929c0.667-0.238,1.31-0.618,1.929-1.143c1.809-1.523,3.404-3.095,4.786-4.714
		l2.143,0.929c-0.096,0.096-0.239,0.214-0.429,0.357c-2.096,1.953-3.762,3.428-5,4.428l9.071-0.286l-2.143-2.143l1.429-1.072
		c2,1.857,3.714,3.548,5.143,5.072L334.972,320.147z M321.329,328.861v-8h13.143v8h-2v-1.143h-9.214v1.143H321.329z
		 M323.258,322.576v3.571h9.214v-3.571H323.258z"/>
	<path fill="#FFFFFF" d="M337.972,322.29c-0.048-0.333-0.143-0.809-0.286-1.429c-0.096-0.475-0.167-0.857-0.214-1.143
		c1.475-2.381,2.643-5.023,3.5-7.929l1.857,0.5c-0.429,1.333-0.882,2.571-1.357,3.714v12.786h-1.857v-9.071
		C339.09,320.576,338.543,321.433,337.972,322.29z M354.043,319.504c-2.429-1.429-4.239-3.143-5.429-5.143
		c-1.143,1.857-2.977,3.62-5.5,5.286c-0.143-0.237-0.357-0.595-0.643-1.071c-0.143-0.333-0.262-0.571-0.357-0.714
		c2.761-1.618,4.667-3.643,5.714-6.071l2.214,0.214c-0.096,0.096-0.191,0.239-0.286,0.429c-0.048,0.143-0.096,0.239-0.143,0.286
		c1.381,2.143,3.143,3.786,5.286,4.928C354.567,318.267,354.281,318.886,354.043,319.504z M343.972,328.933
		c-0.477-0.429-1-0.882-1.572-1.357c1.857-1.286,2.714-3.404,2.572-6.357v-2.214h1.928v2.286
		C347.043,324.672,346.067,327.219,343.972,328.933z M349.972,328.576v-9.571h2v9.571H349.972z"/>
	<path fill="#FFFFFF" d="M357.615,328.79v-9c-0.429,0.762-0.905,1.548-1.429,2.357c-0.048-0.237-0.143-0.595-0.286-1.071
		c-0.096-0.618-0.191-1.047-0.286-1.286c1.523-2.476,2.667-5.143,3.429-8l1.857,0.429c-0.428,1.428-0.928,2.786-1.5,4.071v12.5
		H357.615z M360.972,314.79v-1.5h4.786v-1.5h1.857v1.5h5.143v1.5h-5.143v1.429h4.143v10.571h1.357v1.5h-12.857v-1.5h1.428v-10.571
		h4.072v-1.429H360.972z M363.472,317.647v1.357h6.5v-1.357H363.472z M363.472,320.29v1.357h6.5v-1.357H363.472z M363.472,322.933
		v1.357h6.5v-1.357H363.472z M363.472,325.576v1.214h6.5v-1.214H363.472z"/>
	<path fill="#FFFFFF" d="M383.258,318.004l-0.143-0.071c0,1.239-0.048,2.524-0.143,3.857c-0.048,1.477-0.786,2.239-2.214,2.286
		l-2,0.071c-0.048-0.237-0.143-0.666-0.286-1.286c-0.048-0.189-0.071-0.333-0.071-0.428c0.667,0.048,1.238,0.071,1.714,0.071
		c0.714,0.048,1.118-0.333,1.214-1.143c0-0.143,0-0.38,0-0.714c0.047-0.523,0.071-0.904,0.071-1.143h-3.929v6.071
		c-0.048,0.811,0.357,1.214,1.214,1.214h2.286c0.81,0,1.286-0.309,1.429-0.929c0-0.095,0.023-0.238,0.071-0.428
		c0.047-0.143,0.119-0.572,0.214-1.286c0.095,0.048,0.261,0.096,0.5,0.143c0.286,0.143,0.714,0.286,1.286,0.429
		c-0.048,0.381-0.167,0.905-0.357,1.571c-0.048,0.239-0.096,0.405-0.143,0.5c-0.286,1.095-1.19,1.618-2.714,1.571h-3
		c-1.763,0.047-2.62-0.786-2.572-2.5v-7.357c-0.048,0.048-0.143,0.119-0.286,0.214c-0.096,0.096-0.31,0.262-0.643,0.5
		c-0.239-0.619-0.5-1.19-0.786-1.714c2.19-1.523,3.833-3.452,4.929-5.786l1.929,0.143c-0.048,0.096-0.096,0.214-0.143,0.357
		c-0.096,0.191-0.167,0.333-0.214,0.428c0.81,0.714,1.857,1.739,3.143,3.072c0.429,0.428,0.738,0.739,0.929,0.928L383.258,318.004z
		 M379.615,314.076c-0.857,1.382-1.929,2.643-3.214,3.786h6.714c-0.382-0.475-0.953-1.118-1.714-1.928
		C380.639,315.123,380.044,314.504,379.615,314.076z M384.972,324.504v-10.786h1.786v10.786H384.972z M385.758,328.576
		c-0.096-0.571-0.214-1.167-0.357-1.786c0.761,0,1.5,0,2.214,0c0.809,0,1.19-0.38,1.143-1.143V311.79h1.857v14.357
		c0.095,1.572-0.667,2.381-2.286,2.429C387.472,328.576,386.615,328.576,385.758,328.576z"/>
	<path fill="#FFFFFF" d="M393.186,328.647l-0.857-1.857l2.071-1.857v-5.357h-1.929v-1.786h3.786v6.929
		c0.904,1.381,2.261,2.048,4.072,2c2.857,0.048,6,0.048,9.428,0c-0.239,0.428-0.428,0.975-0.571,1.643c-2.667,0-4.619,0-5.857,0
		c-1.429,0-2.596-0.024-3.5-0.071c-1.905,0-3.382-0.643-4.429-1.929C394.448,327.17,393.71,327.933,393.186,328.647z
		 M395.258,316.219c-0.524-0.952-1.239-2.072-2.143-3.357l1.571-0.928c0.238,0.333,0.571,0.786,1,1.357
		c0.571,0.857,1,1.5,1.286,1.929L395.258,316.219z M399.258,317.004c-0.714-0.286-1.286-0.5-1.714-0.643
		c0.857-1.143,1.5-2.475,1.928-4l1.786,0.214c-0.19,0.477-0.357,0.953-0.5,1.429h2.072v-2.214h1.928v2.214h4v1.5h-4v1.857h4.786
		v1.572h-12.143v-1.572h5.429v-1.857h-2.714c-0.048,0.096-0.143,0.262-0.286,0.5C399.639,316.433,399.448,316.767,399.258,317.004z
		 M398.615,325.361v-5.071h9.643v5.071H398.615z M400.472,321.79v2.071h5.929v-2.071H400.472z"/>
	<path fill="#FFFFFF" d="M412.401,315.219v-1.572h4.571v-1.857h1.929v1.857h4v1.572h-4v1.857h2.071
		c1.714-1.238,3.261-2.666,4.643-4.286l1.571,1.071c-1.477,1.525-2.643,2.596-3.5,3.214h4.214v1.643h-6.357
		c-0.81,0.571-1.714,1.143-2.714,1.714h6.786v8.428h-1.857v-0.857h-8.143v0.857h-1.929v-5.928c-0.81,0.333-1.643,0.69-2.5,1.071
		c-0.048-0.19-0.143-0.523-0.286-1c-0.143-0.429-0.262-0.738-0.357-0.929c3-0.904,5.643-2.023,7.929-3.357h-7.643v-1.643h6.143
		v-1.857h-4.571V315.219z M423.758,321.933h-7.857l-0.286,0.143v1.5h8.143V321.933z M415.615,324.933v1.643h8.143v-1.643H415.615z"
		/>
</g>
<g>
	<path fill="#FFFFFF" d="M301.901,361.097v-1.857h15.428v1.857h-6.714v6.786h7.571v1.857h-7.571v5.786h-2v-5.786h-7.572v-1.857
		h7.572v-6.786H301.901z M305.543,367.025c-1-1.286-2.048-2.547-3.143-3.786l1.428-1.143c1.143,1.19,2.214,2.428,3.214,3.714
		L305.543,367.025z M313.401,367.097l-1.429-1.214c1.047-1.047,2.143-2.309,3.286-3.786l1.5,1.071
		C315.662,364.55,314.543,365.859,313.401,367.097z"/>
	<path fill="#FFFFFF" d="M334.972,366.811c-0.429-0.475-0.857-0.928-1.286-1.357c-5,0.096-8.572,0.191-10.714,0.286
		c-1,0.096-1.811,0.214-2.429,0.357l-0.929-1.929c0.667-0.238,1.31-0.618,1.929-1.143c1.809-1.523,3.404-3.095,4.786-4.714
		l2.143,0.929c-0.096,0.096-0.239,0.214-0.429,0.357c-2.096,1.953-3.762,3.428-5,4.428l9.071-0.286l-2.143-2.143l1.429-1.072
		c2,1.857,3.714,3.548,5.143,5.072L334.972,366.811z M321.329,375.525v-8h13.143v8h-2v-1.143h-9.214v1.143H321.329z M323.258,369.24
		v3.571h9.214v-3.571H323.258z"/>
	<path fill="#FFFFFF" d="M337.972,368.954c-0.048-0.333-0.143-0.809-0.286-1.429c-0.096-0.475-0.167-0.857-0.214-1.143
		c1.475-2.381,2.643-5.023,3.5-7.929l1.857,0.5c-0.429,1.333-0.882,2.571-1.357,3.714v12.786h-1.857v-9.071
		C339.09,367.24,338.543,368.097,337.972,368.954z M354.043,366.168c-2.429-1.429-4.239-3.143-5.429-5.143
		c-1.143,1.857-2.977,3.62-5.5,5.286c-0.143-0.237-0.357-0.595-0.643-1.071c-0.143-0.333-0.262-0.571-0.357-0.714
		c2.761-1.618,4.667-3.643,5.714-6.071l2.214,0.214c-0.096,0.096-0.191,0.239-0.286,0.429c-0.048,0.143-0.096,0.239-0.143,0.286
		c1.381,2.143,3.143,3.786,5.286,4.928C354.567,364.931,354.281,365.55,354.043,366.168z M343.972,375.597
		c-0.477-0.429-1-0.882-1.572-1.357c1.857-1.286,2.714-3.404,2.572-6.357v-2.214h1.928v2.286
		C347.043,371.336,346.067,373.883,343.972,375.597z M349.972,375.24v-9.571h2v9.571H349.972z"/>
	<path fill="#FFFFFF" d="M357.615,375.454v-9c-0.429,0.762-0.905,1.548-1.429,2.357c-0.048-0.237-0.143-0.595-0.286-1.071
		c-0.096-0.618-0.191-1.047-0.286-1.286c1.523-2.476,2.667-5.143,3.429-8l1.857,0.429c-0.428,1.428-0.928,2.786-1.5,4.071v12.5
		H357.615z M360.972,361.454v-1.5h4.786v-1.5h1.857v1.5h5.143v1.5h-5.143v1.429h4.143v10.571h1.357v1.5h-12.857v-1.5h1.428v-10.571
		h4.072v-1.429H360.972z M363.472,364.311v1.357h6.5v-1.357H363.472z M363.472,366.954v1.357h6.5v-1.357H363.472z M363.472,369.597
		v1.357h6.5v-1.357H363.472z M363.472,372.24v1.214h6.5v-1.214H363.472z"/>
	<path fill="#FFFFFF" d="M375.972,375.454v-8.857c-0.428,0.81-0.928,1.571-1.5,2.286c-0.048-0.381-0.143-0.881-0.286-1.5
		c-0.048-0.429-0.096-0.761-0.143-1c1.475-2.476,2.571-5.119,3.286-7.929l1.857,0.429c-0.381,1.428-0.857,2.81-1.428,4.143v12.429
		h-1.786V375.454z M390.472,375.311c-3.143-0.333-5.428-0.905-6.857-1.714c-1,0.714-2.382,1.38-4.143,2
		c-0.096-0.096-0.262-0.311-0.5-0.643c-0.286-0.429-0.524-0.762-0.714-1c1.618-0.382,2.857-0.809,3.714-1.286
		c-0.762-0.618-1.453-1.381-2.071-2.286l1.286-0.929c0.619,0.81,1.309,1.5,2.072,2.071c0.428-0.618,0.689-1.428,0.786-2.428h-4.429
		v-5.429h4.571v-1.571h-5v-1.643h5v-2h1.929v2h5.143v1.643h-5.214v1.571h4.571v5.786h-1.857v-0.357h-2.857
		c-0.143,1.477-0.5,2.596-1.071,3.357c1.333,0.62,3.476,0.977,6.429,1.071C390.972,374.144,390.71,374.74,390.472,375.311z
		 M384.115,367.525c0-0.047,0-0.118,0-0.214c0.047-0.095,0.071-0.189,0.071-0.286v-1.857h-2.714v2.357H384.115z M386.044,367.097
		c0,0.143,0,0.286,0,0.428h2.714v-2.357h-2.714V367.097z"/>
	<path fill="#FFFFFF" d="M394.115,375.597c-0.191-0.096-0.477-0.263-0.857-0.5c-0.428-0.239-0.739-0.429-0.928-0.572
		c0.714-1.095,1.189-2.166,1.428-3.214c0.238-1.047,0.357-2.618,0.357-4.714v-7.286h14.571v13.643
		c0.095,1.571-0.691,2.333-2.357,2.286c-0.62,0.047-1.382,0.071-2.286,0.071c-0.048-0.143-0.096-0.357-0.143-0.643
		c-0.096-0.524-0.191-0.929-0.286-1.214c0.238,0,0.571,0.023,1,0.071c0.429,0,0.738,0,0.929,0c0.857,0.047,1.261-0.261,1.214-0.928
		v-2.357h-4.5v4.857h-1.928v-4.857h-4.357C395.876,371.954,395.258,373.74,394.115,375.597z M396.115,366.597
		c0,0.239-0.024,0.596-0.071,1.071c0,0.382,0,0.667,0,0.857h4.286v-2.857h-4.214v0.929H396.115z M396.115,361.097v2.857h4.214
		v-2.857H396.115z M406.758,361.097h-4.5v2.857h4.5V361.097z M402.258,365.668v2.857h4.5v-2.857H402.258z"/>
	<path fill="#FFFFFF" d="M412.401,361.883v-1.572h4.571v-1.857h1.929v1.857h4v1.572h-4v1.857h2.071
		c1.714-1.238,3.261-2.666,4.643-4.286l1.571,1.071c-1.477,1.525-2.643,2.596-3.5,3.214h4.214v1.643h-6.357
		c-0.81,0.571-1.714,1.143-2.714,1.714h6.786v8.428h-1.857v-0.857h-8.143v0.857h-1.929v-5.928c-0.81,0.333-1.643,0.69-2.5,1.071
		c-0.048-0.19-0.143-0.523-0.286-1c-0.143-0.429-0.262-0.738-0.357-0.929c3-0.904,5.643-2.023,7.929-3.357h-7.643v-1.643h6.143
		v-1.857h-4.571V361.883z M423.758,368.597h-7.857l-0.286,0.143v1.5h8.143V368.597z M415.615,371.597v1.643h8.143v-1.643H415.615z"
		/>
</g>
<g>
	<path fill="#FFFFFF" d="M320.901,418.049c-0.477-0.333-1.072-0.689-1.786-1.071c1.428-1.809,2.547-3.976,3.357-6.5l2,0.357
		c-0.286,0.857-0.596,1.643-0.929,2.357h3.572v-3.571h2v3.571h6.214v1.857h-6.214v3.5h5.643v1.857h-5.643v3.857h7.143v1.643h-16.929
		v-1.643h7.786v-3.857h-6.143v-1.857h6.143v-3.5h-4.429C322.258,416.002,321.662,417.002,320.901,418.049z"/>
	<path fill="#FFFFFF" d="M345.543,419.549c-0.239-0.189-0.619-0.523-1.143-1c-0.525-0.428-0.905-0.737-1.143-0.928
		c-1.191,0.81-2.833,1.571-4.929,2.286c-0.096-0.19-0.262-0.5-0.5-0.929c-0.239-0.38-0.428-0.666-0.571-0.857
		c4.047-1.095,6.404-2.595,7.071-4.5h-6.5v-1.714h7c0.047-0.618,0.072-1.381,0.072-2.286h2c0,0.905-0.025,1.667-0.072,2.286h7.143
		v1.714H347.4c1.286,2.191,3.666,3.596,7.143,4.214c-0.382,0.619-0.691,1.239-0.929,1.857c-4-1-6.571-2.761-7.714-5.286
		c-0.334,0.762-0.811,1.477-1.429,2.143c0.189,0.143,0.452,0.334,0.786,0.572c0.761,0.524,1.286,0.905,1.571,1.143L345.543,419.549z
		 M338.972,425.478c-0.048-0.048-0.143-0.096-0.286-0.143c-0.667-0.286-1.143-0.453-1.429-0.5c0.714-1.429,1.261-2.857,1.643-4.286
		l1.786,0.572c-0.096,0.191-0.191,0.5-0.286,0.928C339.829,423.621,339.352,424.764,338.972,425.478z M343.972,426.264
		c-1.62,0.047-2.405-0.762-2.357-2.428v-3.429h1.857v3.071c-0.048,0.811,0.404,1.214,1.357,1.214h2.5
		c0.904,0,1.429-0.357,1.572-1.071c0.095-0.523,0.166-1.023,0.214-1.5c0.095,0.048,0.214,0.096,0.357,0.143
		c0.38,0.143,0.88,0.286,1.5,0.429c-0.143,0.857-0.311,1.524-0.5,2c-0.239,1.095-1.12,1.618-2.643,1.571H343.972z M346.615,423.121
		c-0.714-0.904-1.381-1.714-2-2.429l1.357-1.071c0.714,0.762,1.429,1.548,2.143,2.357L346.615,423.121z M352.829,425.049
		c-0.714-1.237-1.524-2.547-2.428-3.928l1.643-0.786c0.857,1.286,1.69,2.619,2.5,4L352.829,425.049z"/>
	<path fill="#FFFFFF" d="M361.043,415.049v-1.428h4.214v-1.286h-3.429v-1.357h3.429v-1.357h1.786v1.357h4.286v2.643h1.429v1.428
		h-1.429v2.643h-4.286v1.214h4.571v1.429h-4.571v1.214h5.071v1.429h-5.071v1.643c2.904,0,4.833-0.023,5.786-0.072
		c-0.239,0.429-0.405,0.976-0.5,1.643c-0.667,0-1.762,0-3.286,0c-1.857-0.048-3.262-0.071-4.214-0.071
		c-2.905-0.096-4.953-0.667-6.143-1.714c-0.62,0.761-1.382,1.523-2.286,2.286c-0.048-0.048-0.119-0.167-0.214-0.357
		c-0.382-0.667-0.62-1.072-0.714-1.214c0.761-0.619,1.428-1.309,2-2.072c-0.714-1.047-1.334-2.286-1.857-3.714l1.357-0.714
		c0.428,1.191,0.88,2.143,1.357,2.857c0.429-1.047,0.714-2.286,0.857-3.714H355.9v-1.714l3-3.571h-3.071v-1.643h5.143v1.714
		l-3.072,3.643h3v0.714c-0.19,2.714-0.643,4.739-1.357,6.071c1.047,1.096,2.833,1.62,5.357,1.571c0.047,0,0.119,0,0.214,0
		c0.047,0.048,0.095,0.072,0.143,0.072v-1.643h-4.214v-1.429h4.214v-1.214h-3.643v-1.429h3.643v-1.214h-3.5v-1.357h3.5v-1.286
		h-4.214V415.049z M369.615,412.335h-2.571v1.286h2.571V412.335z M367.043,415.049v1.286h2.571v-1.286H367.043z"/>
	<path fill="#FFFFFF" d="M376.329,425.764l-1.214-1.286c0.333-0.476,0.5-1,0.5-1.571v-5.714h-1.786v-1.786h3.643v6.786
		c0.571-0.571,1.143-1.167,1.714-1.786c0.238,0.714,0.452,1.31,0.643,1.786c-0.239,0.239-0.62,0.62-1.143,1.143
		c-0.619,0.571-1.096,1.024-1.428,1.357C376.924,425.073,376.615,425.43,376.329,425.764z M377.258,413.978
		c-0.096-0.095-0.239-0.261-0.429-0.5c-0.524-0.666-1.191-1.547-2-2.643l1.571-1c0.952,1,1.809,2.024,2.572,3.071L377.258,413.978z
		 M379.043,426.764c-0.096-0.143-0.262-0.428-0.5-0.857c-0.239-0.382-0.405-0.667-0.5-0.857c2.047-0.475,3.738-1.071,5.071-1.786
		c-1.096-1-2.096-2.357-3-4.071l0.643-0.357h-1.214v-1.714h10.214v1.857c-0.953,1.714-2.096,3.167-3.429,4.357
		c1.238,0.667,2.809,1.167,4.714,1.5c-0.382,0.666-0.691,1.261-0.929,1.786c-2.429-0.762-4.239-1.477-5.429-2.143
		C383.209,425.382,381.329,426.144,379.043,426.764z M380.043,416.692c-0.191-0.286-0.62-0.761-1.286-1.429
		c1.666-0.714,2.428-1.786,2.286-3.214v-1.643h7.643v2.929c-0.048,0.667,0.261,0.977,0.929,0.928h1.571l-0.286,1.643h-2.071
		c-1.382,0-2.048-0.571-2-1.714v-2.071H382.9v0.428C383.043,414.264,382.09,415.645,380.043,416.692z M381.972,418.835
		c0.761,1.381,1.666,2.524,2.714,3.428c1.19-0.857,2.19-2,3-3.428H381.972z"/>
	<path fill="#FFFFFF" d="M393.83,413.121v-1.572h4.571v-1.857h1.929v1.857h4v1.572h-4v1.857h2.071
		c1.714-1.238,3.261-2.666,4.643-4.286l1.571,1.071c-1.477,1.525-2.643,2.596-3.5,3.214h4.214v1.643h-6.357
		c-0.81,0.571-1.714,1.143-2.714,1.714h6.786v8.428h-1.857v-0.857h-8.143v0.857h-1.929v-5.928c-0.81,0.333-1.643,0.69-2.5,1.071
		c-0.048-0.19-0.143-0.523-0.286-1c-0.143-0.429-0.262-0.738-0.357-0.929c3-0.904,5.643-2.023,7.929-3.357h-7.643v-1.643h6.143
		v-1.857h-4.571V413.121z M405.186,419.835h-7.857l-0.286,0.143v1.5h8.143V419.835z M397.044,422.835v1.643h8.143v-1.643H397.044z"
		/>
</g>
<g>
	<path fill="#FFFFFF" d="M337.186,512.621v-1.714h2v-3.143h1.714v3.143h1.928v1.714H340.9v3.143l1.786-0.357
		c-0.048,0.714-0.048,1.31,0,1.786l-1.786,0.429v4.857c0.047,1.381-0.548,2.071-1.786,2.071c-0.429,0.047-1,0.072-1.714,0.072
		c-0.048-0.382-0.12-0.882-0.214-1.5c-0.048-0.191-0.071-0.311-0.071-0.357c0.143,0,0.547,0,1.214,0
		c0.619,0.047,0.904-0.214,0.857-0.786v-3.857l-2.143,0.571l-0.143-2c0.189-0.047,0.475-0.118,0.857-0.214
		c0.618-0.143,1.095-0.238,1.429-0.286v-3.571L337.186,512.621L337.186,512.621z M353.329,524.621
		c-2.048-0.572-3.786-1.262-5.214-2.072c-1.382,0.81-3.143,1.547-5.286,2.214c-0.096-0.191-0.239-0.477-0.428-0.857
		c-0.239-0.382-0.405-0.667-0.5-0.857c1.904-0.38,3.5-0.952,4.786-1.714c-1.191-1.19-2.096-2.5-2.714-3.929l0.786-0.429h-1.214
		v-1.714h9.357v1.786c-0.762,1.62-1.834,3.048-3.214,4.286c1.286,0.762,2.833,1.286,4.643,1.571
		c-0.19,0.286-0.477,0.761-0.857,1.429C353.424,524.478,353.376,524.573,353.329,524.621z M343.758,514.835
		c-0.429-0.572-0.81-1.072-1.143-1.5c1.618-0.714,2.357-1.904,2.214-3.572v-1.357h7v3c-0.048,0.714,0.261,1.048,0.929,1h1.5
		c-0.096,0.333-0.191,0.81-0.286,1.429c0,0.096,0,0.167,0,0.214h-1.929c-1.428,0.048-2.119-0.595-2.071-1.928v-2.072h-3.357v0.5
		C346.71,512.36,345.758,513.789,343.758,514.835z M350.829,516.978h-5.143c0.666,1.334,1.5,2.429,2.5,3.286
		C349.376,519.36,350.258,518.264,350.829,516.978z"/>
	<path fill="#FFFFFF" d="M356.401,516.049l-1.143-1.428c1.429-0.952,2.786-1.929,4.071-2.929c0,0.048,0.047,0.096,0.143,0.143
		c0.143,0.19,0.452,0.596,0.929,1.214C358.543,514.383,357.21,515.383,356.401,516.049z M356.329,524.692
		c-0.048-0.048-0.096-0.143-0.143-0.286c-0.286-0.667-0.5-1.143-0.643-1.429c4.667-0.333,7.095-1.333,7.286-3
		c0.095-0.38,0.143-0.88,0.143-1.5h1.929c0,0.62-0.072,1.191-0.214,1.714c0,0.143-0.048,0.31-0.143,0.5
		c1,0.286,2.452,0.739,4.357,1.357c1.428,0.429,2.5,0.761,3.214,1l-0.857,1.643c-3.096-1.191-5.596-2.071-7.5-2.643
		C362.758,523.239,360.281,524.121,356.329,524.692z M358.543,511.264c-0.239-0.189-0.596-0.5-1.071-0.928
		c-0.714-0.619-1.239-1.047-1.571-1.286l1.214-1.214c0.238,0.19,0.572,0.453,1,0.786c0.857,0.571,1.429,1,1.714,1.286
		L358.543,511.264z M357.615,521.407v-5.286h12.643v5.214h-1.929v-3.643h-8.857v3.714h-1.857V521.407z M361.043,515.907
		c-0.143-0.238-0.453-0.738-0.929-1.5c2.857-0.618,4.547-1.667,5.072-3.143c0-0.047,0.023-0.095,0.071-0.143
		c0.047-0.19,0.071-0.404,0.071-0.643h-2.071c-0.429,0.714-1,1.453-1.714,2.214c-0.429-0.38-0.905-0.738-1.429-1.071
		c1.238-1.19,2.143-2.547,2.714-4.072l1.786,0.214c-0.143,0.429-0.31,0.834-0.5,1.214h7.786v1.5l-1,2.071
		c-0.239-0.095-0.572-0.214-1-0.357c-0.334-0.095-0.596-0.167-0.786-0.214l0.857-1.5h-2.786c0,0.048-0.025,0.12-0.072,0.214
		c0,0.143-0.024,0.239-0.071,0.286c0.618,1.714,2.452,2.834,5.5,3.357l-0.857,1.643c-2.857-0.666-4.643-1.714-5.357-3.143
		C365.615,514.121,363.852,515.145,361.043,515.907z"/>
	<path fill="#FFFFFF" d="M375.258,511.121v-1.572h4.571v-1.857h1.929v1.857h4v1.572h-4v1.857h2.071
		c1.714-1.238,3.261-2.666,4.643-4.286l1.571,1.071c-1.477,1.525-2.643,2.596-3.5,3.214h4.214v1.643H384.4
		c-0.81,0.571-1.714,1.143-2.714,1.714h6.786v8.428h-1.857v-0.857h-8.143v0.857h-1.929v-5.928c-0.81,0.333-1.643,0.69-2.5,1.071
		c-0.048-0.19-0.143-0.523-0.286-1c-0.143-0.429-0.262-0.738-0.357-0.929c3-0.904,5.643-2.023,7.929-3.357h-7.643v-1.643h6.143
		v-1.857h-4.571V511.121z M386.615,517.835h-7.857l-0.286,0.143v1.5h8.143V517.835z M378.472,520.835v1.643h8.143v-1.643H378.472z"
		/>
</g>
<g>
	<path fill="#FFFFFF" d="M300.922,467.756h-1.337v-3.803h-4.555v3.803h-1.296v-8.567h1.296v3.636h4.555v-3.636h1.337V467.756z"/>
	<path fill="#FFFFFF" d="M308.194,467.714h-1.254v-1.044c-0.446,0.78-1.128,1.184-2.047,1.212c-1.533,0-2.298-0.808-2.298-2.424
		v-3.887h1.253v3.761c0,1.086,0.487,1.63,1.463,1.63c1.003-0.083,1.546-0.683,1.629-1.797v-3.594h1.254V467.714z"/>
	<path fill="#FFFFFF" d="M311.036,466.753v0.961h-1.295v-8.817h1.295v3.719c0.445-0.808,1.142-1.212,2.089-1.212
		c1.615,0.083,2.451,1.156,2.507,3.218c-0.028,2.146-0.877,3.231-2.549,3.26C312.136,467.881,311.454,467.505,311.036,466.753z
		 M310.994,464.246v0.752c0.056,1.254,0.612,1.909,1.672,1.964c1.142,0,1.713-0.78,1.713-2.34c-0.056-1.421-0.627-2.159-1.713-2.215
		C311.634,462.546,311.077,463.159,310.994,464.246z"/>
	<path fill="#FFFFFF" d="M319.644,465.165l1.337-0.292c0.195,1.365,0.989,2.047,2.382,2.047c1.226-0.027,1.866-0.515,1.922-1.462
		c0.083-0.641-0.488-1.128-1.713-1.463c-0.112-0.055-0.349-0.125-0.71-0.209c-0.112-0.027-0.195-0.042-0.251-0.042
		c-1.867-0.39-2.744-1.184-2.633-2.382c0.111-1.448,1.128-2.215,3.051-2.298c1.95-0.027,3.092,0.752,3.427,2.34l-1.295,0.292
		c-0.195-1.03-0.877-1.546-2.048-1.546c-1.086,0.028-1.671,0.433-1.755,1.212c-0.084,0.642,0.585,1.101,2.006,1.379
		c0.557,0.14,0.975,0.25,1.253,0.334c1.421,0.446,2.117,1.227,2.09,2.34c-0.056,1.588-1.157,2.41-3.302,2.466
		C321.26,467.936,320.006,467.032,319.644,465.165z"/>
	<path fill="#FFFFFF" d="M332.641,465.833l1.337,0.209c-0.446,1.226-1.463,1.839-3.051,1.839c-2.062-0.083-3.134-1.128-3.218-3.134
		c0.083-2.145,1.114-3.26,3.092-3.343c2.062,0.028,3.106,1.143,3.134,3.343c0,0.14,0,0.25,0,0.334h-4.931
		c0.056,1.198,0.696,1.838,1.922,1.922C331.847,466.976,332.418,466.586,332.641,465.833z M329.005,464.204h3.678
		c-0.056-1.197-0.655-1.824-1.797-1.88C329.716,462.379,329.089,463.006,329.005,464.204z"/>
	<path fill="#FFFFFF" d="M339.745,465.833l1.337,0.209c-0.446,1.226-1.463,1.839-3.051,1.839c-2.062-0.083-3.134-1.128-3.218-3.134
		c0.083-2.145,1.114-3.26,3.092-3.343c2.062,0.028,3.106,1.143,3.134,3.343c0,0.14,0,0.25,0,0.334h-4.931
		c0.056,1.198,0.696,1.838,1.922,1.922C338.951,466.976,339.522,466.586,339.745,465.833z M336.109,464.204h3.678
		c-0.056-1.197-0.655-1.824-1.797-1.88C336.82,462.379,336.193,463.006,336.109,464.204z"/>
	<path fill="#FFFFFF" d="M346.515,458.896h1.295v8.817h-1.295v-0.961c-0.362,0.752-1.059,1.128-2.089,1.128
		c-1.644-0.112-2.494-1.142-2.549-3.093c0.027-2.229,0.933-3.356,2.716-3.385c0.947,0.056,1.588,0.459,1.922,1.212V458.896z
		 M346.557,464.831v-0.627c-0.112-1.058-0.669-1.657-1.672-1.797c-1.114,0.056-1.686,0.822-1.713,2.298
		c0.028,1.477,0.599,2.229,1.713,2.257C345.972,466.935,346.529,466.224,346.557,464.831z"/>
	<path fill="#FFFFFF" d="M359.721,467.756h-1.337v-3.803h-4.555v3.803h-1.296v-8.567h1.296v3.636h4.555v-3.636h1.337V467.756z"/>
	<path fill="#FFFFFF" d="M364.234,461.446c1.95,0.083,2.967,1.17,3.051,3.259c-0.056,2.062-1.101,3.12-3.134,3.176
		c-1.95-0.112-2.981-1.156-3.092-3.134C361.142,462.63,362.2,461.529,364.234,461.446z M364.192,466.962
		c1.17-0.027,1.769-0.78,1.797-2.257c-0.056-1.421-0.655-2.173-1.797-2.256c-1.198,0.028-1.812,0.78-1.839,2.256
		C362.381,466.154,362.994,466.906,364.192,466.962z"/>
	<path fill="#FFFFFF" d="M368.455,467.714v-8.817h1.295v8.817H368.455z"/>
	<path fill="#FFFFFF" d="M375.517,458.896h1.295v8.817h-1.295v-0.961c-0.362,0.752-1.059,1.128-2.089,1.128
		c-1.644-0.112-2.494-1.142-2.549-3.093c0.027-2.229,0.933-3.356,2.716-3.385c0.947,0.056,1.588,0.459,1.922,1.212V458.896z
		 M375.559,464.831v-0.627c-0.112-1.058-0.669-1.657-1.672-1.797c-1.114,0.056-1.686,0.822-1.713,2.298
		c0.028,1.477,0.599,2.229,1.713,2.257C374.974,466.935,375.531,466.224,375.559,464.831z"/>
	<path fill="#FFFFFF" d="M378.359,460.401v-1.295h1.295v1.295H378.359z M378.359,467.714v-6.143h1.295v6.143H378.359z"/>
	<path fill="#FFFFFF" d="M386.801,467.756h-1.254v-3.678c0-1.114-0.474-1.657-1.421-1.629c-0.976,0.056-1.532,0.626-1.671,1.713
		v3.594h-1.254v-6.185h1.254v1.087c0.501-0.78,1.212-1.198,2.131-1.254c1.504-0.027,2.242,0.809,2.215,2.507L386.801,467.756
		L386.801,467.756z"/>
	<path fill="#FFFFFF" d="M392.693,461.571h1.254v5.308c0.111,2.229-0.934,3.287-3.134,3.176c-1.477-0.028-2.354-0.585-2.633-1.671
		l1.212-0.083c0.278,0.501,0.794,0.766,1.546,0.794c1.17,0,1.755-0.613,1.755-1.839v-0.794c-0.362,0.697-1.073,1.045-2.131,1.045
		c-1.7-0.056-2.564-1.059-2.591-3.009c0.056-2.006,0.961-3.036,2.716-3.092c0.947,0.028,1.616,0.376,2.006,1.045V461.571z
		 M392.693,464.664v-0.543c-0.056-1.086-0.599-1.657-1.629-1.713c-1.17,0.028-1.77,0.725-1.797,2.089
		c0.028,1.394,0.599,2.104,1.713,2.131C392.094,466.6,392.665,465.945,392.693,464.664z"/>
	<path fill="#FFFFFF" d="M404.436,467.756h-5.851v-8.567h1.295v7.564h4.555v1.003H404.436z"/>
	<path fill="#FFFFFF" d="M405.606,460.401v-1.295h1.295v1.295H405.606z M405.606,467.714v-6.143h1.295v6.143H405.606z"/>
	<path fill="#FFFFFF" d="M417.6,467.714h-1.295v-3.636c0.027-1.142-0.39-1.699-1.253-1.671c-0.892,0.056-1.366,0.627-1.421,1.713
		v3.594h-1.295v-3.677c0.027-1.114-0.391-1.657-1.254-1.63c-0.892,0.028-1.365,0.613-1.421,1.755v3.552h-1.253v-6.143h1.253v1.087
		c0.445-0.808,1.114-1.226,2.006-1.254c1.003,0,1.616,0.446,1.839,1.337c0.39-0.863,1.072-1.309,2.048-1.337
		c1.365,0,2.047,0.822,2.047,2.466v3.844H417.6z"/>
	<path fill="#FFFFFF" d="M419.104,460.401v-1.295h1.295v1.295H419.104z M419.104,467.714v-6.143h1.295v6.143H419.104z"/>
	<path fill="#FFFFFF" d="M423.534,459.272v2.298h1.379v0.961h-1.379v3.51c-0.028,0.641,0.223,0.947,0.752,0.919
		c0.223,0,0.418-0.042,0.585-0.125l0.209,0.71c-0.279,0.223-0.683,0.334-1.212,0.334c-1.086,0.027-1.616-0.516-1.588-1.63v-3.719
		h-1.003v-0.961h1.003v-1.964L423.534,459.272z"/>
	<path fill="#FFFFFF" d="M430.513,465.833l1.337,0.209c-0.446,1.226-1.463,1.839-3.051,1.839c-2.062-0.083-3.134-1.128-3.218-3.134
		c0.083-2.145,1.114-3.26,3.092-3.343c2.062,0.028,3.106,1.143,3.134,3.343c0,0.14,0,0.25,0,0.334h-4.931
		c0.056,1.198,0.696,1.838,1.922,1.922C429.719,466.976,430.289,466.586,430.513,465.833z M426.877,464.204h3.678
		c-0.056-1.197-0.655-1.824-1.797-1.88C427.587,462.379,426.96,463.006,426.877,464.204z"/>
	<path fill="#FFFFFF" d="M437.283,458.896h1.295v8.817h-1.295v-0.961c-0.362,0.752-1.059,1.128-2.089,1.128
		c-1.644-0.112-2.494-1.142-2.549-3.093c0.027-2.229,0.933-3.356,2.716-3.385c0.947,0.056,1.588,0.459,1.922,1.212V458.896z
		 M437.325,464.831v-0.627c-0.112-1.058-0.669-1.657-1.672-1.797c-1.114,0.056-1.686,0.822-1.713,2.298
		c0.028,1.477,0.599,2.229,1.713,2.257C436.74,466.935,437.296,466.224,437.325,464.831z"/>
</g>
</svg>
