<?xml version="1.0" encoding="utf-8"?>
<!-- Generator: Adobe Illustrator 16.0.0, SVG Export Plug-In . SVG Version: 6.00 Build 0)  -->
<!DOCTYPE svg PUBLIC "-//W3C//DTD SVG 1.1//EN" "http://www.w3.org/Graphics/SVG/1.1/DTD/svg11.dtd">
<svg version="1.1" id="图层_1" xmlns="http://www.w3.org/2000/svg" xmlns:xlink="http://www.w3.org/1999/xlink" x="0px" y="0px"
	 width="1342.957px" height="337px" viewBox="38.5 -330.5 1342.957 337" enable-background="new 38.5 -330.5 1342.957 337"
	 xml:space="preserve">
<linearGradient id="SVGID_1_" gradientUnits="userSpaceOnUse" x1="157.8779" y1="-153.5615" x2="1355.041" y2="-153.5615">
	<stop  offset="0" style="stop-color:#3E3F3F"/>
	<stop  offset="1" style="stop-color:#A3A3A3;stop-opacity:0"/>
</linearGradient>
<path fill="none" stroke="url(#SVGID_1_)" stroke-width="2" stroke-miterlimit="10" d="M157.896-156.359
	c0,0,129.497-2.301,227.338-21.87c97.841-19.567,181.87-13.237,287.77,56.403s210.072,79.999,348.777-42.592
	c138.705-122.589,270.287-59.771,332.758-23.429"/>
<linearGradient id="SVGID_2_" gradientUnits="userSpaceOnUse" x1="157.8604" y1="-165.2471" x2="1354.8496" y2="-165.2471">
	<stop  offset="0" style="stop-color:#3E3F3F"/>
	<stop  offset="1" style="stop-color:#A3A3A3;stop-opacity:0"/>
</linearGradient>
<path fill="none" stroke="url(#SVGID_2_)" stroke-width="2" stroke-miterlimit="10" d="M157.896-153.562
	c0,0,71.223,2.526,198.561-13.876c127.339-16.403,159.713,3.021,235.684,31.079c75.974,28.057,149.354,53.094,254.246-24.173
	c104.891-77.266,172.229-72.95,242.59-32.374c70.359,40.576,141.772,109.209,265.563,68.634"/>
<linearGradient id="SVGID_3_" gradientUnits="userSpaceOnUse" x1="157.6992" y1="-157.8652" x2="1354.9248" y2="-157.8652">
	<stop  offset="0" style="stop-color:#3E3F3F"/>
	<stop  offset="1" style="stop-color:#A3A3A3;stop-opacity:0"/>
</linearGradient>
<path fill="none" stroke="url(#SVGID_3_)" stroke-width="2" stroke-miterlimit="10" d="M1354.538-175.423
	c0,0-32.47-13.598-94.411,17.202c-97.984,48.929-115.898,32.007-186.691-10.512c-49.112-29.498-82.844-24.746-115.252-4.231
	c-119.424,75.599-132.518,42.216-179.569,19.912c-47.049-22.305-85.683-45.681-157.122-10.909
	c-71.438,34.773-133.395,16.501-164.244,10.399c-47.698-9.433-88.049-6.589-165.018-1.717
	c-118.148,7.48-134.335,4.243-134.335,4.243"/>
<g>
	<linearGradient id="SVGID_4_" gradientUnits="userSpaceOnUse" x1="59.2539" y1="-49.5723" x2="311.8799" y2="-49.5723">
		<stop  offset="0" style="stop-color:#3EA8F2"/>
		<stop  offset="1" style="stop-color:#22E0E7"/>
	</linearGradient>
	<path fill="url(#SVGID_4_)" d="M59.254-79.029v29.651c0,16.161,56.553,29.262,126.313,29.262
		c69.761,0,126.313-13.101,126.313-29.262v-29.651H59.254z"/>
	<ellipse fill="#00BBED" cx="185.567" cy="-79.029" rx="126.313" ry="29.264"/>
	<linearGradient id="SVGID_5_" gradientUnits="userSpaceOnUse" x1="79.8906" y1="-57.605" x2="79.8906" y2="-38.4429">
		<stop  offset="0.3817" style="stop-color:#0FA0F2"/>
		<stop  offset="1" style="stop-color:#22E0E7"/>
	</linearGradient>
	<path fill="url(#SVGID_5_)" d="M77.792-39.917c1.331,0.503,2.741,0.992,4.197,1.475V-56.13c-1.456-0.483-2.866-0.973-4.197-1.475
		V-39.917z"/>
	<path fill="#008EE5" d="M78.408-40.413V-57.38c-0.204-0.075-0.417-0.149-0.616-0.225v17.688c1.331,0.503,2.741,0.992,4.197,1.475
		v-0.706C80.755-39.563,79.549-39.982,78.408-40.413z"/>
	<linearGradient id="SVGID_6_" gradientUnits="userSpaceOnUse" x1="94.2139" y1="-53.1841" x2="94.2139" y2="-34.4771">
		<stop  offset="0.3817" style="stop-color:#0FA0F2"/>
		<stop  offset="1" style="stop-color:#22E0E7"/>
	</linearGradient>
	<path fill="url(#SVGID_6_)" d="M92.115-35.496c1.364,0.348,2.764,0.688,4.197,1.019v-17.688c-1.434-0.331-2.833-0.672-4.197-1.02
		V-35.496z"/>
	<linearGradient id="SVGID_7_" gradientUnits="userSpaceOnUse" x1="87.0518" y1="-55.1841" x2="87.0518" y2="-36.2876">
		<stop  offset="0.3817" style="stop-color:#0FA0F2"/>
		<stop  offset="1" style="stop-color:#22E0E7"/>
	</linearGradient>
	<path fill="url(#SVGID_7_)" d="M84.952-37.496c1.354,0.41,2.758,0.813,4.199,1.208v-17.687c-1.441-0.396-2.846-0.798-4.199-1.21
		V-37.496z"/>
	<path fill="#008EE5" d="M85.571-37.991v-16.968c-0.205-0.076-0.417-0.149-0.617-0.226v17.688c1.331,0.502,2.742,0.993,4.197,1.475
		v-0.704C87.918-37.141,86.711-37.561,85.571-37.991z"/>
	<path fill="#008EE5" d="M92.731-35.991v-16.968c-0.204-0.076-0.417-0.149-0.616-0.226v17.688c1.331,0.502,2.741,0.992,4.197,1.475
		v-0.706C95.078-35.141,93.872-35.56,92.731-35.991z"/>
	<linearGradient id="SVGID_8_" gradientUnits="userSpaceOnUse" x1="59.2539" y1="-98.0576" x2="311.8799" y2="-98.0576">
		<stop  offset="0" style="stop-color:#3E3F3F"/>
		<stop  offset="1" style="stop-color:#A3A3A3"/>
	</linearGradient>
	<path fill="url(#SVGID_8_)" d="M59.254-127.514v29.651c0,16.161,56.553,29.262,126.313,29.262
		c69.761,0,126.313-13.101,126.313-29.262v-29.651H59.254z"/>
	<ellipse fill="#545454" cx="185.567" cy="-127.514" rx="126.313" ry="29.263"/>
	<linearGradient id="SVGID_9_" gradientUnits="userSpaceOnUse" x1="59.2539" y1="-147.2959" x2="311.8799" y2="-147.2959">
		<stop  offset="0" style="stop-color:#3EA8F2"/>
		<stop  offset="1" style="stop-color:#22E0E7"/>
	</linearGradient>
	<path fill="url(#SVGID_9_)" d="M59.254-176.752v29.65c0,16.162,56.553,29.263,126.313,29.263
		c69.761,0,126.313-13.101,126.313-29.263v-29.65H59.254z"/>
	<ellipse fill="#00BBED" cx="185.567" cy="-176.752" rx="126.313" ry="29.264"/>
	<linearGradient id="SVGID_10_" gradientUnits="userSpaceOnUse" x1="79.8906" y1="-155.3286" x2="79.8906" y2="-136.1665">
		<stop  offset="0.3817" style="stop-color:#0FA0F2"/>
		<stop  offset="1" style="stop-color:#22E0E7"/>
	</linearGradient>
	<path fill="url(#SVGID_10_)" d="M77.792-137.641c1.331,0.503,2.741,0.992,4.197,1.475v-17.688
		c-1.456-0.482-2.866-0.972-4.197-1.474V-137.641z"/>
	<path fill="#008EE5" d="M78.408-138.136v-16.968c-0.204-0.075-0.417-0.149-0.616-0.225v17.688c1.331,0.503,2.741,0.992,4.197,1.475
		v-0.706C80.755-137.287,79.549-137.706,78.408-138.136z"/>
	<linearGradient id="SVGID_11_" gradientUnits="userSpaceOnUse" x1="94.2139" y1="-150.9077" x2="94.2139" y2="-132.2007">
		<stop  offset="0.3817" style="stop-color:#0FA0F2"/>
		<stop  offset="1" style="stop-color:#22E0E7"/>
	</linearGradient>
	<path fill="url(#SVGID_11_)" d="M92.115-133.219c1.364,0.348,2.764,0.688,4.197,1.019v-17.688c-1.434-0.331-2.833-0.672-4.197-1.02
		V-133.219z"/>
	<linearGradient id="SVGID_12_" gradientUnits="userSpaceOnUse" x1="87.0518" y1="-152.9077" x2="87.0518" y2="-134.0112">
		<stop  offset="0.3817" style="stop-color:#0FA0F2"/>
		<stop  offset="1" style="stop-color:#22E0E7"/>
	</linearGradient>
	<path fill="url(#SVGID_12_)" d="M84.952-135.219c1.354,0.41,2.758,0.813,4.199,1.208v-17.687c-1.441-0.396-2.846-0.798-4.199-1.21
		V-135.219z"/>
	<path fill="#008EE5" d="M85.571-135.714v-16.968c-0.205-0.076-0.417-0.149-0.617-0.226v17.688c1.331,0.502,2.742,0.993,4.197,1.475
		v-0.704C87.918-134.865,86.711-135.285,85.571-135.714z"/>
	<path fill="#008EE5" d="M92.731-133.714v-16.968c-0.204-0.076-0.417-0.149-0.616-0.226v17.688c1.331,0.502,2.741,0.992,4.197,1.475
		v-0.706C95.078-132.865,93.872-133.284,92.731-133.714z"/>
	<linearGradient id="SVGID_13_" gradientUnits="userSpaceOnUse" x1="79.8906" y1="-106.7065" x2="79.8906" y2="-87.5435">
		<stop  offset="0.2312" style="stop-color:#333333"/>
		<stop  offset="1" style="stop-color:#A3A3A3"/>
	</linearGradient>
	<path fill="url(#SVGID_13_)" d="M77.792-89.018c1.331,0.502,2.741,0.992,4.197,1.475v-17.688c-1.456-0.482-2.866-0.972-4.197-1.475
		V-89.018z"/>
	<path fill="#2D2D2D" d="M78.408-89.513v-16.968c-0.204-0.076-0.417-0.149-0.616-0.226v17.688c1.331,0.502,2.741,0.992,4.197,1.475
		v-0.706C80.755-88.664,79.549-89.083,78.408-89.513z"/>
	<linearGradient id="SVGID_14_" gradientUnits="userSpaceOnUse" x1="94.2139" y1="-102.2847" x2="94.2139" y2="-83.5776">
		<stop  offset="0.2312" style="stop-color:#333333"/>
		<stop  offset="1" style="stop-color:#A3A3A3"/>
	</linearGradient>
	<path fill="url(#SVGID_14_)" d="M92.115-84.596c1.364,0.348,2.764,0.688,4.197,1.019v-17.688c-1.434-0.332-2.833-0.672-4.197-1.02
		V-84.596z"/>
	<linearGradient id="SVGID_15_" gradientUnits="userSpaceOnUse" x1="87.0518" y1="-104.2847" x2="87.0518" y2="-85.3882">
		<stop  offset="0.2312" style="stop-color:#333333"/>
		<stop  offset="1" style="stop-color:#A3A3A3"/>
	</linearGradient>
	<path fill="url(#SVGID_15_)" d="M84.952-86.596c1.354,0.41,2.758,0.813,4.199,1.208v-17.687c-1.441-0.396-2.846-0.798-4.199-1.21
		V-86.596z"/>
	<path fill="#2D2D2D" d="M85.571-87.091v-16.969c-0.205-0.075-0.417-0.149-0.617-0.225v17.688c1.331,0.502,2.742,0.993,4.197,1.474
		v-0.703C87.918-86.242,86.711-86.662,85.571-87.091z"/>
	<path fill="#2D2D2D" d="M92.731-85.091v-16.968c-0.204-0.076-0.417-0.149-0.616-0.226v17.688c1.331,0.502,2.741,0.992,4.197,1.475
		v-0.706C95.078-84.242,93.872-84.662,92.731-85.091z"/>
	<linearGradient id="SVGID_16_" gradientUnits="userSpaceOnUse" x1="58.5859" y1="-195.9263" x2="311.2119" y2="-195.9263">
		<stop  offset="0" style="stop-color:#3E3F3F"/>
		<stop  offset="1" style="stop-color:#A3A3A3"/>
	</linearGradient>
	<path fill="url(#SVGID_16_)" d="M58.586-225.383v29.65c0,16.162,56.553,29.264,126.313,29.264
		c69.761,0,126.313-13.102,126.313-29.264v-29.65H58.586z"/>
	<ellipse fill="#545454" cx="184.899" cy="-225.383" rx="126.313" ry="29.263"/>
	<linearGradient id="SVGID_17_" gradientUnits="userSpaceOnUse" x1="58.5859" y1="-245.1646" x2="311.2119" y2="-245.1646">
		<stop  offset="0" style="stop-color:#3EA8F2"/>
		<stop  offset="1" style="stop-color:#22E0E7"/>
	</linearGradient>
	<path fill="url(#SVGID_17_)" d="M58.586-274.622v29.65c0,16.161,56.553,29.264,126.313,29.264
		c69.761,0,126.313-13.103,126.313-29.264v-29.65H58.586z"/>
	<ellipse fill="#00BBED" cx="184.899" cy="-274.622" rx="126.313" ry="29.264"/>
	<linearGradient id="SVGID_18_" gradientUnits="userSpaceOnUse" x1="79.2227" y1="-253.1978" x2="79.2227" y2="-234.0356">
		<stop  offset="0.3817" style="stop-color:#0FA0F2"/>
		<stop  offset="1" style="stop-color:#22E0E7"/>
	</linearGradient>
	<path fill="url(#SVGID_18_)" d="M77.124-235.51c1.331,0.502,2.741,0.992,4.197,1.475v-17.688c-1.456-0.482-2.866-0.974-4.197-1.475
		V-235.51z"/>
	<path fill="#008EE5" d="M77.74-236.005v-16.968c-0.204-0.076-0.417-0.15-0.616-0.225v17.688c1.331,0.502,2.741,0.992,4.197,1.475
		v-0.705C80.087-235.156,78.881-235.576,77.74-236.005z"/>
	<linearGradient id="SVGID_19_" gradientUnits="userSpaceOnUse" x1="93.5459" y1="-248.7759" x2="93.5459" y2="-230.0698">
		<stop  offset="0.3817" style="stop-color:#0FA0F2"/>
		<stop  offset="1" style="stop-color:#22E0E7"/>
	</linearGradient>
	<path fill="url(#SVGID_19_)" d="M91.447-231.089c1.364,0.348,2.764,0.688,4.197,1.02v-17.688c-1.434-0.332-2.833-0.671-4.197-1.019
		V-231.089z"/>
	<linearGradient id="SVGID_20_" gradientUnits="userSpaceOnUse" x1="86.3838" y1="-250.7759" x2="86.3838" y2="-231.8804">
		<stop  offset="0.3817" style="stop-color:#0FA0F2"/>
		<stop  offset="1" style="stop-color:#22E0E7"/>
	</linearGradient>
	<path fill="url(#SVGID_20_)" d="M84.284-233.088c1.354,0.41,2.758,0.813,4.199,1.208v-17.688c-1.441-0.395-2.846-0.797-4.199-1.208
		V-233.088z"/>
	<path fill="#008EE5" d="M84.903-233.583v-16.968c-0.205-0.075-0.417-0.149-0.617-0.225v17.688c1.331,0.502,2.742,0.993,4.197,1.475
		v-0.705C87.25-232.734,86.043-233.154,84.903-233.583z"/>
	<path fill="#008EE5" d="M92.063-231.583v-16.969c-0.204-0.075-0.417-0.149-0.616-0.224v17.687c1.331,0.503,2.742,0.993,4.197,1.475
		v-0.704C94.41-230.734,93.204-231.154,92.063-231.583z"/>
	<linearGradient id="SVGID_21_" gradientUnits="userSpaceOnUse" x1="79.2227" y1="-204.5747" x2="79.2227" y2="-185.4136">
		<stop  offset="0.2312" style="stop-color:#333333"/>
		<stop  offset="1" style="stop-color:#A3A3A3"/>
	</linearGradient>
	<path fill="url(#SVGID_21_)" d="M77.124-186.887c1.331,0.502,2.741,0.992,4.197,1.474V-203.1c-1.456-0.482-2.866-0.974-4.197-1.475
		V-186.887z"/>
	<path fill="#2D2D2D" d="M77.74-187.382v-16.969c-0.204-0.075-0.417-0.149-0.616-0.224v17.688c1.331,0.502,2.741,0.992,4.197,1.474
		v-0.704C80.087-186.533,78.881-186.953,77.74-187.382z"/>
	<linearGradient id="SVGID_22_" gradientUnits="userSpaceOnUse" x1="93.5459" y1="-200.1528" x2="93.5459" y2="-181.4468">
		<stop  offset="0.2312" style="stop-color:#333333"/>
		<stop  offset="1" style="stop-color:#A3A3A3"/>
	</linearGradient>
	<path fill="url(#SVGID_22_)" d="M91.447-182.466c1.364,0.348,2.764,0.688,4.197,1.02v-17.688c-1.434-0.332-2.833-0.672-4.197-1.019
		V-182.466z"/>
	<linearGradient id="SVGID_23_" gradientUnits="userSpaceOnUse" x1="86.3838" y1="-202.1538" x2="86.3838" y2="-183.2573">
		<stop  offset="0.2312" style="stop-color:#333333"/>
		<stop  offset="1" style="stop-color:#A3A3A3"/>
	</linearGradient>
	<path fill="url(#SVGID_23_)" d="M84.284-184.465c1.354,0.41,2.758,0.813,4.199,1.208v-17.688c-1.441-0.395-2.846-0.797-4.199-1.209
		V-184.465z"/>
	<path fill="#2D2D2D" d="M84.903-184.96v-16.968c-0.205-0.076-0.417-0.149-0.617-0.226v17.688c1.331,0.502,2.742,0.993,4.197,1.475
		v-0.705C87.25-184.111,86.043-184.531,84.903-184.96z"/>
	<path fill="#2D2D2D" d="M92.063-182.96v-16.969c-0.204-0.075-0.417-0.149-0.616-0.224v17.687c1.331,0.503,2.742,0.993,4.197,1.475
		v-0.705C94.41-182.112,93.204-182.531,92.063-182.96z"/>
</g>
<g>
	<g>
		<path fill="#FFFFFF" d="M166.273-224.527c0.011,0.759-0.186,1.122-0.78,1.275c-0.616,0.158-2.889,0.349-3.304-0.025
			c-0.094-0.084-0.46-1.223-0.46-1.223c0.07-0.108,2.453,0.229,2.825,0.238c0.317,0.007,0.424-0.082,0.42-0.367
			c-0.052-3.607-0.077-5.409-0.129-9.017c-2.062-0.161-3.093-0.25-5.152-0.441c-0.026,0.649-0.385,1.729-0.289,2.04
			c0.326,1.062,3.97,3.573,5.071,4.823c-0.43,0.272-0.644,0.409-1.073,0.681c-0.922-1.129-4.194-4.447-4.376-4.408
			c-0.289,0.062-3.424,4.094-4.251,3.866c-0.122-0.034-0.952-0.992-0.952-0.992c0.082-0.532,4.479-4.055,4.556-6.134
			c-2.046-0.198-3.066-0.304-5.11-0.532c0.062,4.3,0.091,6.451,0.152,10.751c-0.518-0.052-0.776-0.079-1.294-0.132
			c-0.068-4.774-0.102-7.161-0.17-11.936c2.567,0.3,3.85,0.437,6.421,0.689c-0.016-1.09-0.02-1.634-0.035-2.725
			c0.525,0.053,0.787,0.079,1.313,0.13c0.016,1.088,0.024,1.632,0.04,2.72c2.572,0.242,3.859,0.352,6.435,0.546
			C166.188-230.631,166.215-228.596,166.273-224.527z"/>
		<path fill="#FFFFFF" d="M178.254-231.628c-0.106,0.12-0.331,0.343-0.33,0.391c0.017,0.907,7.428,4.368,7.428,4.368
			c0.009,0.049-0.728,0.925-0.839,0.963c-0.283,0.098-1.56-0.659-2.294-1.032c0.026,1.825,0.04,2.736,0.066,4.562
			c-0.533-0.009-0.798-0.014-1.332-0.024c-0.003-0.187-0.006-0.28-0.009-0.467c-2.92-0.061-4.379-0.106-7.297-0.229
			c0.003,0.213,0.005,0.319,0.008,0.532c-0.513-0.021-0.769-0.033-1.281-0.056c-0.025-1.801-0.041-2.702-0.066-4.503
			c-0.76,0.354-2.063,1.004-2.367,0.895c-0.138-0.049-0.849-0.992-0.849-0.992c0.102-0.411,6.342-2.683,8-4.905
			C177.558-231.926,177.788-231.826,178.254-231.628z M171.091-232.76c-0.513-0.03-0.769-0.047-1.28-0.079
			c-0.017-1.139-0.024-1.708-0.041-2.848c2.761,0.184,4.143,0.261,6.904,0.39c-0.201-0.415-0.477-0.911-0.73-1.3
			c0.539-0.085,0.81-0.129,1.349-0.216c0.327,0.483,0.71,1.107,0.931,1.584c2.514,0.106,3.771,0.148,6.284,0.209
			c0.016,1.121,0.025,1.68,0.041,2.801c-0.534-0.011-0.802-0.016-1.336-0.029c-0.01-0.701-0.014-1.051-0.023-1.752
			c-4.849-0.129-7.275-0.237-12.122-0.535C171.076-233.825,171.081-233.47,171.091-232.76z M175.422-233.201
			c-1.155,1.304-3.907,3.363-4.543,3.222c-0.119-0.026-0.936-0.935-0.936-0.935c0.031-0.216,3.231-1.619,4.248-2.708
			C174.685-233.453,174.929-233.369,175.422-233.201z M180.93-223.909c-0.015-1.038-0.021-1.557-0.037-2.595
			c-2.92-0.073-4.381-0.126-7.299-0.26c0.016,1.046,0.022,1.57,0.037,2.617C176.549-224.021,178.01-223.974,180.93-223.909z
			 M181.106-227.54c-1.398-0.798-3.462-2.912-3.865-2.912c-0.419,0-2.232,1.889-3.571,2.642
			C176.645-227.67,178.13-227.616,181.106-227.54z M179.564-233.371c1.633,0.899,3.698,2.21,4.689,3.112
			c-0.365,0.296-0.548,0.443-0.913,0.739c-0.974-0.903-2.987-2.277-4.638-3.227C179.048-232.996,179.22-233.122,179.564-233.371z"/>
		<path fill="#FFFFFF" d="M193.209-235.977c-0.103,0.23-0.365,0.571-0.349,0.659c0.136,0.73,3.283,2.967,4.153,4.037
			c-0.373,0.305-0.563,0.457-0.936,0.762c-0.814-1.012-3.479-3.918-3.791-3.879c-0.473,0.058-3.646,4.413-4.316,4.346
			c-0.11-0.011-0.973-0.799-0.973-0.812c0.007-0.407,4.063-3.462,4.979-5.438C192.47-236.171,192.716-236.105,193.209-235.977z
			 M194.578-223.566c0.818-0.014,0.955-2.102,1.001-2.128c0.045-0.026,1.118,0.308,1.183,0.387c0.429,0.524-0.515,2.706-2.08,2.735
			c-1.316,0.024-1.974,0.032-3.291,0.044c-1.71,0.016-2.25-0.323-2.27-1.663c-0.037-2.624-0.056-3.937-0.094-6.561
			c2.577,0.017,3.868,0.013,6.445-0.018c0,0,0,0.324-0.011,0.459c-0.207,2.554-0.297,3.658-0.692,4.047
			c-0.264,0.259-0.576,0.375-1.01,0.413c-0.346,0.03-1.572,0.159-1.74,0.002c-0.082-0.076-0.338-0.981-0.338-0.981
			c0.038-0.06,1.248,0.052,1.516,0.05c0.231-0.002,0.393-0.02,0.513-0.144c0.193-0.199,0.361-0.969,0.479-2.823
			c-1.545,0.015-2.317,0.018-3.862,0.015c0.032,2.214,0.046,3.32,0.078,5.534c0.008,0.568,0.168,0.679,1.076,0.671
			C192.719-223.537,193.34-223.545,194.578-223.566z M199.205-226.206c-0.506,0.014-0.758,0.021-1.264,0.034
			c-0.047-3.359-0.073-5.04-0.121-8.4c0.506-0.007,0.76-0.011,1.266-0.021C199.134-231.238,199.158-229.561,199.205-226.206z
			 M202.551-236.206c0.068,4.846,0.105,7.268,0.174,12.114c0.011,0.759-0.232,1.075-0.78,1.275c-0.564,0.207-2.75,0.654-3.202,0.312
			c-0.09-0.068-0.479-1.069-0.479-1.069c0.069-0.127,2.366-0.042,2.703-0.071c0.32-0.026,0.462-0.124,0.458-0.397
			c-0.068-4.854-0.101-7.28-0.169-12.133C201.775-236.187,202.031-236.192,202.551-236.206z"/>
		<path fill="#FFFFFF" d="M209.178-225.51c0.357,0.1,0.701,0.355,1.326,0.612c1.084,0.446,2.622,0.43,4.507,0.287
			c2.077-0.158,6.846-0.883,6.846-0.883c0.021,0.028-0.302,1.101-0.372,1.179c-0.375,0.417-4.648,0.569-6.495,0.712
			c-2.063,0.159-3.563,0.129-4.688-0.349c-0.657-0.279-1.18-0.651-1.536-0.631c-0.585,0.034-1.468,0.805-2.327,1.696
			c-0.34-0.375-0.505-0.561-0.845-0.938c0.773-0.644,1.582-1.228,2.308-1.508c-0.025-1.797-0.038-2.697-0.063-4.494
			c-0.925,0.045-1.389,0.066-2.313,0.105c-0.006-0.423-0.012-0.635-0.018-1.058c1.438-0.059,2.157-0.093,3.595-0.167
			C209.131-228.772,209.146-227.684,209.178-225.51z M208.536-233.026c-0.524-0.638-1.714-1.626-2.702-2.315
			c0.388-0.25,0.583-0.375,0.971-0.625c0.987,0.656,2.193,1.595,2.754,2.229C209.149-233.452,208.945-233.311,208.536-233.026z
			 M212.349-233.977c-0.364,0.606-1.02,1.607-1.222,1.63c-0.1,0.012-1.107-0.473-1.109-0.482c-0.042-0.205,1.835-2.398,2.294-3.802
			c0.492,0.069,0.738,0.104,1.23,0.171c-0.171,0.489-0.395,0.996-0.619,1.473c0.874-0.051,1.311-0.077,2.185-0.133
			c-0.011-0.741-0.016-1.112-0.026-1.853c0.52-0.032,0.78-0.049,1.3-0.083c0.011,0.74,0.014,1.11,0.024,1.85
			c1.663-0.113,2.495-0.176,4.156-0.309c0.006,0.386,0.008,0.58,0.014,0.966c-1.661,0.135-2.494,0.198-4.156,0.313
			c0.011,0.758,0.018,1.135,0.028,1.893c1.968-0.141,2.951-0.217,4.918-0.386c0.006,0.386,0.006,0.578,0.012,0.964
			c-4.522,0.393-6.783,0.555-11.313,0.8c-0.006-0.391-0.007-0.587-0.013-0.979c2.041-0.108,3.058-0.17,5.098-0.309
			c-0.011-0.759-0.017-1.138-0.027-1.896C214.013-234.074,213.458-234.041,212.349-233.977z M211.543-225.64
			c-0.024-1.675-0.037-2.512-0.061-4.187c3.42-0.204,5.131-0.328,8.547-0.616c0.023,1.658,0.034,2.487,0.058,4.146
			C216.671-225.993,214.963-225.861,211.543-225.64z M212.775-226.653c2.402-0.161,3.603-0.25,6.003-0.453
			c-0.013-0.922-0.021-1.384-0.033-2.306c-2.401,0.196-3.603,0.284-6.005,0.439C212.754-228.044,212.763-227.582,212.775-226.653z"
			/>
		<path fill="#FFFFFF" d="M232.789-232.886c-0.912,0.653-1.862,1.277-2.829,1.858c2.927-0.333,4.391-0.515,7.311-0.91
			c0.035,2.434,0.054,3.652,0.089,6.085c-0.537,0.077-0.807,0.114-1.344,0.188c-0.002-0.163-0.006-0.246-0.008-0.409
			c-2.866,0.396-4.302,0.578-7.174,0.914c0.003,0.188,0.007,0.283,0.01,0.472c-0.517,0.061-0.775,0.09-1.293,0.149
			c-0.029-2.038-0.045-3.057-0.074-5.095c-1.059,0.542-2.84,1.611-3.229,1.502c-0.101-0.028-0.847-0.82-0.847-0.82
			c0.052-0.356,5.031-2.242,7.247-3.685c-2.756,0.314-4.137,0.457-6.897,0.716c-0.006-0.396-0.01-0.593-0.016-0.99
			c2.427-0.225,3.642-0.348,6.064-0.615c-0.011-0.752-0.016-1.127-0.026-1.879c-1.807,0.195-2.71,0.286-4.519,0.458
			c-0.006-0.39-0.007-0.585-0.013-0.975c1.809-0.169,2.712-0.259,4.519-0.453c-0.011-0.734-0.015-1.103-0.025-1.837
			c0.518-0.054,0.776-0.082,1.294-0.138c0.011,0.733,0.015,1.1,0.025,1.833c1.75-0.194,2.624-0.296,4.371-0.512
			c0.004,0.239,0.003,0.358,0.007,0.597c0.735-0.705,1.398-1.429,1.989-2.175c0.448,0.141,0.672,0.21,1.119,0.349
			c-1.217,1.5-2.647,2.912-4.243,4.206c2.039-0.252,3.056-0.385,5.091-0.667c0.006,0.389,0.01,0.583,0.016,0.972
			C236.761-233.376,235.438-233.204,232.789-232.886z M235.938-230.84c-2.866,0.379-4.301,0.554-7.172,0.874
			c0.009,0.583,0.015,0.873,0.022,1.456c2.871-0.325,4.305-0.501,7.17-0.885C235.95-229.974,235.947-230.263,235.938-230.84z
			 M235.993-227.02c-0.009-0.607-0.013-0.909-0.021-1.516c-2.865,0.387-4.302,0.565-7.173,0.893c0.009,0.612,0.015,0.918,0.023,1.53
			C231.693-226.446,233.128-226.628,235.993-227.02z M232.33-233.813c0.947-0.699,1.843-1.436,2.664-2.195
			c-1.57,0.194-2.355,0.286-3.928,0.462c0.011,0.751,0.016,1.126,0.026,1.877C231.589-233.727,231.835-233.755,232.33-233.813z"/>
	</g>
</g>
<g>
	<g>
		<path fill="#FFFFFF" d="M166.271-175.874c0.011,0.755-0.188,1.12-0.783,1.272c-0.616,0.157-2.889,0.348-3.304-0.027
			c-0.094-0.084-0.456-1.217-0.456-1.217c0.069-0.108,2.452,0.229,2.824,0.238c0.317,0.007,0.425-0.083,0.421-0.366
			c-0.051-3.591-0.075-5.386-0.127-8.978c-2.062-0.161-3.094-0.249-5.154-0.44c-0.026,0.646-0.387,1.722-0.292,2.03
			c0.325,1.057,3.973,3.559,5.074,4.804c-0.43,0.271-0.645,0.406-1.074,0.676c-0.922-1.125-4.188-4.43-4.373-4.39
			c-0.29,0.062-3.422,4.077-4.253,3.847c-0.122-0.034-0.951-0.988-0.951-0.988c0.081-0.528,4.48-4.034,4.557-6.104
			c-2.046-0.198-3.066-0.305-5.11-0.533c0.061,4.281,0.091,6.422,0.15,10.704c-0.518-0.052-0.776-0.078-1.294-0.131
			c-0.066-4.754-0.103-7.131-0.17-11.885c2.567,0.3,3.852,0.437,6.423,0.689c-0.016-1.085-0.022-1.626-0.038-2.712
			c0.525,0.053,0.789,0.08,1.314,0.131c0.016,1.084,0.021,1.625,0.036,2.708c2.572,0.242,3.86,0.351,6.436,0.546
			C166.186-181.948,166.214-179.924,166.271-175.874z"/>
		<path fill="#FFFFFF" d="M178.256-182.937c-0.106,0.12-0.334,0.343-0.333,0.39c0.017,0.9,7.429,4.349,7.429,4.349
			c0.009,0.048-0.729,0.921-0.84,0.959c-0.284,0.098-1.559-0.658-2.293-1.029c0.026,1.817,0.037,2.728,0.063,4.544
			c-0.533-0.009-0.8-0.014-1.334-0.025c-0.003-0.186-0.002-0.279-0.005-0.465c-2.92-0.062-4.381-0.107-7.299-0.23
			c0.003,0.212,0.005,0.317,0.008,0.529c-0.513-0.021-0.766-0.033-1.278-0.056c-0.025-1.793-0.04-2.69-0.065-4.484
			c-0.76,0.353-2.066,1.001-2.371,0.892c-0.138-0.049-0.85-0.988-0.85-0.988c0.102-0.408,6.345-2.668,8.003-4.881
			C177.557-183.234,177.79-183.135,178.256-182.937z M171.089-184.066c-0.513-0.031-0.769-0.046-1.281-0.079
			c-0.017-1.134-0.022-1.702-0.039-2.837c2.761,0.184,4.142,0.263,6.904,0.392c-0.201-0.413-0.476-0.908-0.729-1.295
			c0.539-0.085,0.809-0.127,1.348-0.214c0.327,0.481,0.707,1.103,0.928,1.578c2.514,0.106,3.772,0.146,6.286,0.207
			c0.017,1.116,0.025,1.675,0.041,2.791c-0.534-0.011-0.801-0.018-1.335-0.031c-0.01-0.697-0.016-1.046-0.025-1.743
			c-4.849-0.129-7.275-0.237-12.122-0.536C171.073-185.126,171.079-184.773,171.089-184.066z M175.422-184.503
			c-1.156,1.298-3.904,3.348-4.543,3.207c-0.119-0.026-0.938-0.932-0.938-0.932c0.031-0.214,3.23-1.611,4.247-2.695
			C174.682-184.754,174.929-184.67,175.422-184.503z M180.929-175.253c-0.015-1.033-0.024-1.549-0.039-2.583
			c-2.919-0.074-4.378-0.125-7.296-0.26c0.015,1.042,0.023,1.563,0.038,2.604C176.55-175.365,178.009-175.318,180.929-175.253z
			 M181.106-178.865c-1.398-0.795-3.463-2.901-3.868-2.9c-0.42,0-2.23,1.88-3.57,2.629
			C176.643-178.997,178.13-178.942,181.106-178.865z M179.563-184.671c1.633,0.896,3.698,2.2,4.689,3.098
			c-0.365,0.295-0.551,0.441-0.916,0.736c-0.974-0.899-2.985-2.268-4.636-3.214C179.046-184.299,179.219-184.423,179.563-184.671z"
			/>
		<path fill="#FFFFFF" d="M192.584-187.312c-0.483,1.067-1.107,2.15-1.787,3.173c0.06,4.223,0.089,6.335,0.148,10.558
			c-0.506,0.004-0.757,0.006-1.263,0.008c-0.051-3.573-0.078-5.359-0.13-8.933c-0.611,0.747-1.831,2-1.928,1.979
			c-0.059-0.012-0.769-1.042-0.764-1.113c0.038-0.603,3.473-3.711,4.473-6.014C191.834-187.515,192.084-187.447,192.584-187.312z
			 M198.342-179.291c-0.127,1.05-1.167,2.807-1.133,2.942c0.101,0.402,6.569,1.384,6.569,1.384c0.01,0.027-0.625,0.969-0.765,1.047
			c-0.975,0.543-5.721-1.736-6.576-1.622c-0.518,0.069-3.35,2.188-3.996,1.928c-0.104-0.042-0.815-0.925-0.815-0.925
			c0.033-0.158,3.739-1.508,3.735-1.591c-0.012-0.229-1.944-1.479-2.618-2.451c0.439-0.126,0.661-0.189,1.101-0.316
			c0.546,0.788,1.954,2.057,2.274,1.992c0.308-0.062,0.812-1.521,0.925-2.36c-1.723,0.034-2.585,0.044-4.309,0.057
			c-0.023-1.673-0.034-2.509-0.059-4.182c1.76-0.004,2.638-0.012,4.396-0.039c-0.009-0.595-0.014-0.893-0.022-1.488
			c-1.965,0.026-2.945,0.032-4.911,0.03c-0.006-0.416-0.009-0.623-0.015-1.039c1.966,0.004,2.948-0.001,4.913-0.025
			c-0.01-0.649-0.014-0.975-0.023-1.624c0.52-0.005,0.78-0.009,1.3-0.017c0.009,0.649,0.015,0.973,0.023,1.622
			c2.051-0.033,3.073-0.056,5.123-0.119c0.006,0.41,0.011,0.615,0.017,1.026c-2.05,0.065-3.076,0.09-5.127,0.125
			c0.008,0.594,0.013,0.892,0.021,1.487c1.815-0.034,2.725-0.058,4.54-0.115c0.024,1.654,0.034,2.481,0.058,4.135
			C201.118-179.362,200.193-179.334,198.342-179.291z M197.1-180.221c0.016-0.229,0.013-0.457,0.01-0.685
			c-0.009-0.626-0.016-0.939-0.024-1.565c-1.268,0.021-1.899,0.029-3.167,0.038c0.013,0.903,0.017,1.354,0.029,2.257
			C195.207-180.188,195.84-180.197,197.1-180.221z M198.385-182.493c0.009,0.625,0.016,0.938,0.024,1.563
			c0.003,0.228,0.005,0.454-0.009,0.682c1.316-0.03,1.975-0.047,3.291-0.089c-0.013-0.895-0.018-1.341-0.03-2.235
			C200.352-182.535,199.694-182.52,198.385-182.493z"/>
		<path fill="#FFFFFF" d="M220.402-176.624c0.01,0.708-0.224,1.071-0.781,1.299c-0.586,0.24-2.915,0.756-3.302,0.461
			c-0.08-0.061-0.457-1.034-0.457-1.034c0.076-0.146,2.458-0.168,2.771-0.201c0.349-0.037,0.477-0.144,0.473-0.426
			c-0.017-1.202-0.023-1.804-0.041-3.006c-1.91,0.161-2.866,0.233-4.778,0.368c0.025,1.757,0.036,2.638,0.062,4.395
			c-0.526,0.04-0.786,0.059-1.313,0.097c-0.025-1.76-0.038-2.641-0.063-4.401c-1.777,0.118-2.669,0.171-4.447,0.266
			c-0.243,1.678-1.752,4.78-2.156,4.772c-0.081-0.001-1.022-0.666-1.026-0.686c-0.093-0.466,2.075-4.614,2.045-6.702
			c-0.031-2.162-0.048-3.243-0.079-5.404c5.179-0.212,7.77-0.366,12.939-0.771C220.311-183.209,220.34-181.014,220.402-176.624z
			 M212.956-180.133c-0.014-0.991-0.021-1.485-0.035-2.476c-1.699,0.106-2.551,0.154-4.251,0.239
			c0.005,0.354,0.008,0.53,0.013,0.884c0.007,0.495-0.003,1.051-0.048,1.607C210.363-179.969,211.229-180.021,212.956-180.133z
			 M208.621-185.816c0.014,0.959,0.021,1.438,0.034,2.397c1.7-0.083,2.552-0.13,4.251-0.234c-0.014-0.955-0.023-1.432-0.037-2.386
			C211.17-185.94,210.322-185.895,208.621-185.816z M218.965-186.446c-1.911,0.145-2.867,0.209-4.779,0.328
			c0.014,0.953,0.021,1.429,0.035,2.382c1.912-0.124,2.867-0.192,4.778-0.342C218.985-185.026,218.979-185.499,218.965-186.446z
			 M219.049-180.584c-0.014-0.983-0.021-1.474-0.035-2.457c-1.911,0.153-2.866,0.222-4.778,0.348
			c0.014,0.989,0.021,1.482,0.035,2.472C216.183-180.353,217.139-180.426,219.049-180.584z"/>
		<path fill="#FFFFFF" d="M232.788-184.199c-0.912,0.65-1.864,1.273-2.831,1.853c2.926-0.333,4.391-0.514,7.311-0.908
			c0.034,2.423,0.051,3.634,0.085,6.057c-0.537,0.077-0.805,0.114-1.342,0.188c-0.002-0.163-0.004-0.243-0.006-0.405
			c-2.865,0.396-4.3,0.578-7.171,0.914c0.003,0.188,0.004,0.282,0.007,0.469c-0.517,0.061-0.773,0.09-1.291,0.149
			c-0.029-2.029-0.044-3.045-0.073-5.074c-1.059,0.54-2.836,1.606-3.228,1.497c-0.101-0.028-0.848-0.816-0.848-0.816
			c0.051-0.354,5.029-2.234,7.246-3.672c-2.756,0.314-4.136,0.456-6.896,0.715c-0.006-0.395-0.01-0.591-0.016-0.986
			c2.427-0.225,3.641-0.348,6.063-0.615c-0.011-0.749-0.017-1.124-0.027-1.872c-1.807,0.195-2.712,0.286-4.521,0.458
			c-0.006-0.388-0.007-0.583-0.013-0.971c1.809-0.169,2.713-0.259,4.52-0.452c-0.011-0.731-0.012-1.097-0.022-1.828
			c0.518-0.054,0.774-0.081,1.292-0.137c0.011,0.73,0.015,1.093,0.025,1.823c1.75-0.194,2.621-0.294,4.368-0.51
			c0.003,0.238,0.008,0.357,0.011,0.596c0.735-0.702,1.396-1.426,1.989-2.169c0.448,0.14,0.672,0.21,1.119,0.348
			c-1.218,1.494-2.65,2.899-4.246,4.188c2.039-0.251,3.059-0.385,5.095-0.667c0.006,0.387,0.008,0.582,0.014,0.969
			C236.759-184.688,235.437-184.518,232.788-184.199z M235.938-182.163c-2.865,0.379-4.298,0.554-7.169,0.873
			c0.008,0.58,0.01,0.869,0.018,1.449c2.871-0.324,4.307-0.501,7.172-0.885C235.95-181.301,235.945-181.588,235.938-182.163z
			 M235.991-178.359c-0.009-0.604-0.014-0.906-0.022-1.51c-2.865,0.387-4.299,0.565-7.17,0.892c0.009,0.609,0.015,0.915,0.023,1.524
			C231.693-177.785,233.126-177.967,235.991-178.359z M232.332-185.122c0.947-0.696,1.842-1.431,2.663-2.188
			c-1.57,0.194-2.355,0.286-3.928,0.462c0.011,0.748,0.014,1.122,0.024,1.869C231.588-185.035,231.837-185.064,232.332-185.122z"/>
	</g>
</g>
<g>
	<g>
		<path fill="#FFFFFF" d="M167.73-127.125c0.007,0.456,0.005,0.683,0.012,1.139c-6.245-0.369-9.364-0.623-15.591-1.271
			c-0.007-0.464-0.008-0.696-0.015-1.16c2.846,0.3,4.271,0.436,7.122,0.677c-0.022-1.621-0.036-2.433-0.06-4.053
			c-2.091-0.187-3.135-0.287-5.223-0.504c-0.007-0.462-0.009-0.694-0.016-1.156c2.088,0.221,3.134,0.323,5.225,0.512
			c-0.02-1.391-0.031-2.086-0.051-3.477c-1.654-0.156-2.483-0.24-4.136-0.416c-0.547,0.951-1.561,2.411-1.806,2.417
			c-0.104,0.003-1.186-0.806-1.189-0.839c-0.036-0.349,2.516-3.343,3.171-5.542c0.528,0.161,0.792,0.24,1.321,0.398
			c-0.269,0.85-0.572,1.682-0.948,2.457c1.428,0.151,2.14,0.224,3.568,0.361c-0.018-1.226-0.026-1.84-0.044-3.066
			c0.535,0.053,0.803,0.08,1.338,0.13c0.018,1.224,0.028,1.836,0.046,3.06c2.521,0.231,3.781,0.336,6.305,0.521
			c0.007,0.462,0.01,0.692,0.017,1.155c-2.523-0.182-3.786-0.285-6.307-0.513c0.021,1.389,0.032,2.083,0.053,3.472
			c2.26,0.196,3.389,0.285,5.65,0.443c0.007,0.456,0.009,0.684,0.016,1.14c-2.262-0.156-3.392-0.243-5.651-0.436
			c0.023,1.618,0.036,2.428,0.06,4.046C163.448-127.399,164.876-127.297,167.73-127.125z"/>
		<path fill="#FFFFFF" d="M179.139-135.984c1.249,2.277,6.677,4.583,6.677,4.583c0.011,0.04-0.736,1.003-0.863,1.058
			c-1.288,0.555-7.174-5.695-7.174-5.695c-0.188,0.011-5.694,6-7.201,5.246c-0.116-0.058-0.735-1.02-0.735-1.02
			c0.14-0.434,5.761-2.305,6.561-4.286c-2.582-0.118-3.873-0.189-6.453-0.354c-0.006-0.441-0.01-0.662-0.016-1.103
			c2.722,0.178,4.084,0.252,6.809,0.377c0.184-0.711,0.277-1.456,0.354-2.218c0.536,0.025,0.805,0.038,1.341,0.061
			c-0.077,0.761-0.191,1.505-0.339,2.217c2.984,0.125,4.478,0.171,7.462,0.231c0.006,0.434,0.01,0.65,0.016,1.084
			C183.001-135.851,181.714-135.887,179.139-135.984z M170.058-126.535c0.779-0.967,1.371-2.51,1.688-3.753
			c0.468,0.163,0.703,0.244,1.171,0.405c-0.37,1.27-0.91,2.912-1.672,3.958C170.769-126.167,170.533-126.29,170.058-126.535z
			 M180.405-126.375c0.934,0.022,1.159-1.795,1.159-1.795c0.04-0.02,1.117,0.368,1.186,0.461c0.4,0.543-0.549,2.418-2.241,2.38
			c-1.637-0.036-2.455-0.06-4.092-0.116c-2.028-0.069-2.582-0.425-2.6-1.681c-0.018-1.225-0.026-1.838-0.044-3.063
			c0.515,0.024,0.771,0.035,1.286,0.057c0.018,1.216,0.028,1.826,0.046,3.042c0.007,0.456,0.221,0.559,1.366,0.599
			C178.046-126.434,178.831-126.412,180.405-126.375z M176.777-133.297c1.031,0.559,2.275,1.367,2.938,1.978
			c-0.469,0.254-0.701,0.382-1.17,0.635c-0.555-0.595-1.821-1.456-2.853-2.049C176.126-132.958,176.344-133.071,176.777-133.297z
			 M177.236-130.949c0.999,0.818,2.267,1.964,2.879,2.712c-0.42,0.238-0.632,0.356-1.052,0.594
			c-0.574-0.766-1.809-1.961-2.844-2.815C176.626-130.654,176.83-130.752,177.236-130.949z M183.347-130.106
			c0.918,1.291,1.88,3.006,2.229,4.108c-0.499,0.151-0.75,0.227-1.249,0.376c-0.313-1.074-1.218-2.855-2.137-4.182
			C182.654-129.924,182.883-129.984,183.347-130.106z"/>
		<path fill="#FFFFFF" d="M192.833-133.587c-0.25,2.183-1.555,4.85-1.441,5.406c0.179,0.875,4.174,1.802,7.171,1.717
			c0.689-0.02,5.379-0.211,5.379-0.211c0.016,0.028-0.413,0.763-0.479,1.07c-1.967,0.086-2.953,0.121-4.921,0.179
			c-3.264,0.096-7.23-1.875-7.663-1.813c-0.283,0.041-1.856,2.292-2.154,2.26c-0.108-0.011-0.982-0.788-0.982-0.788
			c-0.006-0.137,2.311-1.888,2.279-2.315c-0.029-0.408-1.19-1.744-1.631-2.966c0.386-0.133,0.577-0.201,0.963-0.335
			c0.313,0.911,1.174,2.283,1.182,2.282c0.157-0.019,0.796-2.234,1.005-3.619c-1.143,0.001-1.712,0-2.854-0.008
			c0.74-1.123,1.686-2.782,2.459-4.257c-1.235-0.005-1.851-0.011-3.086-0.027c-0.006-0.407-0.011-0.61-0.017-1.017
			c1.983,0.029,2.975,0.035,4.958,0.035c-0.721,1.351-1.633,2.981-2.391,4.259c0.5,0.001,0.752,0,1.252,0
			c0.092-0.013,0.136-0.019,0.228-0.031C192.387-133.696,192.535-133.66,192.833-133.587z M197.232-136.753
			c-1.354,0.018-2.032,0.023-3.387,0.028c-0.005-0.362-0.007-0.542-0.012-0.905c1.354-0.003,2.032-0.009,3.387-0.025
			c-0.007-0.501-0.01-0.752-0.017-1.254c0.494-0.005,0.741-0.008,1.235-0.016c0.007,0.5,0.012,0.752,0.019,1.252
			c1.53-0.024,2.295-0.04,3.825-0.081c0.012,0.803,0.016,1.204,0.027,2.006c0.486-0.014,0.73-0.022,1.217-0.038
			c0.005,0.37,0.01,0.555,0.015,0.924c-0.486,0.017-0.73,0.025-1.217,0.04c0.012,0.815,0.015,1.221,0.026,2.037
			c-1.53,0.05-2.295,0.071-3.825,0.104c0.007,0.458,0.009,0.687,0.016,1.145c1.665-0.038,2.499-0.062,4.163-0.12
			c0.005,0.346,0.006,0.521,0.011,0.867c-1.664,0.06-2.494,0.083-4.159,0.123c0.007,0.495,0.011,0.742,0.018,1.237
			c1.925-0.049,2.888-0.079,4.813-0.154c0.005,0.371,0.009,0.556,0.014,0.927c-1.925,0.077-2.89,0.108-4.814,0.159
			c0.009,0.604,0.015,0.907,0.023,1.511c-0.494,0.014-0.743,0.02-1.237,0.032c-0.009-0.605-0.013-0.907-0.021-1.512
			c-1.749,0.04-2.623,0.053-4.373,0.071c-0.005-0.375-0.007-0.562-0.013-0.937c1.75-0.016,2.625-0.029,4.374-0.067
			c-0.007-0.496-0.013-0.743-0.02-1.238c-1.453,0.029-2.177,0.04-3.63,0.054c-0.005-0.35-0.01-0.523-0.015-0.873
			c1.453-0.013,2.181-0.023,3.634-0.052c-0.007-0.458-0.01-0.689-0.017-1.147c-1.403,0.025-2.106,0.036-3.51,0.047
			c-0.005-0.369-0.008-0.554-0.013-0.922c1.403-0.01,2.106-0.018,3.51-0.042c-0.007-0.453-0.008-0.679-0.015-1.132
			c-1.813,0.028-2.722,0.037-4.535,0.042c-0.005-0.375-0.009-0.563-0.014-0.937c1.813-0.003,2.723-0.011,4.535-0.037
			C197.245-136.084,197.239-136.306,197.232-136.753z M198.469-136.772c0.007,0.446,0.01,0.669,0.016,1.115
			c1.058-0.019,1.587-0.029,2.645-0.057c-0.006-0.445-0.009-0.668-0.016-1.113C200.056-136.801,199.526-136.791,198.469-136.772z
			 M201.143-134.787c-1.058,0.028-1.587,0.04-2.645,0.061c0.007,0.452,0.01,0.678,0.017,1.13c1.058-0.021,1.586-0.034,2.644-0.064
			C201.151-134.111,201.149-134.336,201.143-134.787z"/>
		<path fill="#FFFFFF" d="M211.478-129.466c0.109,0.278,0.499,0.834,0.492,0.885c-0.138,0.997-3.792,2.804-3.825,2.799
			c-0.052-0.008-0.718-0.874-0.716-0.897c0.005-0.069,0.871-0.729,0.861-1.41c-0.03-2.156-0.048-3.233-0.078-5.389
			c-0.987,0.048-1.48,0.071-2.468,0.112c-0.006-0.43-0.011-0.645-0.017-1.075c1.495-0.061,2.243-0.095,3.737-0.171
			c0.037,2.581,0.056,3.872,0.092,6.452C210.325-128.681,210.709-128.942,211.478-129.466z M209.743-136.027
			c-0.574-0.604-1.747-1.563-2.711-2.234c0.335-0.286,0.504-0.428,0.839-0.714c0.961,0.626,2.175,1.531,2.746,2.103
			C210.27-136.535,210.091-136.365,209.743-136.027z M214.749-137.396c0.021,1.393-2.138,4.458-3.022,4.241
			c-0.097-0.024-0.859-0.776-0.859-0.776c0.018-0.29,2.668-2.308,2.651-3.418c-0.01-0.66-0.016-0.99-0.025-1.65
			c2.227-0.13,3.342-0.205,5.565-0.37c0.021,1.383,0.026,2.075,0.047,3.459c0.006,0.417,0.061,0.547,0.325,0.526
			c0.485-0.039,0.729-0.059,1.215-0.1c0.247-0.021,0.802-0.162,0.826-0.145c0.052,0.036,0.169,0.876,0.134,0.94
			c-0.039,0.071-0.579,0.126-0.93,0.156c-0.528,0.045-0.792,0.067-1.32,0.109c-1.195,0.097-1.465-0.319-1.48-1.424
			c-0.014-0.956-0.021-1.433-0.034-2.389c-1.239,0.089-1.86,0.132-3.101,0.21C214.744-137.774,214.745-137.648,214.749-137.396z
			 M220.749-133.227c-0.659,1.903-3.324,4.578-3.317,4.637c0.026,0.213,4.488,1.119,4.488,1.119c0.011,0.032-0.658,0.989-0.792,1.06
			c-0.695,0.37-4.044-1.439-4.745-1.408c-0.808,0.036-4.264,2.346-4.672,2.146c-0.088-0.043-0.667-0.949-0.667-0.949
			c0.051-0.196,4.325-1.725,4.328-1.807c0.008-0.254-2.248-2-2.99-3.32c0.098-0.036,0.146-0.055,0.243-0.091
			c-0.359,0.023-0.54,0.036-0.899,0.058c-0.006-0.421-0.006-0.633-0.012-1.054c3.199-0.191,4.798-0.307,7.993-0.572
			c0.091-0.026,0.135-0.038,0.226-0.063C220.258-133.374,220.424-133.324,220.749-133.227z M213.61-131.906
			c0.65,1.099,2.234,2.794,2.792,2.768c0.624-0.03,2.085-1.946,2.701-3.176C216.907-132.133,215.809-132.052,213.61-131.906z"/>
		<path fill="#FFFFFF" d="M232.849-135.513c-0.904,0.653-1.846,1.277-2.804,1.859c2.899-0.33,4.349-0.511,7.242-0.902
			c0.035,2.439,0.049,3.659,0.084,6.097c-0.532,0.076-0.797,0.114-1.329,0.188c-0.002-0.164-0.005-0.247-0.007-0.41
			c-2.84,0.392-4.261,0.574-7.105,0.908c0.003,0.189,0.009,0.282,0.012,0.471c-0.513,0.061-0.771,0.09-1.283,0.149
			c-0.029-2.042-0.044-3.063-0.073-5.106c-1.049,0.542-2.817,1.609-3.199,1.502c-0.1-0.028-0.84-0.822-0.84-0.822
			c0.053-0.359,4.984-2.241,7.181-3.685c-2.731,0.312-4.099,0.453-6.834,0.711c-0.006-0.397-0.008-0.595-0.014-0.992
			c2.404-0.224,3.605-0.347,6.007-0.612c-0.011-0.753-0.017-1.13-0.027-1.884c-1.79,0.194-2.686,0.284-4.478,0.455
			c-0.006-0.391-0.009-0.586-0.015-0.977c1.792-0.168,2.688-0.258,4.479-0.45c-0.011-0.736-0.018-1.104-0.028-1.84
			c0.513-0.054,0.77-0.081,1.282-0.136c0.011,0.735,0.018,1.102,0.028,1.836c1.733-0.192,2.601-0.293,4.332-0.507
			c0.004,0.24,0.006,0.358,0.009,0.598c0.729-0.705,1.384-1.429,1.972-2.176c0.444,0.142,0.664,0.21,1.107,0.35
			c-1.206,1.501-2.625,2.914-4.206,4.209c2.021-0.25,3.03-0.382,5.048-0.661c0.006,0.39,0.008,0.585,0.014,0.975
			C236.783-136,235.473-135.829,232.849-135.513z M235.97-133.46c-2.84,0.375-4.263,0.549-7.107,0.866
			c0.009,0.584,0.013,0.876,0.021,1.46c2.845-0.322,4.266-0.498,7.105-0.879C235.981-132.591,235.978-132.881,235.97-133.46z
			 M236.025-129.631c-0.009-0.608-0.013-0.912-0.021-1.52c-2.84,0.384-4.263,0.561-7.107,0.886c0.009,0.613,0.015,0.918,0.023,1.532
			C231.765-129.063,233.186-129.242,236.025-129.631z M232.396-136.444c0.938-0.699,1.824-1.436,2.638-2.196
			c-1.557,0.192-2.336,0.283-3.894,0.458c0.011,0.752,0.018,1.127,0.028,1.88C231.66-136.359,231.905-136.387,232.396-136.444z"/>
	</g>
</g>
<g>
	<g>
		<path fill="#FFFFFF" d="M182.83-81.764c0.97,1.13,3.847,2.704,3.847,2.704c0.006,0.044-0.714,0.855-0.813,0.883
			c-0.62,0.177-3.307-2.181-4.354-3.678c-2.118-0.153-3.177-0.243-5.291-0.454c-1.018,1.4-3.72,3.342-4.266,3.145
			c-0.133-0.048-0.841-1.025-0.841-1.025c0.04-0.165,2.781-1.215,3.705-2.263c-1.458-0.156-2.186-0.241-3.642-0.424
			c-0.016-0.409-0.026-0.613-0.042-1.022c1.336,0.168,2.005,0.247,3.344,0.392c-0.07-2.067-0.104-3.103-0.175-5.169
			c-1.036-0.112-1.556-0.172-2.59-0.298c-0.016-0.402-0.022-0.602-0.038-1.003c1.036,0.126,1.552,0.185,2.59,0.297
			c-0.021-0.622-0.029-0.934-0.051-1.556c0.5,0.054,0.75,0.08,1.25,0.131c0.02,0.622,0.029,0.934,0.049,1.556
			c2.48,0.252,3.723,0.359,6.209,0.534c-0.014-0.622-0.02-0.933-0.033-1.554c0.515,0.036,0.773,0.053,1.288,0.085
			c0.013,0.622,0.019,0.933,0.031,1.555c1.027,0.065,1.539,0.096,2.567,0.148c0.007,0.401,0.01,0.601,0.017,1.001
			c-1.026-0.052-1.539-0.081-2.564-0.146c0.041,2.065,0.062,3.098,0.103,5.163c1.309,0.083,1.963,0.12,3.272,0.182
			c0.006,0.408,0.01,0.611,0.016,1.019C184.983-81.63,184.265-81.67,182.83-81.764z M179.498-77.454
			c2.316,0.193,3.476,0.272,5.795,0.396c0.007,0.408,0.011,0.61,0.018,1.018c-5.062-0.271-7.59-0.487-12.629-1.085
			c-0.016-0.408-0.024-0.612-0.04-1.021c2.243,0.266,3.366,0.383,5.614,0.584c-0.02-0.68-0.026-1.02-0.046-1.7
			c-1.373-0.123-2.061-0.19-3.432-0.337c-0.014-0.396-0.019-0.594-0.032-0.989c1.373,0.147,2.059,0.216,3.434,0.339
			c-0.016-0.544-0.021-0.817-0.036-1.361c0.5,0.045,0.751,0.066,1.251,0.108c0.015,0.544,0.019,0.816,0.033,1.36
			c1.409,0.117,2.113,0.169,3.523,0.261c0.008,0.395,0.014,0.592,0.021,0.987c-1.408-0.091-2.112-0.144-3.52-0.26
			C179.471-78.474,179.48-78.134,179.498-77.454z M175.549-88.545c0.014,0.434,0.02,0.651,0.033,1.085
			c2.473,0.252,3.709,0.359,6.187,0.533c-0.01-0.434-0.013-0.652-0.022-1.086C179.265-88.187,178.025-88.293,175.549-88.545z
			 M175.646-85.435c2.464,0.251,3.698,0.356,6.168,0.53c-0.01-0.447-0.016-0.669-0.025-1.116c-2.474-0.174-3.709-0.281-6.178-0.533
			C175.626-86.106,175.632-85.882,175.646-85.435z M175.713-83.378c2.456,0.25,3.686,0.357,6.146,0.53
			c-0.01-0.459-0.016-0.69-0.025-1.15c-2.466-0.173-3.697-0.279-6.158-0.53C175.69-84.067,175.698-83.838,175.713-83.378z"/>
		<path fill="#FFFFFF" d="M196.333-84.157c-0.001,0.88,0,1.319-0.001,2.199c2.368-0.007,3.553-0.028,5.92-0.107
			c-0.005,0.44-0.008,0.661-0.013,1.101c-2.363,0.078-3.544,0.1-5.907,0.107c-0.002,1.578-0.003,2.369-0.004,3.947
			c2.652-0.008,3.978-0.037,6.629-0.135c-0.005,0.447-0.01,0.671-0.015,1.118c-5.77,0.214-8.657,0.213-14.427,0
			c-0.005-0.447-0.007-0.669-0.012-1.116c2.61,0.096,3.917,0.124,6.528,0.133c-0.002-1.578-0.003-2.37-0.005-3.948
			c-2.323-0.008-3.485-0.029-5.808-0.105c-0.005-0.44-0.008-0.661-0.013-1.101c2.326,0.077,3.49,0.099,5.817,0.106
			c-0.001-0.88-0.001-1.321-0.002-2.201c-1.471-0.005-2.207-0.014-3.678-0.047c-0.003-0.356-0.003-0.533-0.006-0.889
			c-0.865,0.434-2.404,1.217-2.694,1.102c-0.134-0.053-0.861-1.132-0.861-1.132c0.089-0.381,6.289-2.72,7.922-5.114
			c0.468,0.207,0.701,0.309,1.168,0.513c-0.12,0.179-0.435,0.513-0.431,0.585c0.044,0.806,7.271,4.014,7.271,4.014
			c0.01,0.043-0.779,1.04-0.897,1.085c-0.32,0.122-1.813-0.685-2.73-1.166c-0.003,0.401-0.004,0.601-0.007,1.002
			C198.581-84.172,197.831-84.162,196.333-84.157z M191.677-80.543c0.665,0.919,1.363,2.142,1.636,2.921
			c-0.438,0.169-0.656,0.255-1.093,0.422c-0.239-0.749-0.921-2.04-1.571-2.962C191.06-80.313,191.265-80.39,191.677-80.543z
			 M199.881-85.316c-1.529-0.825-3.78-3.002-4.142-2.998c-0.471,0.005-2.497,2.192-3.992,3.003
			C195-85.246,196.628-85.248,199.881-85.316z M197.86-77.537c0.593-0.799,1.358-2.088,1.771-3.002
			c0.473,0.166,0.709,0.247,1.181,0.409c-0.616,1.035-1.398,2.199-2.008,2.969C198.427-77.311,198.237-77.386,197.86-77.537z"/>
		<path fill="#FFFFFF" d="M214.165-90.428c-0.177,0.226-0.521,0.614-0.513,0.692c0.073,0.676,6.906,3.418,6.906,3.418
			c0.013,0.044-0.781,1.122-0.923,1.179c-0.979,0.397-6.246-3.746-6.745-3.722c-0.475,0.022-2.427,2.333-3.909,3.321
			c3.146-0.211,4.718-0.348,7.856-0.684c-0.015,0.447-0.022,0.672-0.037,1.119c-3.221,0.345-4.835,0.483-8.064,0.696
			c0.008-0.395,0.013-0.592,0.021-0.987c-0.897,0.592-2.521,1.693-2.834,1.604c-0.11-0.031-0.9-0.971-0.9-0.974
			c0.056-0.502,6.357-3.757,7.942-6.059C213.446-90.664,213.685-90.583,214.165-90.428z M205.78-82.262
			c5.567-0.284,8.35-0.524,13.893-1.202c-0.018,0.467-0.027,0.699-0.045,1.166c-2.938,0.359-4.408,0.511-7.354,0.76
			c-1.082,1.417-2.295,2.819-3.527,3.936c3.058-0.424,4.587-0.667,7.643-1.21c-0.582-0.617-1.266-1.241-1.889-1.747
			c0.432-0.261,0.646-0.391,1.078-0.655c1.459,1.144,2.973,2.678,3.661,3.805c-0.451,0.319-0.676,0.479-1.126,0.795
			c-0.22-0.362-0.625-1.135-0.871-1.225c-4.158-1.51-10.32,1.914-10.438,1.859c-0.063-0.029-0.432-1.164-0.4-1.223
			c0.043-0.081,0.751-0.451,1.263-0.914c0.446-0.403,1.766-1.762,2.898-3.287c-1.92,0.145-2.882,0.207-4.805,0.305
			C205.768-81.563,205.772-81.796,205.78-82.262z"/>
	</g>
</g>
<g>
	<g>
		<path fill="#FFFFFF" d="M174.749-33.504c0.062,1.835,0.094,2.753,0.155,4.588c0.023,0.686-0.165,0.985-0.581,1.124
			c-0.406,0.135-1.937,0.266-2.259-0.033c-0.098-0.091-0.433-1.174-0.433-1.174c0.057-0.075,1.533,0.198,1.735,0.222
			c0.235,0.027,0.314-0.044,0.307-0.273c-0.06-1.685-0.089-2.528-0.148-4.213c-0.846,0.145-1.269,0.214-2.112,0.35
			c-0.167-0.489-0.252-0.732-0.42-1.222c0.688-0.076,1.546-0.2,2.487-0.354c-0.05-1.404-0.075-2.105-0.125-3.509
			c-0.93-0.105-1.394-0.162-2.322-0.278c-0.018-0.457-0.028-0.686-0.046-1.143c0.93,0.117,1.396,0.173,2.327,0.278
			c-0.046-1.306-0.068-1.96-0.114-3.267c0.502,0.057,0.752,0.085,1.254,0.139c0.044,1.306,0.065,1.959,0.109,3.265
			c0.85,0.091,1.275,0.133,2.126,0.214c0.014,0.457,0.022,0.686,0.036,1.143c-0.849-0.082-1.273-0.124-2.122-0.215
			c0.043,1.273,0.063,1.91,0.105,3.184c0.627-0.109,0.943-0.165,1.571-0.278c0.082,0.451,0.121,0.677,0.202,1.128
			C175.788-33.696,175.441-33.631,174.749-33.504z M185.393-33.959c-0.65,1.921-3.229,4.319-3.225,4.462
			c0.008,0.283,4.511,1.938,4.511,1.938c0.01,0.042-0.668,1.023-0.775,1.071c-0.616,0.275-4.066-2.292-4.767-2.335
			c-0.739-0.045-4.385,1.92-4.883,1.624c-0.118-0.07-0.66-1.173-0.66-1.173c0.069-0.174,4.49-1.184,4.509-1.313
			c0.042-0.301-2.146-2.46-2.869-3.976c0.067-0.02,0.102-0.03,0.169-0.05c-0.266-0.025-0.398-0.037-0.664-0.063
			c-0.014-0.457-0.021-0.686-0.034-1.143c3.046,0.294,4.571,0.414,7.624,0.59c0.096-0.014,0.143-0.022,0.238-0.036
			C184.896-34.2,185.063-34.12,185.393-33.959z M179.428-39.409c0.037,1.452-1.812,4.318-2.444,4.129
			c-0.099-0.029-0.852-0.959-0.849-0.977c0.059-0.333,2.122-2.127,2.09-3.285c-0.02-0.718-0.029-1.077-0.049-1.795
			c2.17,0.191,3.257,0.271,5.431,0.403c0.028,1.506,0.04,2.26,0.068,3.766c0.009,0.457,0.064,0.622,0.339,0.638
			c0.527,0.031,0.793,0.046,1.32,0.074c0.257,0.014,0.822-0.063,0.856-0.037c0.063,0.05,0.156,0.986,0.117,1.048
			c-0.038,0.06-0.58,0.054-0.922,0.036c-0.575-0.03-0.863-0.047-1.438-0.081c-1.181-0.07-1.461-0.564-1.486-1.771
			c-0.022-1.044-0.034-1.566-0.056-2.61c-1.198-0.08-1.798-0.125-2.995-0.223C179.417-39.82,179.421-39.683,179.428-39.409z
			 M178.458-33.614c0.629,1.244,2.151,3.3,2.658,3.325c0.506,0.025,1.997-1.734,2.586-2.937
			C181.603-33.354,180.554-33.43,178.458-33.614z"/>
		<path fill="#FFFFFF" d="M193.355-35.969c-1.645,0.501-3.385,1.012-4.747,1.387c-0.148-0.455-0.222-0.684-0.37-1.14
			c1.229-0.279,3.075-0.778,4.927-1.309C193.242-36.605,193.278-36.394,193.355-35.969z M196.675-31.98
			c-0.566,3.246-6.208,6.666-7.769,5.637c-0.09-0.06-0.568-1.015-0.568-1.015c0.24-0.564,6.601-1.931,7.11-4.619
			C195.938-31.978,196.185-31.978,196.675-31.98z M192.387-37.987c-0.776-0.583-2.352-1.37-3.597-1.853
			c0.251-0.33,0.379-0.494,0.631-0.825c1.247,0.447,2.839,1.179,3.634,1.744C192.787-38.547,192.653-38.361,192.387-37.987z
			 M200.148-29.208c0.009-1.317,0.015-1.976,0.023-3.293c-3.361,0.076-5.043,0.078-8.404,0.011c0.009,1.363,0.011,2.044,0.02,3.407
			c-0.495-0.01-0.741-0.014-1.235-0.027c-0.015-1.806-0.022-2.709-0.037-4.515c4.376,0.115,6.567,0.111,10.944-0.017
			c-0.016,1.76-0.023,2.641-0.039,4.401C200.911-29.227,200.657-29.22,200.148-29.208z M198.925-38.719
			c-0.087,0.294-0.314,0.68-0.296,0.836c0.107,0.901,4.896,2.801,4.896,2.801c0.008,0.03-0.661,0.922-0.78,0.974
			c-0.724,0.313-4.492-2.83-4.619-2.823c-0.277,0.016-3.814,3.372-4.506,3.051c-0.093-0.043-0.687-0.889-0.687-0.889
			c0.087-0.348,4.194-2.25,4.699-3.934c-0.813,0.008-1.216,0.009-2.028,0.009c-0.482,0.652-1.587,1.877-1.787,1.85
			c-0.098-0.013-0.894-0.751-0.895-0.762c-0.017-0.261,2.266-2.358,2.697-3.483c0.491,0.066,0.736,0.099,1.228,0.161
			c-0.175,0.425-0.383,0.849-0.624,1.273c2.331-0.006,3.498-0.026,5.828-0.101c0.083-0.022,0.124-0.034,0.207-0.056
			c0.371,0.085,0.557,0.128,0.928,0.212c-0.442,0.913-0.982,1.907-1.401,2.556c-0.445-0.11-0.67-0.166-1.115-0.278
			c0.261-0.381,0.523-0.926,0.804-1.456C200.453-38.747,199.944-38.735,198.925-38.719z M196.858-29.65
			c2.069,0.607,4.875,1.529,6.336,2.189c-0.302,0.409-0.455,0.615-0.756,1.023c-1.393-0.67-4.174-1.667-6.274-2.332
			C196.442-29.122,196.579-29.297,196.858-29.65z"/>
		<path fill="#FFFFFF" d="M214.153-35.707c-0.905,0.687-1.841,1.338-2.79,1.936c2.813-0.224,4.219-0.362,7.025-0.687
			c-0.099,2.73-0.149,4.095-0.248,6.826c-0.511,0.059-0.767,0.088-1.277,0.144c0.006-0.183,0.01-0.275,0.016-0.458
			c-2.726,0.297-4.091,0.421-6.822,0.622c-0.005,0.209-0.005,0.314-0.01,0.523c-0.492,0.036-0.74,0.055-1.232,0.088
			c0.047-2.257,0.072-3.386,0.12-5.644c-1.03,0.542-2.813,1.58-3.135,1.472c-0.096-0.032-0.786-0.94-0.783-0.955
			c0.088-0.415,4.888-2.185,7.073-3.685c-2.656,0.221-3.989,0.308-6.65,0.438c0.007-0.438,0.011-0.655,0.018-1.093
			c2.344-0.115,3.516-0.189,5.855-0.374c0.021-0.835,0.032-1.254,0.053-2.089c-1.751,0.138-2.626,0.197-4.379,0.297
			c0.008-0.43,0.011-0.645,0.019-1.075c1.756-0.1,2.632-0.159,4.386-0.297c0.021-0.816,0.032-1.224,0.053-2.04
			c0.503-0.04,0.755-0.061,1.258-0.104c-0.022,0.816-0.035,1.224-0.057,2.04c1.698-0.145,2.549-0.226,4.244-0.407
			c-0.009,0.268-0.013,0.402-0.021,0.669c0.743-0.763,1.419-1.555,2.031-2.375c0.425,0.171,0.639,0.258,1.063,0.427
			c-1.26,1.65-2.713,3.183-4.307,4.564c1.968-0.199,2.953-0.313,4.917-0.561c-0.018,0.438-0.026,0.658-0.044,1.096
			C217.981-36.085,216.706-35.946,214.153-35.707z M217.062-33.284c-2.749,0.299-4.125,0.425-6.88,0.628
			c-0.015,0.646-0.024,0.968-0.039,1.614c2.747-0.202,4.121-0.327,6.862-0.626C217.027-32.314,217.039-32.638,217.062-33.284z
			 M216.913-29.007c0.023-0.679,0.036-1.017,0.06-1.697c-2.737,0.298-4.109,0.423-6.853,0.625c-0.016,0.679-0.022,1.017-0.038,1.696
			C212.818-28.584,214.184-28.71,216.913-29.007z M213.758-36.761c0.941-0.737,1.837-1.526,2.666-2.345
			c-1.521,0.159-2.283,0.232-3.807,0.362c-0.022,0.835-0.033,1.253-0.056,2.089C213.041-36.696,213.279-36.717,213.758-36.761z"/>
	</g>
</g>
<g>
	<path fill="#FFFFFF" d="M198.594-269.189c6.406-1.515,10.929-5.135,10.929-9.351c0-5.577-7.912-10.113-17.635-10.113
		c-9.718,0-17.626,4.536-17.626,10.113c0,4.195,4.479,7.803,10.842,9.331c-4.998,1.425-8.437,4.379-8.437,7.791
		c0,0.463,0.649,0.84,1.464,0.84c0.806,0,1.464-0.377,1.464-0.84c0-3.866,5.482-7.011,12.221-7.011
		c6.739,0,12.224,3.145,12.224,7.011c0,0.463,0.652,0.84,1.461,0.84c0.812,0,1.464-0.377,1.464-0.84
		C206.964-264.812,203.554-267.759,198.594-269.189z M177.19-278.54c0-4.652,6.599-8.434,14.697-8.434
		c8.107,0,14.704,3.781,14.704,8.434c0,4.648-6.597,8.432-14.704,8.432C183.789-270.108,177.19-273.891,177.19-278.54z"/>
	<path fill="#FFFFFF" d="M199.271-274.876c0.414-0.397,0.189-0.912-0.506-1.15c-0.694-0.237-1.591-0.107-2.009,0.292
		c-1.064,1.021-2.922,1.634-4.974,1.634c-2.046,0-3.9-0.612-4.971-1.634c-0.411-0.399-1.307-0.529-2.01-0.292
		c-0.695,0.238-0.921,0.753-0.503,1.15c1.6,1.539,4.396,2.456,7.483,2.456C194.871-272.42,197.672-273.337,199.271-274.876z"/>
</g>
</svg>
