<?xml version="1.0" encoding="utf-8"?>
<!-- Generator: Adobe Illustrator 17.0.0, SVG Export Plug-In . SVG Version: 6.00 Build 0)  -->
<!DOCTYPE svg PUBLIC "-//W3C//DTD SVG 1.1//EN" "http://www.w3.org/Graphics/SVG/1.1/DTD/svg11.dtd">
<svg version="1.1" id="图层_1" xmlns="http://www.w3.org/2000/svg" xmlns:xlink="http://www.w3.org/1999/xlink" x="0px" y="0px"
	 width="1342.957px" height="337px" viewBox="0 0 1342.957 337" enable-background="new 0 0 1342.957 337" xml:space="preserve">
<linearGradient id="SVGID_1_" gradientUnits="userSpaceOnUse" x1="315.4088" y1="-67.7591" x2="1512.5725" y2="-67.7591" gradientTransform="matrix(1 0 0 -1 -192.615 111.92)">
	<stop  offset="0" style="stop-color:#3E3F3F"/>
	<stop  offset="1" style="stop-color:#A3A3A3;stop-opacity:0"/>
</linearGradient>
<path fill="none" stroke="url(#SVGID_1_)" stroke-width="2" stroke-miterlimit="10" d="M122.812,176.883
	c0,0,129.497-2.301,227.338-21.87c97.841-19.567,181.87-13.237,287.77,56.403s210.072,79.999,348.777-42.592
	c138.705-122.589,270.287-59.771,332.758-23.429"/>
<linearGradient id="SVGID_2_" gradientUnits="userSpaceOnUse" x1="315.3911" y1="-56.0744" x2="1512.382" y2="-56.0744" gradientTransform="matrix(1 0 0 -1 -192.615 111.92)">
	<stop  offset="0" style="stop-color:#3E3F3F"/>
	<stop  offset="1" style="stop-color:#A3A3A3;stop-opacity:0"/>
</linearGradient>
<path fill="none" stroke="url(#SVGID_2_)" stroke-width="2" stroke-miterlimit="10" d="M122.812,179.68
	c0,0,71.223,2.526,198.561-13.876c127.339-16.403,159.713,3.021,235.684,31.079c75.974,28.057,149.354,53.094,254.246-24.173
	c104.891-77.266,172.229-72.95,242.59-32.374c70.359,40.576,141.772,109.209,265.563,68.634"/>
<linearGradient id="SVGID_3_" gradientUnits="userSpaceOnUse" x1="315.2303" y1="-63.457" x2="1512.4548" y2="-63.457" gradientTransform="matrix(1 0 0 -1 -192.615 111.92)">
	<stop  offset="0" style="stop-color:#3E3F3F"/>
	<stop  offset="1" style="stop-color:#A3A3A3;stop-opacity:0"/>
</linearGradient>
<path fill="none" stroke="url(#SVGID_3_)" stroke-width="2" stroke-miterlimit="10" d="M1319.453,157.819
	c0,0-32.47-13.598-94.411,17.202c-97.984,48.929-115.898,32.007-186.691-10.512c-49.112-29.498-82.844-24.746-115.252-4.231
	c-119.424,75.599-132.518,42.216-179.569,19.912c-47.049-22.305-85.683-45.681-157.122-10.909
	c-71.438,34.773-133.395,16.501-164.244,10.399c-47.698-9.433-88.049-6.589-165.018-1.717
	c-118.148,7.48-134.335,4.243-134.335,4.243"/>
<g>
	
		<linearGradient id="SVGID_4_" gradientUnits="userSpaceOnUse" x1="216.7846" y1="-171.7491" x2="469.4106" y2="-171.7491" gradientTransform="matrix(1 0 0 -1 -192.615 111.92)">
		<stop  offset="0" style="stop-color:#3EA8F2"/>
		<stop  offset="1" style="stop-color:#22E0E7"/>
	</linearGradient>
	<path fill="url(#SVGID_4_)" d="M24.17,254.213v29.651c0,16.161,56.553,29.262,126.313,29.262
		c69.761,0,126.313-13.101,126.313-29.262v-29.651H24.17z"/>
	<ellipse fill="#00BBED" cx="150.483" cy="254.213" rx="126.313" ry="29.264"/>
	
		<linearGradient id="SVGID_5_" gradientUnits="userSpaceOnUse" x1="237.4211" y1="-163.7166" x2="237.4211" y2="-182.8795" gradientTransform="matrix(1 0 0 -1 -192.615 111.92)">
		<stop  offset="0.3817" style="stop-color:#0FA0F2"/>
		<stop  offset="1" style="stop-color:#22E0E7"/>
	</linearGradient>
	<path fill="url(#SVGID_5_)" d="M42.708,293.325c1.331,0.503,2.741,0.992,4.197,1.475v-17.688c-1.456-0.483-2.866-0.973-4.197-1.475
		V293.325z"/>
	<path fill="#008EE5" d="M43.324,292.829v-16.967c-0.204-0.075-0.417-0.149-0.616-0.225v17.688c1.331,0.503,2.741,0.992,4.197,1.475
		v-0.706C45.671,293.679,44.465,293.26,43.324,292.829z"/>
	
		<linearGradient id="SVGID_6_" gradientUnits="userSpaceOnUse" x1="251.744" y1="-168.1366" x2="251.744" y2="-186.8445" gradientTransform="matrix(1 0 0 -1 -192.615 111.92)">
		<stop  offset="0.3817" style="stop-color:#0FA0F2"/>
		<stop  offset="1" style="stop-color:#22E0E7"/>
	</linearGradient>
	<path fill="url(#SVGID_6_)" d="M57.031,297.746c1.364,0.348,2.764,0.688,4.197,1.019v-17.688c-1.434-0.331-2.833-0.672-4.197-1.02
		V297.746z"/>
	
		<linearGradient id="SVGID_7_" gradientUnits="userSpaceOnUse" x1="244.5821" y1="-166.1366" x2="244.5821" y2="-185.0336" gradientTransform="matrix(1 0 0 -1 -192.615 111.92)">
		<stop  offset="0.3817" style="stop-color:#0FA0F2"/>
		<stop  offset="1" style="stop-color:#22E0E7"/>
	</linearGradient>
	<path fill="url(#SVGID_7_)" d="M49.868,295.746c1.354,0.41,2.758,0.813,4.199,1.208v-17.687c-1.441-0.396-2.846-0.798-4.199-1.21
		V295.746z"/>
	<path fill="#008EE5" d="M50.487,295.251v-16.968c-0.205-0.076-0.417-0.149-0.617-0.226v17.688c1.331,0.502,2.742,0.993,4.197,1.475
		v-0.704C52.834,296.101,51.627,295.681,50.487,295.251z"/>
	<path fill="#008EE5" d="M57.647,297.251v-16.968c-0.204-0.076-0.417-0.149-0.616-0.226v17.688c1.331,0.502,2.741,0.992,4.197,1.475
		v-0.706C59.994,298.101,58.788,297.682,57.647,297.251z"/>
	
		<linearGradient id="SVGID_8_" gradientUnits="userSpaceOnUse" x1="216.7846" y1="-123.264" x2="469.4106" y2="-123.264" gradientTransform="matrix(1 0 0 -1 -192.615 111.92)">
		<stop  offset="0" style="stop-color:#3E3F3F"/>
		<stop  offset="1" style="stop-color:#A3A3A3"/>
	</linearGradient>
	<path fill="url(#SVGID_8_)" d="M24.17,205.728v29.651c0,16.161,56.553,29.262,126.313,29.262
		c69.761,0,126.313-13.101,126.313-29.262v-29.651H24.17z"/>
	<ellipse fill="#545454" cx="150.483" cy="205.728" rx="126.313" ry="29.263"/>
	
		<linearGradient id="SVGID_9_" gradientUnits="userSpaceOnUse" x1="216.7846" y1="-74.026" x2="469.4106" y2="-74.026" gradientTransform="matrix(1 0 0 -1 -192.615 111.92)">
		<stop  offset="0" style="stop-color:#3EA8F2"/>
		<stop  offset="1" style="stop-color:#22E0E7"/>
	</linearGradient>
	<path fill="url(#SVGID_9_)" d="M24.17,156.49v29.65c0,16.162,56.553,29.263,126.313,29.263c69.761,0,126.313-13.101,126.313-29.263
		v-29.65H24.17z"/>
	<ellipse fill="#00BBED" cx="150.483" cy="156.49" rx="126.313" ry="29.264"/>
	
		<linearGradient id="SVGID_10_" gradientUnits="userSpaceOnUse" x1="237.4211" y1="-65.9935" x2="237.4211" y2="-85.1555" gradientTransform="matrix(1 0 0 -1 -192.615 111.92)">
		<stop  offset="0.3817" style="stop-color:#0FA0F2"/>
		<stop  offset="1" style="stop-color:#22E0E7"/>
	</linearGradient>
	<path fill="url(#SVGID_10_)" d="M42.708,195.601c1.331,0.503,2.741,0.992,4.197,1.475v-17.688
		c-1.456-0.482-2.866-0.972-4.197-1.474V195.601z"/>
	<path fill="#008EE5" d="M43.324,195.106v-16.968c-0.204-0.075-0.417-0.149-0.616-0.225v17.688c1.331,0.503,2.741,0.992,4.197,1.475
		v-0.706C45.671,195.955,44.465,195.536,43.324,195.106z"/>
	
		<linearGradient id="SVGID_11_" gradientUnits="userSpaceOnUse" x1="251.744" y1="-70.4135" x2="251.744" y2="-89.1216" gradientTransform="matrix(1 0 0 -1 -192.615 111.92)">
		<stop  offset="0.3817" style="stop-color:#0FA0F2"/>
		<stop  offset="1" style="stop-color:#22E0E7"/>
	</linearGradient>
	<path fill="url(#SVGID_11_)" d="M57.031,200.023c1.364,0.348,2.764,0.688,4.197,1.019v-17.688c-1.434-0.331-2.833-0.672-4.197-1.02
		V200.023z"/>
	
		<linearGradient id="SVGID_12_" gradientUnits="userSpaceOnUse" x1="244.5821" y1="-68.4135" x2="244.5821" y2="-87.3105" gradientTransform="matrix(1 0 0 -1 -192.615 111.92)">
		<stop  offset="0.3817" style="stop-color:#0FA0F2"/>
		<stop  offset="1" style="stop-color:#22E0E7"/>
	</linearGradient>
	<path fill="url(#SVGID_12_)" d="M49.868,198.023c1.354,0.41,2.758,0.813,4.199,1.208v-17.687c-1.441-0.396-2.846-0.798-4.199-1.21
		V198.023z"/>
	<path fill="#008EE5" d="M50.487,197.528V180.56c-0.205-0.076-0.417-0.149-0.617-0.226v17.688c1.331,0.502,2.742,0.993,4.197,1.475
		v-0.704C52.834,198.377,51.627,197.957,50.487,197.528z"/>
	<path fill="#008EE5" d="M57.647,199.528V182.56c-0.204-0.076-0.417-0.149-0.616-0.226v17.688c1.331,0.502,2.741,0.992,4.197,1.475
		v-0.706C59.994,200.377,58.788,199.958,57.647,199.528z"/>
	
		<linearGradient id="SVGID_13_" gradientUnits="userSpaceOnUse" x1="237.4211" y1="-114.6155" x2="237.4211" y2="-133.7785" gradientTransform="matrix(1 0 0 -1 -192.615 111.92)">
		<stop  offset="0.2312" style="stop-color:#333333"/>
		<stop  offset="1" style="stop-color:#A3A3A3"/>
	</linearGradient>
	<path fill="url(#SVGID_13_)" d="M42.708,244.224c1.331,0.502,2.741,0.992,4.197,1.475v-17.688
		c-1.456-0.482-2.866-0.972-4.197-1.475V244.224z"/>
	<path fill="#2D2D2D" d="M43.324,243.729v-16.968c-0.204-0.076-0.417-0.149-0.616-0.226v17.688c1.331,0.502,2.741,0.992,4.197,1.475
		v-0.706C45.671,244.578,44.465,244.159,43.324,243.729z"/>
	
		<linearGradient id="SVGID_14_" gradientUnits="userSpaceOnUse" x1="251.744" y1="-119.0366" x2="251.744" y2="-137.7445" gradientTransform="matrix(1 0 0 -1 -192.615 111.92)">
		<stop  offset="0.2312" style="stop-color:#333333"/>
		<stop  offset="1" style="stop-color:#A3A3A3"/>
	</linearGradient>
	<path fill="url(#SVGID_14_)" d="M57.031,248.646c1.364,0.348,2.764,0.688,4.197,1.019v-17.688c-1.434-0.332-2.833-0.672-4.197-1.02
		V248.646z"/>
	
		<linearGradient id="SVGID_15_" gradientUnits="userSpaceOnUse" x1="244.5821" y1="-117.0366" x2="244.5821" y2="-135.9335" gradientTransform="matrix(1 0 0 -1 -192.615 111.92)">
		<stop  offset="0.2312" style="stop-color:#333333"/>
		<stop  offset="1" style="stop-color:#A3A3A3"/>
	</linearGradient>
	<path fill="url(#SVGID_15_)" d="M49.868,246.646c1.354,0.41,2.758,0.813,4.199,1.208v-17.687c-1.441-0.396-2.846-0.798-4.199-1.21
		V246.646z"/>
	<path fill="#2D2D2D" d="M50.487,246.151v-16.969c-0.205-0.075-0.417-0.149-0.617-0.225v17.688c1.331,0.502,2.742,0.993,4.197,1.474
		v-0.703C52.834,247,51.627,246.58,50.487,246.151z"/>
	<path fill="#2D2D2D" d="M57.647,248.151v-16.968c-0.204-0.076-0.417-0.149-0.616-0.226v17.688c1.331,0.502,2.741,0.992,4.197,1.475
		v-0.706C59.994,249,58.788,248.58,57.647,248.151z"/>
	
		<linearGradient id="SVGID_16_" gradientUnits="userSpaceOnUse" x1="216.1165" y1="-25.3956" x2="468.7426" y2="-25.3956" gradientTransform="matrix(1 0 0 -1 -192.615 111.92)">
		<stop  offset="0" style="stop-color:#3E3F3F"/>
		<stop  offset="1" style="stop-color:#A3A3A3"/>
	</linearGradient>
	<path fill="url(#SVGID_16_)" d="M23.502,107.859v29.65c0,16.162,56.553,29.264,126.313,29.264
		c69.761,0,126.313-13.102,126.313-29.264v-29.65H23.502z"/>
	<ellipse fill="#545454" cx="149.815" cy="107.859" rx="126.313" ry="29.263"/>
	
		<linearGradient id="SVGID_17_" gradientUnits="userSpaceOnUse" x1="216.1165" y1="23.8435" x2="468.7426" y2="23.8435" gradientTransform="matrix(1 0 0 -1 -192.615 111.92)">
		<stop  offset="0" style="stop-color:#3EA8F2"/>
		<stop  offset="1" style="stop-color:#22E0E7"/>
	</linearGradient>
	<path fill="url(#SVGID_17_)" d="M23.502,58.62v29.65c0,16.161,56.553,29.264,126.313,29.264
		c69.761,0,126.313-13.103,126.313-29.264V58.62H23.502z"/>
	<ellipse fill="#00BBED" cx="149.815" cy="58.62" rx="126.313" ry="29.264"/>
	
		<linearGradient id="SVGID_18_" gradientUnits="userSpaceOnUse" x1="236.7531" y1="31.8765" x2="236.7531" y2="12.7134" gradientTransform="matrix(1 0 0 -1 -192.615 111.92)">
		<stop  offset="0.3817" style="stop-color:#0FA0F2"/>
		<stop  offset="1" style="stop-color:#22E0E7"/>
	</linearGradient>
	<path fill="url(#SVGID_18_)" d="M42.04,97.732c1.331,0.502,2.741,0.992,4.197,1.475V81.519c-1.456-0.482-2.866-0.974-4.197-1.475
		V97.732z"/>
	<path fill="#008EE5" d="M42.656,97.237V80.269c-0.204-0.076-0.417-0.15-0.616-0.225v17.688c1.331,0.502,2.741,0.992,4.197,1.475
		v-0.705C45.003,98.086,43.797,97.666,42.656,97.237z"/>
	
		<linearGradient id="SVGID_19_" gradientUnits="userSpaceOnUse" x1="251.076" y1="27.4545" x2="251.076" y2="8.7475" gradientTransform="matrix(1 0 0 -1 -192.615 111.92)">
		<stop  offset="0.3817" style="stop-color:#0FA0F2"/>
		<stop  offset="1" style="stop-color:#22E0E7"/>
	</linearGradient>
	<path fill="url(#SVGID_19_)" d="M56.363,102.153c1.364,0.348,2.764,0.688,4.197,1.02V85.485c-1.434-0.332-2.833-0.671-4.197-1.019
		V102.153z"/>
	
		<linearGradient id="SVGID_20_" gradientUnits="userSpaceOnUse" x1="243.914" y1="29.4545" x2="243.914" y2="10.5585" gradientTransform="matrix(1 0 0 -1 -192.615 111.92)">
		<stop  offset="0.3817" style="stop-color:#0FA0F2"/>
		<stop  offset="1" style="stop-color:#22E0E7"/>
	</linearGradient>
	<path fill="url(#SVGID_20_)" d="M49.2,100.154c1.354,0.41,2.758,0.813,4.199,1.208V83.674c-1.441-0.395-2.846-0.797-4.199-1.208
		V100.154z"/>
	<path fill="#008EE5" d="M49.819,99.659V82.691c-0.205-0.075-0.417-0.149-0.617-0.225v17.688c1.331,0.502,2.742,0.993,4.197,1.475
		v-0.705C52.166,100.508,50.959,100.088,49.819,99.659z"/>
	<path fill="#008EE5" d="M56.979,101.659V84.69c-0.204-0.075-0.417-0.149-0.616-0.224v17.687c1.331,0.503,2.742,0.993,4.197,1.475
		v-0.704C59.326,102.508,58.12,102.088,56.979,101.659z"/>
	
		<linearGradient id="SVGID_21_" gradientUnits="userSpaceOnUse" x1="236.7531" y1="-16.7465" x2="236.7531" y2="-35.9086" gradientTransform="matrix(1 0 0 -1 -192.615 111.92)">
		<stop  offset="0.2312" style="stop-color:#333333"/>
		<stop  offset="1" style="stop-color:#A3A3A3"/>
	</linearGradient>
	<path fill="url(#SVGID_21_)" d="M42.04,146.355c1.331,0.502,2.741,0.992,4.197,1.474v-17.687c-1.456-0.482-2.866-0.974-4.197-1.475
		V146.355z"/>
	<path fill="#2D2D2D" d="M42.656,145.86v-16.969c-0.204-0.075-0.417-0.149-0.616-0.224v17.688c1.331,0.502,2.741,0.992,4.197,1.474
		v-0.704C45.003,146.709,43.797,146.289,42.656,145.86z"/>
	
		<linearGradient id="SVGID_22_" gradientUnits="userSpaceOnUse" x1="251.076" y1="-21.1685" x2="251.076" y2="-39.8755" gradientTransform="matrix(1 0 0 -1 -192.615 111.92)">
		<stop  offset="0.2312" style="stop-color:#333333"/>
		<stop  offset="1" style="stop-color:#A3A3A3"/>
	</linearGradient>
	<path fill="url(#SVGID_22_)" d="M56.363,150.776c1.364,0.348,2.764,0.688,4.197,1.02v-17.688c-1.434-0.332-2.833-0.672-4.197-1.019
		V150.776z"/>
	
		<linearGradient id="SVGID_23_" gradientUnits="userSpaceOnUse" x1="243.914" y1="-19.1675" x2="243.914" y2="-38.0645" gradientTransform="matrix(1 0 0 -1 -192.615 111.92)">
		<stop  offset="0.2312" style="stop-color:#333333"/>
		<stop  offset="1" style="stop-color:#A3A3A3"/>
	</linearGradient>
	<path fill="url(#SVGID_23_)" d="M49.2,148.777c1.354,0.41,2.758,0.813,4.199,1.208v-17.688c-1.441-0.395-2.846-0.797-4.199-1.209
		V148.777z"/>
	<path fill="#2D2D2D" d="M49.819,148.282v-16.968c-0.205-0.076-0.417-0.149-0.617-0.226v17.688c1.331,0.502,2.742,0.993,4.197,1.475
		v-0.705C52.166,149.131,50.959,148.711,49.819,148.282z"/>
	<path fill="#2D2D2D" d="M56.979,150.282v-16.969c-0.204-0.075-0.417-0.149-0.616-0.224v17.687c1.331,0.503,2.742,0.993,4.197,1.475
		v-0.705C59.326,151.13,58.12,150.711,56.979,150.282z"/>
</g>
<g>
	<path fill="#FFFFFF" d="M163.51,64.053c6.406-1.515,10.929-5.135,10.929-9.351c0-5.577-7.912-10.113-17.635-10.113
		c-9.718,0-17.626,4.536-17.626,10.113c0,4.195,4.479,7.803,10.842,9.331c-4.998,1.425-8.437,4.379-8.437,7.791
		c0,0.463,0.649,0.84,1.464,0.84c0.806,0,1.464-0.377,1.464-0.84c0-3.866,5.482-7.011,12.221-7.011
		c6.739,0,12.224,3.145,12.224,7.011c0,0.463,0.652,0.84,1.461,0.84c0.812,0,1.464-0.377,1.464-0.84
		C171.88,68.43,168.47,65.483,163.51,64.053z M142.106,54.702c0-4.652,6.599-8.434,14.697-8.434c8.107,0,14.704,3.781,14.704,8.434
		c0,4.648-6.597,8.432-14.704,8.432C148.705,63.134,142.106,59.351,142.106,54.702z"/>
	<path fill="#FFFFFF" d="M164.187,58.366c0.414-0.397,0.189-0.912-0.506-1.15c-0.694-0.237-1.591-0.107-2.009,0.292
		c-1.064,1.021-2.922,1.634-4.974,1.634c-2.046,0-3.9-0.612-4.971-1.634c-0.411-0.399-1.307-0.529-2.01-0.292
		c-0.695,0.238-0.921,0.753-0.503,1.15c1.6,1.539,4.396,2.456,7.483,2.456C159.787,60.822,162.588,59.905,164.187,58.366z"/>
</g>
<g>
	<path fill="#FFFFFF" d="M86.323,97.469v-1.857h15.428v1.857h-6.714v6.786h7.571v1.857h-7.571v5.786h-2v-5.786h-7.572v-1.857h7.572
		v-6.786H86.323z M89.966,103.397c-1-1.286-2.048-2.547-3.143-3.786l1.428-1.143c1.143,1.19,2.214,2.428,3.214,3.714L89.966,103.397
		z M97.823,103.469l-1.429-1.214c1.047-1.047,2.143-2.309,3.286-3.786l1.5,1.071C100.085,100.922,98.966,102.231,97.823,103.469z"/>
	<path fill="#FFFFFF" d="M119.395,103.182c-0.429-0.475-0.857-0.928-1.286-1.357c-5,0.096-8.572,0.191-10.714,0.286
		c-1,0.096-1.811,0.214-2.429,0.357l-0.929-1.929c0.667-0.238,1.31-0.618,1.929-1.143c1.809-1.523,3.404-3.095,4.786-4.714
		l2.143,0.929c-0.096,0.096-0.239,0.214-0.429,0.357c-2.096,1.953-3.762,3.428-5,4.428l9.071-0.286l-2.143-2.143l1.429-1.072
		c2,1.857,3.714,3.548,5.143,5.072L119.395,103.182z M105.752,111.897v-8h13.143v8h-2v-1.143h-9.214v1.143H105.752z M107.68,105.611
		v3.571h9.214v-3.571H107.68z"/>
	<path fill="#FFFFFF" d="M122.395,105.326c-0.048-0.333-0.143-0.809-0.286-1.429c-0.096-0.475-0.167-0.857-0.214-1.143
		c1.475-2.381,2.643-5.023,3.5-7.929l1.857,0.5c-0.429,1.333-0.882,2.571-1.357,3.714v12.786h-1.857v-9.071
		C123.513,103.611,122.966,104.469,122.395,105.326z M138.466,102.54c-2.429-1.429-4.239-3.143-5.429-5.143
		c-1.143,1.857-2.977,3.62-5.5,5.286c-0.143-0.237-0.357-0.595-0.643-1.071c-0.143-0.333-0.262-0.571-0.357-0.714
		c2.761-1.618,4.666-3.643,5.714-6.071l2.214,0.214c-0.096,0.096-0.191,0.239-0.286,0.429c-0.048,0.143-0.096,0.239-0.143,0.286
		c1.381,2.143,3.143,3.786,5.286,4.928C138.989,101.302,138.704,101.922,138.466,102.54z M128.395,111.969
		c-0.477-0.429-1-0.882-1.572-1.357c1.857-1.286,2.714-3.404,2.572-6.357v-2.214h1.928v2.286
		C131.466,107.707,130.489,110.254,128.395,111.969z M134.395,111.611v-9.571h2v9.571H134.395z"/>
	<path fill="#FFFFFF" d="M142.037,111.826v-9c-0.429,0.762-0.905,1.548-1.429,2.357c-0.048-0.237-0.143-0.595-0.286-1.071
		c-0.096-0.618-0.191-1.047-0.286-1.286c1.523-2.476,2.667-5.143,3.429-8l1.857,0.429c-0.428,1.428-0.928,2.786-1.5,4.071v12.5
		H142.037z M145.395,97.826v-1.5h4.786v-1.5h1.857v1.5h5.143v1.5h-5.143v1.429h4.143v10.571h1.357v1.5H144.68v-1.5h1.428V99.254
		h4.072v-1.429H145.395z M147.895,100.682v1.357h6.5v-1.357H147.895z M147.895,103.326v1.357h6.5v-1.357H147.895z M147.895,105.969
		v1.357h6.5v-1.357H147.895z M147.895,108.611v1.214h6.5v-1.214H147.895z"/>
	<path fill="#FFFFFF" d="M167.681,101.04l-0.143-0.071c0,1.239-0.048,2.524-0.143,3.857c-0.048,1.477-0.786,2.239-2.214,2.286
		l-2,0.071c-0.048-0.237-0.143-0.666-0.286-1.286c-0.048-0.189-0.071-0.333-0.071-0.428c0.667,0.048,1.238,0.071,1.714,0.071
		c0.714,0.048,1.118-0.333,1.214-1.143c0-0.143,0-0.38,0-0.714c0.047-0.523,0.071-0.904,0.071-1.143h-3.929v6.071
		c-0.048,0.811,0.357,1.214,1.214,1.214h2.286c0.81,0,1.286-0.309,1.429-0.929c0-0.095,0.023-0.238,0.071-0.428
		c0.047-0.143,0.119-0.572,0.214-1.286c0.095,0.048,0.261,0.096,0.5,0.143c0.286,0.143,0.714,0.286,1.286,0.429
		c-0.048,0.381-0.167,0.905-0.357,1.571c-0.048,0.239-0.096,0.405-0.143,0.5c-0.286,1.095-1.19,1.618-2.714,1.571h-3
		c-1.763,0.047-2.62-0.786-2.572-2.5v-7.357c-0.048,0.048-0.143,0.119-0.286,0.214c-0.096,0.096-0.31,0.262-0.643,0.5
		c-0.239-0.619-0.5-1.19-0.786-1.714c2.19-1.523,3.833-3.452,4.929-5.786l1.929,0.143c-0.048,0.096-0.096,0.214-0.143,0.357
		c-0.096,0.191-0.167,0.333-0.214,0.428c0.81,0.714,1.857,1.739,3.143,3.072c0.429,0.428,0.738,0.739,0.929,0.928L167.681,101.04z
		 M164.038,97.111c-0.857,1.382-1.929,2.643-3.214,3.786h6.714c-0.382-0.475-0.953-1.118-1.714-1.928
		C165.061,98.159,164.466,97.54,164.038,97.111z M169.395,107.54V96.754h1.786v10.786H169.395z M170.181,111.611
		c-0.096-0.571-0.214-1.167-0.357-1.786c0.761,0,1.5,0,2.214,0c0.809,0,1.19-0.38,1.143-1.143V94.826h1.857v14.357
		c0.095,1.572-0.667,2.381-2.286,2.429C171.895,111.611,171.038,111.611,170.181,111.611z"/>
	<path fill="#FFFFFF" d="M177.609,111.682l-0.857-1.857l2.071-1.857v-5.357h-1.929v-1.786h3.786v6.929
		c0.904,1.381,2.261,2.048,4.072,2c2.857,0.048,6,0.048,9.428,0c-0.239,0.428-0.428,0.975-0.571,1.643c-2.667,0-4.619,0-5.857,0
		c-1.429,0-2.596-0.024-3.5-0.071c-1.905,0-3.382-0.643-4.429-1.929C178.87,110.206,178.132,110.969,177.609,111.682z
		 M179.68,99.254c-0.524-0.952-1.239-2.072-2.143-3.357l1.571-0.928c0.238,0.333,0.571,0.786,1,1.357c0.571,0.857,1,1.5,1.286,1.929
		L179.68,99.254z M183.68,100.04c-0.714-0.286-1.286-0.5-1.714-0.643c0.857-1.143,1.5-2.475,1.928-4l1.786,0.214
		c-0.19,0.477-0.357,0.953-0.5,1.429h2.072v-2.214h1.928v2.214h4v1.5h-4v1.857h4.786v1.572h-12.143v-1.572h5.429V98.54h-2.714
		c-0.048,0.096-0.143,0.262-0.286,0.5C184.061,99.469,183.87,99.802,183.68,100.04z M183.038,108.397v-5.071h9.643v5.071H183.038z
		 M184.895,104.826v2.071h5.929v-2.071H184.895z"/>
	<path fill="#FFFFFF" d="M196.823,98.254v-1.572h4.571v-1.857h1.929v1.857h4v1.572h-4v1.857h2.071
		c1.714-1.238,3.261-2.666,4.643-4.286l1.571,1.071c-1.477,1.525-2.643,2.596-3.5,3.214h4.214v1.643h-6.357
		c-0.81,0.571-1.714,1.143-2.714,1.714h6.786v8.428h-1.857v-0.857h-8.143v0.857h-1.929v-5.928c-0.81,0.333-1.643,0.69-2.5,1.071
		c-0.048-0.19-0.143-0.523-0.286-1c-0.143-0.429-0.262-0.738-0.357-0.929c3-0.904,5.643-2.023,7.929-3.357h-7.643v-1.643h6.143
		v-1.857H196.823z M208.18,104.969h-7.857l-0.286,0.143v1.5h8.143V104.969z M200.038,107.969v1.643h8.143v-1.643H200.038z"/>
</g>
<g>
	<path fill="#FFFFFF" d="M86.323,144.133v-1.857h15.428v1.857h-6.714v6.786h7.571v1.857h-7.571v5.786h-2v-5.786h-7.572v-1.857h7.572
		v-6.786H86.323z M89.966,150.061c-1-1.286-2.048-2.547-3.143-3.786l1.428-1.143c1.143,1.19,2.214,2.428,3.214,3.714L89.966,150.061
		z M97.823,150.133l-1.429-1.214c1.047-1.047,2.143-2.309,3.286-3.786l1.5,1.071C100.085,147.586,98.966,148.895,97.823,150.133z"/>
	<path fill="#FFFFFF" d="M119.395,149.847c-0.429-0.475-0.857-0.928-1.286-1.357c-5,0.096-8.572,0.191-10.714,0.286
		c-1,0.096-1.811,0.214-2.429,0.357l-0.929-1.929c0.667-0.238,1.31-0.618,1.929-1.143c1.809-1.523,3.404-3.095,4.786-4.714
		l2.143,0.929c-0.096,0.096-0.239,0.214-0.429,0.357c-2.096,1.953-3.762,3.428-5,4.428l9.071-0.286l-2.143-2.143l1.429-1.072
		c2,1.857,3.714,3.548,5.143,5.072L119.395,149.847z M105.752,158.561v-8h13.143v8h-2v-1.143h-9.214v1.143H105.752z M107.68,152.275
		v3.571h9.214v-3.571H107.68z"/>
	<path fill="#FFFFFF" d="M122.395,151.99c-0.048-0.333-0.143-0.809-0.286-1.429c-0.096-0.475-0.167-0.857-0.214-1.143
		c1.475-2.381,2.643-5.023,3.5-7.929l1.857,0.5c-0.429,1.333-0.882,2.571-1.357,3.714v12.786h-1.857v-9.071
		C123.513,150.275,122.966,151.133,122.395,151.99z M138.466,149.204c-2.429-1.429-4.239-3.143-5.429-5.143
		c-1.143,1.857-2.977,3.62-5.5,5.286c-0.143-0.237-0.357-0.595-0.643-1.071c-0.143-0.333-0.262-0.571-0.357-0.714
		c2.761-1.618,4.666-3.643,5.714-6.071l2.214,0.214c-0.096,0.096-0.191,0.239-0.286,0.429c-0.048,0.143-0.096,0.239-0.143,0.286
		c1.381,2.143,3.143,3.786,5.286,4.928C138.989,147.966,138.704,148.586,138.466,149.204z M128.395,158.633
		c-0.477-0.429-1-0.882-1.572-1.357c1.857-1.286,2.714-3.404,2.572-6.357v-2.214h1.928v2.286
		C131.466,154.371,130.489,156.918,128.395,158.633z M134.395,158.275v-9.571h2v9.571H134.395z"/>
	<path fill="#FFFFFF" d="M142.037,158.49v-9c-0.429,0.762-0.905,1.548-1.429,2.357c-0.048-0.237-0.143-0.595-0.286-1.071
		c-0.096-0.618-0.191-1.047-0.286-1.286c1.523-2.476,2.667-5.143,3.429-8l1.857,0.429c-0.428,1.428-0.928,2.786-1.5,4.071v12.5
		H142.037z M145.395,144.49v-1.5h4.786v-1.5h1.857v1.5h5.143v1.5h-5.143v1.429h4.143v10.571h1.357v1.5H144.68v-1.5h1.428v-10.571
		h4.072v-1.429H145.395z M147.895,147.347v1.357h6.5v-1.357H147.895z M147.895,149.99v1.357h6.5v-1.357H147.895z M147.895,152.633
		v1.357h6.5v-1.357H147.895z M147.895,155.275v1.214h6.5v-1.214H147.895z"/>
	<path fill="#FFFFFF" d="M160.395,158.49v-8.857c-0.428,0.81-0.928,1.571-1.5,2.286c-0.048-0.381-0.143-0.881-0.286-1.5
		c-0.048-0.429-0.096-0.761-0.143-1c1.475-2.476,2.571-5.119,3.286-7.929l1.857,0.429c-0.381,1.428-0.857,2.81-1.428,4.143v12.429
		H160.395z M174.895,158.347c-3.143-0.333-5.428-0.905-6.857-1.714c-1,0.714-2.382,1.38-4.143,2c-0.096-0.096-0.262-0.311-0.5-0.643
		c-0.286-0.429-0.524-0.762-0.714-1c1.618-0.382,2.857-0.809,3.714-1.286c-0.762-0.618-1.453-1.381-2.071-2.286l1.286-0.929
		c0.619,0.81,1.309,1.5,2.072,2.071c0.428-0.618,0.689-1.428,0.786-2.428h-4.429v-5.429h4.571v-1.571h-5v-1.643h5v-2h1.929v2h5.143
		v1.643h-5.214v1.571h4.571v5.786h-1.857v-0.357h-2.857c-0.143,1.477-0.5,2.596-1.071,3.357c1.333,0.62,3.476,0.977,6.429,1.071
		C175.395,157.18,175.132,157.775,174.895,158.347z M168.538,150.561c0-0.047,0-0.118,0-0.214c0.047-0.095,0.071-0.189,0.071-0.286
		v-1.857h-2.714v2.357H168.538z M170.466,150.133c0,0.143,0,0.286,0,0.428h2.714v-2.357h-2.714V150.133z"/>
	<path fill="#FFFFFF" d="M178.538,158.633c-0.191-0.096-0.477-0.263-0.857-0.5c-0.428-0.239-0.739-0.429-0.928-0.572
		c0.714-1.095,1.189-2.166,1.428-3.214c0.238-1.047,0.357-2.618,0.357-4.714v-7.286h14.571v13.643
		c0.095,1.571-0.691,2.333-2.357,2.286c-0.62,0.047-1.382,0.071-2.286,0.071c-0.048-0.143-0.096-0.357-0.143-0.643
		c-0.096-0.524-0.191-0.929-0.286-1.214c0.238,0,0.571,0.023,1,0.071c0.429,0,0.738,0,0.929,0c0.857,0.047,1.261-0.261,1.214-0.928
		v-2.357h-4.5v4.857h-1.928v-4.857h-4.357C180.299,154.99,179.68,156.775,178.538,158.633z M180.538,149.633
		c0,0.239-0.024,0.596-0.071,1.071c0,0.382,0,0.667,0,0.857h4.286v-2.857h-4.214V149.633z M180.538,144.133v2.857h4.214v-2.857
		H180.538z M191.18,144.133h-4.5v2.857h4.5V144.133z M186.68,148.704v2.857h4.5v-2.857H186.68z"/>
	<path fill="#FFFFFF" d="M196.823,144.918v-1.572h4.571v-1.857h1.929v1.857h4v1.572h-4v1.857h2.071
		c1.714-1.238,3.261-2.666,4.643-4.286l1.571,1.071c-1.477,1.525-2.643,2.596-3.5,3.214h4.214v1.643h-6.357
		c-0.81,0.571-1.714,1.143-2.714,1.714h6.786v8.428h-1.857v-0.857h-8.143v0.857h-1.929v-5.928c-0.81,0.333-1.643,0.69-2.5,1.071
		c-0.048-0.19-0.143-0.523-0.286-1c-0.143-0.429-0.262-0.738-0.357-0.929c3-0.904,5.643-2.023,7.929-3.357h-7.643v-1.643h6.143
		v-1.857H196.823z M208.18,151.633h-7.857l-0.286,0.143v1.5h8.143V151.633z M200.038,154.633v1.643h8.143v-1.643H200.038z"/>
</g>
<g>
	<path fill="#FFFFFF" d="M105.323,201.085c-0.477-0.333-1.072-0.689-1.786-1.071c1.428-1.809,2.547-3.976,3.357-6.5l2,0.357
		c-0.286,0.857-0.596,1.643-0.929,2.357h3.572v-3.571h2v3.571h6.214v1.857h-6.214v3.5h5.643v1.857h-5.643v3.857h7.143v1.643h-16.929
		v-1.643h7.786v-3.857h-6.143v-1.857h6.143v-3.5h-4.429C106.68,199.038,106.085,200.038,105.323,201.085z"/>
	<path fill="#FFFFFF" d="M129.966,202.585c-0.239-0.189-0.619-0.523-1.143-1c-0.525-0.428-0.905-0.737-1.143-0.928
		c-1.191,0.81-2.833,1.571-4.929,2.286c-0.096-0.19-0.262-0.5-0.5-0.929c-0.239-0.38-0.428-0.666-0.571-0.857
		c4.047-1.095,6.404-2.595,7.071-4.5h-6.5v-1.714h7c0.047-0.618,0.072-1.381,0.072-2.286h2c0,0.905-0.025,1.667-0.072,2.286h7.143
		v1.714h-6.571c1.286,2.191,3.666,3.596,7.143,4.214c-0.382,0.619-0.691,1.239-0.929,1.857c-4-1-6.571-2.761-7.714-5.286
		c-0.334,0.762-0.811,1.477-1.429,2.143c0.189,0.143,0.452,0.334,0.786,0.572c0.761,0.524,1.286,0.905,1.571,1.143L129.966,202.585z
		 M123.395,208.514c-0.048-0.048-0.143-0.096-0.286-0.143c-0.667-0.286-1.143-0.453-1.429-0.5c0.714-1.429,1.261-2.857,1.643-4.286
		l1.786,0.572c-0.096,0.191-0.191,0.5-0.286,0.928C124.252,206.657,123.775,207.799,123.395,208.514z M128.395,209.299
		c-1.62,0.047-2.405-0.762-2.357-2.428v-3.429h1.857v3.071c-0.048,0.811,0.404,1.214,1.357,1.214h2.5
		c0.904,0,1.429-0.357,1.572-1.071c0.095-0.523,0.166-1.023,0.214-1.5c0.095,0.048,0.214,0.096,0.357,0.143
		c0.38,0.143,0.88,0.286,1.5,0.429c-0.143,0.857-0.311,1.524-0.5,2c-0.239,1.095-1.12,1.618-2.643,1.571H128.395z M131.037,206.157
		c-0.714-0.904-1.381-1.714-2-2.429l1.357-1.071c0.714,0.762,1.429,1.548,2.143,2.357L131.037,206.157z M137.251,208.085
		c-0.714-1.237-1.524-2.547-2.428-3.928l1.643-0.786c0.857,1.286,1.69,2.619,2.5,4L137.251,208.085z"/>
	<path fill="#FFFFFF" d="M145.466,198.085v-1.428h4.214v-1.286h-3.429v-1.357h3.429v-1.357h1.786v1.357h4.286v2.643h1.429v1.428
		h-1.429v2.643h-4.286v1.214h4.571v1.429h-4.571v1.214h5.071v1.429h-5.071v1.643c2.904,0,4.833-0.023,5.786-0.072
		c-0.239,0.429-0.405,0.976-0.5,1.643c-0.667,0-1.762,0-3.286,0c-1.857-0.048-3.262-0.071-4.214-0.071
		c-2.905-0.096-4.953-0.667-6.143-1.714c-0.62,0.761-1.382,1.523-2.286,2.286c-0.048-0.048-0.119-0.167-0.214-0.357
		c-0.382-0.667-0.62-1.072-0.714-1.214c0.761-0.619,1.428-1.309,2-2.072c-0.714-1.047-1.334-2.286-1.857-3.714l1.357-0.714
		c0.428,1.191,0.88,2.143,1.357,2.857c0.429-1.047,0.714-2.286,0.857-3.714h-3.286v-1.714l3-3.571h-3.071v-1.643h5.143v1.714
		l-3.072,3.643h3v0.714c-0.19,2.714-0.643,4.739-1.357,6.071c1.047,1.096,2.833,1.62,5.357,1.571c0.047,0,0.119,0,0.214,0
		c0.047,0.048,0.095,0.072,0.143,0.072v-1.643h-4.214v-1.429h4.214v-1.214h-3.643v-1.429h3.643v-1.214h-3.5v-1.357h3.5v-1.286
		H145.466z M154.037,195.371h-2.571v1.286h2.571V195.371z M151.466,198.085v1.286h2.571v-1.286H151.466z"/>
	<path fill="#FFFFFF" d="M160.751,208.799l-1.214-1.286c0.333-0.476,0.5-1,0.5-1.571v-5.714h-1.786v-1.786h3.643v6.786
		c0.571-0.571,1.143-1.167,1.714-1.786c0.238,0.714,0.452,1.31,0.643,1.786c-0.239,0.239-0.62,0.62-1.143,1.143
		c-0.619,0.571-1.096,1.024-1.428,1.357C161.346,208.108,161.037,208.466,160.751,208.799z M161.68,197.014
		c-0.096-0.095-0.239-0.261-0.429-0.5c-0.524-0.666-1.191-1.547-2-2.643l1.571-1c0.952,1,1.809,2.024,2.572,3.071L161.68,197.014z
		 M163.466,209.799c-0.096-0.143-0.262-0.428-0.5-0.857c-0.239-0.382-0.405-0.667-0.5-0.857c2.047-0.475,3.738-1.071,5.071-1.786
		c-1.096-1-2.096-2.357-3-4.071l0.643-0.357h-1.214v-1.714h10.214v1.857c-0.953,1.714-2.096,3.167-3.429,4.357
		c1.238,0.667,2.809,1.167,4.714,1.5c-0.382,0.666-0.691,1.261-0.929,1.786c-2.429-0.762-4.239-1.477-5.429-2.143
		C167.632,208.418,165.751,209.18,163.466,209.799z M164.466,199.728c-0.191-0.286-0.62-0.761-1.286-1.429
		c1.666-0.714,2.428-1.786,2.286-3.214v-1.643h7.643v2.929c-0.048,0.667,0.261,0.977,0.929,0.928h1.571l-0.286,1.643h-2.071
		c-1.382,0-2.048-0.571-2-1.714v-2.071h-3.929v0.428C167.466,197.299,166.513,198.681,164.466,199.728z M166.395,201.871
		c0.761,1.381,1.666,2.524,2.714,3.428c1.19-0.857,2.19-2,3-3.428H166.395z"/>
	<path fill="#FFFFFF" d="M178.252,196.157v-1.572h4.571v-1.857h1.929v1.857h4v1.572h-4v1.857h2.071
		c1.714-1.238,3.261-2.666,4.643-4.286l1.571,1.071c-1.477,1.525-2.643,2.596-3.5,3.214h4.214v1.643h-6.357
		c-0.81,0.571-1.714,1.143-2.714,1.714h6.786v8.428h-1.857v-0.857h-8.143v0.857h-1.929v-5.928c-0.81,0.333-1.643,0.69-2.5,1.071
		c-0.048-0.19-0.143-0.523-0.286-1c-0.143-0.429-0.262-0.738-0.357-0.929c3-0.904,5.643-2.023,7.929-3.357h-7.643v-1.643h6.143
		v-1.857H178.252z M189.609,202.871h-7.857l-0.286,0.143v1.5h8.143V202.871z M181.466,205.871v1.643h8.143v-1.643H181.466z"/>
</g>
<g>
	<path fill="#FFFFFF" d="M121.609,295.657v-1.714h2v-3.143h1.714v3.143h1.928v1.714h-1.928v3.143l1.786-0.357
		c-0.048,0.714-0.048,1.31,0,1.786l-1.786,0.429v4.857c0.047,1.381-0.548,2.071-1.786,2.071c-0.429,0.047-1,0.072-1.714,0.072
		c-0.048-0.382-0.12-0.882-0.214-1.5c-0.048-0.191-0.071-0.311-0.071-0.357c0.143,0,0.547,0,1.214,0
		c0.619,0.047,0.904-0.214,0.857-0.786v-3.857l-2.143,0.571l-0.143-2c0.189-0.047,0.475-0.118,0.857-0.214
		c0.618-0.143,1.095-0.238,1.429-0.286v-3.571H121.609z M137.751,307.657c-2.048-0.572-3.786-1.262-5.214-2.072
		c-1.382,0.81-3.143,1.547-5.286,2.214c-0.096-0.191-0.239-0.477-0.428-0.857c-0.239-0.382-0.405-0.667-0.5-0.857
		c1.904-0.38,3.5-0.952,4.786-1.714c-1.191-1.19-2.096-2.5-2.714-3.929l0.786-0.429h-1.214v-1.714h9.357v1.786
		c-0.762,1.62-1.834,3.048-3.214,4.286c1.286,0.762,2.833,1.286,4.643,1.571c-0.19,0.286-0.477,0.761-0.857,1.429
		C137.847,307.513,137.798,307.608,137.751,307.657z M128.18,297.871c-0.429-0.572-0.81-1.072-1.143-1.5
		c1.618-0.714,2.357-1.904,2.214-3.572v-1.357h7v3c-0.048,0.714,0.261,1.048,0.929,1h1.5c-0.096,0.333-0.191,0.81-0.286,1.429
		c0,0.096,0,0.167,0,0.214h-1.929c-1.428,0.048-2.119-0.595-2.071-1.928v-2.072h-3.357v0.5
		C131.132,295.395,130.18,296.824,128.18,297.871z M135.251,300.013h-5.143c0.666,1.334,1.5,2.429,2.5,3.286
		C133.798,302.395,134.68,301.299,135.251,300.013z"/>
	<path fill="#FFFFFF" d="M140.823,299.085l-1.143-1.428c1.429-0.952,2.786-1.929,4.071-2.929c0,0.048,0.047,0.096,0.143,0.143
		c0.143,0.19,0.452,0.596,0.929,1.214C142.966,297.419,141.632,298.419,140.823,299.085z M140.751,307.728
		c-0.048-0.048-0.096-0.143-0.143-0.286c-0.286-0.667-0.5-1.143-0.643-1.429c4.667-0.333,7.095-1.333,7.286-3
		c0.095-0.38,0.143-0.88,0.143-1.5h1.929c0,0.62-0.072,1.191-0.214,1.714c0,0.143-0.048,0.31-0.143,0.5
		c1,0.286,2.452,0.739,4.357,1.357c1.428,0.429,2.5,0.761,3.214,1l-0.857,1.643c-3.096-1.191-5.596-2.071-7.5-2.643
		C147.18,306.275,144.704,307.157,140.751,307.728z M142.966,294.299c-0.239-0.189-0.596-0.5-1.071-0.928
		c-0.714-0.619-1.239-1.047-1.571-1.286l1.214-1.214c0.238,0.19,0.572,0.453,1,0.786c0.857,0.571,1.429,1,1.714,1.286
		L142.966,294.299z M142.037,304.442v-5.286h12.643v5.214h-1.929v-3.643h-8.857v3.714H142.037z M145.466,298.942
		c-0.143-0.238-0.453-0.738-0.929-1.5c2.857-0.618,4.547-1.667,5.072-3.143c0-0.047,0.023-0.095,0.071-0.143
		c0.047-0.19,0.071-0.404,0.071-0.643h-2.071c-0.429,0.714-1,1.453-1.714,2.214c-0.429-0.38-0.905-0.738-1.429-1.071
		c1.238-1.19,2.143-2.547,2.714-4.072l1.786,0.214c-0.143,0.429-0.31,0.834-0.5,1.214h7.786v1.5l-1,2.071
		c-0.239-0.095-0.572-0.214-1-0.357c-0.334-0.095-0.596-0.167-0.786-0.214l0.857-1.5h-2.786c0,0.048-0.025,0.12-0.072,0.214
		c0,0.143-0.024,0.239-0.071,0.286c0.618,1.714,2.452,2.834,5.5,3.357l-0.857,1.643c-2.857-0.666-4.643-1.714-5.357-3.143
		C150.037,297.157,148.275,298.181,145.466,298.942z"/>
	<path fill="#FFFFFF" d="M159.68,294.157v-1.572h4.571v-1.857h1.929v1.857h4v1.572h-4v1.857h2.071
		c1.714-1.238,3.261-2.666,4.643-4.286l1.571,1.071c-1.477,1.525-2.643,2.596-3.5,3.214h4.214v1.643h-6.357
		c-0.81,0.571-1.714,1.143-2.714,1.714h6.786v8.428h-1.857v-0.857h-8.143v0.857h-1.929v-5.928c-0.81,0.333-1.643,0.69-2.5,1.071
		c-0.048-0.19-0.143-0.523-0.286-1c-0.143-0.429-0.262-0.738-0.357-0.929c3-0.904,5.643-2.023,7.929-3.357h-7.643v-1.643h6.143
		v-1.857H159.68z M171.037,300.871h-7.857l-0.286,0.143v1.5h8.143V300.871z M162.895,303.871v1.643h8.143v-1.643H162.895z"/>
</g>
<g>
	<path fill="#FFFFFF" d="M85.345,250.791h-1.337v-3.803h-4.555v3.803h-1.296v-8.567h1.296v3.636h4.555v-3.636h1.337V250.791z"/>
	<path fill="#FFFFFF" d="M92.616,250.749h-1.254v-1.044c-0.446,0.78-1.128,1.184-2.047,1.212c-1.533,0-2.298-0.808-2.298-2.424
		v-3.887h1.253v3.761c0,1.086,0.487,1.63,1.463,1.63c1.003-0.083,1.546-0.683,1.629-1.797v-3.594h1.254V250.749z"/>
	<path fill="#FFFFFF" d="M95.458,249.788v0.961h-1.295v-8.817h1.295v3.719c0.445-0.808,1.142-1.212,2.089-1.212
		c1.615,0.083,2.451,1.156,2.507,3.218c-0.028,2.146-0.877,3.231-2.549,3.26C96.558,250.917,95.876,250.541,95.458,249.788z
		 M95.416,247.281v0.752c0.056,1.254,0.612,1.909,1.672,1.964c1.142,0,1.713-0.78,1.713-2.34c-0.056-1.421-0.627-2.159-1.713-2.215
		C96.057,245.582,95.5,246.195,95.416,247.281z"/>
	<path fill="#FFFFFF" d="M104.067,248.201l1.337-0.292c0.195,1.365,0.989,2.047,2.382,2.047c1.226-0.027,1.866-0.515,1.922-1.462
		c0.083-0.641-0.488-1.128-1.713-1.463c-0.112-0.055-0.349-0.125-0.71-0.209c-0.112-0.027-0.195-0.042-0.251-0.042
		c-1.867-0.39-2.744-1.184-2.633-2.382c0.111-1.448,1.128-2.215,3.051-2.298c1.95-0.027,3.092,0.752,3.427,2.34l-1.295,0.292
		c-0.195-1.03-0.877-1.546-2.048-1.546c-1.086,0.028-1.671,0.433-1.755,1.212c-0.084,0.642,0.585,1.101,2.006,1.379
		c0.557,0.14,0.975,0.25,1.253,0.334c1.421,0.446,2.117,1.227,2.09,2.34c-0.056,1.588-1.157,2.41-3.302,2.466
		C105.682,250.972,104.428,250.067,104.067,248.201z"/>
	<path fill="#FFFFFF" d="M117.064,248.869l1.337,0.209c-0.446,1.226-1.463,1.839-3.051,1.839c-2.062-0.083-3.134-1.128-3.218-3.134
		c0.083-2.145,1.114-3.26,3.092-3.343c2.062,0.028,3.106,1.143,3.134,3.343c0,0.14,0,0.25,0,0.334h-4.931
		c0.056,1.198,0.696,1.838,1.922,1.922C116.27,250.012,116.84,249.621,117.064,248.869z M113.428,247.239h3.678
		c-0.056-1.197-0.655-1.824-1.797-1.88C114.138,245.415,113.511,246.042,113.428,247.239z"/>
	<path fill="#FFFFFF" d="M124.168,248.869l1.337,0.209c-0.446,1.226-1.463,1.839-3.051,1.839c-2.062-0.083-3.134-1.128-3.218-3.134
		c0.083-2.145,1.114-3.26,3.092-3.343c2.062,0.028,3.106,1.143,3.134,3.343c0,0.14,0,0.25,0,0.334h-4.931
		c0.056,1.198,0.696,1.838,1.922,1.922C123.374,250.012,123.944,249.621,124.168,248.869z M120.532,247.239h3.678
		c-0.056-1.197-0.655-1.824-1.797-1.88C121.242,245.415,120.615,246.042,120.532,247.239z"/>
	<path fill="#FFFFFF" d="M130.938,241.932h1.295v8.817h-1.295v-0.961c-0.362,0.752-1.059,1.128-2.089,1.128
		c-1.644-0.112-2.494-1.142-2.549-3.093c0.027-2.229,0.933-3.356,2.716-3.385c0.947,0.056,1.588,0.459,1.922,1.212V241.932z
		 M130.98,247.866v-0.627c-0.112-1.058-0.669-1.657-1.672-1.797c-1.114,0.056-1.686,0.822-1.713,2.298
		c0.028,1.477,0.599,2.229,1.713,2.257C130.395,249.97,130.951,249.26,130.98,247.866z"/>
	<path fill="#FFFFFF" d="M144.143,250.791h-1.337v-3.803h-4.555v3.803h-1.296v-8.567h1.296v3.636h4.555v-3.636h1.337V250.791z"/>
	<path fill="#FFFFFF" d="M148.656,244.481c1.95,0.083,2.967,1.17,3.051,3.259c-0.056,2.062-1.101,3.12-3.134,3.176
		c-1.95-0.112-2.981-1.156-3.092-3.134C145.564,245.665,146.623,244.565,148.656,244.481z M148.615,249.997
		c1.17-0.027,1.769-0.78,1.797-2.257c-0.056-1.421-0.655-2.173-1.797-2.256c-1.198,0.028-1.812,0.78-1.839,2.256
		C146.803,249.19,147.417,249.942,148.615,249.997z"/>
	<path fill="#FFFFFF" d="M152.877,250.749v-8.817h1.295v8.817H152.877z"/>
	<path fill="#FFFFFF" d="M159.939,241.932h1.295v8.817h-1.295v-0.961c-0.362,0.752-1.059,1.128-2.089,1.128
		c-1.644-0.112-2.494-1.142-2.549-3.093c0.027-2.229,0.933-3.356,2.716-3.385c0.947,0.056,1.588,0.459,1.922,1.212V241.932z
		 M159.981,247.866v-0.627c-0.112-1.058-0.669-1.657-1.672-1.797c-1.114,0.056-1.686,0.822-1.713,2.298
		c0.028,1.477,0.599,2.229,1.713,2.257C159.397,249.97,159.953,249.26,159.981,247.866z"/>
	<path fill="#FFFFFF" d="M162.782,243.436v-1.295h1.295v1.295H162.782z M162.782,250.749v-6.143h1.295v6.143H162.782z"/>
	<path fill="#FFFFFF" d="M171.223,250.791h-1.254v-3.678c0-1.114-0.474-1.657-1.421-1.629c-0.976,0.056-1.532,0.626-1.671,1.713
		v3.594h-1.254v-6.185h1.254v1.087c0.501-0.78,1.212-1.198,2.131-1.254c1.504-0.027,2.242,0.809,2.215,2.507V250.791z"/>
	<path fill="#FFFFFF" d="M177.115,244.606h1.254v5.308c0.111,2.229-0.934,3.287-3.134,3.176c-1.477-0.028-2.354-0.585-2.633-1.671
		l1.212-0.083c0.278,0.501,0.794,0.766,1.546,0.794c1.17,0,1.755-0.613,1.755-1.839v-0.794c-0.362,0.697-1.073,1.045-2.131,1.045
		c-1.7-0.056-2.564-1.059-2.591-3.009c0.056-2.006,0.961-3.036,2.716-3.092c0.947,0.028,1.616,0.376,2.006,1.045V244.606z
		 M177.115,247.699v-0.543c-0.056-1.086-0.599-1.657-1.629-1.713c-1.17,0.028-1.77,0.725-1.797,2.089
		c0.028,1.394,0.599,2.104,1.713,2.131C176.516,249.636,177.087,248.981,177.115,247.699z"/>
	<path fill="#FFFFFF" d="M188.858,250.791h-5.851v-8.567h1.295v7.564h4.555V250.791z"/>
	<path fill="#FFFFFF" d="M190.029,243.436v-1.295h1.295v1.295H190.029z M190.029,250.749v-6.143h1.295v6.143H190.029z"/>
	<path fill="#FFFFFF" d="M202.022,250.749h-1.295v-3.636c0.027-1.142-0.39-1.699-1.253-1.671c-0.892,0.056-1.366,0.627-1.421,1.713
		v3.594h-1.295v-3.677c0.027-1.114-0.391-1.657-1.254-1.63c-0.892,0.028-1.365,0.613-1.421,1.755v3.552h-1.253v-6.143h1.253v1.087
		c0.445-0.808,1.114-1.226,2.006-1.254c1.003,0,1.616,0.446,1.839,1.337c0.39-0.863,1.072-1.309,2.048-1.337
		c1.365,0,2.047,0.822,2.047,2.466V250.749z"/>
	<path fill="#FFFFFF" d="M203.527,243.436v-1.295h1.295v1.295H203.527z M203.527,250.749v-6.143h1.295v6.143H203.527z"/>
	<path fill="#FFFFFF" d="M207.956,242.308v2.298h1.379v0.961h-1.379v3.51c-0.028,0.641,0.223,0.947,0.752,0.919
		c0.223,0,0.418-0.042,0.585-0.125l0.209,0.71c-0.279,0.223-0.683,0.334-1.212,0.334c-1.086,0.027-1.616-0.516-1.588-1.63v-3.719
		H205.7v-0.961h1.003v-1.964L207.956,242.308z"/>
	<path fill="#FFFFFF" d="M214.935,248.869l1.337,0.209c-0.446,1.226-1.463,1.839-3.051,1.839c-2.062-0.083-3.134-1.128-3.218-3.134
		c0.083-2.145,1.114-3.26,3.092-3.343c2.062,0.028,3.106,1.143,3.134,3.343c0,0.14,0,0.25,0,0.334h-4.931
		c0.056,1.198,0.696,1.838,1.922,1.922C214.141,250.012,214.712,249.621,214.935,248.869z M211.299,247.239h3.678
		c-0.056-1.197-0.655-1.824-1.797-1.88C212.01,245.415,211.383,246.042,211.299,247.239z"/>
	<path fill="#FFFFFF" d="M221.705,241.932h1.295v8.817h-1.295v-0.961c-0.362,0.752-1.059,1.128-2.089,1.128
		c-1.644-0.112-2.494-1.142-2.549-3.093c0.027-2.229,0.933-3.356,2.716-3.385c0.947,0.056,1.588,0.459,1.922,1.212V241.932z
		 M221.747,247.866v-0.627c-0.112-1.058-0.669-1.657-1.672-1.797c-1.114,0.056-1.686,0.822-1.713,2.298
		c0.028,1.477,0.599,2.229,1.713,2.257C221.162,249.97,221.719,249.26,221.747,247.866z"/>
</g>
</svg>
