<?xml version="1.0" encoding="utf-8"?>
<!-- Generator: Adobe Illustrator 16.0.0, SVG Export Plug-In . SVG Version: 6.00 Build 0)  -->
<!DOCTYPE svg PUBLIC "-//W3C//DTD SVG 1.1//EN" "http://www.w3.org/Graphics/SVG/1.1/DTD/svg11.dtd">
<svg version="1.1" id="图层_1" xmlns="http://www.w3.org/2000/svg" xmlns:xlink="http://www.w3.org/1999/xlink" x="0px" y="0px"
	 width="94px" height="36px" viewBox="0 0 94 36" enable-background="new 0 0 94 36" xml:space="preserve">
<path fill="#9E1F24" d="M5.666,30.042c0,0,1.098,2.621,3.167,4.339c2.071,1.717,0.145,1.946-1.582,1.259
	c-1.727-0.687-3.133-3.933-3.133-3.933L5.666,30.042z"/>
<path fill="#E62230" d="M24.298,2.918c0,0,0.573-2.954-6.297-2.918C11.133,0.036-8.787,7.476,5.181,33.809
	c0,0-2.063-5.038,9.501-13.625C14.682,20.184,25.215,13.93,24.298,2.918 M7.405,19.015C2.53,24.906,4.2,31.518,4.2,31.518
	s-3.893-8.013,0-15.227c3.893-7.211,7.098-5.267,7.098-4.578C11.298,12.4,12.282,13.124,7.405,19.015"/>
<path fill="#3E3F3F" d="M46.044,32.414V10.028h5.254v22.386H46.044z M35.54,32.414V10.028h5.253v8.718h2.019v4.432h-2.019v9.236
	H35.54z"/>
<path fill="#3E3F3F" d="M64.177,33.021c-2.477,0-4.299-0.687-5.571-2.099c-1.282-1.423-1.932-3.548-1.932-6.316V10.028h5.253v14.561
	c0,2.918,1.811,3.233,2.59,3.233c0.762,0,2.537-0.315,2.537-3.233V10.028h5.254v14.811c0,2.535-0.721,4.49-2.201,5.976
	S66.687,33.021,64.177,33.021z"/>
<path fill="#3E3F3F" d="M86.116,32.414v-4.271h0.232c0.939,0,1.596-0.136,2.064-0.429c0.342-0.211,0.918-0.731,0.918-1.822
	c0-0.511-0.203-2.179-2.822-2.179h-0.393v-4.596c1.84-0.379,2-1.802,2-2.283c0-0.532-0.201-2.269-2.803-2.269h-2.34v17.848H77.72
	V10.028h7.861c6.166,0,6.879,2.968,6.879,5.199c0,1.732-0.754,3.143-2.301,4.312l-1.369,1.032l1.572,0.683
	c2.229,0.967,3.313,2.648,3.313,5.14c0,1.938-0.641,3.432-1.957,4.565c-0.633,0.531-1.32,0.91-2.041,1.12
	c-0.762,0.223-1.834,0.335-3.186,0.335H86.116z"/>
</svg>
