<?xml version="1.0" encoding="utf-8"?>
<!-- Generator: Adobe Illustrator 16.0.0, SVG Export Plug-In . SVG Version: 6.00 Build 0)  -->
<!DOCTYPE svg PUBLIC "-//W3C//DTD SVG 1.1//EN" "http://www.w3.org/Graphics/SVG/1.1/DTD/svg11.dtd">
<svg version="1.1" id="图层_1" xmlns="http://www.w3.org/2000/svg" xmlns:xlink="http://www.w3.org/1999/xlink" x="0px" y="0px"
	 width="32px" height="26px" viewBox="0 0 32 26" enable-background="new 0 0 32 26" xml:space="preserve">
<path fill="#FFFFFF" d="M11.613,14.304c-2.736,0.378-4.703,2.497-4.395,4.729c0.308,2.232,2.777,3.736,5.514,3.358
	c2.735-0.378,4.704-2.495,4.396-4.731C16.819,15.428,14.35,13.925,11.613,14.304z M10.814,20.611
	c-0.962,0.134-1.829-0.395-1.938-1.18c-0.107-0.784,0.582-1.528,1.545-1.664c0.961-0.131,1.828,0.397,1.938,1.185
	C12.468,19.734,11.776,20.479,10.814,20.611L10.814,20.611z M13.269,18.086c-0.404,0.103-0.8-0.082-0.881-0.41
	c-0.085-0.332,0.175-0.679,0.579-0.783c0.403-0.1,0.797,0.083,0.881,0.413C13.933,17.635,13.67,17.986,13.269,18.086L13.269,18.086z
	 M25.82,10.601c0.139,0.06,0.287,0.089,0.438,0.089c0.438,0,0.854-0.257,1.036-0.686c0.21-0.494,0.315-1.021,0.315-1.561
	c0-2.211-1.797-4.008-4.007-4.008c-0.54,0-1.066,0.104-1.561,0.314c-0.574,0.242-0.84,0.902-0.598,1.475
	c0.243,0.572,0.902,0.84,1.475,0.6c0.217-0.092,0.449-0.139,0.684-0.139c0.969,0,1.756,0.788,1.756,1.758
	c0,0.239-0.045,0.468-0.136,0.684C24.98,9.697,25.249,10.359,25.82,10.601z M23.199,12.262c0.112-0.318,0.221-0.631,0.221-0.631
	c1.972-3.781-3.108-5.014-6.022-3.406c-2.91,1.609-1.506-1.114-1.506-1.114c0.483-4.972-4.743-2.772-4.743-2.772
	C-0.99,11.146,0.242,17.892,0.242,17.892c0,3.711,5.82,7.857,13.159,7.857c9.725,0,15.269-5.685,14.305-9.909
	C27.316,14.134,25.291,12.674,23.199,12.262z M11.955,23.818c-6.365,0-8.52-3.313-8.52-5.705c0-3.793,5.023-6.593,9.754-6.593
	c4.729,0,8.101,2.008,8.872,4.645C23.203,20.064,18.22,23.818,11.955,23.818z M23.603,0.25c-0.694,0-1.387,0.087-2.054,0.26
	c-0.602,0.156-0.964,0.769-0.808,1.37s0.77,0.964,1.371,0.81C22.596,2.563,23.097,2.5,23.604,2.5c3.273,0,5.939,2.667,5.939,5.941
	c0,0.703-0.122,1.391-0.358,2.04c-0.215,0.585,0.086,1.231,0.668,1.443c0.128,0.048,0.259,0.069,0.387,0.069
	c0.458,0,0.893-0.284,1.058-0.74c0.328-0.899,0.495-1.846,0.495-2.813C31.793,3.925,28.119,0.25,23.603,0.25z"/>
</svg>
