<?xml version="1.0" encoding="utf-8"?>
<!-- Generator: Adobe Illustrator 16.0.0, SVG Export Plug-In . SVG Version: 6.00 Build 0)  -->
<!DOCTYPE svg PUBLIC "-//W3C//DTD SVG 1.1//EN" "http://www.w3.org/Graphics/SVG/1.1/DTD/svg11.dtd">
<svg version="1.1" id="隔离模式" xmlns="http://www.w3.org/2000/svg" xmlns:xlink="http://www.w3.org/1999/xlink" x="0px"
	 y="0px" width="76px" height="76px" viewBox="0 0 76 76" enable-background="new 0 0 76 76" xml:space="preserve">
<linearGradient id="SVGID_1_" gradientUnits="userSpaceOnUse" x1="0.3359" y1="38" x2="75.6641" y2="38">
	<stop  offset="0" style="stop-color:#EE465F"/>
	<stop  offset="1" style="stop-color:#F77A4E"/>
</linearGradient>
<circle fill="url(#SVGID_1_)" cx="38" cy="38.002" r="37.664"/>
<path fill="#FFFFFF" d="M28.307,35.371c-0.706-0.33-1.739-0.684-2.909-0.99c-1.172-0.311-2.253-0.51-3.025-0.578
	c-0.531-0.043-0.796-0.064-0.815,0c-0.022,0.047,0.22,0.178,0.705,0.4c0.705,0.33,1.745,0.684,2.915,0.99
	c1.17,0.313,2.25,0.51,3.023,0.576c0.527,0.045,0.793,0.064,0.816,0C29.017,35.725,28.796,35.592,28.307,35.371z M52.215,41.154
	v-1.633H57.8v14.922h-5.585v-2.338l-7.173-2.76L28.399,51.4l-9.25-4.77l0.289-1.744l-1.237-1.018l0.175-1.852l-0.175-0.797
	l0.728-2.76l11.257,3.6l8.809-2.383l-0.021-0.686h-6.91l1.392-3.336l12.493-1.982l5.651,7.281L52.215,41.154z M25.572,33.695
	c1.238,0.328,2.343,0.705,3.135,1.08c0.685,0.311,1.167,0.639,1.367,0.973c0.111,0.176,0.134,0.309,0.09,0.465
	c-0.176,0.684-0.375,1.412-0.553,2.096c-0.108,0.221-0.177,0.307-0.353,0.375c-1.479,0.686-8.432-1.037-9.38-2.496
	c-0.112-0.176-0.155-0.285-0.112-0.484c0.178-0.686,0.378-1.412,0.552-2.098c0.047-0.152,0.11-0.244,0.29-0.352
	c0.327-0.176,0.926-0.244,1.674-0.176C23.188,33.166,24.337,33.361,25.572,33.695z M32.878,31.949
	c-0.242-0.748-0.705-1.742-1.277-2.803c-0.576-1.059-1.172-1.988-1.656-2.602c-0.333-0.422-0.51-0.621-0.553-0.6
	s0.021,0.264,0.198,0.797c0.242,0.752,0.708,1.744,1.28,2.803c0.574,1.059,1.17,1.986,1.658,2.604
	c0.327,0.422,0.505,0.621,0.549,0.598S33.033,32.48,32.878,31.949z M32.215,28.816c0.619,1.125,1.084,2.184,1.37,3.025
	c0.241,0.707,0.333,1.279,0.221,1.654c-0.043,0.199-0.131,0.307-0.264,0.398c-0.618,0.328-1.282,0.707-1.92,1.035
	c-0.241,0.088-0.333,0.088-0.509,0c-1.502-0.617-5.01-6.842-4.613-8.52c0.046-0.221,0.089-0.309,0.288-0.396
	c0.618-0.332,1.278-0.709,1.919-1.037c0.155-0.068,0.263-0.09,0.463-0.021c0.379,0.107,0.818,0.506,1.283,1.102
	C30.98,26.721,31.622,27.693,32.215,28.816z M36.699,23.166c-0.378,0.594-0.796,1.479-1.191,2.475
	c-0.397,1.012-0.685,1.916-0.84,2.602c-0.11,0.463-0.133,0.705-0.09,0.705c0.047,0.023,0.179-0.174,0.42-0.57
	c0.376-0.6,0.795-1.482,1.195-2.473c0.392-0.996,0.681-1.924,0.836-2.607c0.111-0.463,0.133-0.707,0.09-0.707
	C37.072,22.568,36.94,22.746,36.699,23.166z M34.909,25.418c-0.421,1.059-0.726,2.055-0.883,2.803
	c-0.13,0.662-0.154,1.189-0.021,1.5c0.066,0.152,0.134,0.242,0.286,0.287c0.597,0.246,1.216,0.486,1.808,0.729
	c0.18,0.064,0.268,0.043,0.443-0.043c1.368-0.686,3.644-6.645,3.223-8.014c-0.044-0.156-0.108-0.221-0.285-0.355
	c-0.599-0.242-1.212-0.484-1.813-0.729c-0.131-0.063-0.262-0.043-0.418,0.023c-0.309,0.154-0.664,0.529-1.013,1.104
	C35.793,23.408,35.331,24.355,34.909,25.418z"/>
</svg>
