<?xml version="1.0" encoding="utf-8"?>
<!-- Generator: Adobe Illustrator 16.0.0, SVG Export Plug-In . SVG Version: 6.00 Build 0)  -->
<!DOCTYPE svg PUBLIC "-//W3C//DTD SVG 1.1//EN" "http://www.w3.org/Graphics/SVG/1.1/DTD/svg11.dtd">
<svg version="1.1" id="隔离模式" xmlns="http://www.w3.org/2000/svg" xmlns:xlink="http://www.w3.org/1999/xlink" x="0px"
	 y="0px" width="70px" height="70px" viewBox="0 0 70 70" enable-background="new 0 0 70 70" xml:space="preserve">
<linearGradient id="SVGID_1_" gradientUnits="userSpaceOnUse" x1="0.4678" y1="35.001" x2="69.5332" y2="35.001">
	<stop  offset="0" style="stop-color:#FF9768"/>
	<stop  offset="1" style="stop-color:#FFBA9A"/>
</linearGradient>
<circle fill="url(#SVGID_1_)" cx="35" cy="35.001" r="34.533"/>
<g>
	<path fill="#FFFFFF" d="M50.389,31.021l-25.095,0.078l-2.546-8.49h-5.095c-0.086,0.066-0.848,0.658-0.848,1.697
		c0,0.107,0.015,1.074,0.848,1.699h3.397l5.087,20.428l4.246,0.012c0.87-2.691,3.393-4.637,6.375-4.637
		c2.992,0,5.525,1.959,6.385,4.664l2.996,0.008c2.023-6.189,3.438-10.764,3.78-11.982c0.29-1.033,0.342-2.035,0.342-2.035
		C50.319,31.983,50.362,31.503,50.389,31.021z"/>
	<path fill="#FFFFFF" d="M32.09,48.507c-0.002,2.578,2.086,4.674,4.665,4.674c2.583,0,4.672-2.092,4.675-4.668v-0.006
		c0-2.58-2.092-4.67-4.671-4.67C34.178,43.837,32.09,45.927,32.09,48.507L32.09,48.507z"/>
	<path fill="#FFFFFF" d="M49.92,29.403l-5.941-6.795c-0.022-0.027-0.312-0.467-0.851-0.467c-0.542,0.002-0.83,0.439-0.851,0.467
		l-1.697,2.549c-0.181,0.326-0.526,0.529-0.896,0.512c-0.527-0.023-0.79-0.488-0.804-0.512l-4.245-5.098
		c-0.05-0.066-0.278-0.363-0.684-0.424c-0.379-0.059-0.767,0.107-1.015,0.424c-0.639,0.662-3.727,3.865-5.4,6.203
		c-0.347,0.484-0.864,1.258-0.634,2.039c0.172,0.584,0.689,0.928,1.017,1.102H49.92z"/>
</g>
</svg>
