<?xml version="1.0" encoding="utf-8"?>
<!-- Generator: Adobe Illustrator 16.0.0, SVG Export Plug-In . SVG Version: 6.00 Build 0)  -->
<!DOCTYPE svg PUBLIC "-//W3C//DTD SVG 1.1//EN" "http://www.w3.org/Graphics/SVG/1.1/DTD/svg11.dtd">
<svg version="1.1" id="隔离模式" xmlns="http://www.w3.org/2000/svg" xmlns:xlink="http://www.w3.org/1999/xlink" x="0px"
	 y="0px" width="38px" height="38px" viewBox="0 0 38 38" enable-background="new 0 0 38 38" xml:space="preserve">
<path fill="#3E3F3F" d="M19.024,2.513L1.5,12.641l5.512,3.156L1.5,19l5.512,3.204L1.5,25.359l17.524,10.129L36.5,25.359
	l-5.512-3.155L36.5,19l-5.512-3.203l5.512-3.156L19.024,2.513z"/>
<path fill="#FFFFFF" d="M28.867,17.022L32.262,19l-13.237,7.633L5.739,19l3.392-1.978l9.894,5.699L28.867,17.022z"/>
<path fill="#3BAEF1" d="M19.024,29.081L1.5,19l7.631-4.427l9.846,5.698l9.849-5.698L36.5,19L19.024,29.081z M5.739,19l13.237,7.633
	L32.262,19l-3.395-1.978l-9.843,5.699l-9.894-5.699L5.739,19z"/>
<path fill="#FFFFFF" d="M5.739,12.641l13.285-7.679l13.237,7.679l-13.237,7.631L5.739,12.641z"/>
<path fill="#3E3F3F" d="M19.024,22.722L1.5,12.641L19.024,2.513L36.5,12.593L19.024,22.722z M5.739,12.641l13.237,7.631
	l13.235-7.631L19.024,4.962L5.739,12.641z"/>
<path fill="#FFFFFF" d="M5.739,25.359l3.392-1.932l9.894,5.7l9.843-5.7l3.395,1.932l-13.237,7.68L5.739,25.359z"/>
</svg>
