<?xml version="1.0" encoding="utf-8"?>
<!-- Generator: Adobe Illustrator 16.0.0, SVG Export Plug-In . SVG Version: 6.00 Build 0)  -->
<!DOCTYPE svg PUBLIC "-//W3C//DTD SVG 1.1//EN" "http://www.w3.org/Graphics/SVG/1.1/DTD/svg11.dtd">
<svg version="1.1" id="隔离模式" xmlns="http://www.w3.org/2000/svg" xmlns:xlink="http://www.w3.org/1999/xlink" x="0px"
	 y="0px" width="38px" height="38px" viewBox="0 0 38 38" enable-background="new 0 0 38 38" xml:space="preserve">
<path fill="#3E3F3F" d="M20.123,13.791v3.383H30.96c1.004,0,1.822,0.818,1.822,1.823v5.207h2.393c1.006,0,1.825,0.818,1.825,1.824
	v7.035c0,1.004-0.819,1.822-1.825,1.822h-6.826l-0.198,0.008c-1.007,0-1.825-0.818-1.825-1.822v-7.035
	c0-1.004,0.818-1.822,1.825-1.822h2.393v-4.796h-10.42v4.792h2.394c1.006,0,1.824,0.816,1.824,1.82v7.035
	c0,1.006-0.818,1.826-1.824,1.826h-7.034c-1.005,0-1.823-0.82-1.823-1.826v-7.029c0-1.004,0.818-1.822,1.823-1.822h2.394v-4.796
	H7.465v4.792h2.394c1.006,0,1.824,0.816,1.824,1.82v7.035c0,1.006-0.818,1.826-1.824,1.826H2.824c-0.488,0-0.945-0.189-1.29-0.533
	C1.19,34.013,1,33.556,1,33.071v-7.035c0-1.004,0.818-1.822,1.824-1.822h2.393v-5.213c0-1.005,0.818-1.823,1.824-1.823h10.835
	v-3.383 M34.763,32.651v-6.197h-6.196v6.197H34.763z M22.1,32.651v-6.197h-6.193v6.197H22.1z M9.442,32.651v-6.197H3.243v6.197
	H9.442z"/>
<path fill="#3BAEF1" d="M17.876,13.795h-2.394c-1.005,0-1.823-0.82-1.823-1.824V4.932c0-1.006,0.818-1.824,1.823-1.824h7.034
	c1.006,0,1.824,0.818,1.824,1.824v7.035c0,1.004-0.818,1.824-1.824,1.824h-2.394 M22.1,11.549V5.352h-6.193v6.197H22.1z"/>
</svg>
