<?xml version="1.0" encoding="utf-8"?>
<!-- Generator: Adobe Illustrator 16.0.0, SVG Export Plug-In . SVG Version: 6.00 Build 0)  -->
<!DOCTYPE svg PUBLIC "-//W3C//DTD SVG 1.1//EN" "http://www.w3.org/Graphics/SVG/1.1/DTD/svg11.dtd">
<svg version="1.1" id="隔离模式" xmlns="http://www.w3.org/2000/svg" xmlns:xlink="http://www.w3.org/1999/xlink" x="0px"
	 y="0px" width="38px" height="38px" viewBox="0 0 38 38" enable-background="new 0 0 38 38" xml:space="preserve">
<path fill="#3E3F3F" d="M19.005,36.5c-0.144,0-0.29-0.029-0.422-0.094l-6.954-3.215c-4.734-2.193-7.676-6.357-7.676-10.867V7.064
	c0-0.311,0.137-0.604,0.37-0.801c0.235-0.198,0.544-0.276,0.843-0.219c0.908,0.182,1.831,0.271,2.756,0.271
	c3.063,0,6.05-1.007,8.201-2.759l2.238-1.827c0.371-0.306,0.906-0.306,1.278,0l2.238,1.827c2.148,1.754,5.139,2.759,8.2,2.759
	c0.927,0,1.854-0.091,2.757-0.271c0.296-0.06,0.608,0.021,0.841,0.219c0.235,0.197,0.371,0.49,0.371,0.801v15.26
	c0,4.51-2.941,8.674-7.677,10.867l-6.951,3.215C19.289,36.471,19.147,36.5,19.005,36.5z M5.99,8.275v14.049
	c0,3.688,2.488,7.129,6.487,8.98l6.524,3.021l6.525-3.021c4.001-1.854,6.483-5.295,6.483-8.98V8.275
	c-0.64,0.075-1.286,0.113-1.929,0.113c-3.57,0-6.938-1.141-9.48-3.217l-1.597-1.307l-1.604,1.307
	c-2.539,2.073-5.907,3.217-9.475,3.217C7.275,8.389,6.632,8.351,5.99,8.275L5.99,8.275z"/>
<path fill="#3BAEF1" d="M24.166,14.609c0.482-0.508,1.288-0.527,1.798-0.041c0.488,0.465,0.526,1.23,0.089,1.744l-7.308,8.109
	c-0.471,0.523-1.274,0.566-1.794,0.098c-0.013-0.012-0.026-0.023-0.036-0.033l-4.179-4.059c-0.503-0.488-0.516-1.293-0.027-1.797
	c0.489-0.502,1.295-0.514,1.798-0.025l3.232,3.137L24.166,14.609L24.166,14.609z"/>
</svg>
