<?xml version="1.0" encoding="utf-8"?>
<!-- Generator: Adobe Illustrator 16.0.0, SVG Export Plug-In . SVG Version: 6.00 Build 0)  -->
<!DOCTYPE svg PUBLIC "-//W3C//DTD SVG 1.1//EN" "http://www.w3.org/Graphics/SVG/1.1/DTD/svg11.dtd">
<svg version="1.1" id="图层_1" xmlns="http://www.w3.org/2000/svg" xmlns:xlink="http://www.w3.org/1999/xlink" x="0px" y="0px"
	 width="444.5px" height="372px" viewBox="0 -397.5 444.5 372" enable-background="new 0 -397.5 444.5 372" xml:space="preserve">
<g>
	<linearGradient id="SVGID_1_" gradientUnits="userSpaceOnUse" x1="39.5518" y1="-100.3828" x2="70.8154" y2="-100.3828">
		<stop  offset="0" style="stop-color:#3E3F3F"/>
		<stop  offset="1" style="stop-color:#A3A3A3"/>
	</linearGradient>
	<line fill="none" stroke="url(#SVGID_1_)" stroke-miterlimit="10" x1="70.567" y1="-91.611" x2="39.8" y2="-109.154"/>
	<linearGradient id="SVGID_2_" gradientUnits="userSpaceOnUse" x1="121.335" y1="-275.7944" x2="152.8506" y2="-275.7944">
		<stop  offset="0" style="stop-color:#3E3F3F"/>
		<stop  offset="1" style="stop-color:#A3A3A3"/>
	</linearGradient>
	<polyline fill="none" stroke="url(#SVGID_2_)" stroke-miterlimit="10" points="152.603,-235.557 121.835,-253.102 
		121.835,-316.467 	"/>
	<linearGradient id="SVGID_3_" gradientUnits="userSpaceOnUse" x1="123.5254" y1="-114.479" x2="184.4092" y2="-114.479">
		<stop  offset="0" style="stop-color:#3E3F3F"/>
		<stop  offset="1" style="stop-color:#A3A3A3"/>
	</linearGradient>
	<path fill="none" stroke="url(#SVGID_3_)" stroke-miterlimit="10" d="M123.771-97.382c3.396-1.925,60.392-34.194,60.392-34.194"/>
	<linearGradient id="SVGID_4_" gradientUnits="userSpaceOnUse" x1="100.4561" y1="-140.2646" x2="238.9639" y2="-140.2646">
		<stop  offset="0" style="stop-color:#3E3F3F"/>
		<stop  offset="1" style="stop-color:#A3A3A3"/>
	</linearGradient>
	<polygon fill="url(#SVGID_4_)" points="132.901,-204.662 100.456,-154.844 238.964,-75.867 238.964,-144.186 	"/>
	<linearGradient id="SVGID_5_" gradientUnits="userSpaceOnUse" x1="238.9639" y1="-140.2646" x2="378.4473" y2="-140.2646">
		<stop  offset="0" style="stop-color:#3E3F3F"/>
		<stop  offset="1" style="stop-color:#A3A3A3"/>
	</linearGradient>
	<polygon fill="url(#SVGID_5_)" points="238.964,-144.186 238.964,-75.867 378.447,-154.844 345.773,-204.662 	"/>
	<polygon fill="#545454" points="238.964,-144.178 345.773,-204.654 238.964,-267.552 132.901,-204.654 	"/>
	<linearGradient id="SVGID_6_" gradientUnits="userSpaceOnUse" x1="138.4639" y1="-205.8926" x2="238.9634" y2="-205.8926">
		<stop  offset="0" style="stop-color:#3EA8F2"/>
		<stop  offset="1" style="stop-color:#22E0E7"/>
	</linearGradient>
	<polygon fill="url(#SVGID_6_)" points="166.274,-255.896 138.464,-213.193 238.964,-155.891 238.964,-214.449 	"/>
	<linearGradient id="SVGID_7_" gradientUnits="userSpaceOnUse" x1="238.9639" y1="-205.8926" x2="340.1719" y2="-205.8926">
		<stop  offset="0" style="stop-color:#3EA8F2"/>
		<stop  offset="1" style="stop-color:#22E0E7"/>
	</linearGradient>
	<polygon fill="url(#SVGID_7_)" points="238.964,-214.449 238.964,-155.891 340.172,-213.193 312.164,-255.896 	"/>
	<polygon fill="#2391AF" points="239.078,-214.445 312.281,-255.892 239.078,-291.758 166.392,-255.892 	"/>
	<linearGradient id="SVGID_8_" gradientUnits="userSpaceOnUse" x1="171.9541" y1="-266.646" x2="239.0781" y2="-266.646">
		<stop  offset="0" style="stop-color:#3E3F3F"/>
		<stop  offset="1" style="stop-color:#A3A3A3"/>
	</linearGradient>
	<polygon fill="url(#SVGID_8_)" points="199.765,-307.135 171.954,-264.433 239.078,-226.157 239.078,-284.717 	"/>
	<linearGradient id="SVGID_9_" gradientUnits="userSpaceOnUse" x1="239.0781" y1="-266.646" x2="306.6797" y2="-266.646">
		<stop  offset="0" style="stop-color:#3E3F3F"/>
		<stop  offset="1" style="stop-color:#A3A3A3"/>
	</linearGradient>
	<polygon fill="url(#SVGID_9_)" points="239.078,-284.717 239.078,-226.157 306.68,-264.433 278.674,-307.135 	"/>
	<polygon fill="#545454" points="239.078,-284.717 278.674,-307.135 238.964,-327.684 199.765,-307.135 	"/>
	<linearGradient id="SVGID_10_" gradientUnits="userSpaceOnUse" x1="171.8145" y1="-331.9639" x2="238.9413" y2="-331.9639">
		<stop  offset="0" style="stop-color:#E62230"/>
		<stop  offset="1" style="stop-color:#E5768E"/>
	</linearGradient>
	<polygon fill="url(#SVGID_10_)" points="238.941,-367.5 205.188,-315.675 238.941,-296.428 	"/>
	<linearGradient id="SVGID_11_" gradientUnits="userSpaceOnUse" x1="171.8135" y1="-331.9648" x2="238.9413" y2="-331.9648">
		<stop  offset="0" style="stop-color:#3EA8F2"/>
		<stop  offset="1" style="stop-color:#22E0E7"/>
	</linearGradient>
	<polygon fill="url(#SVGID_11_)" points="238.941,-367.5 205.188,-315.675 238.941,-296.428 	"/>
	<linearGradient id="SVGID_12_" gradientUnits="userSpaceOnUse" x1="238.9414" y1="-331.9639" x2="306.541" y2="-331.9639">
		<stop  offset="0" style="stop-color:#E62230"/>
		<stop  offset="1" style="stop-color:#E5768E"/>
	</linearGradient>
	<polygon fill="url(#SVGID_12_)" points="238.941,-296.428 272.934,-315.675 238.941,-367.5 	"/>
	<linearGradient id="SVGID_13_" gradientUnits="userSpaceOnUse" x1="238.9414" y1="-331.9648" x2="306.54" y2="-331.9648">
		<stop  offset="0" style="stop-color:#3EA8F2"/>
		<stop  offset="1" style="stop-color:#22E0E7"/>
	</linearGradient>
	<polygon fill="url(#SVGID_13_)" points="238.941,-296.428 272.934,-315.675 238.941,-367.5 	"/>
	<g>
		<path opacity="0.6" fill="#FFFFFF" d="M308.26-148.844c0,0-2.799-12.186-2.905-12.131c7.866-3.961,14.916-1.73,16.588,5.246
			C321.949-155.691,308.26-148.844,308.26-148.844z"/>
		<path opacity="0.3" fill="#FFFFFF" d="M321.399-152.665c1.742,7.257-3.483,16.481-11.67,20.597
			c-8.19,4.12-16.237,1.576-17.976-5.682c-1.74-7.255,3.484-16.48,11.672-20.6c0.385-0.191,0.766-0.357,1.152-0.521l2.785,11.611
			l13.594-6.836C321.126-153.662,321.285-153.143,321.399-152.665z"/>
	</g>
	<path opacity="0.6" fill="#FFFFFF" d="M280.859-203.557c0.25-0.17,0.456-0.414,0.574-0.684l2.902-6.627l5.645,0.676
		c0.289,0.031,0.623-0.07,0.902-0.285c0.287-0.213,0.498-0.518,0.582-0.83l3.871-14.518c0.157-0.596-0.181-1.059-0.758-1.039
		c-0.578,0.025-1.174,0.527-1.334,1.123l-3.535,13.263l-5.453-0.651c-0.537-0.063-1.162,0.344-1.418,0.924l-3.178,7.246
		l-5.887,4.016l-2.149-8.975c-0.111-0.465-0.628-0.625-1.153-0.361c-0.52,0.262-0.854,0.849-0.742,1.313l3.908,16.303
		c0.112,0.461,0.625,0.627,1.146,0.363l24.572-12.361l-0.201-0.843l-0.203-0.836l-3.35-13.976l-2.384,8.939
		c-0.222,0.84-0.791,1.654-1.558,2.229c-0.195,0.15-0.416,0.284-0.641,0.397c-0.6,0.304-1.209,0.428-1.774,0.359l-4.032-0.479
		l-2.141,4.887c-0.316,0.719-0.865,1.371-1.541,1.832l-6.916,4.715l-0.385-1.604L280.859-203.557z"/>
	<g>
		<polygon opacity="0.3" fill="#FFFFFF" points="254.106,-265.945 261.223,-269.525 264.253,-256.885 257.139,-253.305 		"/>
		<polygon opacity="0.6" fill="#FFFFFF" points="273.145,-261.355 265.983,-257.753 261.815,-275.139 268.977,-278.741 
			273.145,-261.355 		"/>
		<polygon opacity="0.3" fill="#FFFFFF" points="269.709,-284.41 276.803,-287.98 282.109,-265.865 275.009,-262.295 		"/>
	</g>
	<linearGradient id="SVGID_14_" gradientUnits="userSpaceOnUse" x1="60.3174" y1="-84.9902" x2="94.2983" y2="-84.9902">
		<stop  offset="0" style="stop-color:#3EA8F2"/>
		<stop  offset="1" style="stop-color:#22E0E7"/>
	</linearGradient>
	<polygon fill="url(#SVGID_14_)" points="94.298,-95.098 94.298,-55.5 60.317,-74.879 60.317,-114.479 	"/>
	<linearGradient id="SVGID_15_" gradientUnits="userSpaceOnUse" x1="94.2979" y1="-84.6152" x2="127.2134" y2="-84.6152">
		<stop  offset="0" style="stop-color:#3EA8F2"/>
		<stop  offset="1" style="stop-color:#22E0E7"/>
	</linearGradient>
	<polygon fill="url(#SVGID_15_)" points="94.298,-95.098 94.298,-55.5 127.214,-74.137 127.214,-113.731 	"/>
	<linearGradient id="SVGID_16_" gradientUnits="userSpaceOnUse" x1="110.6768" y1="-97.1934" x2="76.8551" y2="-131.015">
		<stop  offset="0" style="stop-color:#3EA8F2"/>
		<stop  offset="1" style="stop-color:#22E0E7"/>
	</linearGradient>
	<polygon fill="url(#SVGID_16_)" points="60.317,-114.479 94.298,-95.098 127.214,-113.731 94.298,-131.498 	"/>
	<linearGradient id="SVGID_17_" gradientUnits="userSpaceOnUse" x1="104.8643" y1="-323.7422" x2="122.105" y2="-323.7422">
		<stop  offset="0" style="stop-color:#3EA8F2"/>
		<stop  offset="1" style="stop-color:#22E0E7"/>
	</linearGradient>
	<polygon fill="url(#SVGID_17_)" points="122.105,-328.869 122.105,-308.781 104.864,-318.611 104.864,-338.703 	"/>
	<linearGradient id="SVGID_18_" gradientUnits="userSpaceOnUse" x1="122.1055" y1="-323.5527" x2="138.8047" y2="-323.5527">
		<stop  offset="0" style="stop-color:#3EA8F2"/>
		<stop  offset="1" style="stop-color:#22E0E7"/>
	</linearGradient>
	<polygon fill="url(#SVGID_18_)" points="122.105,-328.869 122.105,-308.781 138.805,-318.236 138.805,-338.324 	"/>
	<linearGradient id="SVGID_19_" gradientUnits="userSpaceOnUse" x1="156.4287" y1="-308.7813" x2="173.127" y2="-308.7813">
		<stop  offset="0" style="stop-color:#3EA8F2"/>
		<stop  offset="1" style="stop-color:#22E0E7"/>
	</linearGradient>
	<polygon opacity="0.2" fill="url(#SVGID_19_)" points="156.429,-314.098 156.429,-294.01 173.128,-303.465 173.128,-323.552 	"/>
	<linearGradient id="SVGID_20_" gradientUnits="userSpaceOnUse" x1="130.415" y1="-329.9336" x2="113.2553" y2="-347.0934">
		<stop  offset="0" style="stop-color:#3EA8F2"/>
		<stop  offset="1" style="stop-color:#22E0E7"/>
	</linearGradient>
	<polygon fill="url(#SVGID_20_)" points="104.864,-338.703 122.105,-328.869 138.805,-338.324 122.105,-347.336 	"/>
	<linearGradient id="SVGID_21_" gradientUnits="userSpaceOnUse" x1="16.251" y1="-117.8896" x2="32.8545" y2="-117.8896">
		<stop  offset="0" style="stop-color:#3E3F3F"/>
		<stop  offset="1" style="stop-color:#A3A3A3"/>
	</linearGradient>
	<polygon fill="none" stroke="url(#SVGID_21_)" stroke-miterlimit="10" points="32.354,-122.533 32.354,-104.346 16.751,-113.246 
		16.751,-131.434 	"/>
	<linearGradient id="SVGID_22_" gradientUnits="userSpaceOnUse" x1="31.8545" y1="-117.7192" x2="47.9746" y2="-117.7192">
		<stop  offset="0" style="stop-color:#3E3F3F"/>
		<stop  offset="1" style="stop-color:#A3A3A3"/>
	</linearGradient>
	<polygon fill="none" stroke="url(#SVGID_22_)" stroke-miterlimit="10" points="32.354,-122.533 32.354,-104.346 47.475,-112.904 
		47.475,-131.093 	"/>
	<linearGradient id="SVGID_23_" gradientUnits="userSpaceOnUse" x1="15.6914" y1="-130.8857" x2="48.5078" y2="-130.8857">
		<stop  offset="0" style="stop-color:#3E3F3F"/>
		<stop  offset="1" style="stop-color:#A3A3A3"/>
	</linearGradient>
	<polygon fill="none" stroke="url(#SVGID_23_)" stroke-miterlimit="10" points="16.751,-131.434 32.354,-122.533 47.475,-131.093 
		32.354,-139.25 	"/>
	<linearGradient id="SVGID_24_" gradientUnits="userSpaceOnUse" x1="372.6543" y1="-262.582" x2="401.3828" y2="-262.582">
		<stop  offset="0" style="stop-color:#3E3F3F"/>
		<stop  offset="1" style="stop-color:#A3A3A3"/>
	</linearGradient>
	<polygon fill="none" stroke="url(#SVGID_24_)" stroke-miterlimit="10" points="400.883,-270.832 400.883,-238.516 
		373.154,-254.329 373.154,-286.648 	"/>
	<linearGradient id="SVGID_25_" gradientUnits="userSpaceOnUse" x1="400.3828" y1="-262.2793" x2="428.249" y2="-262.2793">
		<stop  offset="0" style="stop-color:#3E3F3F"/>
		<stop  offset="1" style="stop-color:#A3A3A3"/>
	</linearGradient>
	<polygon fill="none" stroke="url(#SVGID_25_)" stroke-miterlimit="10" points="400.883,-270.832 400.883,-238.516 427.749,-253.72 
		427.749,-286.043 	"/>
	<linearGradient id="SVGID_26_" gradientUnits="userSpaceOnUse" x1="372.0947" y1="-285.6782" x2="428.7822" y2="-285.6782">
		<stop  offset="0" style="stop-color:#3E3F3F"/>
		<stop  offset="1" style="stop-color:#A3A3A3"/>
	</linearGradient>
	<polygon fill="none" stroke="url(#SVGID_26_)" stroke-miterlimit="10" points="373.154,-286.648 400.883,-270.832 
		427.749,-286.043 400.883,-300.536 	"/>
	<linearGradient id="SVGID_27_" gradientUnits="userSpaceOnUse" x1="350.4404" y1="-272.9082" x2="369.2837" y2="-272.9082">
		<stop  offset="0" style="stop-color:#3EA8F2"/>
		<stop  offset="1" style="stop-color:#22E0E7"/>
	</linearGradient>
	<polygon fill="url(#SVGID_27_)" points="369.283,-278.513 369.283,-256.556 350.44,-267.301 350.44,-289.26 	"/>
	<linearGradient id="SVGID_28_" gradientUnits="userSpaceOnUse" x1="369.2832" y1="-272.7012" x2="387.5332" y2="-272.7012">
		<stop  offset="0" style="stop-color:#3EA8F2"/>
		<stop  offset="1" style="stop-color:#22E0E7"/>
	</linearGradient>
	<polygon fill="url(#SVGID_28_)" points="369.283,-278.513 369.283,-256.556 387.533,-266.889 387.533,-288.846 	"/>
	<linearGradient id="SVGID_29_" gradientUnits="userSpaceOnUse" x1="378.3643" y1="-279.6758" x2="359.6107" y2="-298.4293">
		<stop  offset="0" style="stop-color:#3EA8F2"/>
		<stop  offset="1" style="stop-color:#22E0E7"/>
	</linearGradient>
	<polygon fill="url(#SVGID_29_)" points="350.44,-289.26 369.283,-278.513 387.533,-288.846 369.283,-298.697 	"/>
	<linearGradient id="SVGID_30_" gradientUnits="userSpaceOnUse" x1="166.291" y1="-324.1523" x2="182.9878" y2="-324.1523">
		<stop  offset="0" style="stop-color:#3EA8F2"/>
		<stop  offset="1" style="stop-color:#22E0E7"/>
	</linearGradient>
	<polygon opacity="0.2" fill="url(#SVGID_30_)" points="166.291,-329.469 166.291,-309.381 182.987,-318.836 182.987,-338.924 	"/>
</g>
</svg>
