<?xml version="1.0" encoding="utf-8"?>
<!-- Generator: Adobe Illustrator 16.0.0, SVG Export Plug-In . SVG Version: 6.00 Build 0)  -->
<!DOCTYPE svg PUBLIC "-//W3C//DTD SVG 1.1//EN" "http://www.w3.org/Graphics/SVG/1.1/DTD/svg11.dtd">
<svg version="1.1" id="隔离模式" xmlns="http://www.w3.org/2000/svg" xmlns:xlink="http://www.w3.org/1999/xlink" x="0px"
	 y="0px" width="65px" height="65px" viewBox="0 0 65 65" enable-background="new 0 0 65 65" xml:space="preserve">
<linearGradient id="SVGID_1_" gradientUnits="userSpaceOnUse" x1="0.0156" y1="32.501" x2="64.9844" y2="32.501">
	<stop  offset="0" style="stop-color:#22E0E7"/>
	<stop  offset="1" style="stop-color:#3EA8F2"/>
</linearGradient>
<circle fill="url(#SVGID_1_)" cx="32.5" cy="32.499" r="32.484"/>
<path fill="#FFFFFF" d="M32.503,22.454h-2.475c-0.004,0-0.004,0-0.01,0c-0.678,0-1.227,0.549-1.227,1.227c0,0.006,0,0.006,0,0.012
	v3.404c0,0.686,0.857,1.229,1.551,1.229h2.16c0.006,0,0.006,0,0.012,0c0.675,0,1.224-0.543,1.224-1.219c0-0.004,0-0.01,0-0.01
	v-3.404c0-0.006,0-0.006,0-0.012c0-0.678-0.549-1.227-1.224-1.227C32.509,22.454,32.509,22.454,32.503,22.454L32.503,22.454
	L32.503,22.454z M40.546,31.423h-2.475c-0.007,0-0.012,0-0.012,0c-0.682,0-1.23,0.549-1.23,1.225c0,0.006,0,0.01,0,0.01v3.404
	c0,0.688,0.858,1.238,1.552,1.238h2.165c0,0,0,0,0.004,0c0.678,0,1.227-0.551,1.227-1.23c0,0,0,0,0-0.012v-3.4c0,0,0-0.004,0-0.01
	c0-0.676-0.549-1.225-1.221-1.225C40.546,31.423,40.546,31.423,40.546,31.423L40.546,31.423L40.546,31.423z M48.161,46.864
	l-32.131-0.02c0,0-3.455,0.156-0.719-2.443c0.727-0.396,1.565-0.766,2.512-1.1c-0.235-0.512-0.368-1.109-0.368-1.748l0,0
	c0-2.244,1.685-4.061,3.761-4.061c2.073,0,3.76,1.816,3.76,4.061c0,0.043-0.011,0.09-0.011,0.137
	c0.242-0.027,0.483-0.059,0.737-0.088V20.597c0-1.375,1.021-2.475,2.403-2.475h14.415c1.385,0,2.346,1.1,2.346,2.475V42.78
	c1.682,0.471,3.135,1.033,4.266,1.666C53.256,47.194,48.161,46.864,48.161,46.864L48.161,46.864L48.161,46.864z M32.503,31.423
	h-2.475c-0.004,0-0.004,0-0.01,0c-0.678,0-1.227,0.549-1.227,1.225c0,0.006,0,0.01,0,0.01v3.404c0,0.688,0.857,1.238,1.551,1.238
	h2.16c0.006,0,0.006,0,0.012,0c0.675,0,1.224-0.551,1.224-1.23c0,0,0,0,0-0.012v-3.4c0,0,0-0.004,0-0.01
	c0-0.676-0.549-1.225-1.224-1.225C32.509,31.423,32.509,31.423,32.503,31.423L32.503,31.423L32.503,31.423z M40.546,22.454h-2.475
	c-0.007,0-0.012,0-0.012,0c-0.682,0-1.23,0.549-1.23,1.227c0,0.006,0,0.006,0,0.012v3.404c0,0.686,0.858,1.229,1.552,1.229h2.165
	c0,0,0,0,0.01,0c0.672,0,1.221-0.543,1.221-1.219c0-0.004,0-0.01,0-0.01v-3.404c0-0.006,0-0.006,0-0.012
	c0-0.678-0.549-1.227-1.221-1.227C40.546,22.454,40.546,22.454,40.546,22.454L40.546,22.454L40.546,22.454z"/>
</svg>
