<?xml version="1.0" encoding="utf-8"?>
<!-- Generator: Adobe Illustrator 16.0.0, SVG Export Plug-In . SVG Version: 6.00 Build 0)  -->
<!DOCTYPE svg PUBLIC "-//W3C//DTD SVG 1.1//EN" "http://www.w3.org/Graphics/SVG/1.1/DTD/svg11.dtd">
<svg version="1.1" id="Page_1" xmlns="http://www.w3.org/2000/svg" xmlns:xlink="http://www.w3.org/1999/xlink" x="0px" y="0px"
	 width="120px" height="36px" viewBox="0 0 120 36" enable-background="new 0 0 120 36" xml:space="preserve">
<g>
	<path opacity="0.6" fill-rule="evenodd" clip-rule="evenodd" fill="#FFFFFF" d="M76.718,30.563
		c-0.175,1.063-0.657,1.659-2.114,1.659h-5.923c-0.81,0-1.787-0.726-1.787-2.499v-6.515c4.729-1.968,8.256-4.615,11.052-6.924
		l-1.358-2.039c-1.649,1.56-6.277,4.875-9.693,6.359v-9.423h-2.529v10.163l-4.173,1.381l0.675,2.257l3.498-1.183v6.651
		c0,2.625,1.927,4.017,4.235,4.017c1.153,0,0.948,0,6.257,0c1.717,0,3.612-0.693,3.97-3.067c0.155-1.021,0.149-2.374,0.149-3.432
		l-2.089-1.079C76.862,28.78,76.911,29.385,76.718,30.563L76.718,30.563z M69.769,0.228h-2.45v4.56h-9.768v-4.56h-2.452v4.56h-9.342
		v2.489h9.342v3.83h0.921c-1.328,2.223-2.938,4.418-4.826,6.588c-1.687,1.939-3.676,3.958-5.975,6.049l1.722,1.994
		c1.022-0.895,2.083-1.916,3.179-3.064l3.276-3.344v15.944h2.491V16.534c0.782-1.321,1.403-2.251,2.43-4.395l-1.761-1.033h0.995
		v-3.83h9.768V11.2h2.45V7.276h9.307V4.787h-9.307V0.228L69.769,0.228z M107.877,7.62c0.254,0.997,0.511,2.171,0.767,3.525
		l0.306,1.838c0.025,0.229,0.076,0.534,0.153,0.919c0.077,0.435,0.126,0.74,0.151,0.919l1.956-0.575
		c-0.256-1.379-0.487-2.553-0.691-3.522c-0.254-1.304-0.536-2.515-0.843-3.64L107.877,7.62L107.877,7.62z M93.822,22.71h-3.869
		l0.115-1.877c0.026-0.459,0.063-1.708,0.114-3.752h4.061v-2.223h-3.144c0.717-2.374,1.315-4.8,1.802-7.276l-2.146-0.573
		c-0.509,2.986-1.045,5.604-1.606,7.85h-5.976v2.223h4.71c0,1.736-0.012,2.936-0.036,3.601c0,0.305-0.016,0.625-0.039,0.956
		L87.73,22.71h-4.212v2.262h4.021c-0.33,1.964-0.74,3.462-1.226,4.479c-0.587,1.28-1.559,2.503-2.909,3.678l1.838,1.838
		c1.456-1.455,2.526-3.013,3.216-4.673c0.309-0.738,0.562-1.567,0.766-2.488c0.179-0.766,0.357-1.712,0.536-2.833h4.062V22.71
		L93.822,22.71z M94.395,4.518h-3.791c-0.179-0.791-0.357-1.506-0.536-2.144C89.836,1.533,89.595,0.74,89.339,0l-2.146,0.688
		l0.653,1.954c0.202,0.713,0.369,1.339,0.497,1.875h-4.751V6.7h10.802V4.518L94.395,4.518z M111.592,4.518h-4.786V6.7h11.142V4.518
		h-4.133l-0.229-0.995c-0.079-0.408-0.155-0.752-0.232-1.033c-0.203-0.793-0.434-1.545-0.688-2.262l-2.223,0.612l0.654,1.917
		L111.592,4.518L111.592,4.518z M105.848,12.828c-0.077-1.991-0.116-5.017-0.116-9.076l1.188-0.229
		c0.178-0.026,0.331-0.063,0.459-0.114l-0.729-2.146c-3.342,0.792-7.148,1.432-11.413,1.917V9.61c0,1.432-0.014,2.67-0.037,3.719
		c0,1.276-0.027,2.437-0.077,3.483c-0.129,2.35-0.345,4.431-0.651,6.241c-0.715,4.088-2.132,7.635-4.251,10.647l1.991,1.457
		c2.195-3.369,3.652-7.316,4.366-11.834c0.332-1.992,0.548-4.314,0.652-6.972c0.074-1.148,0.111-2.438,0.111-3.868
		c0.027-1.174,0.041-2.579,0.041-4.211v-3.22l1.838-0.229l0.037,27.231l-0.979,0.172c0,0,0.148,1.016,0.271,1.814
		c0.778-0.137,4.161-1.177,4.969-1.585c0.132,0.669,0.269,1.237,0.375,2.165l1.838-0.612c0,0-1.68-6.168-2.089-7.55l-1.326,0.353
		c0.432,1.737,0.729,2.953,0.931,4.041c-0.678,0.313-1.49,0.581-1.882,0.654l0.039-26.951c0.845-0.128,1.57-0.255,2.183-0.381
		c0.101,7.07,0.318,12.254,0.65,15.548c0.563,6.153,1.775,11.236,3.64,15.242l1.913-1.265c-1.736-3.344-2.885-8.145-3.446-14.399
		C106.091,16.953,105.922,14.796,105.848,12.828L105.848,12.828z M85.97,14.668l1.952-0.575c-0.281-2.194-0.729-4.506-1.342-6.931
		l-1.839,0.573C85.228,9.931,85.636,12.243,85.97,14.668L85.97,14.668z M118.41,17.311v-2.223h-3.792
		c0.792-2.45,1.443-4.939,1.952-7.468l-2.104-0.689l-0.804,4.176c-0.333,1.531-0.667,2.859-0.997,3.981h-5.784v2.223h4.404v5.822
		h-3.599v2.26h3.599v9.573h2.338v-9.573h4.404v-2.26h-4.404v-5.822H118.41L118.41,17.311z"/>
	<g>
		
			<linearGradient id="SVGID_1_" gradientUnits="userSpaceOnUse" x1="840.124" y1="637.228" x2="840.124" y2="601.2261" gradientTransform="matrix(0 -1 1 0 -599.6353 858.1235)">
			<stop  offset="0" style="stop-color:#D71718"/>
			<stop  offset="1" style="stop-color:#D71718;stop-opacity:0.5"/>
		</linearGradient>
		<path opacity="0.6" fill="url(#SVGID_1_)" d="M1.59,9.38C1.59,24.081,13.511,36,28.21,36h9.382v-9.38
			C37.592,11.919,25.671,0,10.972,0H1.59V9.38z"/>
		<path opacity="0.5" fill="#D71718" d="M16.924,27.951c11.411,0,20.668-9.257,20.668-20.67V0h-7.283
			C18.894,0,9.64,9.253,9.64,20.666v7.285H16.924z"/>
	</g>
</g>
</svg>
