<?xml version="1.0" encoding="utf-8"?>
<!-- Generator: Adobe Illustrator 16.0.0, SVG Export Plug-In . SVG Version: 6.00 Build 0)  -->
<!DOCTYPE svg PUBLIC "-//W3C//DTD SVG 1.1//EN" "http://www.w3.org/Graphics/SVG/1.1/DTD/svg11.dtd">
<svg version="1.1" id="隔离模式" xmlns="http://www.w3.org/2000/svg" xmlns:xlink="http://www.w3.org/1999/xlink" x="0px"
	 y="0px" width="53px" height="53px" viewBox="0 0 53 53" enable-background="new 0 0 53 53" xml:space="preserve">
<linearGradient id="SVGID_1_" gradientUnits="userSpaceOnUse" x1="0.3838" y1="26.5" x2="52.6172" y2="26.5">
	<stop  offset="0" style="stop-color:#FF4686"/>
	<stop  offset="1" style="stop-color:#FF9EFD"/>
</linearGradient>
<circle fill="url(#SVGID_1_)" cx="26.5" cy="26.499" r="26.117"/>
<path fill="#FFFFFF" d="M37.696,21.844c-0.093-0.005-0.184,0.016-0.271,0.052l-9.408,4.879h-0.007
	c-0.403,0.236-0.655,0.667-0.661,1.134v9.852c0,0.338,0.296,0.608,0.671,0.608c0.113,0.002,0.222-0.024,0.323-0.073
	c0.012-0.006,0.022-0.012,0.026-0.018l9.258-4.911l0.017-0.005c0.434-0.236,0.724-0.672,0.724-1.17v-9.739
	C38.368,22.114,38.067,21.844,37.696,21.844z M37.008,19.215l-9.628-4.328c0,0-0.566-0.255-0.879-0.255
	c-0.312,0-0.875,0.255-0.875,0.255l-9.635,4.328c0,0-0.424,0.175-0.424,0.504c0,0.348,0.441,0.608,0.441,0.608l9.826,5.183
	c0.2,0.09,0.428,0.137,0.668,0.137c0.242,0,0.47-0.053,0.672-0.142l9.824-5.189c0,0,0.396-0.21,0.396-0.608
	C37.402,19.375,37.008,19.215,37.008,19.215L37.008,19.215z M24.991,26.775l-9.415-4.886c-0.086-0.034-0.179-0.053-0.27-0.053
	c-0.372,0-0.674,0.27-0.674,0.609v9.738c0,0.499,0.291,0.932,0.725,1.172l0.01,0.005l9.259,4.912c0.106,0.06,0.228,0.092,0.35,0.09
	c0.371,0,0.673-0.277,0.673-0.61V27.91C25.645,27.442,25.396,27.011,24.991,26.775L24.991,26.775z"/>
</svg>
